<svg xmlns="http://www.w3.org/2000/svg" width="87.911" height="87.911" viewBox="0 0 87.911 87.911">
  <g id="グループ_2613" data-name="グループ 2613" transform="translate(-712.609 -544.807)">
    <rect id="長方形_1635" data-name="長方形 1635" width="87.911" height="87.911" transform="translate(712.609 544.807)" fill="#00b446"/>
    <text id="動物_農業_環境" data-name="動物・農業・環境" transform="translate(720.07 611.23)" fill="#fff" font-size="9.062" font-family="HiraginoSans-W3, Hiragino Sans"><tspan x="0" y="0" letter-spacing="0.014em">動</tspan><tspan y="0">物・</tspan><tspan y="0" letter-spacing="0.022em">農</tspan><tspan y="0">業・</tspan><tspan y="0" letter-spacing="0.016em">環</tspan><tspan y="0">境</tspan></text>
    <path id="パス_4460" data-name="パス 4460" d="M447.637,235.352h0a.634.634,0,0,0,.9.128l10.936-8.467a.637.637,0,0,0,.112-.891c-3.322-4.286-5.829-7.537-5.829-7.537a1.094,1.094,0,0,0-2.051.218l-.545,1.212a2.614,2.614,0,0,1-2.834,1.418l-10.342-2.341a1.28,1.28,0,0,0-1.657,1.571l.781,4.642a3.278,3.278,0,0,0,2.341,2.456l5.786,1.247c1.1.24,1.08.407-.044.375l-3.228-.1c-1.129-.032-1.652.747-1.161,1.734a4.574,4.574,0,0,0,2.9,2.171l.715.132a5.943,5.943,0,0,1,3.22,2.032" transform="translate(297 337.002)" fill="#fff"/>
    <path id="パス_4461" data-name="パス 4461" d="M482.5,237.539c-.391-1.645-1.138-.847-1.449-.279a27.3,27.3,0,0,1-5.831,7.791.639.639,0,0,1-.914-.081c-2.414-3.01-7.4-9.419-11.864-15.166a.632.632,0,0,0-.888-.11l-11.071,8.567a.635.635,0,0,0-.128.865l1.023,1.462a.64.64,0,0,1,.077.583c-1.85,4.979-5.258,14.635-5.258,14.635a2.441,2.441,0,0,0,1.5,3.116,2.362,2.362,0,0,0,3.013-1.513l4.648-9.5a.633.633,0,0,1,1.087-.087l.789,1.122a.639.639,0,0,1-.013.741,3.969,3.969,0,0,0-.779,2.279l-.023,1.1h-.285c-5.315,0-5.61,5.905-.3,5.905h16.533c5.373,0,7.164-4.072,5.667-8.354a.636.636,0,0,1,.129-.651c2.2-2.338,5.783-7.137,4.337-12.423" transform="translate(297 337.002)" fill="#fff"/>
  </g>
</svg>
