<svg xmlns="http://www.w3.org/2000/svg" width="17.02" height="17.736" viewBox="0 0 17.02 17.736">
  <g id="グループ_2661" data-name="グループ 2661" transform="translate(19263.201 18327.41)">
    <path id="パス_4471" data-name="パス 4471" d="M136.308,235.324a.446.446,0,0,1-.194-.045l-.284-.137a14.3,14.3,0,0,1-7.872-15.068.447.447,0,0,1,.326-.367l7.889-2.105a.458.458,0,0,1,.16-.013.42.42,0,0,1,.108.013l7.889,2.105a.447.447,0,0,1,.327.366,14.3,14.3,0,0,1-7.872,15.068l-.284.137a.451.451,0,0,1-.194.045m-7.506-14.83a13.4,13.4,0,0,0,7.416,13.845l.09.043.09-.043a13.4,13.4,0,0,0,7.417-13.845l-7.507-2Z" transform="translate(-19391 -18544.998)" fill="#aeaeae"/>
    <path id="パス_4472" data-name="パス 4472" d="M141.348,231.529l-2.964,1.2.224-3.19-2.056-2.449,3.1-.773,1.694-2.712,1.694,2.712,3.1.773-2.056,2.449.224,3.19Z" transform="translate(-19396.039 -18548.461)" fill="#aeaeae"/>
  </g>
</svg>
