<svg xmlns="http://www.w3.org/2000/svg" width="114.074" height="114.074" viewBox="0 0 114.074 114.074">
  <g id="グループ_424" data-name="グループ 424" transform="translate(-556.043 -662.055)">
    <g id="グループ_421" data-name="グループ 421">
      <g id="長方形_286" data-name="長方形 286" transform="translate(556.043 662.055)" fill="#0080ff" stroke="#0080ff" stroke-miterlimit="10" stroke-width="1.133">
        <rect width="114.074" height="114.074" stroke="none"/>
        <rect x="0.567" y="0.567" width="112.941" height="112.941" fill="none"/>
      </g>
      <g id="グループ_420" data-name="グループ 420">
        <path id="パス_442" data-name="パス 442" d="M600.813,751.19h.913l.684-.558.8-1.227a1.285,1.285,0,0,1,0-1.339c.456-.558.456-1.45,1.026-1.9a14.7,14.7,0,0,1,1.6-1s1.482.112,1.938-.557-.684-1,.684-1.562a15.081,15.081,0,0,0,2.509-1.339l2.052-.67h1.027v-1l2.508-2.789a16.943,16.943,0,0,1,2.965.669c.684.335,1.589.223,2.106.67s1.543.111,2.113.557a5.965,5.965,0,0,0,2.052.67,3.343,3.343,0,0,1,1.14.558c.343.335,1.53.334,2.4,1v-1.227l.684-.67,1.141-1.227s-.457-.67,0-1-.229-1.228,0-1.674a2.345,2.345,0,0,0-.343-2.032c-.456-.757-.181-.98-.49-1.315a15.251,15.251,0,0,1-.992-1.45,4.209,4.209,0,0,1-.637-1.786c-.047-.892-.22-2.231-.248-2.677a12.1,12.1,0,0,1,.771-2.343s-.248-1.228-.523-2.12a3.024,3.024,0,0,1-.248-1.451,3.1,3.1,0,0,1,1.042-2.283.968.968,0,0,0,.22-.616.818.818,0,0,1,.649-.84,8.948,8.948,0,0,0,.876-.329,2.227,2.227,0,0,0,1.264-1.3.987.987,0,0,1,.483-.545c.8-.449,1.482-2.137,1.71-2.409a13.422,13.422,0,0,0,.8-1.387l1.255-1.022a7.5,7.5,0,0,1,1.368-1.057,4.563,4.563,0,0,1,2.167-.822,10.046,10.046,0,0,0,2.622,0c.57-.224,1.254.111,1.825,0a9.511,9.511,0,0,1,2.28-.079c.342.079,1.483-.157,1.825-.039a5.677,5.677,0,0,0,1.482-.034h1.14l1.368-.518s.913-.558,1.027-.892a6.971,6.971,0,0,0,0-1.562s-.355-1.562.05-2.12-.063-1.9,0-2.232.167-1.339.167-1.339V697.2l-.1-.115-3.547-1.012h-3.842l-1.775-1.88-1.477-1.3-2.66-5.014-.2-4.313s.1-.412-3.251-1.374-1.281-1.832-1.773-2.8.1-.962.591-1.446.591-.963,1.378-2.987.691-1.833.691-2.607,1.576-3.371,1.576-3.371l-3.843.578-.393.054c-.394.052-.789,1.586-.986,1.876s-.394,1.349-.788,1.734-1.577.29-1.577.29l-1.477-.387a16.436,16.436,0,0,1-.394-1.927c0-.386-.986-.651-.986-.651s-2.74,1.539-3.054,1.8a4.025,4.025,0,0,1-.394-.961l.591-1.735s-2.266-.1-3.251,0a8.771,8.771,0,0,0-2.956.892,3.671,3.671,0,0,1-2.463,0h-3.054s-4.828,4.216-5.124,4.216-1.97.579-2.364.579-4.433-.579-4.433-.579L597.7,680.94l.3,1.734.689,1.446s-.787,3.279-.985,3.568a33.659,33.659,0,0,1-2.956,2.024l.1,1.639,1.084,1.734a9.208,9.208,0,0,1-.887,1.544c-.3.29-.591,1.446-.887,1.735a14.8,14.8,0,0,1-1.674.963c-.3.192-1.084,1.253-1.478,1.445s-2.365.579-2.66.677a22.637,22.637,0,0,1-2.562,0l-2.365-.579-2.758-1.735-1.774-2.506a7.988,7.988,0,0,0-2.168,0c-.295.192-.689,1.349-1.478,2.217a7.148,7.148,0,0,1-2.757,1.638c-.592.191-.3,2.892-.3,2.892l2.956.194-.592.867s-.034.044-.092.114l3.147.886A5.975,5.975,0,0,1,578.979,705a3.292,3.292,0,0,0,.936,0l2.315,1.785h4.015c2.764,0,3.079,1.116,3.079,1.116l.394.711a47.219,47.219,0,0,0,5.222,5.49c.479.447,1.084-.176,2.069.385a9.752,9.752,0,0,1,2.164,2.171H601.5s-.228-1.616-.228-2.171,2.052-1.677,2.052-1.677a7.349,7.349,0,0,0,1.824-.732c.964-.431,1.369,0,1.369,0l1.6,2.409a6.351,6.351,0,0,1,.912,2.171,9.784,9.784,0,0,1-.912,2.555,9.279,9.279,0,0,1-1.824,2.969c-1.6,2.009-1.369.893-2.281,2.455s-5.017,3.347-5.017,3.347l-4.049,1.562-2.069.893a4.572,4.572,0,0,1-.952,2.008c-.684.67,0,1.092,0,1.092v2.032l-2.6,2.44a27.28,27.28,0,0,0,2.365,1.83l1.871,1.446,1.675,1.833-.295,2.41-.2,2.409a24.367,24.367,0,0,1,0,2.7,4.147,4.147,0,0,0,.428,1.5l4.16-.952Z" fill="none" stroke="#fff" stroke-linejoin="round" stroke-width="0.756"/>
        <path id="パス_443" data-name="パス 443" d="M609.468,713.577l-1.664.445.307.464a6.351,6.351,0,0,1,.912,2.171,9.784,9.784,0,0,1-.912,2.555,9.279,9.279,0,0,1-1.824,2.969c-1.6,2.009-1.369.893-2.281,2.455s-5.017,3.347-5.017,3.347l-4.049,1.562-2.069.893a4.572,4.572,0,0,1-.952,2.008c-.684.67,0,1.092,0,1.092v2.032l-2.6,2.44a27.28,27.28,0,0,0,2.365,1.83l1.871,1.446,1.675,1.833-.295,2.41-.2,2.409a24.367,24.367,0,0,1,0,2.7,4.147,4.147,0,0,0,.428,1.5l4.16-.952h2.4l.684-.558.8-1.227a1.285,1.285,0,0,1,0-1.339c.456-.558.456-1.45,1.026-1.9a14.6,14.6,0,0,1,1.6-1.005s1.482.112,1.938-.557-.684-1,.684-1.562a15.081,15.081,0,0,0,2.509-1.339l2.052-.67h1.027v-1l2.508-2.789a16.922,16.922,0,0,1,2.965.669c.684.335,1.589.223,2.106.67s1.543.111,2.113.557a5.965,5.965,0,0,0,2.052.67,3.343,3.343,0,0,1,1.14.558c.343.335,1.53.334,2.4,1v-1.227l.684-.67,1.141-1.227s-.457-.67,0-1-.229-1.228,0-1.674a2.345,2.345,0,0,0-.343-2.032c-.456-.757-.181-.98-.49-1.315a15.251,15.251,0,0,1-.992-1.45,4.209,4.209,0,0,1-.637-1.786c-.047-.892-.22-2.231-.247-2.677a12.042,12.042,0,0,1,.77-2.343s-.248-1.228-.523-2.12l-.005-.018-12.47-1.734Z" fill="#fff"/>
      </g>
    </g>
    <g id="グループ_423" data-name="グループ 423">
      <g id="グループ_422" data-name="グループ 422">
        <text id="筑後エリア" transform="translate(580.093 768.346)" fill="#fff" font-size="13" font-family="HiraginoSans-W3, Hiragino Sans"><tspan x="0" y="0">筑後エリア</tspan></text>
      </g>
    </g>
  </g>
</svg>
