<svg xmlns="http://www.w3.org/2000/svg" width="87.911" height="87.911" viewBox="0 0 87.911 87.911">
  <g id="グループ_2608" data-name="グループ 2608" transform="translate(-608.707 -440.904)">
    <rect id="長方形_1629" data-name="長方形 1629" width="87.911" height="87.911" transform="translate(608.707 440.904)" fill="#aad741"/>
    <text id="語学_外国語" data-name="語学・外国語" transform="translate(625.381 507.328)" fill="#fff" font-size="9.062" font-family="HiraginoSans-W3, Hiragino Sans"><tspan x="0" y="0" letter-spacing="0.004em">語</tspan><tspan y="0">学・</tspan><tspan y="0" letter-spacing="0.006em">外</tspan><tspan y="0" letter-spacing="0.01em">国</tspan><tspan y="0">語</tspan></text>
    <path id="パス_4455" data-name="パス 4455" d="M368.7,141.572h-2.786a22.713,22.713,0,0,0,.682-4.788h3.539a11.968,11.968,0,0,1-1.435,4.788m-2.062,2.752a12.068,12.068,0,0,1-2.772,2.076,15.04,15.04,0,0,0,1.4-2.781h2.01c-.206.241-.417.482-.643.705m-7.54-2.752v-4.788h5.467a20.451,20.451,0,0,1-.767,4.788Zm3.42,3.118a8.11,8.11,0,0,1-2.121,2.543,4.417,4.417,0,0,1-.993.563c-.1.011-.205.017-.306.023v-4.2h3.953c-.167.374-.343.737-.533,1.071m-3.42-14.74h4.692a20.448,20.448,0,0,1,.762,4.787H359.1Zm0-6.247c.1.008.2.014.306.026a4.379,4.379,0,0,1,.993.563,9.1,9.1,0,0,1,2.659,3.613H359.1Zm7.54,3.5c.226.223.437.461.643.705h-2.01a15.967,15.967,0,0,0-.971-2.078c-.139-.247-.292-.476-.439-.708a12.1,12.1,0,0,1,2.777,2.081m2.064,2.75a12.013,12.013,0,0,1,1.433,4.787h-3.526a22.632,22.632,0,0,0-.693-4.787ZM357.057,127.9H353.1c.167-.377.343-.737.532-1.07a8.106,8.106,0,0,1,2.121-2.543,4.406,4.406,0,0,1,.994-.563c.1-.012.2-.018.306-.026Zm0,6.832h-5.468a20.388,20.388,0,0,1,.771-4.787h4.7Zm0,6.835h-4.692a20.406,20.406,0,0,1-.762-4.788h5.454Zm0,6.247c-.1-.006-.205-.012-.306-.023a4.444,4.444,0,0,1-.994-.563,9.142,9.142,0,0,1-2.658-3.614h3.958Zm-7.541-3.495c-.226-.223-.436-.464-.642-.705h2.01a15.822,15.822,0,0,0,.971,2.076c.141.249.289.478.442.707a12.041,12.041,0,0,1-2.781-2.078m-2.061-2.752a11.948,11.948,0,0,1-1.432-4.788h3.522a22.6,22.6,0,0,0,.694,4.788Zm0-11.622h2.789a22.968,22.968,0,0,0-.682,4.787h-3.536a12.008,12.008,0,0,1,1.429-4.787m2.064-2.75a12.07,12.07,0,0,1,2.776-2.076,14.687,14.687,0,0,0-1.408,2.781h-2.01c.206-.244.416-.482.642-.705m8.563-6a14.565,14.565,0,1,0,14.565,14.565A14.566,14.566,0,0,0,358.079,121.2" transform="translate(297 337.002)" fill="#fff"/>
    <path id="パス_4456" data-name="パス 4456" d="M367.354,150.906A17.758,17.758,0,1,1,348.8,120.618l-.856-1.4a19.4,19.4,0,1,0,20.26,33.08Z" transform="translate(297 337.002)" fill="#fff"/>
    <path id="パス_4457" data-name="パス 4457" d="M354.747,119.665H362.4c.79,0,1.427-.266,1.427-1.056s-1.509-1.552-2.3-1.552h-1.58l-3.219-2.9c-.161-.179-.8-.062-.994-.062-.24,0-.187.384-.1.606l.94,2.352h-2.252L353.1,115.1a.777.777,0,0,0-1.351.524l-.019,1.438v.425c0,1.206,1.449,2.183,3.021,2.183" transform="translate(297 337.002)" fill="#fff"/>
  </g>
</svg>
