<svg xmlns="http://www.w3.org/2000/svg" width="87.911" height="87.911" viewBox="0 0 87.911 87.911">
  <g id="グループ_2609" data-name="グループ 2609" transform="translate(-297 -544.807)">
    <rect id="長方形_1637" data-name="長方形 1637" width="87.911" height="87.911" transform="translate(297 544.807)" fill="#50e191"/>
    <text id="スポーツ_健康" data-name="スポーツ・健康" transform="translate(309.895 611.23)" fill="#fff" font-size="9.062" font-family="HiraginoSans-W3, Hiragino Sans"><tspan x="0" y="0" letter-spacing="-0.043em">ス</tspan><tspan y="0" letter-spacing="-0.054em">ポ</tspan><tspan y="0" letter-spacing="-0.069em">ー</tspan><tspan y="0">ツ・</tspan><tspan y="0" letter-spacing="0.022em">健</tspan><tspan y="0">康</tspan></text>
    <path id="パス_4462" data-name="パス 4462" d="M33.656,228.144a4.083,4.083,0,1,0-4.08-4.084,4.079,4.079,0,0,0,4.08,4.084" transform="translate(297 337.002)" fill="#fff"/>
    <path id="パス_4463" data-name="パス 4463" d="M61.242,249.5,44.286,228.837l6.723-6.862a2.312,2.312,0,1,0-3.144-3.392l-21.076,18.56a2.312,2.312,0,1,0,3.148,3.388l7.358-5.511,3.867,3.958L38.1,242.82a3.861,3.861,0,0,0,.469,4.826l7.689,6.408a2.466,2.466,0,0,0,3.512-3.462l-6.295-5.565,3.691-3.65,10.388,11.385a2.462,2.462,0,0,0,3.691-3.26" transform="translate(297 337.002)" fill="#fff"/>
    <path id="パス_4464" data-name="パス 4464" d="M35.9,255.978a2.928,2.928,0,0,1-2.087.865,2.949,2.949,0,1,1,2.087-5.034,2.951,2.951,0,0,1,0,4.169m-2.087-7.3a5.2,5.2,0,1,0,3.691,1.524,5.173,5.173,0,0,0-3.691-1.524" transform="translate(297 337.002)" fill="#fff"/>
  </g>
</svg>
