<svg xmlns="http://www.w3.org/2000/svg" width="87.911" height="87.911" viewBox="0 0 87.911 87.911">
  <g id="グループ_2604" data-name="グループ 2604" transform="translate(-712.609 -440.904)">
    <rect id="長方形_1633" data-name="長方形 1633" width="87.911" height="87.911" transform="translate(712.609 440.904)" fill="#ff5400"/>
    <text id="音楽_デザイン_" data-name="音楽・デザイン・" transform="translate(722.174 507.328)" fill="#fff" font-size="9.062" font-family="HiraginoSans-W3, Hiragino Sans"><tspan x="0" y="0" letter-spacing="0.015em">音</tspan><tspan y="0">楽・</tspan><tspan y="0" letter-spacing="-0.03em">デ</tspan><tspan y="0" letter-spacing="-0.077em">ザ</tspan><tspan y="0" letter-spacing="-0.066em">イ</tspan><tspan y="0">ン・</tspan></text>
    <text id="芸術" transform="translate(747.43 519.588)" fill="#fff" font-size="9.062" font-family="HiraginoSans-W3, Hiragino Sans"><tspan x="0" y="0" letter-spacing="0.016em">芸</tspan><tspan y="0">術</tspan></text>
    <path id="パス_4459" data-name="パス 4459" d="M468.783,145.256A4.042,4.042,0,1,1,467.6,142.4a4.067,4.067,0,0,1,1.185,2.859m-9.708-23.865a3.185,3.185,0,1,1,3.537,2.8,3.2,3.2,0,0,1-3.537-2.8m-5.265,5.756a3.031,3.031,0,1,1,.691-4.232,3.029,3.029,0,0,1-.691,4.232m-5.5,18.138a2.73,2.73,0,1,1-.107-3.859,2.728,2.728,0,0,1,.107,3.859m-5.51-13.246a2.881,2.881,0,1,1,1.83,3.644,2.878,2.878,0,0,1-1.83-3.644m28.188-10.949a3.328,3.328,0,1,1-.981,2.36,3.359,3.359,0,0,1,.981-2.36m2.186,9.24c8.591-.76,10.361-4.8,7.831-8.591-4.544-6.808-14.584-9.487-24.712-6.412-12.748,3.875-21.183,15.656-18.838,26.313s14.58,16.156,27.329,12.281a29.23,29.23,0,0,0,13.629-8.773c1.365-1.579,1.838-6.479-4.483-6.227-6.733.267-7.668-7.98-.756-8.591" transform="translate(297 337.002)" fill="#fff"/>
  </g>
</svg>
