<svg xmlns="http://www.w3.org/2000/svg" width="26.035" height="11.83" viewBox="0 0 26.035 11.83">
  <g id="グループ_2305" data-name="グループ 2305" transform="translate(0 -5.242)">
    <g id="グループ_428" data-name="グループ 428" transform="translate(-0.001 5.243)">
      <path id="パス_446" data-name="パス 446" d="M428.627,353.336h.163l2.267,2.031v.919h-2.43ZM419,356.276l3.745-2.941h4.5v2.951H422.58Zm17.093.01h-1.8l-4.974-4.453H422.26l-5.669,4.453-4.671.913a1.14,1.14,0,0,0-1,1.132v3.509h3.125a3.211,3.211,0,0,1,6.422,0h7.811a3.211,3.211,0,0,1,6.422,0h2.256v-4.686a.868.868,0,0,0-.868-.868" transform="translate(-410.923 -351.833)" fill="#fec32d"/>
      <path id="パス_447" data-name="パス 447" d="M460.047,372.485a1.823,1.823,0,1,0,1.822,1.822,1.823,1.823,0,0,0-1.822-1.822" transform="translate(-439.478 -364.3)" fill="#fec32d"/>
      <path id="パス_448" data-name="パス 448" d="M424.135,372.485a1.823,1.823,0,1,0,1.822,1.822,1.823,1.823,0,0,0-1.822-1.822" transform="translate(-417.799 -364.3)" fill="#fec32d"/>
    </g>
  </g>
</svg>
