<svg xmlns="http://www.w3.org/2000/svg" width="87.911" height="87.911" viewBox="0 0 87.911 87.911">
  <g id="グループ_2602" data-name="グループ 2602" transform="translate(-608.707 -337.002)">
    <rect id="長方形_1625" data-name="長方形 1625" width="87.911" height="87.911" transform="translate(608.707 337.002)" fill="#ffa5a0"/>
    <text id="理容_美容_" data-name="理容・美容・" transform="translate(626.508 403.426)" fill="#fff" font-size="9.062" font-family="HiraginoSans-W3, Hiragino Sans"><tspan x="0" y="0" letter-spacing="0.008em">理</tspan><tspan y="0">容・</tspan><tspan y="0" letter-spacing="0.013em">美</tspan><tspan y="0">容・</tspan></text>
    <text id="メイク_エステ" data-name="メイク・エステ" transform="translate(622.441 415.686)" fill="#fff" font-size="9.062" font-family="HiraginoSans-W3, Hiragino Sans"><tspan x="0" y="0" letter-spacing="-0.058em">メ</tspan><tspan y="0" letter-spacing="-0.163em">イ</tspan><tspan y="0">ク・</tspan><tspan y="0" letter-spacing="-0.025em">エ</tspan><tspan y="0" letter-spacing="-0.082em">ス</tspan><tspan y="0">テ</tspan></text>
    <path id="パス_4449" data-name="パス 4449" d="M357.209,48.127a2.751,2.751,0,1,1,2.75-2.75,2.752,2.752,0,0,1-2.75,2.75m3.3-6.757a1.571,1.571,0,0,1-.018-.761,10.074,10.074,0,0,1,1.433-3.883,4.5,4.5,0,0,0-2.537-1.538l-.245-.031c-.426,1.113-1.089,2.6-1.572,3.967A2.189,2.189,0,0,1,357,40.1a5.808,5.808,0,0,1-1.224.386,5.1,5.1,0,1,0,5.056,1.32,1.2,1.2,0,0,1-.321-.436" transform="translate(297 337.002)" fill="#fff"/>
    <path id="パス_4450" data-name="パス 4450" d="M368.213,48.125a2.751,2.751,0,1,1,2.753-2.746,2.75,2.75,0,0,1-2.753,2.746m-5.5-15a.961.961,0,1,1,.96-.959.961.961,0,0,1-.96.959m9.566,15.3a5.087,5.087,0,0,0-2.639-7.946,5.831,5.831,0,0,1-1.218-.39,2.141,2.141,0,0,1-.572-.975c-.705-1.964-1.769-4.2-1.974-5.169,0,0-1.379-18.295-1.655-20.631s-.686-3.164-1.508-3.164-1.238.825-1.518,3.164-1.649,20.631-1.649,20.631,4.333.482,5.373,6.657a1.529,1.529,0,0,1-.011.758,1.175,1.175,0,0,1-.324.435,5.092,5.092,0,0,0,6.255,7.932,8.864,8.864,0,0,0,3.2,1.97l.826-1.515a6.831,6.831,0,0,1-2.582-1.757" transform="translate(297 337.002)" fill="#fff"/>
    <path id="パス_4451" data-name="パス 4451" d="M346.824,10.526h-9.275a1.089,1.089,0,0,0-1.085,1.086v2.17a.916.916,0,0,0,.914.915h6.645a1.564,1.564,0,1,1,0,3.128h-6.645a.914.914,0,0,0-.914.914V19.7a.914.914,0,0,0,.914.911h6.645a1.566,1.566,0,1,1,0,3.131h-6.645a.916.916,0,0,0-.914.915v.962a.915.915,0,0,0,.914.912h6.645a1.564,1.564,0,1,1,0,3.127h-6.645a.915.915,0,0,0-.914.912v.963a.916.916,0,0,0,.914.914h6.645a1.565,1.565,0,1,1,0,3.13h-6.645a.915.915,0,0,0-.914.912v.963a.915.915,0,0,0,.914.914h6.645a1.564,1.564,0,1,1,0,3.127h-6.645a.917.917,0,0,0-.914.916v.962a.916.916,0,0,0,.914.915h6.645a1.564,1.564,0,1,1,0,3.127h-6.645a.916.916,0,0,0-.914.915v1.919a1.087,1.087,0,0,0,1.085,1.088h9.275a2.838,2.838,0,0,0,2.834-2.83V13.36a2.839,2.839,0,0,0-2.834-2.834" transform="translate(297 337.002)" fill="#fff"/>
  </g>
</svg>
