<svg xmlns="http://www.w3.org/2000/svg" width="15.65" height="17.982" viewBox="0 0 15.65 17.982">
  <g id="グループ_2660" data-name="グループ 2660" transform="translate(19364.951 18327.035)">
    <path id="パス_4462" data-name="パス 4462" d="M31.359,223.546a1.785,1.785,0,1,0-1.783-1.785,1.783,1.783,0,0,0,1.783,1.785" transform="translate(-19392.986 -18546.133)" fill="#50e191"/>
    <path id="パス_4463" data-name="パス 4463" d="M41.429,231.747l-7.41-9.031,2.938-3a1.011,1.011,0,1,0-1.374-1.482l-9.211,8.111a1.011,1.011,0,1,0,1.376,1.481l3.216-2.408,1.69,1.73-1.34,1.679a1.687,1.687,0,0,0,.2,2.109l3.36,2.8a1.078,1.078,0,0,0,1.535-1.513l-2.751-2.432,1.613-1.6,4.54,4.976a1.076,1.076,0,0,0,1.613-1.425" transform="translate(-19391 -18544.998)" fill="#50e191"/>
    <path id="パス_4464" data-name="パス 4464" d="M31.789,251.871a1.28,1.28,0,0,1-.912.378,1.289,1.289,0,1,1,.912-2.2,1.29,1.29,0,0,1,0,1.822m-.912-3.189a2.274,2.274,0,1,0,1.613.666,2.261,2.261,0,0,0-1.613-.666" transform="translate(-19392.436 -18562.291)" fill="#50e191"/>
  </g>
</svg>
