<svg xmlns="http://www.w3.org/2000/svg" width="16.391" height="17.736" viewBox="0 0 16.391 17.736">
  <g id="グループ_2307" data-name="グループ 2307" transform="translate(-0.002 -2.693)">
    <g id="グループ_431" data-name="グループ 431" transform="translate(0.001 2.693)">
      <path id="パス_450" data-name="パス 450" d="M650.2,376.519a1.175,1.175,0,1,1,1.174-1.174,1.175,1.175,0,0,1-1.174,1.174m1.411-2.884a.666.666,0,0,1-.007-.325,4.3,4.3,0,0,1,.612-1.658,1.922,1.922,0,0,0-1.083-.657l-.1-.013c-.182.475-.465,1.11-.671,1.694a.927.927,0,0,1-.244.417,2.471,2.471,0,0,1-.522.165,2.176,2.176,0,1,0,2.158.564.519.519,0,0,1-.137-.186" transform="translate(-641.345 -360.311)" fill="#fea5a0"/>
      <path id="パス_451" data-name="パス 451" d="M659.158,362.193a1.175,1.175,0,1,1,1.175-1.173,1.174,1.174,0,0,1-1.175,1.173m-2.348-6.4a.41.41,0,1,1,.409-.409.411.411,0,0,1-.409.409m4.084,6.534a2.172,2.172,0,0,0-1.127-3.393,2.478,2.478,0,0,1-.52-.166.913.913,0,0,1-.244-.416c-.3-.838-.756-1.795-.843-2.207,0,0-.589-7.81-.707-8.807s-.293-1.351-.644-1.351-.529.352-.648,1.351-.7,8.807-.7,8.807,1.85.206,2.294,2.842a.655.655,0,0,1,0,.324.506.506,0,0,1-.138.186,2.174,2.174,0,0,0,2.67,3.386,3.784,3.784,0,0,0,1.364.841l.352-.646a2.914,2.914,0,0,1-1.1-.75" transform="translate(-645.605 -345.985)" fill="#fea5a0"/>
      <path id="パス_452" data-name="パス 452" d="M636.8,346.352h-3.96a.465.465,0,0,0-.463.463v.927a.391.391,0,0,0,.39.391H635.6a.668.668,0,1,1,0,1.335h-2.837a.39.39,0,0,0-.39.39v.411a.391.391,0,0,0,.39.389H635.6a.668.668,0,1,1,0,1.337h-2.837a.391.391,0,0,0-.39.39v.411a.391.391,0,0,0,.39.389H635.6a.668.668,0,1,1,0,1.335h-2.837a.391.391,0,0,0-.39.389v.411a.391.391,0,0,0,.39.391H635.6a.668.668,0,1,1,0,1.336h-2.837a.391.391,0,0,0-.39.389v.411a.391.391,0,0,0,.39.39H635.6a.668.668,0,1,1,0,1.335h-2.837a.391.391,0,0,0-.39.391v.411a.391.391,0,0,0,.39.39H635.6a.668.668,0,1,1,0,1.335h-2.837a.391.391,0,0,0-.39.39v.82a.464.464,0,0,0,.463.464h3.96a1.211,1.211,0,0,0,1.21-1.209v-15a1.212,1.212,0,0,0-1.21-1.21" transform="translate(-632.376 -346.195)" fill="#fea5a0"/>
    </g>
  </g>
</svg>
