<svg xmlns="http://www.w3.org/2000/svg" width="87.911" height="87.911" viewBox="0 0 87.911 87.911">
  <g id="グループ_2610" data-name="グループ 2610" transform="translate(-400.902 -544.764)">
    <rect id="長方形_1651" data-name="長方形 1651" width="87.911" height="87.911" transform="translate(400.902 544.764)" fill="#aeaeae"/>
    <text id="公務員" transform="translate(431.273 611.186)" fill="#fff" font-size="9.062" font-family="HiraginoSans-W3, Hiragino Sans"><tspan x="0" y="0" letter-spacing="0.014em">公</tspan><tspan y="0" letter-spacing="-0.016em">務</tspan><tspan y="0">員</tspan></text>
    <path id="パス_4471" data-name="パス 4471" d="M147.858,259.4a1.05,1.05,0,0,1-.457-.105l-.67-.323a33.7,33.7,0,0,1-18.555-35.519,1.054,1.054,0,0,1,.769-.864l18.6-4.963a1.078,1.078,0,0,1,.378-.03.988.988,0,0,1,.254.03l18.6,4.963a1.055,1.055,0,0,1,.77.863,33.7,33.7,0,0,1-18.555,35.519l-.669.324a1.062,1.062,0,0,1-.458.105m-17.694-34.958a31.587,31.587,0,0,0,17.482,32.635l.212.1.211-.1a31.586,31.586,0,0,0,17.483-32.635l-17.7-4.722Z" transform="translate(297 337.002)" fill="#fff"/>
    <path id="パス_4472" data-name="パス 4472" d="M147.858,242.285l-6.988,2.825.527-7.519-4.846-5.773L143.865,230l3.993-6.392L151.851,230l7.314,1.823-4.846,5.773.527,7.519Z" transform="translate(297 337.002)" fill="#fff"/>
  </g>
</svg>
