<svg xmlns="http://www.w3.org/2000/svg" width="87.911" height="87.911" viewBox="0 0 87.911 87.911">
  <g id="グループ_2603" data-name="グループ 2603" transform="translate(-712.609 -337.002)">
    <rect id="長方形_1639" data-name="長方形 1639" width="87.911" height="87.911" transform="translate(712.609 337.002)" fill="#ff923b"/>
    <text id="調理_製菓_" data-name="調理・製菓・" transform="translate(730.328 403.426)" fill="#fff" font-size="9.062" font-family="HiraginoSans-W3, Hiragino Sans"><tspan x="0" y="0" letter-spacing="0.013em">調</tspan><tspan y="0">理・</tspan><tspan y="0" letter-spacing="0.026em">製</tspan><tspan y="0">菓・</tspan></text>
    <text id="栄養" transform="translate(747.482 415.686)" fill="#fff" font-size="9.062" font-family="HiraginoSans-W3, Hiragino Sans"><tspan x="0" y="0" letter-spacing="0.003em">栄</tspan><tspan y="0">養</tspan></text>
    <path id="パス_4465" data-name="パス 4465" d="M488.751,13.693h-2.01c-1.606,0-2.6,1.8-2.6,4.019,0,0-.277,10.817-.317,14.728a2.708,2.708,0,0,0,.552,1.7c.449.673,1.628.863,2.1,1.139a1.033,1.033,0,0,1,.458.891v11.52c0,.56.328,1.014.733,1.014h1.081c.406,0,.734-.455.734-1.015V14.708c0-.56-.328-1.015-.734-1.015" transform="translate(297 337.002)" fill="#fff"/>
    <path id="パス_4466" data-name="パス 4466" d="M435.518,14.3l-.011,7.31a.65.65,0,0,1-.581.626h-.061a.646.646,0,0,1-.581-.584l-.289-7.368c-.006-.329-.076-.592-.321-.592h-.6c-.243,0-.312.261-.319.59l-.289,7.37a.646.646,0,0,1-.581.584h-.062a.649.649,0,0,1-.58-.624l-.011-7.313c0-.336-.2-.607-.449-.607h-.441c-.241,0-.439.256-.449.581l-.254,13.012c0,1.791.759,3.243,2.086,3.243h.4V47.923c0,.459.275.831.616.831h1.343c.34,0,.616-.372.616-.831V30.53h.4c1.328,0,2.087-1.453,2.087-3.245l-.254-13.009c-.01-.326-.209-.582-.45-.582h-.622c-.249,0-.345.272-.345.608" transform="translate(297 337.002)" fill="#fff"/>
    <path id="パス_4467" data-name="パス 4467" d="M460.3,18a13.2,13.2,0,1,0,13.2,13.2A13.218,13.218,0,0,0,460.3,18" transform="translate(297 337.002)" fill="#fff"/>
    <path id="パス_4468" data-name="パス 4468" d="M460.3,10.2a21,21,0,1,0,21,21,21,21,0,0,0-21-21m0,35.658A14.658,14.658,0,1,1,474.954,31.2,14.675,14.675,0,0,1,460.3,45.855" transform="translate(297 337.002)" fill="#fff"/>
  </g>
</svg>
