<svg xmlns="http://www.w3.org/2000/svg" width="852.889" height="103.248" viewBox="0 0 852.889 103.248">
  <g id="グループ_2600" data-name="グループ 2600" transform="translate(-86.888 -141.091)">
    <g id="グループ_355" data-name="グループ 355" transform="translate(1 -16.693)">
      <rect id="長方形_251" data-name="長方形 251" width="852.889" height="103.248" transform="translate(85.888 157.784)" fill="#002380"/>
    </g>
    <g id="グループ_488" data-name="グループ 488" transform="translate(-3 -8)">
      <g id="グループ_483" data-name="グループ 483">
        <text id="福岡の専門学校を探してみよう_" data-name="福岡の専門学校を探してみよう！" transform="translate(273.291 199.035)" fill="#fff" font-size="34.649" font-family="HiraginoSans-W3, Hiragino Sans" letter-spacing="0.15em"><tspan x="0" y="0">福岡の専門学校を探してみよう！</tspan></text>
        <text id="Search_for_a_school" data-name="Search for a school" transform="translate(444.321 233.683)" fill="#fff" font-size="19.19" font-family="Helvetica" letter-spacing="0.15em"><tspan x="0" y="0">Search for a school</tspan></text>
      </g>
      <g id="グループ_487" data-name="グループ 487">
        <g id="グループ_485" data-name="グループ 485">
          <path id="パス_538" data-name="パス 538" d="M222.334,181.6v-7.653a2.3,2.3,0,0,0-2.3-2.3H199.945a2.291,2.291,0,0,0-2.291,2.291V181.6H186.309a2.3,2.3,0,0,0-2.3,2.3v27.723a2.291,2.291,0,0,0,2.29,2.291H233.69a2.291,2.291,0,0,0,2.291-2.291V183.883A2.286,2.286,0,0,0,233.7,181.6Z" fill="none" stroke="#fff" stroke-miterlimit="10" stroke-width="2.631"/>
          <g id="グループ_484" data-name="グループ 484">
            <rect id="長方形_326" data-name="長方形 326" width="4.559" height="4.559" transform="translate(193.044 194.613)" fill="#fff" stroke="#fff" stroke-linejoin="round" stroke-width="1.754"/>
            <rect id="長方形_327" data-name="長方形 327" width="4.559" height="4.559" transform="translate(202.824 194.613)" fill="#fff" stroke="#fff" stroke-linejoin="round" stroke-width="1.754"/>
            <rect id="長方形_328" data-name="長方形 328" width="4.559" height="4.559" transform="translate(212.604 194.613)" fill="#fff" stroke="#fff" stroke-linejoin="round" stroke-width="1.754"/>
            <rect id="長方形_329" data-name="長方形 329" width="4.559" height="4.559" transform="translate(222.384 194.613)" fill="#fff" stroke="#fff" stroke-linejoin="round" stroke-width="1.754"/>
            <rect id="長方形_330" data-name="長方形 330" width="4.559" height="4.559" transform="translate(193.044 202.869)" fill="#fff" stroke="#fff" stroke-linejoin="round" stroke-width="1.754"/>
            <rect id="長方形_331" data-name="長方形 331" width="4.559" height="4.559" transform="translate(202.824 202.869)" fill="#fff" stroke="#fff" stroke-linejoin="round" stroke-width="1.754"/>
            <rect id="長方形_332" data-name="長方形 332" width="4.559" height="4.559" transform="translate(212.604 202.869)" fill="#fff" stroke="#fff" stroke-linejoin="round" stroke-width="1.754"/>
            <rect id="長方形_333" data-name="長方形 333" width="4.559" height="4.559" transform="translate(222.384 202.869)" fill="#fff" stroke="#fff" stroke-linejoin="round" stroke-width="1.754"/>
          </g>
          <circle id="楕円形_47" data-name="楕円形 47" cx="6.642" cy="6.642" r="6.642" transform="translate(203.352 176.883)" fill="none" stroke="#fff" stroke-miterlimit="10" stroke-width="1.754"/>
          <line id="線_176" data-name="線 176" y2="3.474" transform="translate(209.994 180.153)" fill="none" stroke="#fff" stroke-linecap="round" stroke-miterlimit="10" stroke-width="1.754"/>
          <line id="線_177" data-name="線 177" x1="3.474" transform="translate(210.035 183.627)" fill="none" stroke="#fff" stroke-linecap="round" stroke-miterlimit="10" stroke-width="1.754"/>
        </g>
        <g id="グループ_486" data-name="グループ 486">
          <line id="線_178" data-name="線 178" x2="9.339" y2="9.339" transform="translate(234.067 222.239)" fill="none" stroke="#fff" stroke-linecap="round" stroke-miterlimit="10" stroke-width="5.262"/>
          <circle id="楕円形_48" data-name="楕円形 48" cx="16.017" cy="16.017" r="16.017" transform="translate(203.364 222.714) rotate(-76.717)" fill="#002380" stroke="#fff" stroke-miterlimit="10" stroke-width="1.754"/>
        </g>
      </g>
      <line id="線_179" data-name="線 179" x2="596.442" transform="translate(268.058 210.557)" fill="none" stroke="#ff0" stroke-miterlimit="10" stroke-width="0.756"/>
    </g>
  </g>
</svg>
