<svg xmlns="http://www.w3.org/2000/svg" width="20.148" height="17.555" viewBox="0 0 20.148 17.555">
  <g id="グループ_2656" data-name="グループ 2656" transform="translate(19370.607 18430.936)">
    <path id="パス_4452" data-name="パス 4452" d="M25.676,117.369a1.653,1.653,0,1,0-1.653-1.653,1.653,1.653,0,0,0,1.653,1.653" transform="translate(-19393.078 -18544.998)" fill="#7873b4"/>
    <path id="パス_4453" data-name="パス 4453" d="M23.069,126.855v-2.642h.95v2.642l-.5.595Zm6.144,1.03a.8.8,0,0,0-.009-.1L31.673,126a.348.348,0,1,0-.408-.564l-2.474,1.8a.7.7,0,0,0-.3-.068H27.144l-.327-1.857c-.179-.936-.556-1.671-1.356-1.671h-3.4a1.858,1.858,0,0,0-1.674,1.671v5.558a.725.725,0,0,0,.724.724h.508l.276,4.74a.771.771,0,0,0,.772.771h1.543a.771.771,0,0,0,.771-.771l.362-9.387h.021l.207.918a.9.9,0,0,0,.886.756h2.031a.725.725,0,0,0,.723-.726" transform="translate(-19391 -18550.475)" fill="#7873b4"/>
    <path id="パス_4454" data-name="パス 4454" d="M37.911,115.4v6.038h.951v-5.09h10.76v9.075H38.862v-1.145h-.951v2.093H50.57V115.4Z" transform="translate(-19401.029 -18545.762)" fill="#7873b4"/>
  </g>
</svg>
