<svg xmlns="http://www.w3.org/2000/svg" width="87.911" height="87.911" viewBox="0 0 87.911 87.911">
  <g id="グループ_2599" data-name="グループ 2599" transform="translate(-289 -461)">
    <rect id="長方形_1621" data-name="長方形 1621" width="87.911" height="87.911" transform="translate(289 461)" fill="#37bed2"/>
    <path id="パス_4444" data-name="パス 4444" d="M24.381,14.042H63.129V35.977H24.381Zm-1.523,26.5h41.8a2.894,2.894,0,0,0,2.891-2.891v-24.6a2.9,2.9,0,0,0-2.891-2.9h-41.8a2.892,2.892,0,0,0-2.887,2.9v24.6a2.891,2.891,0,0,0,2.887,2.891" transform="translate(289 461.002)" fill="#fff"/>
    <path id="パス_4445" data-name="パス 4445" d="M37.848,49.1l1.493-2.018h9.446L50.28,49.1Zm33.056-.54-5.152-4.575a2.02,2.02,0,0,0-1.314-.459H23.08a2.011,2.011,0,0,0-1.312.459l-5.153,4.575a1.178,1.178,0,0,0-.429.882v1.6a.79.79,0,0,0,.866.673H70.468a.794.794,0,0,0,.865-.673v-1.6a1.2,1.2,0,0,0-.429-.882" transform="translate(289 461.002)" fill="#fff"/>
    <text id="コンピュータ_" data-name="コンピュータ・" transform="translate(304.09 527.426)" fill="#fff" font-size="9.062" font-family="HiraginoSans-W3, Hiragino Sans"><tspan x="0" y="0" letter-spacing="-0.077em">コ</tspan><tspan y="0" letter-spacing="-0.064em">ン</tspan><tspan y="0" letter-spacing="-0.089em">ピ</tspan><tspan y="0" letter-spacing="-0.115em">ュ</tspan><tspan y="0" letter-spacing="-0.033em">ー</tspan><tspan y="0">タ・</tspan></text>
    <text id="ゲーム" transform="translate(319.912 539.686)" fill="#fff" font-size="9.062" font-family="HiraginoSans-W3, Hiragino Sans"><tspan x="0" y="0" letter-spacing="-0.034em">ゲ</tspan><tspan y="0" letter-spacing="-0.087em">ー</tspan><tspan y="0">ム</tspan></text>
  </g>
</svg>
