<svg xmlns="http://www.w3.org/2000/svg" width="114.074" height="114.074" viewBox="0 0 114.074 114.074">
  <g id="グループ_2614" data-name="グループ 2614" transform="translate(-687.109 -663.055)">
    <g id="長方形_285" data-name="長方形 285" transform="translate(687.109 663.055)" fill="none" stroke="#0080ff" stroke-miterlimit="10" stroke-width="1.133">
      <rect width="114.074" height="114.074" stroke="none"/>
      <rect x="0.567" y="0.567" width="112.941" height="112.941" fill="none"/>
    </g>
    <g id="グループ_415" data-name="グループ 415" transform="translate(1 1)">
      <path id="パス_440" data-name="パス 440" d="M730.879,751.19h.912l.684-.558.8-1.227a1.285,1.285,0,0,1,0-1.339c.456-.558.456-1.45,1.026-1.9a14.722,14.722,0,0,1,1.6-1s1.483.112,1.938-.557-.684-1,.685-1.562a15.1,15.1,0,0,0,2.508-1.339l2.053-.67h1.026v-1l2.509-2.789a16.917,16.917,0,0,1,2.964.669c.685.335,1.59.223,2.106.67s1.543.111,2.113.557a5.969,5.969,0,0,0,2.053.67,3.344,3.344,0,0,1,1.14.558c.342.335,1.53.334,2.395,1v-1.227l.684-.67,1.14-1.227s-.456-.67,0-1-.228-1.228,0-1.674a2.341,2.341,0,0,0-.342-2.032c-.456-.757-.182-.98-.49-1.315a15.251,15.251,0,0,1-.992-1.45,4.209,4.209,0,0,1-.637-1.786c-.047-.892-.22-2.231-.248-2.677a12.034,12.034,0,0,1,.771-2.343s-.248-1.228-.523-2.12a3.014,3.014,0,0,1-.249-1.451,3.1,3.1,0,0,1,1.042-2.283.963.963,0,0,0,.221-.616.816.816,0,0,1,.649-.84,8.928,8.928,0,0,0,.875-.329,2.229,2.229,0,0,0,1.265-1.3.985.985,0,0,1,.482-.545c.8-.449,1.483-2.137,1.711-2.409a13.414,13.414,0,0,0,.8-1.387l1.254-1.022a7.485,7.485,0,0,1,1.369-1.057,4.561,4.561,0,0,1,2.166-.822,10.054,10.054,0,0,0,2.623,0c.57-.224,1.254.111,1.824,0a9.519,9.519,0,0,1,2.281-.079c.342.079,1.482-.157,1.824-.039a5.685,5.685,0,0,0,1.483-.034h1.14l1.368-.518s.912-.558,1.027-.892a7.031,7.031,0,0,0,0-1.562s-.355-1.562.05-2.12-.063-1.9,0-2.232.167-1.339.167-1.339V697.2l-.1-.115-3.547-1.012h-3.842l-1.774-1.88-1.477-1.3-2.661-5.014-.2-4.313s.1-.412-3.252-1.374-1.28-1.832-1.773-2.8.1-.962.591-1.446.591-.963,1.379-2.987.69-1.833.69-2.607,1.576-3.371,1.576-3.371l-3.842.578-.394.054c-.394.052-.789,1.586-.986,1.876s-.394,1.349-.788,1.734-1.576.29-1.576.29l-1.478-.387a16.436,16.436,0,0,1-.394-1.927c0-.386-.985-.651-.985-.651s-2.74,1.539-3.054,1.8a4.034,4.034,0,0,1-.4-.961l.591-1.735s-2.265-.1-3.251,0a8.773,8.773,0,0,0-2.955.892,3.671,3.671,0,0,1-2.463,0H744.71s-4.828,4.216-5.124,4.216-1.97.579-2.365.579-4.432-.579-4.432-.579l-5.026,6.172.3,1.734.69,1.446s-.788,3.279-.986,3.568a33.512,33.512,0,0,1-2.955,2.024l.1,1.639,1.084,1.734a9.139,9.139,0,0,1-.887,1.544c-.3.29-.591,1.446-.886,1.735a14.9,14.9,0,0,1-1.675.963c-.3.192-1.084,1.253-1.478,1.445s-2.364.579-2.66.677a22.619,22.619,0,0,1-2.561,0l-2.365-.579-2.758-1.735-1.774-2.506a7.987,7.987,0,0,0-2.168,0c-.3.192-.689,1.349-1.478,2.217a7.151,7.151,0,0,1-2.758,1.638c-.591.191-.3,2.892-.3,2.892l2.956.194-.591.867-.092.114,3.146.886a5.969,5.969,0,0,1,1.38,1.562,3.293,3.293,0,0,0,.936,0l2.315,1.785h4.015c2.764,0,3.079,1.116,3.079,1.116l.394.711a47.134,47.134,0,0,0,5.221,5.49c.479.447,1.085-.176,2.069.385a9.741,9.741,0,0,1,2.165,2.171h2.324s-.228-1.616-.228-2.171,2.053-1.677,2.053-1.677a7.349,7.349,0,0,0,1.824-.732c.963-.431,1.368,0,1.368,0l1.6,2.409a6.351,6.351,0,0,1,.912,2.171,9.784,9.784,0,0,1-.912,2.555,9.274,9.274,0,0,1-1.825,2.969c-1.6,2.009-1.368.893-2.28,2.455s-5.017,3.347-5.017,3.347l-4.05,1.562-2.069.893a4.578,4.578,0,0,1-.951,2.008c-.684.67,0,1.092,0,1.092v2.032l-2.595,2.44a27.273,27.273,0,0,0,2.364,1.83l1.872,1.446,1.675,1.833-.3,2.41-.2,2.409a24.367,24.367,0,0,1,0,2.7,4.176,4.176,0,0,0,.429,1.5l4.16-.952Z" fill="none" stroke="#0080ff" stroke-linejoin="round" stroke-width="0.756"/>
      <path id="パス_441" data-name="パス 441" d="M761.142,690.316l-3.486-.9-1.032-3.61-1.248-1.245-2.038,1.217-2.481-.431-2.663-3.137-3.254-.34-6.257,5.6-.6,7.277L743.7,708.2l13.007,3.131,6.9,2.637a21.834,21.834,0,0,0,1.144-1.889,13.414,13.414,0,0,0,.8-1.387l1.254-1.022.062-.061Z" fill="#0080ff"/>
    </g>
    <g id="グループ_417" data-name="グループ 417" transform="translate(1 1)">
      <text id="筑豊エリア" transform="translate(710.158 768.346)" fill="#0080ff" font-size="13" font-family="HiraginoSans-W3, Hiragino Sans"><tspan x="0" y="0">筑豊エリア</tspan></text>
    </g>
  </g>
</svg>
