<svg xmlns="http://www.w3.org/2000/svg" width="19.42" height="17.736" viewBox="0 0 19.42 17.736">
  <path id="パス_4459" data-name="パス 4459" d="M450.753,127.524a1.745,1.745,0,1,1-.511-1.234,1.755,1.755,0,0,1,.511,1.234m-4.19-10.3a1.374,1.374,0,1,1,1.526,1.207,1.38,1.38,0,0,1-1.526-1.207m-2.272,2.484a1.308,1.308,0,1,1,.3-1.826,1.307,1.307,0,0,1-.3,1.826m-2.373,7.828a1.178,1.178,0,1,1-.046-1.665,1.177,1.177,0,0,1,.046,1.665m-2.378-5.716a1.243,1.243,0,1,1,.79,1.573,1.242,1.242,0,0,1-.79-1.573m12.165-4.725a1.436,1.436,0,1,1-.423,1.018,1.449,1.449,0,0,1,.423-1.018m.943,3.988c3.707-.328,4.471-2.072,3.379-3.707-1.961-2.938-6.294-4.094-10.665-2.767-5.5,1.672-9.142,6.756-8.13,11.355s6.292,6.972,11.794,5.3a12.614,12.614,0,0,0,5.882-3.786c.589-.681.793-2.8-1.935-2.687-2.906.115-3.309-3.444-.326-3.707" transform="translate(-437.064 -114.063)" fill="#fd541e"/>
</svg>
