<svg xmlns="http://www.w3.org/2000/svg" width="87.911" height="87.911" viewBox="0 0 87.911 87.911">
  <g id="グループ_2611" data-name="グループ 2611" transform="translate(-504.805 -544.807)">
    <rect id="長方形_1631" data-name="長方形 1631" width="87.911" height="87.911" transform="translate(504.805 544.807)" fill="#ff49a0"/>
    <text id="ファッション" transform="translate(523.945 611.23)" fill="#fff" font-size="9.062" font-family="HiraginoSans-W3, Hiragino Sans"><tspan x="0" y="0" letter-spacing="-0.1em">フ</tspan><tspan y="0" letter-spacing="-0.103em">ァ</tspan><tspan y="0" letter-spacing="-0.085em">ッ</tspan><tspan y="0" letter-spacing="-0.1em">シ</tspan><tspan y="0" letter-spacing="-0.135em">ョ</tspan><tspan y="0">ン</tspan></text>
    <path id="パス_4458" data-name="パス 4458" d="M269.85,256.18,260.8,238.414a6.6,6.6,0,0,1-.409-5.008l1.4-4.411a1.537,1.537,0,0,1,1.451-1.08l2.774-.035a1.546,1.546,0,0,0,1.463-1.107l1.4-4.736a1.542,1.542,0,0,0-1.008-1.914l-5.827-1.851a6.421,6.421,0,0,0-5.723.938l-4.555,3.347-4.58-3.356a6.368,6.368,0,0,0-5.694-.941l-5.969,1.87a1.551,1.551,0,0,0-1.018,1.913l1.4,4.73a1.54,1.54,0,0,0,1.456,1.107l2.916.035a1.53,1.53,0,0,1,1.448,1.08l1.41,4.411a6.617,6.617,0,0,1-.41,5.008l-9.052,17.766a1.978,1.978,0,0,0,1.76,2.884h32.647a1.98,1.98,0,0,0,1.769-2.884" transform="translate(297 337.002)" fill="#fff"/>
  </g>
</svg>
