<svg xmlns="http://www.w3.org/2000/svg" width="23.301" height="17.553" viewBox="0 0 23.301 17.553">
  <g id="グループ_2304" data-name="グループ 2304" transform="translate(-0.002 -2.693)">
    <g id="グループ_426" data-name="グループ 426" transform="translate(0.001 2.693)">
      <path id="パス_444" data-name="パス 444" d="M317.746,347.626h16.372v9.268H317.746Zm-.644,11.2h17.663a1.223,1.223,0,0,0,1.222-1.222V347.209a1.224,1.224,0,0,0-1.222-1.224H317.1a1.222,1.222,0,0,0-1.22,1.224V357.6a1.222,1.222,0,0,0,1.22,1.222" transform="translate(-314.284 -345.985)" fill="#37bed2"/>
      <path id="パス_445" data-name="パス 445" d="M321.251,381.7l.631-.853h3.991l.631.853Zm13.967-.228-2.177-1.933a.853.853,0,0,0-.555-.194H315.011a.849.849,0,0,0-.554.194l-2.177,1.933a.5.5,0,0,0-.181.373v.674a.333.333,0,0,0,.366.284h22.569a.335.335,0,0,0,.365-.284v-.674a.505.505,0,0,0-.181-.373" transform="translate(-312.098 -365.251)" fill="#37bed2"/>
    </g>
  </g>
</svg>
