<svg xmlns="http://www.w3.org/2000/svg" width="31.259" height="40.713" viewBox="0 0 31.259 40.713">
  <g id="グループ_397" data-name="グループ 397" transform="translate(-185.17 -804.029)">
    <path id="パス_428" data-name="パス 428" d="M209.265,828.228h-3.642l-3.282,5.425L208.2,843.8a1.111,1.111,0,0,0,1.518.407l1.554-4.149,3.945.975a1.249,1.249,0,0,0,.457-1.705Z" fill="#abcbe6" stroke="#0080ff" stroke-miterlimit="10" stroke-width="0.756"/>
    <path id="パス_429" data-name="パス 429" d="M192.334,828.228l-6.411,11.1a1.248,1.248,0,0,0,.457,1.705l4.373-.975,1.125,4.149a1.11,1.11,0,0,0,1.518-.407l8.993-15.576Z" fill="#abcbe6" stroke="#0080ff" stroke-miterlimit="10" stroke-width="0.756"/>
    <path id="パス_430" data-name="パス 430" d="M200,834.571l-2.181-1.787a1.261,1.261,0,0,0-1-.268l-2.782.456a1.261,1.261,0,0,1-1.383-.8l-1-2.637a1.26,1.26,0,0,0-.734-.734l-2.637-1a1.261,1.261,0,0,1-.8-1.383l.456-2.782a1.261,1.261,0,0,0-.268-1l-1.786-2.18a1.26,1.26,0,0,1,0-1.6l1.786-2.181a1.26,1.26,0,0,0,.268-1l-.456-2.781a1.261,1.261,0,0,1,.8-1.384l2.637-1a1.257,1.257,0,0,0,.734-.734l1-2.637a1.261,1.261,0,0,1,1.383-.8l2.782.457a1.265,1.265,0,0,0,1-.269L200,804.747a1.259,1.259,0,0,1,1.6,0l2.181,1.786a1.265,1.265,0,0,0,1,.269l2.782-.457a1.261,1.261,0,0,1,1.383.8l1,2.637a1.257,1.257,0,0,0,.734.734l2.637,1a1.261,1.261,0,0,1,.8,1.384l-.457,2.781a1.264,1.264,0,0,0,.269,1l1.786,2.181a1.26,1.26,0,0,1,0,1.6l-1.786,2.18a1.265,1.265,0,0,0-.269,1l.457,2.782a1.261,1.261,0,0,1-.8,1.383l-2.637,1a1.26,1.26,0,0,0-.734.734l-1,2.637a1.261,1.261,0,0,1-1.383.8l-2.782-.456a1.261,1.261,0,0,0-1,.268l-2.181,1.787A1.261,1.261,0,0,1,200,834.571Z" fill="#fff" stroke="#0080ff" stroke-miterlimit="10" stroke-width="0.756"/>
    <path id="パス_431" data-name="パス 431" d="M192.913,814.627a9.355,9.355,0,1,1-1.466,5.2,9.345,9.345,0,0,1,1.466-5.2" fill="none" stroke="#0080ff" stroke-miterlimit="10" stroke-width="0.756"/>
  </g>
</svg>
