<svg xmlns="http://www.w3.org/2000/svg" width="87.911" height="87.911" viewBox="0 0 87.911 87.911">
  <g id="グループ_2606" data-name="グループ 2606" transform="translate(-400.902 -440.904)">
    <rect id="長方形_1653" data-name="長方形 1653" width="87.911" height="87.911" transform="translate(400.902 440.904)" fill="#50c3ff"/>
    <text id="経理_秘書_不動産" data-name="経理・秘書・不動産" transform="translate(403.908 507.328)" fill="#fff" font-size="9.062" font-family="HiraginoSans-W3, Hiragino Sans"><tspan x="0" y="0" letter-spacing="0.018em">経</tspan><tspan y="0">理・</tspan><tspan y="0" letter-spacing="0.012em">秘</tspan><tspan y="0">書・</tspan><tspan y="0" letter-spacing="0.003em">不</tspan><tspan y="0" letter-spacing="0.002em">動</tspan><tspan y="0">産</tspan></text>
    <text id="医療事務_ビジネス" data-name="医療事務・ビジネス" transform="translate(404.66 519.588)" fill="#fff" font-size="9.062" font-family="HiraginoSans-W3, Hiragino Sans"><tspan x="0" y="0" letter-spacing="0.005em">医</tspan><tspan y="0" letter-spacing="0.007em">療</tspan><tspan y="0" letter-spacing="0.022em">事</tspan><tspan y="0">務・</tspan><tspan y="0" letter-spacing="-0.055em">ビ</tspan><tspan y="0" letter-spacing="-0.056em">ジ</tspan><tspan y="0" letter-spacing="-0.052em">ネ</tspan><tspan y="0">ス</tspan></text>
    <path id="パス_4473" data-name="パス 4473" d="M159.788,156.181H135.929a5.363,5.363,0,0,1-5.357-5.357V119.49a5.362,5.362,0,0,1,5.355-5.356h23.859a5.364,5.364,0,0,1,5.358,5.356v31.336a5.362,5.362,0,0,1-5.356,5.355M135.927,116.26a3.233,3.233,0,0,0-3.229,3.23v31.334a3.234,3.234,0,0,0,3.231,3.231h23.859a3.232,3.232,0,0,0,3.229-3.229V119.49a3.234,3.234,0,0,0-3.231-3.23Z" transform="translate(297 337.002)" fill="#fff"/>
    <path id="長方形_1655" data-name="長方形 1655" d="M1.156,0H20.923a1.156,1.156,0,0,1,1.156,1.156V5.735a1.157,1.157,0,0,1-1.157,1.157H1.157A1.157,1.157,0,0,1,0,5.735V1.156A1.156,1.156,0,0,1,1.156,0Z" transform="translate(433.818 456.313)" fill="#fff"/>
    <rect id="長方形_1656" data-name="長方形 1656" width="5.231" height="5.23" transform="translate(433.814 466.342)" fill="#fff"/>
    <rect id="長方形_1657" data-name="長方形 1657" width="5.23" height="5.23" transform="translate(442.242 466.342)" fill="#fff"/>
    <rect id="長方形_1658" data-name="長方形 1658" width="5.23" height="5.23" transform="translate(450.67 466.342)" fill="#fff"/>
    <rect id="長方形_1659" data-name="長方形 1659" width="5.231" height="5.232" transform="translate(433.814 474.477)" fill="#fff"/>
    <rect id="長方形_1660" data-name="長方形 1660" width="5.23" height="5.232" transform="translate(442.242 474.477)" fill="#fff"/>
    <rect id="長方形_1661" data-name="長方形 1661" width="5.23" height="5.232" transform="translate(450.67 474.477)" fill="#fff"/>
    <rect id="長方形_1662" data-name="長方形 1662" width="5.231" height="5.23" transform="translate(433.814 482.615)" fill="#fff"/>
    <rect id="長方形_1663" data-name="長方形 1663" width="5.23" height="5.23" transform="translate(442.242 482.615)" fill="#fff"/>
    <rect id="長方形_1664" data-name="長方形 1664" width="5.23" height="5.23" transform="translate(450.67 482.615)" fill="#fff"/>
  </g>
</svg>
