<svg xmlns="http://www.w3.org/2000/svg" width="115.074" height="115.074" viewBox="0 0 115.074 115.074">
  <g id="グループ_409" data-name="グループ 409" transform="translate(-425.478 -661.555)">
    <g id="グループ_406" data-name="グループ 406">
      <rect id="長方形_283" data-name="長方形 283" width="114.074" height="114.074" transform="translate(425.978 662.055)" fill="#fff" stroke="#0080ff" stroke-width="1"/>
      <g id="グループ_405" data-name="グループ 405">
        <path id="パス_436" data-name="パス 436" d="M470.748,751.19h.912l.684-.558.8-1.227a1.285,1.285,0,0,1,0-1.339c.456-.558.456-1.45,1.027-1.9a14.722,14.722,0,0,1,1.6-1s1.482.112,1.938-.557-.684-1,.685-1.562a15.1,15.1,0,0,0,2.508-1.339l2.053-.67h1.026v-1l2.509-2.789a16.917,16.917,0,0,1,2.964.669c.684.335,1.589.223,2.106.67s1.543.111,2.113.557a5.969,5.969,0,0,0,2.053.67,3.343,3.343,0,0,1,1.14.558c.342.335,1.53.334,2.394,1v-1.227l.685-.67,1.14-1.227s-.456-.67,0-1-.228-1.228,0-1.674a2.341,2.341,0,0,0-.342-2.032c-.456-.757-.182-.98-.49-1.315a15.306,15.306,0,0,1-.993-1.45,4.224,4.224,0,0,1-.637-1.786c-.047-.892-.219-2.231-.247-2.677a12.032,12.032,0,0,1,.771-2.343s-.248-1.228-.524-2.12a3.024,3.024,0,0,1-.248-1.451,3.1,3.1,0,0,1,1.042-2.283.969.969,0,0,0,.221-.616.816.816,0,0,1,.649-.84,8.931,8.931,0,0,0,.875-.329,2.229,2.229,0,0,0,1.265-1.3.985.985,0,0,1,.482-.545c.8-.449,1.482-2.137,1.711-2.409a13.416,13.416,0,0,0,.8-1.387l1.254-1.022a7.5,7.5,0,0,1,1.368-1.057,4.566,4.566,0,0,1,2.167-.822,10.054,10.054,0,0,0,2.623,0c.57-.224,1.254.111,1.824,0a9.512,9.512,0,0,1,2.28-.079c.343.079,1.483-.157,1.825-.039a5.685,5.685,0,0,0,1.483-.034h1.14l1.368-.518s.912-.558,1.026-.892a6.975,6.975,0,0,0,0-1.562s-.355-1.562.051-2.12-.063-1.9,0-2.232.167-1.339.167-1.339V697.2l-.1-.115-3.547-1.012H516.5l-1.774-1.88-1.478-1.3-2.66-5.014-.2-4.313s.1-.412-3.252-1.374-1.281-1.832-1.773-2.8.1-.962.591-1.446.591-.963,1.379-2.987.69-1.833.69-2.607,1.576-3.371,1.576-3.371l-3.843.578-.393.054c-.394.052-.789,1.586-.986,1.876s-.394,1.349-.788,1.734-1.576.29-1.576.29l-1.478-.387a16.435,16.435,0,0,1-.394-1.927c0-.386-.986-.651-.986-.651s-2.74,1.539-3.054,1.8a4.068,4.068,0,0,1-.394-.961l.591-1.735s-2.265-.1-3.251,0a8.773,8.773,0,0,0-2.955.892,3.671,3.671,0,0,1-2.463,0h-3.054s-4.828,4.216-5.124,4.216-1.97.579-2.365.579-4.433-.579-4.433-.579l-5.025,6.172.3,1.734.69,1.446s-.788,3.279-.986,3.568a33.507,33.507,0,0,1-2.955,2.024l.1,1.639,1.084,1.734a9.136,9.136,0,0,1-.887,1.544c-.295.29-.591,1.446-.886,1.735a14.9,14.9,0,0,1-1.675.963c-.3.192-1.084,1.253-1.478,1.445s-2.365.579-2.66.677a22.637,22.637,0,0,1-2.562,0l-2.364-.579-2.759-1.735-1.773-2.506a7.987,7.987,0,0,0-2.168,0c-.3.192-.689,1.349-1.478,2.217a7.151,7.151,0,0,1-2.758,1.638c-.592.191-.3,2.892-.3,2.892l2.956.194-.591.867s-.035.044-.093.114l3.147.886a5.969,5.969,0,0,1,1.38,1.562,3.285,3.285,0,0,0,.935,0l2.316,1.785h4.015c2.763,0,3.078,1.116,3.078,1.116l.4.711a47.132,47.132,0,0,0,5.221,5.49c.479.447,1.085-.176,2.069.385a9.741,9.741,0,0,1,2.165,2.171h2.324s-.228-1.616-.228-2.171,2.052-1.677,2.052-1.677a7.331,7.331,0,0,0,1.825-.732c.963-.431,1.368,0,1.368,0l1.6,2.409a6.351,6.351,0,0,1,.912,2.171,9.784,9.784,0,0,1-.912,2.555,9.3,9.3,0,0,1-1.825,2.969c-1.6,2.009-1.368.893-2.28,2.455s-5.018,3.347-5.018,3.347l-4.049,1.562-2.069.893a4.579,4.579,0,0,1-.951,2.008c-.684.67,0,1.092,0,1.092v2.032l-2.6,2.44a27.425,27.425,0,0,0,2.365,1.83l1.872,1.446,1.674,1.833-.3,2.41-.2,2.409a24.374,24.374,0,0,1,0,2.7,4.167,4.167,0,0,0,.428,1.5l4.16-.952Z" fill="none" stroke="#0080ff" stroke-linejoin="round" stroke-width="0.756"/>
        <path id="パス_437" data-name="パス 437" d="M523.889,697.087l-3.547-1.012H516.5l-1.774-1.88-1.478-1.3-2.66-5.014-.2-4.313s.1-.412-3.252-1.374-1.281-1.832-1.773-2.8.1-.962.591-1.446.591-.963,1.379-2.987.69-1.833.69-2.607,1.576-3.371,1.576-3.371l-3.843.578-.393.054c-.394.052-.789,1.586-.986,1.876s-.394,1.349-.788,1.734-1.576.29-1.576.29l-1.478-.387a16.435,16.435,0,0,1-.394-1.927c0-.386-.986-.651-.986-.651s-2.74,1.539-3.054,1.8a4.068,4.068,0,0,1-.394-.961l.591-1.735s-2.265-.1-3.251,0a8.773,8.773,0,0,0-2.955.892,3.671,3.671,0,0,1-2.463,0h-3.054s-4.828,4.216-5.124,4.216c-.227,0-1.265.341-1.914.5l3.564,6.218,6.957.726,2.663,3.137,2.482.431,2.038-1.217,1.248,1.245,1.032,3.61,3.486.9,5.717,19.291a7.892,7.892,0,0,1,1.306-1,4.566,4.566,0,0,1,2.167-.822,10.054,10.054,0,0,0,2.623,0c.57-.224,1.254.111,1.824,0a9.512,9.512,0,0,1,2.28-.079c.343.079,1.483-.157,1.825-.039a5.677,5.677,0,0,0,1.482-.034h1.141l1.368-.518s.912-.558,1.026-.892a6.975,6.975,0,0,0,0-1.562s-.355-1.562.051-2.12-.063-1.9,0-2.232.167-1.339.167-1.339V697.2Z" fill="#0080ff" stroke="#0080ff" stroke-width="1"/>
      </g>
    </g>
    <g id="グループ_408" data-name="グループ 408">
      <g id="グループ_407" data-name="グループ 407">
        <text id="北九州エリア" transform="translate(445.23 768.346)" fill="#0080ff" font-size="13" font-family="HiraginoSans-W3, Hiragino Sans"><tspan x="0" y="0">北九州エリア</tspan></text>
      </g>
    </g>
  </g>
</svg>
