<svg xmlns="http://www.w3.org/2000/svg" width="90" height="120" viewBox="0 0 90 120">
  <g id="グループ_2703" data-name="グループ 2703" transform="translate(20075 21316)">
    <g id="長方形_1893" data-name="長方形 1893" transform="translate(-20075 -21316)" fill="#ec147f" stroke="#ec147f" stroke-width="3">
      <rect width="90" height="120" stroke="none"/>
      <rect x="1.5" y="1.5" width="87" height="117" fill="none"/>
    </g>
    <g id="グループ_2688" data-name="グループ 2688" transform="translate(-20885 -21336)">
      <text id="専門学校案内_請求" data-name="専門学校案内
請求" transform="translate(854.915 109.727)" fill="#fff" font-size="11.724" font-family="HiraginoSans-W3, Hiragino Sans"><tspan x="-35.173" y="0">専門学校案内</tspan><tspan y="0" font-family="Helvetica"></tspan><tspan x="-11.724" y="16.52">請求</tspan></text>
      <g id="グループ_2034" data-name="グループ 2034">
        <g id="グループ_2032" data-name="グループ 2032">
          <path id="パス_2832" data-name="パス 2832" d="M878.827,82.189a7.739,7.739,0,0,1-5.025,1.844H832.683a7.768,7.768,0,0,1-7.768-7.768V50.281a7.768,7.768,0,0,1,7.768-7.768H873.8a7.768,7.768,0,0,1,7.769,7.768V63.369" fill="none" stroke="#fff" stroke-linecap="round" stroke-linejoin="round" stroke-width="2.835"/>
          <line id="線_875" data-name="線 875" x2="56.656" transform="translate(824.915 89.145)" fill="none" stroke="#fff" stroke-linecap="round" stroke-linejoin="round" stroke-width="2.835"/>
        </g>
        <path id="パス_2833" data-name="パス 2833" d="M882.552,69.872l-11.815-5.293,5.293,11.815,2.094-2.094,6.457,6.457,2.335-2.335-6.457-6.457Z" fill="#ec147f" stroke="#fff" stroke-linecap="round" stroke-linejoin="round" stroke-width="1.417"/>
        <g id="グループ_2033" data-name="グループ 2033">
          <path id="パス_2834" data-name="パス 2834" d="M866.623,71.963,853.3,73.182l-13.092-1.219a.378.378,0,0,1-.352-.378V55.43a.927.927,0,0,1,1-.925l12.448.916L865.98,54.5a.929.929,0,0,1,.995.926V71.585A.38.38,0,0,1,866.623,71.963Z" fill="#ec147f" stroke="#fff" stroke-linecap="round" stroke-linejoin="round" stroke-width="1.417"/>
          <path id="パス_2835" data-name="パス 2835" d="M864.453,71.566,853.415,73.1l-11.038-1.535V53.8a.758.758,0,0,1,.87-.751l10.168,1.5,10.168-1.5a.759.759,0,0,1,.87.751Z" fill="#ec147f" stroke="#fff" stroke-linecap="round" stroke-linejoin="round" stroke-width="1.417"/>
          <line id="線_876" data-name="線 876" y2="18.049" transform="translate(853.553 54.877)" fill="none" stroke="#fff" stroke-linecap="round" stroke-linejoin="round" stroke-width="0.992"/>
          <line id="線_877" data-name="線 877" x2="4.605" y2="0.64" transform="translate(845.492 57.615)" fill="none" stroke="#fff" stroke-linecap="round" stroke-linejoin="round" stroke-width="0.992"/>
          <line id="線_878" data-name="線 878" x2="4.605" y2="0.64" transform="translate(845.492 62.041)" fill="none" stroke="#fff" stroke-linecap="round" stroke-linejoin="round" stroke-width="0.992"/>
          <line id="線_879" data-name="線 879" x2="4.605" y2="0.64" transform="translate(845.492 66.532)" fill="none" stroke="#fff" stroke-linecap="round" stroke-linejoin="round" stroke-width="0.992"/>
        </g>
      </g>
    </g>
  </g>
</svg>
