<svg xmlns="http://www.w3.org/2000/svg" width="90" height="120" viewBox="0 0 90 120">
  <g id="グループ_2689" data-name="グループ 2689" transform="translate(20705 21124)">
    <rect id="長方形_1465" data-name="長方形 1465" width="90" height="120" transform="translate(-20705 -21124)" fill="none"/>
    <g id="グループ_2671" data-name="グループ 2671" transform="translate(-21243 -21144)">
      <text id="専門学校_について" data-name="専門学校
について" transform="translate(582.554 109.727)" font-size="11.724" font-family="HiraginoSans-W3, Hiragino Sans"><tspan x="-23.448" y="0">専門学校</tspan><tspan y="0" font-family="Helvetica"></tspan><tspan x="-23.214" y="16.52">について</tspan></text>
      <g id="グループ_2014" data-name="グループ 2014">
        <path id="パス_2821" data-name="パス 2821" d="M595.9,51.459v-8.2a2.465,2.465,0,0,0-2.465-2.464H571.916a2.454,2.454,0,0,0-2.454,2.454v8.208H557.309a2.466,2.466,0,0,0-2.467,2.467v29.7a2.454,2.454,0,0,0,2.454,2.454h50.772a2.454,2.454,0,0,0,2.453-2.454V53.908a2.448,2.448,0,0,0-2.448-2.449Z" fill="#fff" stroke="#ec007f" stroke-linecap="round" stroke-linejoin="round" stroke-width="2.835"/>
        <g id="グループ_2013" data-name="グループ 2013">
          <rect id="長方形_1406" data-name="長方形 1406" width="4.884" height="4.884" transform="translate(564.524 65.403)" fill="#ec007f" stroke="#ec007f" stroke-linecap="round" stroke-linejoin="round" stroke-width="1.417"/>
          <rect id="長方形_1407" data-name="長方形 1407" width="4.884" height="4.884" transform="translate(575.001 65.403)" fill="#ec007f" stroke="#ec007f" stroke-linecap="round" stroke-linejoin="round" stroke-width="1.417"/>
          <rect id="長方形_1408" data-name="長方形 1408" width="4.884" height="4.884" transform="translate(585.478 65.403)" fill="#ec007f" stroke="#ec007f" stroke-linecap="round" stroke-linejoin="round" stroke-width="1.417"/>
          <rect id="長方形_1409" data-name="長方形 1409" width="4.884" height="4.884" transform="translate(595.955 65.403)" fill="#ec007f" stroke="#ec007f" stroke-linecap="round" stroke-linejoin="round" stroke-width="1.417"/>
          <rect id="長方形_1410" data-name="長方形 1410" width="4.884" height="4.884" transform="translate(564.524 74.248)" fill="#ec007f" stroke="#ec007f" stroke-linecap="round" stroke-linejoin="round" stroke-width="1.417"/>
          <rect id="長方形_1411" data-name="長方形 1411" width="4.884" height="4.884" transform="translate(575.001 74.248)" fill="#ec007f" stroke="#ec007f" stroke-linecap="round" stroke-linejoin="round" stroke-width="1.417"/>
          <rect id="長方形_1412" data-name="長方形 1412" width="4.884" height="4.884" transform="translate(585.478 74.248)" fill="#ec007f" stroke="#ec007f" stroke-linecap="round" stroke-linejoin="round" stroke-width="1.417"/>
          <rect id="長方形_1413" data-name="長方形 1413" width="4.884" height="4.884" transform="translate(595.955 74.248)" fill="#ec007f" stroke="#ec007f" stroke-linecap="round" stroke-linejoin="round" stroke-width="1.417"/>
        </g>
        <circle id="楕円形_188" data-name="楕円形 188" cx="7.116" cy="7.116" r="7.116" transform="translate(575.566 46.409)" fill="none" stroke="#ec007f" stroke-linecap="round" stroke-linejoin="round" stroke-width="1.417"/>
        <line id="線_867" data-name="線 867" y2="3.722" transform="translate(582.682 49.912)" fill="none" stroke="#ec007f" stroke-linecap="round" stroke-linejoin="round" stroke-width="1.417"/>
        <line id="線_868" data-name="線 868" x1="3.722" transform="translate(582.725 53.634)" fill="none" stroke="#ec007f" stroke-linecap="round" stroke-linejoin="round" stroke-width="1.417"/>
      </g>
    </g>
  </g>
</svg>
