<svg xmlns="http://www.w3.org/2000/svg" width="90" height="120" viewBox="0 0 90 120">
  <g id="グループ_2699" data-name="グループ 2699" transform="translate(20435 21316)">
    <g id="長方形_1889" data-name="長方形 1889" transform="translate(-20435 -21316)" fill="#ec147f" stroke="#ec147f" stroke-width="3">
      <rect width="90" height="120" stroke="none"/>
      <rect x="1.5" y="1.5" width="87" height="117" fill="none"/>
    </g>
    <g id="グループ_2683" data-name="グループ 2683" transform="translate(-21059 -21336)">
      <text id="奨学金_支援制度" data-name="奨学金・
支援制度" transform="translate(669.397 109.727)" fill="#fff" font-size="11.724" font-family="HiraginoSans-W3, Hiragino Sans"><tspan x="-23.448" y="0">奨学金・</tspan><tspan y="0" font-family="Helvetica"></tspan><tspan x="-23.448" y="16.52">支援制度</tspan></text>
      <g id="グループ_2022" data-name="グループ 2022">
        <circle id="楕円形_191" data-name="楕円形 191" cx="27.046" cy="27.046" r="27.046" transform="translate(642.352 36.392)" fill="#ec147f" stroke="#fff" stroke-linecap="round" stroke-linejoin="round" stroke-width="2.835"/>
        <circle id="楕円形_192" data-name="楕円形 192" cx="19.08" cy="19.08" r="19.08" transform="translate(644.468 53.112) rotate(-22.5)" fill="#ec147f" stroke="#fff" stroke-linecap="round" stroke-linejoin="round" stroke-width="2.268"/>
        <g id="グループ_2021" data-name="グループ 2021" transform="translate(-1)">
          <path id="パス_2823" data-name="パス 2823" d="M668.9,67.832h-3.415v-1.5H668.9V64.807l-.311-.612h-3.1v-1.5h2.369l-3.648-7.431h2.458l3.326,7.2,3.326-7.2h2.47l-3.649,7.431h2.37v1.5h-3.1l-.312.612v1.524h3.416v1.5h-3.416v3.649H668.9Z" fill="#fff"/>
        </g>
      </g>
    </g>
  </g>
</svg>
