<svg xmlns="http://www.w3.org/2000/svg" width="633.638" height="297.426" viewBox="0 0 633.638 297.426">
  <g id="グループ_2504" data-name="グループ 2504" transform="translate(-273.854 -1868.959)">
    <rect id="長方形_830" data-name="長方形 830" width="633.638" height="297.368" transform="translate(273.854 1868.959)" fill="ivory"/>
    <line id="線_462" data-name="線 462" y2="297.368" transform="translate(442.521 1869.018)" fill="none" stroke="#002380" stroke-miterlimit="10" stroke-width="0.755"/>
    <text id="福岡県各種学校連合会_現_一般社団法人福岡県専修学校各種学校協会_設立_社団法人として福岡県教育委員会から許可を受ける_名称も社団法人福岡県各種学校協会へ_専修学校制度_学校教育法の一部改正_公布_社団法人福岡県専修学校各種学校協会へ名称を変更_ホームページ開設_一般社団法人福岡県専修学校各種学校協会へ移行_移行期間終了_公益目的支出計画の完了_" data-name="福岡県各種学校連合会（現：一般社団法人福岡県専修学校各種学校協会）設立

社団法人として福岡県教育委員会から許可を受ける
名称も社団法人福岡県各種学校協会へ

専修学校制度（学校教育法の一部改正）公布

社団法人福岡県専修学校各種学校協会へ名称を変更

ホームページ開設

一般社団法人福岡県専修学校各種学校協会へ移行

移行期間終了（公益目的支出計画の完了）" transform="translate(465.513 1888.738)" font-size="12" font-family="HiraginoSans-W3, Hiragino Sans"><tspan x="0" y="11">福岡県各種学校連合会（現：一般社団法人福岡県専修学校各種学校協会）設立</tspan><tspan y="11" font-family="Helvetica"></tspan><tspan font-family="Helvetica"><tspan x="0" y="29.75"></tspan></tspan><tspan x="0" y="48.5">社団法人として福岡県教育委員会から許可を受ける</tspan><tspan y="48.5" font-family="Helvetica"></tspan><tspan x="0" y="67.25">名称も社団法人福岡県各種学校協会へ</tspan><tspan y="67.25" font-family="Helvetica"></tspan><tspan font-family="Helvetica"><tspan x="0" y="86"></tspan></tspan><tspan x="0" y="104.75">専修学校制度（学校教育法の一部改正）公布</tspan><tspan y="104.75" font-family="Helvetica"></tspan><tspan font-family="Helvetica"><tspan x="0" y="123.5"></tspan></tspan><tspan x="0" y="142.25">社団法人福岡県専修学校各種学校協会へ名称を変更</tspan><tspan y="142.25" font-family="Helvetica"></tspan><tspan font-family="Helvetica"><tspan x="0" y="161"></tspan></tspan><tspan x="0" y="179.75">ホームページ開設</tspan><tspan y="179.75" font-family="Helvetica"></tspan><tspan font-family="Helvetica"><tspan x="0" y="198.5"></tspan></tspan><tspan x="0" y="217.25">一般社団法人福岡県専修学校各種学校協会へ移行</tspan><tspan y="217.25" font-family="Helvetica"></tspan><tspan font-family="Helvetica"><tspan x="0" y="236"></tspan></tspan><tspan x="0" y="254.75">移行期間終了（公益目的支出計画の完了）</tspan></text>
    <text id="昭和25年4月16日" transform="translate(302.178 1901.014)" fill="#002380" font-size="13" font-family="HiraginoSans-W3, Hiragino Sans"><tspan x="0" y="0">昭和</tspan><tspan y="0" font-family="Helvetica">25</tspan><tspan y="0">年</tspan><tspan y="0" font-family="Helvetica">4</tspan><tspan y="0">月</tspan><tspan y="0" font-family="Helvetica">16</tspan><tspan y="0">日</tspan></text>
    <text id="昭和37年7月26日" transform="translate(302.178 1937.916)" fill="#002380" font-size="13" font-family="HiraginoSans-W3, Hiragino Sans"><tspan x="0" y="0">昭和</tspan><tspan y="0" font-family="Helvetica">37</tspan><tspan y="0">年</tspan><tspan y="0" font-family="Helvetica">7</tspan><tspan y="0">月</tspan><tspan y="0" font-family="Helvetica">26</tspan><tspan y="0">日</tspan></text>
    <text id="昭和50年7月11日" transform="translate(302.178 1993.871)" fill="#002380" font-size="13" font-family="HiraginoSans-W3, Hiragino Sans"><tspan x="0" y="0">昭和</tspan><tspan y="0" font-family="Helvetica">50</tspan><tspan y="0">年</tspan><tspan y="0" font-family="Helvetica">7</tspan><tspan y="0">月</tspan><tspan y="0" font-family="Helvetica">11</tspan><tspan y="0">日</tspan></text>
    <text id="昭和51年6月27日" transform="translate(302.178 2030.645)" fill="#002380" font-size="13" font-family="HiraginoSans-W3, Hiragino Sans"><tspan x="0" y="0">昭和</tspan><tspan y="0" font-family="Helvetica">51</tspan><tspan y="0">年</tspan><tspan y="0" font-family="Helvetica">6</tspan><tspan y="0">月</tspan><tspan y="0" font-family="Helvetica">27</tspan><tspan y="0">日</tspan></text>
    <text id="平成11年10月1日" transform="translate(302.178 2068.48)" fill="#002380" font-size="13" font-family="HiraginoSans-W3, Hiragino Sans"><tspan x="0" y="0">平成</tspan><tspan y="0" font-family="Helvetica">11</tspan><tspan y="0">年</tspan><tspan y="0" font-family="Helvetica">10</tspan><tspan y="0">月</tspan><tspan y="0" font-family="Helvetica">1</tspan><tspan y="0">日</tspan></text>
    <text id="平成24年4月1日" transform="translate(302.178 2105.252)" fill="#002380" font-size="13" font-family="HiraginoSans-W3, Hiragino Sans"><tspan x="0" y="0">平成</tspan><tspan y="0" font-family="Helvetica">24</tspan><tspan y="0">年</tspan><tspan y="0" font-family="Helvetica">4</tspan><tspan y="0">月</tspan><tspan y="0" font-family="Helvetica">1</tspan><tspan y="0">日</tspan></text>
    <text id="平成30年3月31日" transform="translate(302.178 2143.09)" fill="#002380" font-size="13" font-family="HiraginoSans-W3, Hiragino Sans"><tspan x="0" y="0">平成</tspan><tspan y="0" font-family="Helvetica">30</tspan><tspan y="0">年</tspan><tspan y="0" font-family="Helvetica">3</tspan><tspan y="0">月</tspan><tspan y="0" font-family="Helvetica">31</tspan><tspan y="0">日</tspan></text>
    <circle id="楕円形_130" data-name="楕円形 130" cx="6.661" cy="6.661" r="6.661" transform="translate(435.86 1889.27)" fill="#0080ff"/>
    <circle id="楕円形_131" data-name="楕円形 131" cx="6.661" cy="6.661" r="6.661" transform="translate(435.86 1927.105)" fill="#0080ff"/>
    <circle id="楕円形_132" data-name="楕円形 132" cx="6.661" cy="6.661" r="6.661" transform="translate(435.86 1982.529)" fill="#0080ff"/>
    <circle id="楕円形_133" data-name="楕円形 133" cx="6.661" cy="6.661" r="6.661" transform="translate(435.86 2019.834)" fill="#0080ff"/>
    <circle id="楕円形_134" data-name="楕円形 134" cx="6.661" cy="6.661" r="6.661" transform="translate(435.86 2057.139)" fill="#0080ff"/>
    <circle id="楕円形_135" data-name="楕円形 135" cx="6.661" cy="6.661" r="6.661" transform="translate(435.86 2094.441)" fill="#0080ff"/>
    <circle id="楕円形_136" data-name="楕円形 136" cx="6.661" cy="6.661" r="6.661" transform="translate(435.86 2131.746)" fill="#0080ff"/>
  </g>
</svg>
