<svg xmlns="http://www.w3.org/2000/svg" width="1023.467" height="103.945" viewBox="0 0 1023.467 103.945">
  <g id="グループ_543" data-name="グループ 543" transform="translate(0.733 -1764.947)">
    <rect id="長方形_399" data-name="長方形 399" width="1023.467" height="103.945" transform="translate(-0.733 1764.947)" fill="#f2f2f2"/>
    <g id="グループ_542" data-name="グループ 542" transform="translate(274.533 1775.896)">
      <g id="グループ_540" data-name="グループ 540">
        <path id="パス_591" data-name="パス 591" d="M356.583,1816.92a41.025,41.025,0,1,1-41.025-41.024,41.024,41.024,0,0,1,41.025,41.024" transform="translate(-274.533 -1775.896)" fill="#003893"/>
        <path id="パス_592" data-name="パス 592" d="M354.532,1816.92a38.974,38.974,0,1,1-38.973-38.972,38.973,38.973,0,0,1,38.973,38.972" transform="translate(-274.533 -1775.896)" fill="#fff"/>
        <path id="パス_593" data-name="パス 593" d="M354.532,1816.92a38.974,38.974,0,1,1-38.973-38.972A38.973,38.973,0,0,1,354.532,1816.92Z" transform="translate(-274.533 -1775.896)" fill="none" stroke="#073890" stroke-miterlimit="10" stroke-width="0.731"/>
        <path id="パス_594" data-name="パス 594" d="M315.925,1792.689a24.668,24.668,0,0,0-23.88,18.5c-4.019.425-6.786,1.679-7.093,3.552-.334,2.041,2.309,4.312,6.566,6.065a39.289,39.289,0,0,0,8.541,2.351c8.867,1.455,16.481.044,17.005-3.149a2.387,2.387,0,0,0-.167-1.279c-.76-1.923-3.772-3.909-8-5.389a3.628,3.628,0,0,1-.778-2.752c.765-3.889,10-5.355,20.627-3.272a45.7,45.7,0,0,1,10.965,3.532,24.662,24.662,0,0,0-23.784-18.157" transform="translate(-274.533 -1775.896)" fill="#003893"/>
        <path id="パス_595" data-name="パス 595" d="M314.2,1841.125a24.667,24.667,0,0,0,24.694-17.393c4.037-.245,6.856-1.372,7.247-3.231.427-2.025-2.11-4.41-6.283-6.358a39.539,39.539,0,0,0-8.427-2.734c-8.791-1.857-16.46-.791-17.129,2.375a2.413,2.413,0,0,0,.108,1.286c.671,1.956,3.592,4.076,7.75,5.749a3.614,3.614,0,0,1,.654,2.78c-.94,3.851-10.233,4.9-20.756,2.336a45.774,45.774,0,0,1-10.792-4.025,24.661,24.661,0,0,0,22.934,19.215" transform="translate(-274.533 -1775.896)" fill="#003893"/>
        <path id="パス_596" data-name="パス 596" d="M295.273,1789.044l5.618-3.335.268.449-5.621,3.336Z" transform="translate(-274.533 -1775.896)" fill="#040000"/>
        <path id="パス_597" data-name="パス 597" d="M304.711,1784.752l-.315.149.835,2.547c.148.456-.048.552-.82.8a1.81,1.81,0,0,0-.257-.332c.3-.09.551-.175.619-.2.086-.027.1-.064.076-.151l-.816-2.493-1.224.571a5.826,5.826,0,0,1,.362,3.006,1.446,1.446,0,0,0-.393-.11,5.18,5.18,0,0,0-.328-2.726l-.245.11a.128.128,0,0,1-.058.123l-.3-.412.482-.21-.7-2.125.576-.189a6.922,6.922,0,0,0-.033-1.027l.6-.034c0,.044-.044.088-.119.112,0,.223-.014.547-.043.817l1.045-.344.626,1.91.31-.138Zm-2.585-1.193.561,1.715,1.229-.549-.518-1.583Zm1.1,1.138a3.624,3.624,0,0,0-.684-.814l.251-.208a3.107,3.107,0,0,1,.7.792Zm.514.871c.007.042-.012.078-.09.112l.494,1.507-.307.1-.53-1.614Zm1.13-3.619.168.515a2.1,2.1,0,0,1-.13,1.845,1.641,1.641,0,0,0-.412-.168,1.693,1.693,0,0,0,.13-1.557l-.3-.905,1.937-.635.521,1.6c.076.228.1.25.232.207l.208-.069c.06-.019.127-.039.146-.07.078-.084.01-.293-.121-.733a.993.993,0,0,0,.395.074c.182.6.268.906-.261,1.078l-.335.11c-.475.156-.573-.138-.691-.5l-.377-1.153Zm2.593,1.778.326.019a.178.178,0,0,1-.036.092,4.535,4.535,0,0,1-.451,2.2,4.046,4.046,0,0,0,1.772.271,2.039,2.039,0,0,0-.157.469,4.3,4.3,0,0,1-1.83-.351,4.859,4.859,0,0,1-1.265,1.373,1.72,1.72,0,0,0-.38-.3,4.315,4.315,0,0,0,1.236-1.28,4.822,4.822,0,0,1-1.407-1.216l.287-.184-.568.186-.135-.408,2.534-.829Zm-1.845,1.078a4.125,4.125,0,0,0,1.272,1.045,3.878,3.878,0,0,0,.4-1.6Z" transform="translate(-274.533 -1775.896)" fill="#040000"/>
        <path id="パス_598" data-name="パス 598" d="M311.679,1781.38c0,.028-.043.059-.077.078a7.272,7.272,0,0,1-.849,1.753c.356.192,1.094.632,1.292.755l-.243.42c-.217-.178-.7-.508-1.071-.747l.278,2.879-.47.045-.263-2.7a7.042,7.042,0,0,1-1.013,1.027,1.832,1.832,0,0,0-.292-.39,6.687,6.687,0,0,0,2.075-2.78l-2.14.207-.042-.435,1.172-.112-.129-1.341.613-.025c0,.05-.041.09-.132.11l.117,1.21.76-.074.08-.037Zm2.429,4.149,1.7-.164.046.463-4.015.39-.044-.464,1.838-.177-.3-3.04-1.557.151-.046-.457,1.558-.151-.223-2.3.629-.017c0,.05-.04.087-.138.112l.211,2.162,1.55-.152.044.458-1.55.15Z" transform="translate(-274.533 -1775.896)" fill="#040000"/>
        <path id="パス_599" data-name="パス 599" d="M317.048,1779.909l5.921.713-.744,6.173-.485-.058.04-.33-4.975-.6-.04.329-.462-.055Zm-.187,5.443,4.974.6.6-4.934-4.977-.6Zm5.111-3.115-.052.421-1.078-.13-.284,2.352c-.067.549-.34.514-1.432.383a2.01,2.01,0,0,0-.09-.431c.207.032.412.057.574.077.433.053.482.057.5-.082l.286-2.354-2.739-.331.05-.421,2.739.331.12-.995.579.1c-.013.042-.053.072-.144.077l-.107.869Zm-3.112,1.99a4.7,4.7,0,0,0-.7-1.449l.373-.139a4.7,4.7,0,0,1,.724,1.424Z" transform="translate(-274.533 -1775.896)" fill="#040000"/>
        <path id="パス_600" data-name="パス 600" d="M323.042,1786.566a23.991,23.991,0,0,0,1.995-1.75c.185.32.209.357.233.4a22.337,22.337,0,0,1-1.84,1.67.244.244,0,0,1,0,.107.128.128,0,0,1-.062.067Zm1.361-3.9a6.022,6.022,0,0,1,1.141,1.1l-.378.3a6,6,0,0,0-1.112-1.133Zm5.621,3.052-.153.433-2.588-.913.211.165a.191.191,0,0,1-.179.017,20.883,20.883,0,0,1-1.523,1.627c.713.206,1.545.453,2.369.685a11.449,11.449,0,0,0-.412-1.267l.45-.067a9.642,9.642,0,0,1,.671,2.385l-.505.091a5.15,5.15,0,0,0-.094-.669c-1.261-.332-2.575-.7-3.4-.928a.13.13,0,0,1-.134.057v-.6l.561.169a16.483,16.483,0,0,0,1.608-1.8l-1.424-.5.153-.432,1.917.676.462-1.312-1.589-.56.149-.426,1.59.561.395-1.117.6.254a.168.168,0,0,1-.2.075l-.336.95,1.624.572-.151.425-1.624-.572-.462,1.312Zm-4.593-4.778a5.8,5.8,0,0,1,1.092,1.171l-.391.28a5.947,5.947,0,0,0-1.072-1.207Z" transform="translate(-274.533 -1775.896)" fill="#040000"/>
        <path id="パス_601" data-name="パス 601" d="M335.411,1785.708c-.028.048-.094.048-.181.01l-.122.166c-.458.886-1.842,3.906-.207,6.363a1.535,1.535,0,0,0-.516.146,5.991,5.991,0,0,1-.3-5.237l-.006,0a5.969,5.969,0,0,1-4.753,2.076,1.641,1.641,0,0,0-.134-.507c3.279.306,5.133-2.629,5.677-3.41Z" transform="translate(-274.533 -1775.896)" fill="#040000"/>
        <path id="パス_602" data-name="パス 602" d="M284.286,1824.09l-.1.355a.143.143,0,0,1-.086-.075,7.266,7.266,0,0,1-1.847-.48c-.141.343-.46,1.03-.543,1.222l-.489-.161c.146-.211.385-.661.568-1.013l-2.873.749-.118-.46,2.676-.7a6.333,6.333,0,0,1-.987-.645,1.678,1.678,0,0,0,.345-.358,6.49,6.49,0,0,0,2.915,1.355l-.487-1.87.432-.113.259.984,1.323-.346.119.6c-.049.005-.093-.021-.132-.108l-1.192.309.175.67Zm-5.071,1.741,3.1-.809.935,3.583-3.068.8-.121-.46.308-.08-.7-2.678-.335.088Zm.855.252.289,1.1.781-.205-.288-1.1Zm.4,1.543.3,1.136.78-.2-.3-1.136Zm1.83-.947-.287-1.1-.767.2.288,1.1Zm-.354,1.774.767-.2-.3-1.136-.766.2Zm2.686-3.6.724,2.773-1.707.446-.724-2.774Zm-.716,2.681.943-.244-.5-1.911-.943.246Zm1.488-3.485,1.032,3.945-.413.108L285,1824.157Z" transform="translate(-274.533 -1775.896)" fill="#040000"/>
        <path id="パス_603" data-name="パス 603" d="M289.234,1833.763l-5.068,2.6c-.538.276-.7,0-1.209-1.014a1.566,1.566,0,0,0,.322-.352c.079.169.165.335.233.472.1.191.174.338.209.392.062.116.113.139.234.076l4.653-2.386-2.311-4.507-5.2,2.667-.213-.416,5.608-2.877Zm-5.389,1.266-.2-.384.367-.187-1.165-2.27-.453.234-.194-.379,2.192-1.124.223.517c-.049.016-.1,0-.146-.079l-1.25.641.474.922,1.884-.966-.86-1.68.37-.19,2,3.9-.371.192-.876-1.706c-.037,0-.07-.028-.117-.086l-1.826.937.487.949,1.366-.7.228.52c-.048.018-.1,0-.154-.075Zm1.817-3.991a3.652,3.652,0,0,0,.776-1.021l.308.28a3.491,3.491,0,0,1-.76,1.044Zm2.266,1.9c-.047,0-.09-.036-.124-.1a10.755,10.755,0,0,1-1.275-.042c-.01-.084-.025-.3-.039-.393a7.611,7.611,0,0,0,1.352-.047Z" transform="translate(-274.533 -1775.896)" fill="#040000"/>
        <path id="パス_604" data-name="パス 604" d="M287.217,1838.943a.147.147,0,0,1-.142-.082,8.4,8.4,0,0,1-2.148-.45,4.454,4.454,0,0,0,.007-.5,5.871,5.871,0,0,0,2.079.435Zm-.1-1.66,3.581,4.34-.339.279-1.914-2.32-1.6,1.317-.321-.389,1.6-1.316-1.344-1.631-.162.133-.307-.373,3.238-2.671.365.513c-.043.025-.1.021-.164-.053Zm6.051,1.19-2.571,2.121-2.528-3.066,2.571-2.12Zm-4.6,4.358a15.67,15.67,0,0,0-.007-2.229l.454.142a15.3,15.3,0,0,1,.052,2.218Zm2.014-2.84.49-.4-1.933-2.342-.489.405Zm.764-.626.483-.4-1.933-2.341-.484.4Zm.755-.625.485-.4L290.65,1836l-.484.4Z" transform="translate(-274.533 -1775.896)" fill="#040000"/>
        <path id="パス_605" data-name="パス 605" d="M296.381,1846.659l-.262.334-1.316-1.031-.733.935c-.175.22-.306.282-.531.2a5.174,5.174,0,0,1-1.036-.721,1.807,1.807,0,0,0,.142-.439c.228.188.438.363.6.487.329.258.369.29.456.176l.731-.929-3.452-2.709.263-.335,3.453,2.71.368-.47-2.845-2.234,1.462-1.864,1.763,1.381.329-.42-2.239-1.756.26-.328,2.239,1.756.368-.47.46.416c-.036.036-.086.042-.169-.005l-.281.358,2.285,1.792-.258.329-2.284-1.792-.329.419,1.819,1.429-1.463,1.864-1.022-.8,0,.006.373.32c-.038.035-.088.041-.171-.005l-.289.368Zm-4.479-1.178a5.728,5.728,0,0,0-.272-1.534l.447.013a5.76,5.76,0,0,1,.312,1.517Zm1.3-3.367-.4.511,1.4,1.1.4-.51Zm.609-.776-.391.5,1.4,1.1.393-.5Zm2.216,3.819.4-.511-1.445-1.134-.4.509Zm1.009-1.288-1.445-1.135-.392.5,1.447,1.134Z" transform="translate(-274.533 -1775.896)" fill="#040000"/>
        <path id="パス_606" data-name="パス 606" d="M298.836,1845.853a8.47,8.47,0,0,1-1.182.71,4.413,4.413,0,0,0-.011-.526,9.834,9.834,0,0,0,2.842-2.238l.434.411c-.042.036-.1.039-.185,0a13.68,13.68,0,0,1-1.12,1.044l.128.117c-.036.041-.081.051-.164.025l-2.1,4.349-.423-.2Zm1.771-1.1.5.278c-.027.035-.074.053-.165.026l-1.952,4.044-.39-.188Zm2.492,5.828a.14.14,0,0,1-.152-.018,6.469,6.469,0,0,1-3.961-.136,1.544,1.544,0,0,0-.056-.466,6.059,6.059,0,0,0,3.788.214Zm-.334-1.081a.144.144,0,0,1-.142,0,5.972,5.972,0,0,1-2.769.062,1.922,1.922,0,0,0-.094-.415,5.174,5.174,0,0,0,2.665,0Zm1.876-2.394-.54-.259a3.8,3.8,0,0,1-1.481.75,5.668,5.668,0,0,0,1.4,1.466,1.756,1.756,0,0,0-.416.232,5.864,5.864,0,0,1-1.4-1.6,6.451,6.451,0,0,1-2.076-.028,2.316,2.316,0,0,0-.084-.455,6,6,0,0,0,1.952.085,3.843,3.843,0,0,1-.351-1.21,5.3,5.3,0,0,1-.918.39,2.532,2.532,0,0,0-.184-.4,5.543,5.543,0,0,0,2.14-1.28l.428.391a.143.143,0,0,1-.17-.011c-.157.14-.33.282-.505.413l2.389,1.154Zm-2.2,1.46a.123.123,0,0,1-.134,0,5.463,5.463,0,0,1-2.121.1,1.783,1.783,0,0,0-.124-.388,4.8,4.8,0,0,0,2.034-.068Zm-.4-2.715-.045.025a3.689,3.689,0,0,0,.4,1.34,3.512,3.512,0,0,0,1.257-.585Z" transform="translate(-274.533 -1775.896)" fill="#040000"/>
        <path id="パス_607" data-name="パス 607" d="M310.63,1851.683l-.105.442-2.913-.687-.32,1.362c-.14.589-.478.517-1.776.211a2.394,2.394,0,0,0-.094-.51c.353.1.667.178.892.233.407.1.456.1.494-.048l.32-1.361-2.878-.68.105-.441,2.878.676.142-.609.327.1a5.951,5.951,0,0,0,1.173-.428l-3.053-.718.1-.421,3.552.836.09-.007.311.316a.154.154,0,0,1-.12.039,7.74,7.74,0,0,1-1.979.757l-.061.252Zm-5.058-3.852-.265,1.129-.449-.1.367-1.557,1.1.256a5.187,5.187,0,0,0-.408-1.064l.436-.1a4.573,4.573,0,0,1,.473,1.172l-.228.057,1.489.351a5.188,5.188,0,0,0-.3-1.2l.443-.058a4.665,4.665,0,0,1,.333,1.263l-.27.046,1.227.29a8.4,8.4,0,0,0,1.078-.96,2.707,2.707,0,0,1,.5.363.143.143,0,0,1-.16.021,11.247,11.247,0,0,1-.879.705l1.144.269-.367,1.559-.463-.11.267-1.129Z" transform="translate(-274.533 -1775.896)" fill="#040000"/>
        <path id="パス_608" data-name="パス 608" d="M313.283,1850.219c.221.277.812,1.153.945,1.362l-.288.378c-.117-.253-.426-.773-.665-1.164l-.058,3.481-.453-.007.058-3.567a7.876,7.876,0,0,1-1.016,2.166,1.941,1.941,0,0,0-.252-.428,8.441,8.441,0,0,0,1.227-2.821l-1.044-.017.007-.455,1.1.02.026-1.586.6.054c-.008.041-.052.078-.145.089l-.024,1.45.915.014-.006.454-.917-.014Zm2.134.525a5.812,5.812,0,0,0,.789,1.533,4.79,4.79,0,0,0,.761-1.544l.6.147a.155.155,0,0,1-.159.082,5.407,5.407,0,0,1-.9,1.688,4.618,4.618,0,0,0,1.838,1.313,2.1,2.1,0,0,0-.347.418,5.032,5.032,0,0,1-1.807-1.361,5.434,5.434,0,0,1-2.019,1.308,2.289,2.289,0,0,0-.252-.387,4.966,4.966,0,0,0,1.982-1.286,6.759,6.759,0,0,1-.91-1.8Zm.378-1.1a.14.14,0,0,1-.138.055,5.774,5.774,0,0,1-1.228,1.545,2.814,2.814,0,0,0-.334-.3,4.663,4.663,0,0,0,1.17-1.524Zm2.522-.874-.006.448-4.037-.067.007-.446,1.751.027.019-1.094.618.053c-.007.05-.043.086-.146.1l-.013.951Zm-.35,2.482a7.4,7.4,0,0,0-1.183-1.613l.385-.211a7.583,7.583,0,0,1,1.2,1.586Z" transform="translate(-274.533 -1775.896)" fill="#040000"/>
        <path id="パス_609" data-name="パス 609" d="M323.689,1847.329l.4.14a.157.157,0,0,1-.07.089,6.525,6.525,0,0,1-1.389,2.168,9.636,9.636,0,0,0,3.164.562,2.136,2.136,0,0,0-.217.493c-.318-.011-.632-.036-.941-.077l.489,2.431-.481.1-.06-.29-3.306.664.063.311-.466.094-.5-2.466a9.841,9.841,0,0,1-.924.517,1.514,1.514,0,0,0-.333-.373,10.679,10.679,0,0,0,2.694-1.806,7.564,7.564,0,0,1-1.508-.962,7.63,7.63,0,0,1-1.059,1.169,2.681,2.681,0,0,0-.4-.266,6.726,6.726,0,0,0,1.925-2.681l.589.11c-.012.046-.072.081-.152.083a6.333,6.333,0,0,1-.268.575l2.666-.536Zm-3.026,1.08-.1.151a6.578,6.578,0,0,0,1.594.981,6.212,6.212,0,0,0,1.193-1.673Zm3.58,2.234a9.586,9.586,0,0,1-1.963-.56,10.728,10.728,0,0,1-1.6,1.278Zm-3.047,2.531,3.307-.663-.283-1.405-3.308.663Z" transform="translate(-274.533 -1775.896)" fill="#040000"/>
        <path id="パス_610" data-name="パス 610" d="M327.614,1848.495c.278.1,1.1.467,1.3.577l-.119.462a8.308,8.308,0,0,0-.986-.591l1.281,2.9-.428.189-1.316-2.981a8,8,0,0,1-.071,2.158,2.143,2.143,0,0,0-.413-.291,7.943,7.943,0,0,0,.067-2.635l-.958.421-.182-.414,1.022-.453-.5-1.133c-.263.224-.539.441-.8.639a1.249,1.249,0,0,0-.29-.26,8.771,8.771,0,0,0,1.679-1.6l.536.159c-.033.046-.047.051-.12.084a5.585,5.585,0,0,1-.63.658l.557,1.265.865-.38.181.415-.862.38Zm4.118,1.565,1.78-.788.166.378-4.037,1.779-.166-.374,1.828-.805-.254-.575-1.478.651-.158-.362,1.476-.652-.206-.47-1.34.594-.936-2.127,1.338-.589-.2-.462-1.629.719-.163-.37,1.629-.718-.25-.567c-.443.264-.9.525-1.337.754a1.426,1.426,0,0,0-.259-.28,17.941,17.941,0,0,0,2.846-1.838l.515.167a.109.109,0,0,1-.062.059.355.355,0,0,1-.056.016,10.616,10.616,0,0,1-1.245.872l.275.628,1.716-.757.163.37-1.715.754.2.463,1.4-.618.937,2.126-1.4.616.207.468,1.524-.672.16.363-1.525.672Zm-2.773-2.584.242.546.937-.411-.242-.549Zm.635,1.439.936-.414-.246-.561-.937.412Zm1.707-2.473-.976.431.243.548.975-.43Zm.636,1.439-.248-.562-.975.431.247.561Z" transform="translate(-274.533 -1775.896)" fill="#040000"/>
        <path id="パス_611" data-name="パス 611" d="M332.626,1844.557l.685.937-.373.272-.946-1.29.907-.664a5.237,5.237,0,0,0-1.076-.382l.212-.4a4.54,4.54,0,0,1,1.2.4l-.1.208,1.231-.9a5.154,5.154,0,0,0-1.11-.554l.243-.373a4.64,4.64,0,0,1,1.175.567l-.138.237,1.015-.747a8.919,8.919,0,0,0-.03-1.442,3.092,3.092,0,0,1,.6-.146.141.141,0,0,1-.088.135,10.807,10.807,0,0,1-.033,1.126l.947-.7.945,1.29-.382.279-.687-.933Zm6.2-1.343.268.368-2.411,1.768.827,1.126c.357.487.082.7-.99,1.485a2.54,2.54,0,0,0-.45-.259c.3-.2.57-.392.755-.528.337-.247.377-.276.283-.4l-.827-1.127-2.38,1.747-.269-.365,2.382-1.749-.37-.5.284-.185a5.907,5.907,0,0,0,.439-1.168l-2.528,1.853-.256-.349,2.941-2.156.053-.074.443-.03a.169.169,0,0,1-.049.117,7.825,7.825,0,0,1-.709,1.994l.152.209Z" transform="translate(-274.533 -1775.896)" fill="#040000"/>
        <path id="パス_612" data-name="パス 612" d="M339.438,1840.242c.353.014,1.4.133,1.648.168l.1.464c-.272-.075-.865-.176-1.318-.249l2.607,2.3-.3.341-2.673-2.358a7.826,7.826,0,0,1,.988,2.178A1.808,1.808,0,0,0,340,1843a8.413,8.413,0,0,0-1.346-2.764l-.691.782-.341-.3.73-.826-1.189-1.048.429-.42c.027.034.025.09-.027.171l1.087.956.606-.685.339.3-.605.685Zm2.163-4.768.333.3-2.667,3.023-.335-.295,1.159-1.312-.82-.724.441-.437c.032.04.037.09-.02.175l.713.631Zm-.975,2.486c.015.039,0,.086-.046.14a5.718,5.718,0,0,1,.377,1.936,2.7,2.7,0,0,0-.446.059,4.669,4.669,0,0,0-.4-1.878Zm.6,1a5.833,5.833,0,0,0,1.68.4,4.828,4.828,0,0,0-.682-1.579l.5-.359a.156.156,0,0,1-.04.178,5.318,5.318,0,0,1,.7,1.775,4.606,4.606,0,0,0,2.19-.542,1.987,1.987,0,0,0,.1.534,5.069,5.069,0,0,1-2.21.489,5.373,5.373,0,0,1-.314,2.382,2.332,2.332,0,0,0-.459-.058,4.954,4.954,0,0,0,.31-2.34,6.753,6.753,0,0,1-1.953-.476Zm2.038-1.612a7.428,7.428,0,0,0-1.995-.146l.091-.428a7.462,7.462,0,0,1,1.985.109Z" transform="translate(-274.533 -1775.896)" fill="#040000"/>
        <path id="パス_613" data-name="パス 613" d="M344.006,1833.9l-.425.767,3.75,2.082-.228.41-3.75-2.082-.45.814-.4-.22.451-.813-1.7-.944.324-.512c.042.031.057.079.023.168l1.583.88.427-.77Zm.564-4.207c.033.029.073.059.11.1,1.55,1.039,1.532,1.161,1.153,1.842-.064.12-.145.264-.238.4a1.072,1.072,0,0,0-.43-.091c.176-.256.319-.5.373-.6a.294.294,0,0,0,.054-.227c-.036-.143-.284-.365-.943-.812l-.685,1.235a2.688,2.688,0,0,1,.7,2.472,1.359,1.359,0,0,0-.42.057,2.307,2.307,0,0,0-.505-2.119l-.643,1.16-.353-.2.7-1.255a5.559,5.559,0,0,0-.672-.481l.328-.5c.046.033.054.095.024.178.192.132.373.266.545.4l.7-1.261.041-.1Zm1.464,3.527.13-.192a11.205,11.205,0,0,1,2.175,1.536c.069.171.078.274-.274.862a.922.922,0,0,0-.4-.1c.114-.177.2-.324.246-.4a.174.174,0,0,0,.013-.19c-.058-.149-.464-.439-1.637-1.148l-.311.561a3.7,3.7,0,0,1,1.634,2.119,1.074,1.074,0,0,0-.394.1,3.189,3.189,0,0,0-1.447-1.85l-.353.636-.347-.193.371-.668c-.209-.14-.435-.273-.657-.4l.31-.473c.048.036.048.094.023.17.179.107.355.222.53.336l.348-.625Zm1.189-2.128.118-.2a11.924,11.924,0,0,1,2.2,1.491c.089.181.073.3-.294.917a1.359,1.359,0,0,0-.416-.1c.135-.2.233-.374.275-.45a.174.174,0,0,0,.021-.187,6.746,6.746,0,0,0-1.653-1.1l-.331.6a3.656,3.656,0,0,1,1.613,2.157,1.326,1.326,0,0,0-.411.1,3.093,3.093,0,0,0-1.41-1.887l-.336.607-.346-.194.354-.637c-.211-.141-.428-.27-.658-.4l.318-.485c.043.043.047.094.018.176.18.108.354.221.531.335Z" transform="translate(-274.533 -1775.896)" fill="#040000"/>
        <path id="パス_614" data-name="パス 614" d="M345.134,1825.293a.184.184,0,0,1,.06.176,8.256,8.256,0,0,0,3.234-2.321,2.025,2.025,0,0,0,.325.42,9.037,9.037,0,0,1-3.313,2.288,8.634,8.634,0,0,1,1.577,3.666,2.218,2.218,0,0,0-.455.159,7.745,7.745,0,0,0-1.672-3.716Zm1.541,2.743,1-3.354.434.13-1,3.354Zm1.432,1.713-.443-.132,1.724-5.8.444.131-.99,3.325.051-.075c.042.036.048.1.027.19a17.851,17.851,0,0,1,1.362,1.292c.253-.926.537-2.008.814-3.071a12.536,12.536,0,0,0-1.34.71l-.1-.459a9.911,9.911,0,0,1,2.344-1.123l.138.492a5.56,5.56,0,0,0-.585.195c-.409,1.708-.861,3.514-1.155,4.63a.121.121,0,0,1,.062.14l-.6.009c.086-.292.181-.634.279-1.018a16.05,16.05,0,0,0-1.469-1.332Z" transform="translate(-274.533 -1775.896)" fill="#040000"/>
      </g>
      <g id="グループ_541" data-name="グループ 541" transform="translate(103.906 11.653)">
        <text id="一般社団法人_福岡県専修学校各種学校協会" data-name="一般社団法人 福岡県専修学校各種学校協会" transform="translate(0 16)" fill="#003893" font-size="12.852" font-family="HiraginoSans-W3, Hiragino Sans" letter-spacing="0.075em"><tspan x="0" y="0">一般社団法人</tspan><tspan y="0" font-size="18.36" font-family="Helvetica"> </tspan><tspan y="0" font-size="18.36">福岡県専修学校各種学校協会</tspan></text>
        <text id="_812-0046_福岡市博多区吉塚本町13-50_吉塚合同庁舎6階_TEL:092-292-6104_FAX:092-292-6197" data-name="〒812-0046 福岡市博多区吉塚本町13-50 吉塚合同庁舎6階
TEL:092-292-6104 FAX:092-292-6197" transform="translate(0 43.521)" fill="#003893" font-size="13" font-family="HiraginoSans-W3, Hiragino Sans" letter-spacing="0.075em"><tspan x="0" y="0">〒</tspan><tspan y="0" font-family="Helvetica">812-0046 </tspan><tspan y="0">福岡市博多区吉塚本町</tspan><tspan y="0" font-family="Helvetica">13-50 </tspan><tspan y="0">吉塚合同庁舎</tspan><tspan y="0" font-family="Helvetica">6</tspan><tspan y="0">階</tspan><tspan y="0" font-family="Helvetica"></tspan><tspan font-family="Helvetica"><tspan x="0" y="18.657">TEL:092-292-6104 FAX:092-292-6197</tspan></tspan></text>
      </g>
    </g>
  </g>
</svg>
