<svg id="レイヤー_1" data-name="レイヤー 1" xmlns="http://www.w3.org/2000/svg" xmlns:xlink="http://www.w3.org/1999/xlink" viewBox="0 0 1023.47 393.13"><defs><style>.cls-1,.cls-5{fill:none;}.cls-2{clip-path:url(#clip-path);}.cls-3{fill:#82c7e8;}.cls-35,.cls-38,.cls-4{fill:#fff;}.cls-5{stroke:#fff;stroke-miterlimit:10;stroke-width:1.24px;}.cls-6{fill:#1b2b78;}.cls-7{fill:#231815;}.cls-8{fill:#9d68a1;}.cls-9{fill:#dc5959;}.cls-10{fill:#0966a9;}.cls-11{fill:#339cd1;}.cls-12{fill:#d41c6c;}.cls-13{fill:#d8528f;}.cls-14{fill:#f5ed70;}.cls-15{fill:#99c247;}.cls-16{fill:#d61c1a;}.cls-17{fill:#f0e428;}.cls-18{fill:#ebce4c;}.cls-19{fill:#1578b8;}.cls-20{fill:#f4e829;}.cls-21{fill:#6eb681;}.cls-22{fill:#118a3b;}.cls-23{fill:#d21577;}.cls-24{fill:#dd5718;}.cls-25{fill:#84c6e0;}.cls-26{fill:#5eb9d0;}.cls-27{fill:#edb02e;}.cls-28{fill:#026636;}.cls-29{fill:#e286ad;}.cls-30{fill:#d71718;}.cls-31{fill:#169243;}.cls-32{fill:#34a33a;}.cls-33{fill:#e99214;}.cls-34{clip-path:url(#clip-path-2);}.cls-35{opacity:0.9;}.cls-35,.cls-36{isolation:isolate;}.cls-37{fill:#172a88;}.cls-38{stroke:#00a0e9;stroke-width:3px;}.cls-39{fill:#00a0e9;}</style><clipPath id="clip-path"><rect class="cls-1" x="-0.13" width="1023.73" height="393.13"/></clipPath><clipPath id="clip-path-2"><rect class="cls-1" x="-0.13" y="-393.73" width="1023.73" height="295.66"/></clipPath></defs><g class="cls-2"><rect class="cls-3" x="-13.8" y="-605.46" width="1041.28" height="1472.66"/><path class="cls-4" d="M135,125.42c-.38-.68-.3-1.33.27-1.66l14.38-8.14a1,1,0,0,1,1.43.4l24.68,43.6c1,1.71,2.32,1.7,3.12,1.24s1.5-1.6.53-3.31L154.7,114a.93.93,0,0,1,.28-1.36l14.84-8.4a1.06,1.06,0,0,1,1.48.21l37.86,66.88a.94.94,0,0,1-.46,1.32l-13.47,7.62c-.68.39-3.63-3.22-4.31-2.83-.23.13-.45.55-.74,1.63-1,3.1-2.25,5.34-6.36,7.66-4.68,2.65-12.93,2.2-17.45-5.79Z"/><path class="cls-4" d="M69.42,133.71a2,2,0,0,1,.35-2.76l45.41-29.88a1.72,1.72,0,0,1,2.43.39l14.44,22a2,2,0,0,1-.56,2.72l-20.44,13.45a1.59,1.59,0,0,0-.47,2.3l5,7.57a1.32,1.32,0,0,0,2,.3l9.59-6.31a1.77,1.77,0,0,1,2.21.35l15,22.83a1.71,1.71,0,0,1-.6,2.39l-9.46,6.22a2,2,0,0,0-.18,2.47l20.17,30.66a1.87,1.87,0,0,1-.48,2.84l-22,14.44a2,2,0,0,1-2.47-.73Z"/><path class="cls-4" d="M387.59,45.7c-.9.2-1-.44-2.37-6.45-2.25-10.12,3.54-20.94,16.86-23.9,14.08-3.12,23.85,4,26.07,14L435.84,64c.23,1,.62.94,3.43.32a1,1,0,0,1,1.13.82l1.76,7.94c1.39,6.28-2.47,14.92-9.64,16.51-5.89,1.31-8.62-.1-11.19-2.62-.84-.75-1.28-.92-1.54-.87s-.58.4-1.12,1.6a11.45,11.45,0,0,1-8,6.34c-5.38,1.19-14.31-1.53-17.15-14.33l-2.1-9.48c-2.24-10.11,3.35-17,9.74-21.5,8.46-6,8.66-7.57,7.67-12.05-.4-1.79-1.37-2.51-2.52-2.26-2.05.45-1.88,1.22-.57,7.11a1.07,1.07,0,0,1-.93,1.28Zm26.15,13.14a1,1,0,0,0-1-.85,4.1,4.1,0,0,0-2.45,4.71l2.1,9.47a2.1,2.1,0,1,0,4.1-.91Z"/><path class="cls-4" d="M223.07,135.82c-.11-.24-.35-.41-.46-.35s-.12.35,0,.58l10.89,21.68c.23.47.12.82-.47,1.12L217,166.91a1.19,1.19,0,0,1-1.53-.7l-44-87.53a1,1,0,0,1,.35-1.35l15.7-7.89c.47-.24.94.11,1.18.58l17.84,35.51c.17.35.35.41.47.35a1.6,1.6,0,0,0-.12-.53l-5-17.76a1.24,1.24,0,0,1,.46-1.41L218.68,78a1,1,0,0,1,1.35.64l6,33.54a3.89,3.89,0,0,0,.24,1c.11.24.53.47.76.64l28.68,32.27a1,1,0,0,1-.17,1.4L238.3,156.2a1.22,1.22,0,0,1-1.4-.47Z"/><path class="cls-4" d="M228.88,75c-.33-.71-.18-1.35.41-1.62l15.05-6.83a1,1,0,0,1,1.39.52l20.7,45.62c.82,1.79,2.16,1.9,3,1.52s1.64-1.47.83-3.26L249.55,65.3A.94.94,0,0,1,250,64l15.53-7a1.05,1.05,0,0,1,1.45.35l31.76,70a.93.93,0,0,1-.57,1.27l-14.1,6.4c-.71.32-3.33-3.53-4-3.21-.24.11-.49.51-.88,1.56-1.23,3-2.72,5.12-7,7.07-4.89,2.22-13.07,1-16.86-7.33Z"/><path class="cls-4" d="M286.18,72.48C282,61.16,287.63,50.28,300.3,45.6s24-.18,28.43,11.87l12.89,35c4.23,11.44-1.4,22.32-14.08,27s-24.06-.07-28.24-11.39Zm31.13,25.27c.55,1.48,1.53,2.24,2.88,1.74s1.6-1.71,1.06-3.19L310.44,67c-.5-1.35-1.64-2.19-2.87-1.74s-1.56,1.84-1.06,3.19Z"/><path class="cls-4" d="M365.73,80.32c-.07-.25-.28-.46-.4-.42s-.17.32-.1.57l7.13,23.2c.15.5,0,.83-.65,1L354.54,110a1.19,1.19,0,0,1-1.39-.94L324.38,15.38A1,1,0,0,1,325,14.1l16.79-5.16c.51-.15.91.27,1.07.77l11.67,38c.11.37.28.46.4.42a1.31,1.31,0,0,0,0-.54l-1.93-18.34a1.23,1.23,0,0,1,.7-1.31L371,22.58a1,1,0,0,1,1.23.86l.31,34.06a3.9,3.9,0,0,0,.06,1.08c.07.25.44.55.64.76l22.9,36.59a1,1,0,0,1-.4,1.36L377.35,103a1.25,1.25,0,0,1-1.31-.7Z"/><path class="cls-5" d="M131.9,225.26S360.75,48.79,739.09,54.8"/><path class="cls-5" d="M131.6,225.64S364,54.21,741.74,68.13"/><path class="cls-5" d="M131.31,226s236-166.38,613.08-144.56"/><path class="cls-5" d="M131,226.4S370.6,65.06,747,94.78"/><path class="cls-5" d="M130.72,226.79s243.17-156.31,619-118.68"/><path class="cls-5" d="M130.42,227.17S377.17,75.91,752.33,121.44"/><path class="cls-5" d="M130.13,227.55S380.45,81.33,755,134.77"/><path class="cls-6" d="M898.16,20.17a4.46,4.46,0,1,0-4.46-4.46A4.46,4.46,0,0,0,898.16,20.17Z"/><path class="cls-6" d="M838.07,24.37a5,5,0,0,0,4.5-2.82A2.28,2.28,0,1,0,844.45,18a2.22,2.22,0,0,0-1.44.53,5,5,0,1,0-4.94,5.85Z"/><path class="cls-6" d="M717.23,75a5.47,5.47,0,1,0,5.47-5.47A5.47,5.47,0,0,0,717.23,75Z"/><path class="cls-6" d="M950,162.54a7.05,7.05,0,0,0-2.26.38,10.39,10.39,0,0,0,.75-5.92,5.55,5.55,0,0,0,.82.07,5,5,0,1,0-4.69-6.76,10.7,10.7,0,0,0-14.35.85l-.19-.32a4.67,4.67,0,1,0-6.8-5.84c-.27-.13-.54-.26-.82-.37a7.29,7.29,0,0,0-12.12-7.46c-.35-.3-.69-.59-1-.9a11.29,11.29,0,1,0-13.64-17.66l-.15-.34c-.28-1.09-.59-2.15-.92-3.18a9.8,9.8,0,0,0-6.43-18.49l0-.08a11.77,11.77,0,0,0-2-23.33,12.57,12.57,0,0,0-2.39.21c0-.35,0-.7,0-1.06a26.89,26.89,0,0,0-4.56-15A6.08,6.08,0,0,0,883.44,59a6.16,6.16,0,1,0,0-12.31,6,6,0,0,0-2.14.39,7.89,7.89,0,0,0,.75-3.33,7.81,7.81,0,0,0-13.53-5.3,4.56,4.56,0,1,0-4.46,5.5,4.49,4.49,0,0,0,2.4-.69c0,.17,0,.33,0,.49a7.77,7.77,0,0,0,1,3.75,27,27,0,0,0-21.72.22,14.11,14.11,0,0,0-.49-1.56A7.06,7.06,0,0,0,851,41.07a5.47,5.47,0,1,0-2.32-7.34,7.06,7.06,0,0,0-11.36,3.83c-.29-.14-.57-.29-.87-.42A3.87,3.87,0,0,0,831.91,31a6.15,6.15,0,1,0-10.26-4.58,6.16,6.16,0,0,0,6.16,6.16A6,6,0,0,0,831,31.7a3.88,3.88,0,0,0-.8,4.2,16,16,0,0,0-1.71.1,4.29,4.29,0,0,0-6.85-3,5.7,5.7,0,0,0-10-5.1c0-.14,0-.29.05-.43a5.93,5.93,0,1,0-11.84-.68,5.87,5.87,0,0,0,.37,2.41,6.38,6.38,0,1,0-1.75,12.52h.19A13,13,0,0,0,797,47.86c0,.3,0,.61,0,.91-.32,0-.64.11-.95.18,0-.06,0-.12,0-.18a8,8,0,1,0-9.56,7.82c-.17.37-.33.74-.48,1.12A8.64,8.64,0,0,0,778.66,64l-.84,0a15.42,15.42,0,0,0-11.33-19,8.89,8.89,0,1,0-5.8-.26c-.33,0-.65.08-1,.15a15.43,15.43,0,0,0-11.61,10.59,6.38,6.38,0,1,0-9.9,7.55,11.84,11.84,0,0,0,1.07,23.25,5.06,5.06,0,0,0-.39,1.95,5,5,0,0,0,2.72,4.46c-.07.57-.13,1.15-.17,1.74a13,13,0,0,0-2.17-.2,12.66,12.66,0,0,0-12.62,14.4c-.26.14-.51.3-.76.46a5.7,5.7,0,1,0-4.87,8.78c0,.07,0,.14,0,.21a11.19,11.19,0,0,0,.11,1.43,7.5,7.5,0,0,0,2.13,9.66A6.28,6.28,0,0,0,722,129a6.38,6.38,0,0,0-5.12,10.18c-.12.08-.24.16-.35.25a9.64,9.64,0,0,0-1.12,1,4.74,4.74,0,0,0-2.53-.73,4.79,4.79,0,0,0-.24,9.57c0,.52-.08,1.05-.08,1.58a16.27,16.27,0,0,0,.54,4.09A11.51,11.51,0,0,0,695,164.45a11.14,11.14,0,0,0,.17,1.92,8.67,8.67,0,0,1-.83-.36c-1-.48-2-1.16-3-1.58a5,5,0,1,0-8.37-3.71,5,5,0,0,0,.23,1.5,18,18,0,0,0-2.08-.14,16.37,16.37,0,0,0-11.52,4.72A10.14,10.14,0,0,0,669,166a3.63,3.63,0,0,0-.31-7.08,4.79,4.79,0,1,0-3,.83,3.62,3.62,0,0,0-1.28,2.75,2.21,2.21,0,0,0,0,.37,10.36,10.36,0,0,0-7.55-5c-.1-.23-.2-.45-.32-.67a5.24,5.24,0,1,0-6.57-7.64,4.67,4.67,0,0,0-.68-1.24,6.61,6.61,0,0,0,3.07-9.72,5.07,5.07,0,0,0,1.29.17A5.25,5.25,0,1,0,649,136a6.69,6.69,0,0,0-2.2-.38,6.61,6.61,0,0,0-3.94,11.91,4.45,4.45,0,0,0-1.69,4.33,9.45,9.45,0,0,0-3.58-1.13,5,5,0,1,0-3.28.21,9.59,9.59,0,0,0-6.82,6.2,5.48,5.48,0,1,0,.53,7.46,9.59,9.59,0,0,0,6.43,5,15.23,15.23,0,0,0-1.64,4.09,8.84,8.84,0,0,0,2.55,12.85,15,15,0,0,0,1.9,2.16,7.28,7.28,0,0,0-1.65,3.1c0-.1,0-.21,0-.31a8.43,8.43,0,0,0-16.8-1,7.3,7.3,0,1,0,3.4,7.84,8.43,8.43,0,0,0,13.18-4.91,7.24,7.24,0,0,0,.1,1.38,7.57,7.57,0,0,0,.63,2h-.05a3.2,3.2,0,1,0,3.18,3.25,7.29,7.29,0,0,0,10.68-7.2l.77-.12a9.71,9.71,0,0,0,19.4-.68,9.92,9.92,0,0,0-.13-1.55,16.34,16.34,0,0,0,7.81,4.1A7.29,7.29,0,1,0,687,205.79a4.22,4.22,0,0,0-.34,1.67,4.33,4.33,0,0,0,4.34,4.33,4.28,4.28,0,0,0,2.66-.94,5.69,5.69,0,0,0,7.69,1,7.72,7.72,0,0,0,1.77,1.29,3.82,3.82,0,1,0,.62.3,7.8,7.8,0,0,0,1.73.49,11.16,11.16,0,1,0,17.42-10.67,12,12,0,0,1,1.31-.93,8.88,8.88,0,0,0,17.22,1.19,8,8,0,0,0,7.94,7.33,7.31,7.31,0,0,0,1-.08,5.93,5.93,0,0,0,7,9.39,9.81,9.81,0,0,0,7.37,3.67c.54.29,1.1.58,1.66.85a12,12,0,1,0,6.9,22.23,3.5,3.5,0,0,0-.07.65,3.42,3.42,0,1,0,6.84,0,3.36,3.36,0,0,0-.55-1.86l.4-.28a13.92,13.92,0,0,0,11.18,5.63,14.06,14.06,0,0,0,4-.58c.05.12.1.23.15.36A10,10,0,0,0,789,265.58l-1.64.55A24.68,24.68,0,0,0,740.07,276a25,25,0,0,0,.5,5,12.61,12.61,0,0,0-5-2.77,5.24,5.24,0,1,0-3.85-.5,12.76,12.76,0,0,0-11.85,8.77,4.09,4.09,0,1,0-4.79,5.84l-.19.13a6.84,6.84,0,0,0-8.26,3.14,4.11,4.11,0,1,0-.84,3.11,1.34,1.34,0,0,0,0,.2,6.86,6.86,0,0,0,1.16,3.82,10.25,10.25,0,0,0-9,17.39,6.38,6.38,0,1,0,2.68,10.8,9.25,9.25,0,0,0-.27,2.19,9.57,9.57,0,0,0,16.78,6.3,12.92,12.92,0,0,0,2.35.22,12.26,12.26,0,0,0,1.36-.07,16.18,16.18,0,0,0,24.55,4.62c.19.07.38.15.58.21a5.24,5.24,0,1,0,8.16.54,6.15,6.15,0,0,0,10.06-4.75,6.16,6.16,0,0,0-3.74-5.67c0-.17,0-.33,0-.5h.29a9.78,9.78,0,0,0,6.1-2.13,8.51,8.51,0,0,0-.4,2.59A8.67,8.67,0,1,0,779.54,327a14.42,14.42,0,0,0,2,.15A14.14,14.14,0,0,0,795.66,313c0-.09,0-.19,0-.29h.25a8,8,0,0,0,4.59.1,7.75,7.75,0,0,0,11.75,10.07,5.24,5.24,0,1,0,9.87,3.49v.09a17.33,17.33,0,0,0,17.33,17.33c.59,0,1.18,0,1.76-.09a4.78,4.78,0,1,0,5-1.27,17.33,17.33,0,0,0-6.73-33.3c-.35,0-.68,0-1,.05a9.33,9.33,0,0,0,1.74-14.12,34.43,34.43,0,0,0,1.76-9.51,8.94,8.94,0,0,0,7-16.36,6.6,6.6,0,0,0,4.45-10.75,12.44,12.44,0,0,0,1.37.07,13.67,13.67,0,0,0,6.06-25.93A5.92,5.92,0,0,0,859,221.44a9.39,9.39,0,0,0,2.48-3.94,6.81,6.81,0,0,0,1.21-3.88,6.58,6.58,0,0,0-.18-1.55c.25-.61.49-1.24.71-1.87a5.14,5.14,0,1,0,6.82-7.1,13.53,13.53,0,0,0,9-11.31,8,8,0,0,0,1.71-1.58A6.66,6.66,0,0,0,892.62,186a7.33,7.33,0,0,0-.09-1.06q2.37-.56,4.44-1.26a8,8,0,0,0,15-3.84,8.38,8.38,0,0,0-.32-2.25h.06a12.81,12.81,0,0,0,23.94,4.82h.08a7.91,7.91,0,0,0-.06.85,7.06,7.06,0,1,0,9-6.77,6.78,6.78,0,0,0,.84-.93l.24-.37a7,7,0,0,0,4.28,1.46,7.07,7.07,0,1,0,0-14.14ZM753.22,72a7.4,7.4,0,0,0-.55.79,11.09,11.09,0,0,0-.34-1.54C752.62,71.55,752.91,71.8,753.22,72Zm-64.35,131.1.48.34a4.27,4.27,0,0,0-.87.47A7.55,7.55,0,0,0,688.87,203.14Zm13.73,123.8q0-.35,0-.69a6.37,6.37,0,0,0-1.38-4,10.26,10.26,0,0,0,3.89.77,10.78,10.78,0,0,0,1.81-.17c-.11.39-.21.79-.29,1.2A9.57,9.57,0,0,0,702.6,326.94Z"/><path class="cls-6" d="M705.83,129.25a4.55,4.55,0,0,0,3.08-7.91,3.87,3.87,0,1,0,2.39-6.91,3.88,3.88,0,0,0-3.88,3.88,3.84,3.84,0,0,0,1.13,2.73,4.56,4.56,0,1,0-2.72,8.21Z"/><circle class="cls-6" cx="715.4" cy="36.46" r="6.61"/><path class="cls-6" d="M654.3,119.68A2.28,2.28,0,1,0,652,117.4,2.28,2.28,0,0,0,654.3,119.68Z"/><path class="cls-6" d="M895.52,70.66a2.51,2.51,0,1,0,2.51,2.5A2.5,2.5,0,0,0,895.52,70.66Z"/><path class="cls-6" d="M733,92.09a3.2,3.2,0,1,0-3.19-3.19A3.19,3.19,0,0,0,733,92.09Z"/><path class="cls-6" d="M600.94,193.09a6.39,6.39,0,1,0,6.39,6.39A6.39,6.39,0,0,0,600.94,193.09Z"/><path class="cls-6" d="M677.55,128.8a4.56,4.56,0,1,0-4.56-4.56A4.56,4.56,0,0,0,677.55,128.8Z"/><path class="cls-6" d="M690.32,135.18a3.65,3.65,0,1,0-3.65-3.65A3.64,3.64,0,0,0,690.32,135.18Z"/><path class="cls-6" d="M613.48,166.19a4.33,4.33,0,1,0-4.33-4.33A4.33,4.33,0,0,0,613.48,166.19Z"/><path class="cls-6" d="M631,176.22a3.65,3.65,0,1,0-3.65,3.65A3.65,3.65,0,0,0,631,176.22Z"/><path class="cls-6" d="M678.92,140.2a3.65,3.65,0,1,0,3.65,3.65A3.65,3.65,0,0,0,678.92,140.2Z"/><path class="cls-6" d="M697.62,94.14A3.19,3.19,0,1,0,694.43,91,3.19,3.19,0,0,0,697.62,94.14Z"/><path class="cls-6" d="M852.89,10.69a3,3,0,1,0-3-3A3,3,0,0,0,852.89,10.69Z"/><path class="cls-6" d="M840.12,2.48a2.05,2.05,0,1,0-2-2A2,2,0,0,0,840.12,2.48Z"/><path class="cls-6" d="M739.34,39.88A4.34,4.34,0,1,0,735,35.54,4.33,4.33,0,0,0,739.34,39.88Z"/><path class="cls-6" d="M880.7,36.68a4.66,4.66,0,0,0,2-.43,7.43,7.43,0,1,0,12.11-1,2.74,2.74,0,0,0,.51.06,3.42,3.42,0,0,0,.12-6.83,8,8,0,1,0-14-1.32,4.4,4.4,0,0,0-.73-.06,4.79,4.79,0,0,0,0,9.57Z"/><path class="cls-6" d="M716.77,230.94a3.65,3.65,0,1,0-3.65-3.64A3.65,3.65,0,0,0,716.77,230.94Z"/><path class="cls-6" d="M597.3,167.33a2.51,2.51,0,1,0-2.51-2.51A2.5,2.5,0,0,0,597.3,167.33Z"/><path class="cls-6" d="M858.36,313.25a3,3,0,1,0,3,3A3,3,0,0,0,858.36,313.25Z"/><path class="cls-6" d="M740.48,376.41a4.54,4.54,0,0,0-3.87,2.16,10.7,10.7,0,0,0-3.91-11.69,9.58,9.58,0,1,0-6.8-9.35,7.07,7.07,0,1,0-7.44,10.73A10.7,10.7,0,1,0,736,380.11a4.91,4.91,0,0,0-.08.86,4.56,4.56,0,1,0,4.56-4.56Z"/><path class="cls-6" d="M709.47,288.4a1.82,1.82,0,1,0-1.82,1.82A1.81,1.81,0,0,0,709.47,288.4Z"/><path class="cls-6" d="M738,257.39a4.79,4.79,0,1,0,4.79,4.79A4.78,4.78,0,0,0,738,257.39Z"/><path class="cls-6" d="M746,257.85a3.65,3.65,0,1,0-3.64-3.65A3.65,3.65,0,0,0,746,257.85Z"/><path class="cls-6" d="M750.29,47.17A4.33,4.33,0,1,0,746,42.84,4.33,4.33,0,0,0,750.29,47.17Z"/><path class="cls-6" d="M844.45,26.2a3.65,3.65,0,1,0,3.65-3.65A3.64,3.64,0,0,0,844.45,26.2Z"/><path class="cls-6" d="M714.65,351.19a5.93,5.93,0,1,0-1.82-5.77,4.94,4.94,0,0,0-2.9-.93,5,5,0,1,0,4.72,6.7Z"/><path class="cls-6" d="M732.05,55.38A3.42,3.42,0,1,0,728.63,52,3.42,3.42,0,0,0,732.05,55.38Z"/><path class="cls-6" d="M789.73,326.25a5.93,5.93,0,1,0,5.93,5.93A5.93,5.93,0,0,0,789.73,326.25Z"/><path class="cls-6" d="M785.4,338.56a3.42,3.42,0,1,0,3.42,3.42A3.42,3.42,0,0,0,785.4,338.56Z"/><path class="cls-6" d="M843.08,300a2.51,2.51,0,1,0,2.51-2.51A2.52,2.52,0,0,0,843.08,300Z"/><path class="cls-6" d="M694.88,128.8a3.65,3.65,0,1,0,3.65-3.65A3.65,3.65,0,0,0,694.88,128.8Z"/><path class="cls-7" d="M789.42,274.53a24.68,24.68,0,1,1-24.68-24.68A24.67,24.67,0,0,1,789.42,274.53Z"/><path class="cls-7" d="M915.19,124.93a11.3,11.3,0,1,1-11.3-11.3A11.3,11.3,0,0,1,915.19,124.93Z"/><path class="cls-7" d="M751.21,330.28a16.2,16.2,0,1,1-16.2-16.2A16.2,16.2,0,0,1,751.21,330.28Z"/><circle class="cls-7" cx="806.5" cy="290.05" r="19.62"/><path class="cls-7" d="M896.82,22.52a8,8,0,1,1-8-8A8,8,0,0,1,896.82,22.52Z"/><path class="cls-7" d="M832.92,214.76a17.38,17.38,0,1,1-17.38-17.38A17.38,17.38,0,0,1,832.92,214.76Z"/><path class="cls-7" d="M855.14,200.83a8,8,0,1,1-8-8A8,8,0,0,1,855.14,200.83Z"/><path class="cls-7" d="M813.16,192.12a10,10,0,1,1-10-10A10,10,0,0,1,813.16,192.12Z"/><path class="cls-7" d="M778,55.4a15.46,15.46,0,1,1-18.3-12A15.45,15.45,0,0,1,778,55.4Z"/><path class="cls-7" d="M743.06,155.63a9.88,9.88,0,1,1-9.87-9.87A9.87,9.87,0,0,1,743.06,155.63Z"/><path class="cls-7" d="M879.14,188.88a13.55,13.55,0,1,1-13.55-13.55A13.55,13.55,0,0,1,879.14,188.88Z"/><path class="cls-7" d="M806.93,110A12.19,12.19,0,1,1,794.74,97.8,12.19,12.19,0,0,1,806.93,110Z"/><path class="cls-7" d="M883.76,70.9a27,27,0,1,1-27-27A27,27,0,0,1,883.76,70.9Z"/><path class="cls-7" d="M665.83,166.76a10.37,10.37,0,1,1-10.36-10.36A10.36,10.36,0,0,1,665.83,166.76Z"/><path class="cls-7" d="M897.73,83.67a11.77,11.77,0,1,1-11.61-11.92A11.77,11.77,0,0,1,897.73,83.67Z"/><path class="cls-7" d="M902.62,14.27a4.46,4.46,0,1,1-4.46-4.46A4.46,4.46,0,0,1,902.62,14.27Z"/><path class="cls-7" d="M853.51,275.6a8.94,8.94,0,1,1-8.94-8.94A8.94,8.94,0,0,1,853.51,275.6Z"/><path class="cls-7" d="M949.75,181.85a7.06,7.06,0,1,1-7.06-7A7.05,7.05,0,0,1,949.75,181.85Z"/><path class="cls-7" d="M718.09,163a11.54,11.54,0,1,1-11.53-11.54A11.54,11.54,0,0,1,718.09,163Z"/><path class="cls-7" d="M896.51,38.59a7.43,7.43,0,1,1-7.43-7.44A7.43,7.43,0,0,1,896.51,38.59Z"/><path class="cls-7" d="M863.66,126.55a8.15,8.15,0,1,1-8.15-8.15A8.15,8.15,0,0,1,863.66,126.55Z"/><path class="cls-7" d="M697.58,177.05a16.41,16.41,0,1,1-16.4-16.41A16.41,16.41,0,0,1,697.58,177.05Z"/><ellipse class="cls-7" cx="831.67" cy="175.19" rx="22.23" ry="21.72"/><path class="cls-7" d="M779.07,235.28a12,12,0,1,1-12.05-12A12,12,0,0,1,779.07,235.28Z"/><path class="cls-7" d="M769.2,175.89a17,17,0,1,1-17-17A17,17,0,0,1,769.2,175.89Z"/><path class="cls-7" d="M747.24,135.08a10,10,0,1,1-10-10A10,10,0,0,1,747.24,135.08Z"/><path class="cls-7" d="M887.33,158.77a18.7,18.7,0,1,1-18.7-18.7A18.7,18.7,0,0,1,887.33,158.77Z"/><path class="cls-7" d="M882.05,42.34a7.81,7.81,0,1,1-7.81-7.8A7.81,7.81,0,0,1,882.05,42.34Z"/><path class="cls-7" d="M796.61,206.67a11.6,11.6,0,1,1-11.6-11.6A11.6,11.6,0,0,1,796.61,206.67Z"/><circle class="cls-7" cx="791.18" cy="235.69" r="13.95" transform="translate(422.66 974.42) rotate(-80.08)"/><path class="cls-7" d="M760,147.22a8.76,8.76,0,1,1-8.76-8.76A8.76,8.76,0,0,1,760,147.22Z"/><path class="cls-7" d="M670.09,190.55a9.72,9.72,0,1,1-9.72-9.71A9.72,9.72,0,0,1,670.09,190.55Z"/><circle class="cls-7" cx="739.27" cy="105.52" r="12.75" transform="translate(141.91 553.65) rotate(-45)"/><path class="cls-7" d="M646.09,158.82a9.58,9.58,0,1,1-9.58-9.57A9.58,9.58,0,0,1,646.09,158.82Z"/><path class="cls-7" d="M649.86,190.88a7.29,7.29,0,1,1-8.42-6A7.29,7.29,0,0,1,649.86,190.88Z"/><path class="cls-7" d="M650.19,149.7a4.56,4.56,0,1,1-4.56-4.56A4.56,4.56,0,0,1,650.19,149.7Z"/><path class="cls-7" d="M828.49,108a10.26,10.26,0,1,1-10.26-10.26A10.26,10.26,0,0,1,828.49,108Z"/><path class="cls-7" d="M842.63,300a9.35,9.35,0,1,1-9.35-9.35A9.35,9.35,0,0,1,842.63,300Z"/><path class="cls-7" d="M752.79,73.09a11.86,11.86,0,1,1-11.85-11.85A11.85,11.85,0,0,1,752.79,73.09Z"/><path class="cls-7" d="M828.72,78.11a5.7,5.7,0,1,1-5.7-5.7A5.7,5.7,0,0,1,828.72,78.11Z"/><path class="cls-7" d="M911.94,178.43a8,8,0,1,1-8-8A8,8,0,0,1,911.94,178.43Z"/><path class="cls-7" d="M848.35,135a8,8,0,1,1-8-8A8,8,0,0,1,848.35,135Z"/><path class="cls-7" d="M715.59,190.06a9.93,9.93,0,1,1-9.93-9.93A9.92,9.92,0,0,1,715.59,190.06Z"/><path class="cls-7" d="M883.75,109.25a11.54,11.54,0,1,1-11.53-11.53A11.54,11.54,0,0,1,883.75,109.25Z"/><path class="cls-7" d="M703.77,205.79a5.7,5.7,0,1,1-5.7-5.7A5.7,5.7,0,0,1,703.77,205.79Z"/><path class="cls-7" d="M892.62,184.59a6.67,6.67,0,1,1-6.67-6.67A6.67,6.67,0,0,1,892.62,184.59Z"/><path class="cls-7" d="M909,147.65a11.4,11.4,0,1,1-11.4-11.4A11.4,11.4,0,0,1,909,147.65Z"/><path class="cls-7" d="M837.16,124.85a6.62,6.62,0,1,1-6.62-6.61A6.61,6.61,0,0,1,837.16,124.85Z"/><circle class="cls-7" cx="853.57" cy="34.79" r="5.47"/><circle class="cls-7" cx="799.31" cy="148.33" r="6.61"/><path class="cls-7" d="M659.54,151.07a5.25,5.25,0,1,1-5.24-5.24A5.24,5.24,0,0,1,659.54,151.07Z"/><path class="cls-7" d="M757.35,201.46a8,8,0,1,1-8-8A8,8,0,0,1,757.35,201.46Z"/><circle class="cls-7" cx="775.82" cy="80.62" r="9.8" transform="translate(28.21 303.03) rotate(-22.5)"/><path class="cls-7" d="M807.06,57.59a5,5,0,1,1-5-5A5,5,0,0,1,807.06,57.59Z"/><path class="cls-7" d="M804.78,33.88a6.39,6.39,0,1,1-6.39-6.39A6.39,6.39,0,0,1,804.78,33.88Z"/><path class="cls-7" d="M795.66,64.89A8.67,8.67,0,1,1,787,56.22,8.67,8.67,0,0,1,795.66,64.89Z"/><path class="cls-7" d="M764.65,81.76a7.3,7.3,0,1,1-7.3-7.3A7.29,7.29,0,0,1,764.65,81.76Z"/><path class="cls-7" d="M717.68,143.09a4.79,4.79,0,1,1-4.79-4.79A4.79,4.79,0,0,1,717.68,143.09Z"/><path class="cls-7" d="M778.33,123.94a16.65,16.65,0,1,1-16.64-16.65A16.64,16.64,0,0,1,778.33,123.94Z"/><path class="cls-7" d="M814.81,85a14.59,14.59,0,1,1-14.59-14.59A14.59,14.59,0,0,1,814.81,85Z"/><path class="cls-7" d="M754.16,299.5a8,8,0,1,1-8-8A8,8,0,0,1,754.16,299.5Z"/><path class="cls-7" d="M798.85,132.83a10.49,10.49,0,1,1-10.49-10.49A10.49,10.49,0,0,1,798.85,132.83Z"/><path class="cls-7" d="M823,46.42a13,13,0,1,1-13-13A13,13,0,0,1,823,46.42Z"/><path class="cls-7" d="M727.71,211a11.17,11.17,0,1,1-11.17-11.17A11.18,11.18,0,0,1,727.71,211Z"/><path class="cls-7" d="M784.71,100.91a9.58,9.58,0,1,1-9.57-9.58A9.57,9.57,0,0,1,784.71,100.91Z"/><path class="cls-7" d="M922.88,140.81a7.3,7.3,0,1,1-7.29-7.3A7.29,7.29,0,0,1,922.88,140.81Z"/><path class="cls-7" d="M796.12,47.33a8,8,0,1,1-8-8A8,8,0,0,1,796.12,47.33Z"/><path class="cls-7" d="M811.61,26A5.93,5.93,0,1,1,806,19.75,5.94,5.94,0,0,1,811.61,26Z"/><path class="cls-7" d="M834,25a6.16,6.16,0,1,1-6.15-6.15A6.15,6.15,0,0,1,834,25Z"/><path class="cls-7" d="M826.67,89.51a8.21,8.21,0,1,1-8.21-8.21A8.22,8.22,0,0,1,826.67,89.51Z"/><path class="cls-7" d="M828.49,35a4.33,4.33,0,1,1-4.33-4.34A4.33,4.33,0,0,1,828.49,35Z"/><path class="cls-7" d="M772.86,35a8.89,8.89,0,1,1-8.89-8.9A8.89,8.89,0,0,1,772.86,35Z"/><path class="cls-7" d="M937.24,174.77A12.82,12.82,0,1,1,924.42,162,12.82,12.82,0,0,1,937.24,174.77Z"/><path class="cls-7" d="M837.61,33a3.88,3.88,0,1,1-3.87-3.87A3.88,3.88,0,0,1,837.61,33Z"/><path class="cls-7" d="M843.08,17.92a5,5,0,1,1-5-5A5,5,0,0,1,843.08,17.92Z"/><path class="cls-7" d="M822.75,130.47a12.18,12.18,0,1,1-12.17-12.18A12.17,12.17,0,0,1,822.75,130.47Z"/><circle class="cls-7" cx="840.58" cy="109.35" r="12.08"/><path class="cls-7" d="M854.15,220.64a12.5,12.5,0,1,1-12.49-12.49A12.5,12.5,0,0,1,854.15,220.64Z"/><circle class="cls-7" cx="646.77" cy="140.81" r="6.61"/><path class="cls-7" d="M775.14,194.16a5,5,0,1,1-5-5A5,5,0,0,1,775.14,194.16Z"/><path class="cls-7" d="M840.35,53.26A9.35,9.35,0,1,1,831,43.91,9.35,9.35,0,0,1,840.35,53.26Z"/><path class="cls-7" d="M824.39,66.48a8.9,8.9,0,1,1-8.89-8.89A8.89,8.89,0,0,1,824.39,66.48Z"/><path class="cls-7" d="M728.17,73.55a5.47,5.47,0,1,1-5.47-5.47A5.47,5.47,0,0,1,728.17,73.55Z"/><path class="cls-7" d="M748.69,56.68a6.39,6.39,0,1,1-6.38-6.39A6.38,6.38,0,0,1,748.69,56.68Z"/><path class="cls-7" d="M635.6,190.06a8.44,8.44,0,1,1-8.44-8.44A8.43,8.43,0,0,1,635.6,190.06Z"/><path class="cls-7" d="M821.88,29.77a5.7,5.7,0,1,1-5.7-5.7A5.7,5.7,0,0,1,821.88,29.77Z"/><path class="cls-7" d="M868.39,243.41a13.68,13.68,0,1,1-13.68-13.68A13.67,13.67,0,0,1,868.39,243.41Z"/><path class="cls-7" d="M948.63,157.94a10.72,10.72,0,1,1-10-11.41A10.73,10.73,0,0,1,948.63,157.94Z"/><path class="cls-7" d="M856.76,325a17.33,17.33,0,1,1-17.32-17.33A17.32,17.32,0,0,1,856.76,325Z"/><circle class="cls-7" cx="843.08" cy="148.56" r="6.16"/><path class="cls-7" d="M744.81,289a12.77,12.77,0,1,1-12.76-12.77A12.76,12.76,0,0,1,744.81,289Z"/><path class="cls-7" d="M957.09,168.17A7.07,7.07,0,1,1,950,161.1,7.08,7.08,0,0,1,957.09,168.17Z"/><path class="cls-7" d="M795.66,311.58a14.14,14.14,0,1,1-14.14-14.13A14.14,14.14,0,0,1,795.66,311.58Z"/><path class="cls-7" d="M787,152.89a12.77,12.77,0,1,1-12.76-12.76A12.76,12.76,0,0,1,787,152.89Z"/><path class="cls-7" d="M715.4,311.36a10.26,10.26,0,1,1-10.26-10.26A10.26,10.26,0,0,1,715.4,311.36Z"/><path class="cls-7" d="M793.15,186.64a8.44,8.44,0,1,1-8.44-8.44A8.43,8.43,0,0,1,793.15,186.64Z"/><circle class="cls-7" cx="732.96" cy="199.41" r="8.89"/><path class="cls-7" d="M810.48,165.44a13,13,0,1,1-13-13A13,13,0,0,1,810.48,165.44Z"/><path class="cls-7" d="M710.39,123.25a4.56,4.56,0,1,1-4.56-4.56A4.56,4.56,0,0,1,710.39,123.25Z"/><path class="cls-7" d="M900.77,104.56A9.81,9.81,0,1,1,891,94.75,9.81,9.81,0,0,1,900.77,104.56Z"/><path class="cls-7" d="M764.88,97.49a7.07,7.07,0,1,1-7.07-7.07A7.08,7.08,0,0,1,764.88,97.49Z"/><path class="cls-7" d="M648.82,177.52a8.89,8.89,0,1,1-8.89-8.89A8.89,8.89,0,0,1,648.82,177.52Z"/><path class="cls-7" d="M745,356.27a9.58,9.58,0,1,1-9.57-9.57A9.58,9.58,0,0,1,745,356.27Z"/><path class="cls-7" d="M728.4,134a6.39,6.39,0,1,1-6.39-6.38A6.38,6.38,0,0,1,728.4,134Z"/><circle class="cls-7" cx="715.4" cy="35.02" r="6.61" transform="translate(566.24 735.57) rotate(-80.78)"/><path class="cls-7" d="M843.77,259.14a16.88,16.88,0,1,1-16.87-16.87A16.88,16.88,0,0,1,843.77,259.14Z"/><path class="cls-7" d="M774.91,212.63a9.81,9.81,0,1,1-9.8-9.8A9.8,9.8,0,0,1,774.91,212.63Z"/><path class="cls-7" d="M735.24,121.66a7.53,7.53,0,1,1-7.53-7.53A7.53,7.53,0,0,1,735.24,121.66Z"/><path class="cls-7" d="M726.8,110.71a5.7,5.7,0,1,1-5.7-5.7A5.7,5.7,0,0,1,726.8,110.71Z"/><circle class="cls-7" cx="760.77" cy="322.76" r="9.8" transform="translate(-65.6 315.7) rotate(-22.5)"/><path class="cls-7" d="M807.74,259.14a10,10,0,1,1-10-10A10,10,0,0,1,807.74,259.14Z"/><path class="cls-7" d="M735.92,179.8a11.4,11.4,0,1,1-11.4-11.4A11.39,11.39,0,0,1,735.92,179.8Z"/><path class="cls-7" d="M834.42,146.28a4.56,4.56,0,1,1-4.56-4.56A4.56,4.56,0,0,1,834.42,146.28Z"/><path class="cls-7" d="M891.88,129.64A13.68,13.68,0,1,1,878.2,116,13.69,13.69,0,0,1,891.88,129.64Z"/><path class="cls-7" d="M823,151.3a6.61,6.61,0,1,1-6.61-6.61A6.61,6.61,0,0,1,823,151.3Z"/><path class="cls-7" d="M926.53,154.49a6.84,6.84,0,1,1-6.84-6.84A6.84,6.84,0,0,1,926.53,154.49Z"/><path class="cls-7" d="M656.58,116a2.28,2.28,0,1,1-2.28-2.28A2.28,2.28,0,0,1,656.58,116Z"/><path class="cls-7" d="M822.33,323.44a5.24,5.24,0,1,1-5.24-5.24A5.24,5.24,0,0,1,822.33,323.44Z"/><path class="cls-7" d="M912.7,162.73a6.61,6.61,0,1,1-3.24-8.78A6.61,6.61,0,0,1,912.7,162.73Z"/><path class="cls-7" d="M715.17,116.87A3.88,3.88,0,1,1,711.3,113,3.88,3.88,0,0,1,715.17,116.87Z"/><path class="cls-7" d="M898,71.72a2.51,2.51,0,1,1-2.51-2.5A2.51,2.51,0,0,1,898,71.72Z"/><circle class="cls-7" cx="830.09" cy="235.2" r="6.84" transform="translate(410.46 989.05) rotate(-76.72)"/><circle class="cls-7" cx="813.67" cy="239.99" r="7.52"/><path class="cls-7" d="M697.16,194.62a4.79,4.79,0,1,1-4.79-4.79A4.79,4.79,0,0,1,697.16,194.62Z"/><path class="cls-7" d="M766.93,305.43a7.07,7.07,0,1,1-7.07-7.07A7.07,7.07,0,0,1,766.93,305.43Z"/><circle class="cls-7" cx="615.08" cy="195.3" r="7.3" transform="translate(31.52 470.84) rotate(-42.89)"/><path class="cls-7" d="M730.22,309.08a7.53,7.53,0,1,1-7.52-7.53A7.52,7.52,0,0,1,730.22,309.08Z"/><path class="cls-7" d="M736.15,87.46a3.19,3.19,0,1,1-3.19-3.2A3.19,3.19,0,0,1,736.15,87.46Z"/><path class="cls-7" d="M748.92,86.77a5,5,0,1,1-5-5A5,5,0,0,1,748.92,86.77Z"/><path class="cls-7" d="M784.71,173a6.61,6.61,0,1,1-6.61-6.61A6.61,6.61,0,0,1,784.71,173Z"/><path class="cls-7" d="M607.33,198a6.39,6.39,0,1,1-6.39-6.39A6.39,6.39,0,0,1,607.33,198Z"/><path class="cls-7" d="M682.11,122.8a4.56,4.56,0,1,1-4.56-4.56A4.56,4.56,0,0,1,682.11,122.8Z"/><path class="cls-7" d="M694,130.09a3.65,3.65,0,1,1-3.65-3.64A3.64,3.64,0,0,1,694,130.09Z"/><path class="cls-7" d="M783.8,333a8.67,8.67,0,1,1-8.66-8.67A8.66,8.66,0,0,1,783.8,333Z"/><circle class="cls-7" cx="758.04" cy="338.72" r="6.16"/><path class="cls-7" d="M719.51,331.65a9.58,9.58,0,1,1-9.58-9.58A9.57,9.57,0,0,1,719.51,331.65Z"/><path class="cls-7" d="M719.51,297.45a6.84,6.84,0,1,1-6.84-6.84A6.84,6.84,0,0,1,719.51,297.45Z"/><path class="cls-7" d="M670.71,153.58a4.79,4.79,0,1,1-4.78-4.79A4.79,4.79,0,0,1,670.71,153.58Z"/><path class="cls-7" d="M617.82,160.42a4.34,4.34,0,1,1-4.34-4.33A4.33,4.33,0,0,1,617.82,160.42Z"/><path class="cls-7" d="M629.22,159.73a5.48,5.48,0,1,1-5.48-5.47A5.48,5.48,0,0,1,629.22,159.73Z"/><path class="cls-7" d="M631,174.78a3.65,3.65,0,1,1-3.65-3.65A3.64,3.64,0,0,1,631,174.78Z"/><path class="cls-7" d="M658.86,132.15a5.25,5.25,0,1,1-5.25-5.25A5.25,5.25,0,0,1,658.86,132.15Z"/><path class="cls-7" d="M640.62,144.69a5,5,0,1,1-5-5A5,5,0,0,1,640.62,144.69Z"/><path class="cls-7" d="M693.06,159.28a5,5,0,1,1-5-5A5,5,0,0,1,693.06,159.28Z"/><path class="cls-7" d="M682.57,142.41a3.65,3.65,0,1,1-3.65-3.65A3.64,3.64,0,0,1,682.57,142.41Z"/><path class="cls-7" d="M700.81,89.51a3.19,3.19,0,1,1-3.19-3.19A3.19,3.19,0,0,1,700.81,89.51Z"/><path class="cls-7" d="M851.29,37.75a7.07,7.07,0,1,1-7.07-7.07A7.06,7.06,0,0,1,851.29,37.75Z"/><path class="cls-7" d="M855.85,6.29a3,3,0,1,1-3-3A3,3,0,0,1,855.85,6.29Z"/><path class="cls-7" d="M842.17-1a2,2,0,0,1-2,2.05,2,2,0,0,1-2-2,2.05,2.05,0,0,1,2-2A2.05,2.05,0,0,1,842.17-1Z"/><path class="cls-7" d="M743.67,34.1a4.33,4.33,0,1,1-4.33-4.33A4.33,4.33,0,0,1,743.67,34.1Z"/><circle class="cls-7" cx="883.44" cy="51.43" r="6.16" transform="translate(718.05 920.78) rotate(-82.56)"/><path class="cls-7" d="M885.49,30.46a4.79,4.79,0,1,1-4.79-4.79A4.78,4.78,0,0,1,885.49,30.46Z"/><path class="cls-7" d="M689.41,199a7.3,7.3,0,1,1-7.3-7.3A7.3,7.3,0,0,1,689.41,199Z"/><path class="cls-7" d="M720.42,225.86a3.65,3.65,0,1,1-3.65-3.65A3.65,3.65,0,0,1,720.42,225.86Z"/><path class="cls-7" d="M725.43,195a4.92,4.92,0,1,1-4.92-4.92A4.92,4.92,0,0,1,725.43,195Z"/><path class="cls-7" d="M900.77,170.22a8.9,8.9,0,1,1-8.89-8.89A8.89,8.89,0,0,1,900.77,170.22Z"/><path class="cls-7" d="M737.06,374.06a10.72,10.72,0,1,1-10.71-10.72A10.71,10.71,0,0,1,737.06,374.06Z"/><path class="cls-7" d="M724.52,345.33a5.93,5.93,0,1,1-5.93-5.93A5.93,5.93,0,0,1,724.52,345.33Z"/><path class="cls-7" d="M727,359.92a7.07,7.07,0,1,1-7.07-7.07A7.07,7.07,0,0,1,727,359.92Z"/><path class="cls-7" d="M726.12,151.07a6.62,6.62,0,1,1-6.61-6.61A6.61,6.61,0,0,1,726.12,151.07Z"/><path class="cls-7" d="M814.35,316.15a7.75,7.75,0,1,1-7.75-7.76A7.75,7.75,0,0,1,814.35,316.15Z"/><circle class="cls-7" cx="856.31" cy="102.73" r="5.02"/><circle class="cls-7" cx="832.6" cy="284.22" r="5.93"/><path class="cls-7" d="M825.75,311.36a5.24,5.24,0,1,1-5.24-5.25A5.24,5.24,0,0,1,825.75,311.36Z"/><path class="cls-7" d="M854.83,261.2a6.62,6.62,0,1,1-6.62-6.62A6.61,6.61,0,0,1,854.83,261.2Z"/><path class="cls-7" d="M599.8,163.38a2.51,2.51,0,1,1-2.5-2.51A2.5,2.5,0,0,1,599.8,163.38Z"/><path class="cls-7" d="M706.28,178a3,3,0,1,1-3-3A3,3,0,0,1,706.28,178Z"/><path class="cls-7" d="M861.32,314.78a3,3,0,1,1-3-3A3,3,0,0,1,861.32,314.78Z"/><path class="cls-7" d="M745,379.53a4.56,4.56,0,1,1-4.56-4.56A4.56,4.56,0,0,1,745,379.53Z"/><path class="cls-7" d="M702.63,324.81a6.38,6.38,0,1,1-6.38-6.39A6.38,6.38,0,0,1,702.63,324.81Z"/><path class="cls-7" d="M739.57,271.68a5.25,5.25,0,1,1-5.24-5.24A5.25,5.25,0,0,1,739.57,271.68Z"/><path class="cls-7" d="M706.74,294.71a4.11,4.11,0,1,1-4.11-4.1A4.11,4.11,0,0,1,706.74,294.71Z"/><path class="cls-7" d="M709.47,287a1.82,1.82,0,1,1-1.82-1.82A1.81,1.81,0,0,1,709.47,287Z"/><path class="cls-7" d="M742.76,260.74A4.79,4.79,0,1,1,738,256,4.79,4.79,0,0,1,742.76,260.74Z"/><path class="cls-7" d="M749.6,252.76a3.65,3.65,0,1,1-3.65-3.65A3.65,3.65,0,0,1,749.6,252.76Z"/><path class="cls-7" d="M872.85,206.25a5.15,5.15,0,1,1-5.14-5.15A5.14,5.14,0,0,1,872.85,206.25Z"/><path class="cls-7" d="M864.06,225.86a5.93,5.93,0,1,1-5.93-5.93A5.92,5.92,0,0,1,864.06,225.86Z"/><path class="cls-7" d="M836.24,92.7a4.56,4.56,0,1,1-4.56-4.56A4.56,4.56,0,0,1,836.24,92.7Z"/><path class="cls-7" d="M754.62,41.4a4.34,4.34,0,1,1-4.33-4.33A4.33,4.33,0,0,1,754.62,41.4Z"/><path class="cls-7" d="M846.73,18.83a2.28,2.28,0,1,1-2.28-2.28A2.28,2.28,0,0,1,846.73,18.83Z"/><path class="cls-7" d="M868.62,38a4.56,4.56,0,1,1-4.56-4.56A4.56,4.56,0,0,1,868.62,38Z"/><path class="cls-7" d="M851.75,24.76a3.65,3.65,0,1,1-3.65-3.65A3.65,3.65,0,0,1,851.75,24.76Z"/><path class="cls-7" d="M898.72,30.46A3.42,3.42,0,1,1,895.3,27,3.42,3.42,0,0,1,898.72,30.46Z"/><circle class="cls-7" cx="636.06" cy="198.5" r="3.19"/><circle class="cls-7" cx="691.01" cy="206.02" r="4.33"/><path class="cls-7" d="M705.6,215.25a3.77,3.77,0,1,1-3.76-3.76A3.77,3.77,0,0,1,705.6,215.25Z"/><path class="cls-7" d="M671.63,161.1a3.65,3.65,0,1,1-3.65-3.65A3.65,3.65,0,0,1,671.63,161.1Z"/><path class="cls-7" d="M780.15,246.15a3.42,3.42,0,1,1-3.42-3.42A3.42,3.42,0,0,1,780.15,246.15Z"/><path class="cls-7" d="M760.55,213.54a5.93,5.93,0,1,1-5.93-5.92A5.93,5.93,0,0,1,760.55,213.54Z"/><path class="cls-7" d="M849.47,345.56a4.79,4.79,0,1,1-4.79-4.79A4.79,4.79,0,0,1,849.47,345.56Z"/><path class="cls-7" d="M755.07,346.47a5.24,5.24,0,1,1-5.24-5.25A5.23,5.23,0,0,1,755.07,346.47Z"/><path class="cls-7" d="M747.32,307.94a6.84,6.84,0,1,1-6.84-6.84A6.84,6.84,0,0,1,747.32,307.94Z"/><path class="cls-7" d="M715,348.07a5,5,0,1,1-5-5A5,5,0,0,1,715,348.07Z"/><path class="cls-7" d="M735.47,50.52a3.42,3.42,0,1,1-3.42-3.42A3.42,3.42,0,0,1,735.47,50.52Z"/><path class="cls-7" d="M862.69,212.18a6.84,6.84,0,1,1-6.84-6.84A6.84,6.84,0,0,1,862.69,212.18Z"/><circle class="cls-7" cx="949.33" cy="150.61" r="5.02"/><path class="cls-7" d="M932.23,145.48a4.68,4.68,0,1,1-4.67-4.67A4.67,4.67,0,0,1,932.23,145.48Z"/><path class="cls-7" d="M795.66,330.74a5.93,5.93,0,1,1-5.93-5.93A5.93,5.93,0,0,1,795.66,330.74Z"/><path class="cls-7" d="M788.82,340.54a3.42,3.42,0,1,1-3.42-3.42A3.42,3.42,0,0,1,788.82,340.54Z"/><path class="cls-7" d="M848.1,298.59a2.51,2.51,0,1,1-2.51-2.51A2.51,2.51,0,0,1,848.1,298.59Z"/><path class="cls-7" d="M702.18,127.36a3.65,3.65,0,1,1-3.65-3.65A3.66,3.66,0,0,1,702.18,127.36Z"/><path class="cls-7" d="M720.42,287a4.11,4.11,0,1,1-4.11-4.1A4.1,4.1,0,0,1,720.42,287Z"/><path class="cls-8" d="M788.6,272.88a24.68,24.68,0,1,1-24.68-24.68A24.68,24.68,0,0,1,788.6,272.88Z"/><path class="cls-9" d="M914.36,123.29A11.3,11.3,0,1,1,903.07,112,11.28,11.28,0,0,1,914.36,123.29Z"/><path class="cls-10" d="M750.39,328.63a16.21,16.21,0,1,1-16.2-16.2A16.2,16.2,0,0,1,750.39,328.63Z"/><circle class="cls-11" cx="805.68" cy="288.4" r="19.62"/><path class="cls-12" d="M896,20.88a8,8,0,1,1-8-8A8,8,0,0,1,896,20.88Z"/><path class="cls-13" d="M832.09,213.11a17.38,17.38,0,1,1-17.37-17.38A17.38,17.38,0,0,1,832.09,213.11Z"/><path class="cls-14" d="M854.31,199.18a8,8,0,1,1-7.95-8A8,8,0,0,1,854.31,199.18Z"/><path class="cls-4" d="M812.34,190.47a10,10,0,1,1-10-10A10,10,0,0,1,812.34,190.47Z"/><path class="cls-6" d="M777.19,53.75a15.46,15.46,0,1,1-18.29-12A15.46,15.46,0,0,1,777.19,53.75Z"/><path class="cls-11" d="M742.23,154a9.87,9.87,0,1,1-9.87-9.87A9.87,9.87,0,0,1,742.23,154Z"/><path class="cls-11" d="M878.31,187.23a13.55,13.55,0,1,1-13.54-13.55A13.55,13.55,0,0,1,878.31,187.23Z"/><path class="cls-15" d="M806.11,108.35a12.19,12.19,0,1,1-12.19-12.19A12.19,12.19,0,0,1,806.11,108.35Z"/><path class="cls-16" d="M882.94,69.26a27,27,0,1,1-27-27A27,27,0,0,1,882.94,69.26Z"/><path class="cls-4" d="M665,165.12a10.37,10.37,0,1,1-10.37-10.37A10.36,10.36,0,0,1,665,165.12Z"/><path class="cls-4" d="M896.91,82A11.77,11.77,0,1,1,885.3,70.11,11.77,11.77,0,0,1,896.91,82Z"/><path class="cls-17" d="M901.8,12.62a4.46,4.46,0,1,1-4.46-4.46A4.46,4.46,0,0,1,901.8,12.62Z"/><path class="cls-18" d="M852.69,274a8.94,8.94,0,1,1-8.94-8.93A8.94,8.94,0,0,1,852.69,274Z"/><path class="cls-14" d="M948.92,180.2a7.06,7.06,0,1,1-7-7A7.06,7.06,0,0,1,948.92,180.2Z"/><path class="cls-14" d="M717.27,161.36a11.54,11.54,0,1,1-11.54-11.54A11.54,11.54,0,0,1,717.27,161.36Z"/><path class="cls-4" d="M895.69,36.94a7.44,7.44,0,1,1-7.43-7.44A7.43,7.43,0,0,1,895.69,36.94Z"/><path class="cls-4" d="M862.84,124.91a8.15,8.15,0,1,1-8.15-8.15A8.15,8.15,0,0,1,862.84,124.91Z"/><path class="cls-8" d="M696.76,175.4A16.41,16.41,0,1,1,680.35,159,16.41,16.41,0,0,1,696.76,175.4Z"/><ellipse class="cls-19" cx="830.84" cy="173.54" rx="22.23" ry="21.72"/><path class="cls-20" d="M778.24,233.64a12,12,0,1,1-12-12A12,12,0,0,1,778.24,233.64Z"/><path class="cls-21" d="M768.38,174.25a17,17,0,1,1-17-17A17,17,0,0,1,768.38,174.25Z"/><path class="cls-13" d="M746.42,133.44a10,10,0,1,1-10-10A10,10,0,0,1,746.42,133.44Z"/><path class="cls-4" d="M886.5,157.12a18.7,18.7,0,1,1-18.69-18.7A18.69,18.69,0,0,1,886.5,157.12Z"/><path class="cls-4" d="M881.22,40.69a7.81,7.81,0,1,1-7.8-7.8A7.8,7.8,0,0,1,881.22,40.69Z"/><path class="cls-4" d="M795.78,205a11.6,11.6,0,1,1-11.6-11.6A11.6,11.6,0,0,1,795.78,205Z"/><circle class="cls-4" cx="790.36" cy="234.04" r="13.95" transform="translate(423.61 972.24) rotate(-80.08)"/><path class="cls-4" d="M759.22,145.57a8.76,8.76,0,1,1-8.76-8.76A8.76,8.76,0,0,1,759.22,145.57Z"/><path class="cls-19" d="M669.27,188.91a9.72,9.72,0,1,1-9.72-9.72A9.72,9.72,0,0,1,669.27,188.91Z"/><circle class="cls-22" cx="738.45" cy="103.87" r="12.75" transform="translate(142.84 552.59) rotate(-45)"/><path class="cls-16" d="M645.27,157.17a9.58,9.58,0,1,1-9.58-9.57A9.58,9.58,0,0,1,645.27,157.17Z"/><path class="cls-4" d="M649,189.24a7.3,7.3,0,1,1-8.42-6A7.3,7.3,0,0,1,649,189.24Z"/><path class="cls-4" d="M649.37,148.05a4.56,4.56,0,1,1-4.56-4.56A4.56,4.56,0,0,1,649.37,148.05Z"/><path class="cls-4" d="M827.67,106.33a10.26,10.26,0,1,1-10.26-10.26A10.26,10.26,0,0,1,827.67,106.33Z"/><path class="cls-21" d="M841.8,298.31a9.35,9.35,0,1,1-9.34-9.35A9.35,9.35,0,0,1,841.8,298.31Z"/><path class="cls-13" d="M752,71.45a11.86,11.86,0,1,1-11.86-11.86A11.86,11.86,0,0,1,752,71.45Z"/><path class="cls-4" d="M827.9,76.46a5.7,5.7,0,1,1-5.7-5.7A5.7,5.7,0,0,1,827.9,76.46Z"/><path class="cls-9" d="M911.12,176.78a8,8,0,1,1-8-8A8,8,0,0,1,911.12,176.78Z"/><path class="cls-13" d="M847.52,133.32a8,8,0,1,1-8-8A8,8,0,0,1,847.52,133.32Z"/><path class="cls-13" d="M714.77,188.41a9.94,9.94,0,1,1-9.93-9.93A9.94,9.94,0,0,1,714.77,188.41Z"/><path class="cls-4" d="M882.93,107.6A11.54,11.54,0,1,1,871.4,96.07,11.54,11.54,0,0,1,882.93,107.6Z"/><path class="cls-4" d="M703,204.14a5.7,5.7,0,1,1-5.7-5.7A5.7,5.7,0,0,1,703,204.14Z"/><path class="cls-4" d="M891.79,182.94a6.67,6.67,0,1,1-6.67-6.67A6.67,6.67,0,0,1,891.79,182.94Z"/><path class="cls-4" d="M908.15,146a11.4,11.4,0,1,1-11.4-11.4A11.39,11.39,0,0,1,908.15,146Z"/><path class="cls-4" d="M836.33,123.2a6.61,6.61,0,1,1-6.61-6.61A6.61,6.61,0,0,1,836.33,123.2Z"/><circle class="cls-4" cx="852.75" cy="33.14" r="5.47"/><circle class="cls-4" cx="798.48" cy="146.69" r="6.61"/><path class="cls-12" d="M658.72,149.42a5.25,5.25,0,1,1-5.25-5.24A5.25,5.25,0,0,1,658.72,149.42Z"/><path class="cls-4" d="M756.53,199.81a8,8,0,1,1-8-8A8,8,0,0,1,756.53,199.81Z"/><circle class="cls-8" cx="775" cy="78.97" r="9.8" transform="translate(28.77 302.59) rotate(-22.5)"/><path class="cls-4" d="M806.24,55.94a5,5,0,1,1-5-5A5,5,0,0,1,806.24,55.94Z"/><path class="cls-4" d="M804,32.23a6.38,6.38,0,1,1-6.38-6.39A6.38,6.38,0,0,1,804,32.23Z"/><path class="cls-4" d="M794.84,63.24a8.67,8.67,0,1,1-8.67-8.67A8.67,8.67,0,0,1,794.84,63.24Z"/><path class="cls-4" d="M763.83,80.11a7.3,7.3,0,1,1-7.3-7.3A7.29,7.29,0,0,1,763.83,80.11Z"/><path class="cls-4" d="M716.86,141.44a4.79,4.79,0,1,1-4.79-4.79A4.79,4.79,0,0,1,716.86,141.44Z"/><path class="cls-10" d="M777.51,122.29a16.65,16.65,0,1,1-16.65-16.64A16.65,16.65,0,0,1,777.51,122.29Z"/><path class="cls-4" d="M814,83.3A14.6,14.6,0,1,1,799.4,68.71,14.59,14.59,0,0,1,814,83.3Z"/><path class="cls-4" d="M753.34,297.85a8,8,0,1,1-8-8A8,8,0,0,1,753.34,297.85Z"/><path class="cls-4" d="M798,131.18a10.49,10.49,0,1,1-10.49-10.49A10.49,10.49,0,0,1,798,131.18Z"/><path class="cls-23" d="M822.19,44.77a13,13,0,1,1-13-13A13,13,0,0,1,822.19,44.77Z"/><path class="cls-24" d="M726.89,209.39a11.17,11.17,0,1,1-11.17-11.18A11.17,11.17,0,0,1,726.89,209.39Z"/><path class="cls-4" d="M783.89,99.26a9.58,9.58,0,1,1-9.57-9.57A9.58,9.58,0,0,1,783.89,99.26Z"/><path class="cls-25" d="M922.06,139.16a7.3,7.3,0,1,1-7.3-7.29A7.3,7.3,0,0,1,922.06,139.16Z"/><path class="cls-14" d="M795.29,45.68a8,8,0,1,1-8-8A8,8,0,0,1,795.29,45.68Z"/><path class="cls-4" d="M810.79,24.36a5.93,5.93,0,1,1-5.58-6.26A5.94,5.94,0,0,1,810.79,24.36Z"/><path class="cls-4" d="M833.14,23.34A6.16,6.16,0,1,1,827,17.18,6.15,6.15,0,0,1,833.14,23.34Z"/><path class="cls-26" d="M825.84,87.86a8.21,8.21,0,1,1-8.2-8.21A8.21,8.21,0,0,1,825.84,87.86Z"/><path class="cls-4" d="M827.67,33.37A4.34,4.34,0,1,1,823.34,29,4.33,4.33,0,0,1,827.67,33.37Z"/><path class="cls-9" d="M772,33.37a8.9,8.9,0,1,1-8.9-8.89A8.9,8.9,0,0,1,772,33.37Z"/><path class="cls-12" d="M936.41,173.12a12.82,12.82,0,1,1-12.81-12.81A12.81,12.81,0,0,1,936.41,173.12Z"/><path class="cls-27" d="M836.79,31.32a3.88,3.88,0,1,1-3.88-3.88A3.88,3.88,0,0,1,836.79,31.32Z"/><path class="cls-9" d="M842.26,16.27a5,5,0,1,1-5-5A5,5,0,0,1,842.26,16.27Z"/><path class="cls-17" d="M821.93,128.82a12.18,12.18,0,1,1-12.18-12.18A12.17,12.17,0,0,1,821.93,128.82Z"/><circle class="cls-11" cx="839.75" cy="107.7" r="12.08"/><path class="cls-4" d="M853.33,219a12.5,12.5,0,1,1-12.5-12.49A12.5,12.5,0,0,1,853.33,219Z"/><circle class="cls-4" cx="645.95" cy="139.16" r="6.61"/><path class="cls-4" d="M774.31,192.51a5,5,0,1,1-5-5A5,5,0,0,1,774.31,192.51Z"/><path class="cls-4" d="M839.52,51.61a9.35,9.35,0,1,1-9.35-9.35A9.35,9.35,0,0,1,839.52,51.61Z"/><path class="cls-4" d="M823.56,64.83a8.89,8.89,0,1,1-8.89-8.89A8.9,8.9,0,0,1,823.56,64.83Z"/><path class="cls-11" d="M727.35,71.9a5.48,5.48,0,1,1-5.48-5.47A5.47,5.47,0,0,1,727.35,71.9Z"/><path class="cls-4" d="M747.87,55a6.39,6.39,0,1,1-6.39-6.39A6.39,6.39,0,0,1,747.87,55Z"/><path class="cls-25" d="M634.78,188.41a8.44,8.44,0,1,1-8.44-8.44A8.44,8.44,0,0,1,634.78,188.41Z"/><path class="cls-11" d="M821.06,28.12a5.7,5.7,0,1,1-5.7-5.7A5.7,5.7,0,0,1,821.06,28.12Z"/><path class="cls-27" d="M867.57,241.76a13.68,13.68,0,1,1-13.68-13.68A13.68,13.68,0,0,1,867.57,241.76Z"/><path class="cls-26" d="M947.8,156.29a10.71,10.71,0,1,1-10-11.4A10.71,10.71,0,0,1,947.8,156.29Z"/><path class="cls-28" d="M855.94,323.39a17.33,17.33,0,1,1-17.33-17.33A17.33,17.33,0,0,1,855.94,323.39Z"/><circle class="cls-4" cx="842.26" cy="146.91" r="6.16"/><path class="cls-29" d="M744,287.36a12.77,12.77,0,1,1-12.77-12.76A12.77,12.77,0,0,1,744,287.36Z"/><path class="cls-4" d="M956.26,166.52a7.07,7.07,0,1,1-7.07-7.07A7.06,7.06,0,0,1,956.26,166.52Z"/><path class="cls-13" d="M794.84,309.94A14.14,14.14,0,1,1,780.7,295.8,14.14,14.14,0,0,1,794.84,309.94Z"/><path class="cls-20" d="M786.17,151.25a12.77,12.77,0,1,1-12.77-12.77A12.76,12.76,0,0,1,786.17,151.25Z"/><path class="cls-30" d="M714.58,309.71a10.26,10.26,0,1,1-10.26-10.26A10.26,10.26,0,0,1,714.58,309.71Z"/><path class="cls-9" d="M792.33,185a8.44,8.44,0,1,1-8.44-8.43A8.44,8.44,0,0,1,792.33,185Z"/><circle class="cls-14" cx="732.13" cy="197.76" r="8.89"/><path class="cls-13" d="M809.66,163.79a13,13,0,1,1-13-13A13,13,0,0,1,809.66,163.79Z"/><path class="cls-14" d="M709.56,121.61a4.56,4.56,0,1,1-4.56-4.56A4.56,4.56,0,0,1,709.56,121.61Z"/><path class="cls-13" d="M900,102.91a9.81,9.81,0,1,1-9.81-9.8A9.81,9.81,0,0,1,900,102.91Z"/><path class="cls-14" d="M764.05,95.84A7.07,7.07,0,1,1,757,88.77,7.06,7.06,0,0,1,764.05,95.84Z"/><path class="cls-4" d="M648,175.87a8.89,8.89,0,1,1-8.89-8.89A8.89,8.89,0,0,1,648,175.87Z"/><path class="cls-8" d="M744.22,354.63a9.58,9.58,0,1,1-9.58-9.58A9.57,9.57,0,0,1,744.22,354.63Z"/><path class="cls-4" d="M727.57,132.32a6.38,6.38,0,1,1-6.38-6.38A6.38,6.38,0,0,1,727.57,132.32Z"/><circle class="cls-14" cx="714.58" cy="33.37" r="6.61" transform="translate(567.18 733.37) rotate(-80.78)"/><path class="cls-31" d="M842.94,257.5a16.87,16.87,0,1,1-16.87-16.88A16.87,16.87,0,0,1,842.94,257.5Z"/><path class="cls-26" d="M774.09,211a9.81,9.81,0,1,1-9.81-9.8A9.81,9.81,0,0,1,774.09,211Z"/><path class="cls-27" d="M734.41,120a7.52,7.52,0,1,1-7.52-7.52A7.51,7.51,0,0,1,734.41,120Z"/><path class="cls-4" d="M726,109.07a5.7,5.7,0,1,1-5.7-5.7A5.7,5.7,0,0,1,726,109.07Z"/><circle class="cls-4" cx="759.95" cy="321.11" r="9.8" transform="translate(-65.04 315.26) rotate(-22.5)"/><path class="cls-4" d="M806.92,257.5a10,10,0,1,1-10-10A10,10,0,0,1,806.92,257.5Z"/><path class="cls-4" d="M735.1,178.15a11.4,11.4,0,1,1-11.4-11.4A11.4,11.4,0,0,1,735.1,178.15Z"/><path class="cls-4" d="M833.6,144.63a4.56,4.56,0,1,1-4.56-4.56A4.56,4.56,0,0,1,833.6,144.63Z"/><path class="cls-14" d="M891.05,128a13.68,13.68,0,1,1-13.68-13.68A13.67,13.67,0,0,1,891.05,128Z"/><path class="cls-31" d="M822.19,149.65a6.61,6.61,0,1,1-6.61-6.61A6.61,6.61,0,0,1,822.19,149.65Z"/><path class="cls-4" d="M925.71,152.84a6.84,6.84,0,1,1-6.84-6.84A6.84,6.84,0,0,1,925.71,152.84Z"/><path class="cls-13" d="M655.75,114.31a2.28,2.28,0,1,1-2.28-2.28A2.28,2.28,0,0,1,655.75,114.31Z"/><path class="cls-4" d="M821.51,321.79a5.25,5.25,0,1,1-5.24-5.24A5.25,5.25,0,0,1,821.51,321.79Z"/><path class="cls-14" d="M911.88,161.08a6.62,6.62,0,1,1-3.24-8.77A6.61,6.61,0,0,1,911.88,161.08Z"/><path class="cls-14" d="M714.35,115.22a3.88,3.88,0,1,1-3.88-3.87A3.88,3.88,0,0,1,714.35,115.22Z"/><path class="cls-16" d="M897.21,70.08a2.51,2.51,0,1,1-2.51-2.51A2.51,2.51,0,0,1,897.21,70.08Z"/><circle class="cls-21" cx="829.26" cy="233.56" r="6.84" transform="translate(411.43 986.98) rotate(-76.72)"/><circle class="cls-4" cx="812.85" cy="238.34" r="7.52"/><path class="cls-4" d="M696.34,193a4.79,4.79,0,1,1-4.79-4.79A4.79,4.79,0,0,1,696.34,193Z"/><path class="cls-21" d="M766.11,303.78a7.07,7.07,0,1,1-7.07-7.07A7.08,7.08,0,0,1,766.11,303.78Z"/><circle class="cls-31" cx="614.26" cy="193.66" r="7.3" transform="translate(32.42 469.84) rotate(-42.89)"/><path class="cls-4" d="M729.4,307.43a7.53,7.53,0,1,1-7.53-7.52A7.53,7.53,0,0,1,729.4,307.43Z"/><path class="cls-4" d="M735.33,85.81a3.2,3.2,0,1,1-3.2-3.19A3.19,3.19,0,0,1,735.33,85.81Z"/><path class="cls-4" d="M748.09,85.13a5,5,0,1,1-5-5A5,5,0,0,1,748.09,85.13Z"/><path class="cls-4" d="M783.89,171.31a6.61,6.61,0,1,1-6.61-6.61A6.61,6.61,0,0,1,783.89,171.31Z"/><path class="cls-14" d="M606.5,196.39a6.38,6.38,0,1,1-6.38-6.38A6.37,6.37,0,0,1,606.5,196.39Z"/><path class="cls-9" d="M681.29,121.15a4.56,4.56,0,1,1-4.56-4.56A4.56,4.56,0,0,1,681.29,121.15Z"/><path class="cls-27" d="M693.15,128.45a3.65,3.65,0,1,1-3.65-3.65A3.65,3.65,0,0,1,693.15,128.45Z"/><path class="cls-18" d="M783,331.37a8.67,8.67,0,1,1-8.67-8.67A8.67,8.67,0,0,1,783,331.37Z"/><circle class="cls-18" cx="757.21" cy="337.07" r="6.16"/><path class="cls-18" d="M718.68,330a9.58,9.58,0,1,1-9.57-9.57A9.58,9.58,0,0,1,718.68,330Z"/><path class="cls-18" d="M718.68,295.8a6.84,6.84,0,1,1-6.84-6.84A6.84,6.84,0,0,1,718.68,295.8Z"/><path class="cls-18" d="M669.89,151.93a4.79,4.79,0,1,1-4.79-4.79A4.79,4.79,0,0,1,669.89,151.93Z"/><path class="cls-18" d="M617,158.77a4.33,4.33,0,1,1-4.33-4.33A4.33,4.33,0,0,1,617,158.77Z"/><path class="cls-18" d="M628.39,158.09a5.47,5.47,0,1,1-5.47-5.48A5.47,5.47,0,0,1,628.39,158.09Z"/><path class="cls-18" d="M630.22,173.13a3.65,3.65,0,1,1-3.65-3.64A3.65,3.65,0,0,1,630.22,173.13Z"/><path class="cls-18" d="M658,130.5a5.25,5.25,0,1,1-5.24-5.25A5.24,5.24,0,0,1,658,130.5Z"/><path class="cls-18" d="M639.79,143a5,5,0,1,1-5-5A5,5,0,0,1,639.79,143Z"/><path class="cls-18" d="M692.23,157.63a5,5,0,1,1-5-5A5,5,0,0,1,692.23,157.63Z"/><path class="cls-18" d="M681.75,140.76a3.65,3.65,0,1,1-3.65-3.65A3.66,3.66,0,0,1,681.75,140.76Z"/><path class="cls-18" d="M700,87.86a3.2,3.2,0,1,1-3.2-3.19A3.19,3.19,0,0,1,700,87.86Z"/><path class="cls-14" d="M850.47,36.1A7.07,7.07,0,1,1,843.4,29,7.07,7.07,0,0,1,850.47,36.1Z"/><path class="cls-18" d="M855,4.64a3,3,0,1,1-3-3A3,3,0,0,1,855,4.64Z"/><path class="cls-18" d="M742.85,32.46a4.33,4.33,0,1,1-4.33-4.34A4.33,4.33,0,0,1,742.85,32.46Z"/><circle class="cls-18" cx="882.62" cy="49.78" r="6.16" transform="translate(718.96 918.52) rotate(-82.56)"/><path class="cls-18" d="M884.67,28.81A4.79,4.79,0,1,1,879.88,24,4.8,4.8,0,0,1,884.67,28.81Z"/><path class="cls-18" d="M688.59,197.3a7.3,7.3,0,1,1-7.3-7.29A7.3,7.3,0,0,1,688.59,197.3Z"/><path class="cls-18" d="M719.59,224.21a3.65,3.65,0,1,1-3.64-3.65A3.65,3.65,0,0,1,719.59,224.21Z"/><path class="cls-18" d="M724.61,193.33a4.92,4.92,0,1,1-4.92-4.92A4.92,4.92,0,0,1,724.61,193.33Z"/><path class="cls-8" d="M900,168.57a8.9,8.9,0,1,1-8.9-8.89A8.9,8.9,0,0,1,900,168.57Z"/><path class="cls-14" d="M736.24,372.41a10.72,10.72,0,1,1-10.72-10.72A10.72,10.72,0,0,1,736.24,372.41Z"/><path class="cls-4" d="M723.7,343.68a5.93,5.93,0,1,1-5.93-5.93A5.93,5.93,0,0,1,723.7,343.68Z"/><path class="cls-4" d="M726.21,358.27a7.07,7.07,0,1,1-7.07-7.06A7.07,7.07,0,0,1,726.21,358.27Z"/><path class="cls-4" d="M725.29,149.42a6.61,6.61,0,1,1-6.61-6.61A6.61,6.61,0,0,1,725.29,149.42Z"/><path class="cls-8" d="M813.53,314.5a7.75,7.75,0,1,1-7.75-7.75A7.75,7.75,0,0,1,813.53,314.5Z"/><circle class="cls-4" cx="855.48" cy="101.09" r="5.02"/><circle class="cls-4" cx="831.77" cy="282.58" r="5.93"/><path class="cls-4" d="M824.93,309.71a5.25,5.25,0,1,1-5.24-5.25A5.24,5.24,0,0,1,824.93,309.71Z"/><path class="cls-4" d="M854,259.55a6.61,6.61,0,1,1-6.61-6.61A6.61,6.61,0,0,1,854,259.55Z"/><path class="cls-17" d="M599,161.73a2.51,2.51,0,1,1-2.51-2.5A2.51,2.51,0,0,1,599,161.73Z"/><path class="cls-4" d="M705.46,176.33a3,3,0,1,1-3-3A3,3,0,0,1,705.46,176.33Z"/><path class="cls-27" d="M860.5,313.13a3,3,0,1,1-3-3A3,3,0,0,1,860.5,313.13Z"/><path class="cls-32" d="M744.22,377.88a4.56,4.56,0,1,1-4.56-4.56A4.56,4.56,0,0,1,744.22,377.88Z"/><path class="cls-33" d="M701.81,323.16a6.39,6.39,0,1,1-6.38-6.38A6.38,6.38,0,0,1,701.81,323.16Z"/><path class="cls-4" d="M738.75,270a5.25,5.25,0,1,1-5.25-5.25A5.25,5.25,0,0,1,738.75,270Z"/><path class="cls-33" d="M705.91,293.06a4.1,4.1,0,1,1-4.1-4.1A4.1,4.1,0,0,1,705.91,293.06Z"/><path class="cls-27" d="M708.65,285.31a1.83,1.83,0,1,1-1.82-1.82A1.83,1.83,0,0,1,708.65,285.31Z"/><path class="cls-27" d="M741.94,259.09a4.79,4.79,0,1,1-4.79-4.79A4.79,4.79,0,0,1,741.94,259.09Z"/><path class="cls-4" d="M748.78,251.11a3.65,3.65,0,1,1-3.65-3.65A3.64,3.64,0,0,1,748.78,251.11Z"/><path class="cls-4" d="M872,204.6a5.15,5.15,0,1,1-5.15-5.15A5.14,5.14,0,0,1,872,204.6Z"/><path class="cls-4" d="M863.24,224.21a5.93,5.93,0,1,1-5.93-5.93A5.94,5.94,0,0,1,863.24,224.21Z"/><path class="cls-4" d="M835.42,91.05a4.56,4.56,0,1,1-4.56-4.56A4.56,4.56,0,0,1,835.42,91.05Z"/><path class="cls-4" d="M753.79,39.75a4.33,4.33,0,1,1-4.33-4.33A4.33,4.33,0,0,1,753.79,39.75Z"/><path class="cls-4" d="M845.91,17.18a2.28,2.28,0,1,1-2.28-2.28A2.28,2.28,0,0,1,845.91,17.18Z"/><path class="cls-4" d="M867.8,36.33a4.56,4.56,0,1,1-4.56-4.56A4.56,4.56,0,0,1,867.8,36.33Z"/><path class="cls-4" d="M850.92,23.11a3.65,3.65,0,1,1-3.64-3.65A3.65,3.65,0,0,1,850.92,23.11Z"/><path class="cls-4" d="M897.89,28.81a3.42,3.42,0,1,1-3.42-3.42A3.42,3.42,0,0,1,897.89,28.81Z"/><circle class="cls-4" cx="635.23" cy="196.85" r="3.19"/><circle class="cls-4" cx="690.18" cy="204.37" r="4.33"/><path class="cls-4" d="M704.77,213.6a3.76,3.76,0,1,1-3.76-3.76A3.76,3.76,0,0,1,704.77,213.6Z"/><path class="cls-4" d="M670.8,159.45a3.65,3.65,0,1,1-3.65-3.64A3.64,3.64,0,0,1,670.8,159.45Z"/><path class="cls-4" d="M779.33,244.5a3.42,3.42,0,1,1-3.42-3.42A3.42,3.42,0,0,1,779.33,244.5Z"/><path class="cls-4" d="M759.72,211.9a5.93,5.93,0,1,1-5.93-5.93A5.92,5.92,0,0,1,759.72,211.9Z"/><path class="cls-9" d="M848.64,343.91a4.79,4.79,0,1,1-4.78-4.79A4.79,4.79,0,0,1,848.64,343.91Z"/><path class="cls-4" d="M754.25,344.82a5.25,5.25,0,1,1-5.24-5.24A5.25,5.25,0,0,1,754.25,344.82Z"/><path class="cls-4" d="M746.5,306.29a6.84,6.84,0,1,1-6.84-6.84A6.84,6.84,0,0,1,746.5,306.29Z"/><path class="cls-13" d="M714.12,346.42a5,5,0,1,1-5-5A5,5,0,0,1,714.12,346.42Z"/><path class="cls-4" d="M734.64,48.87a3.42,3.42,0,1,1-3.42-3.42A3.42,3.42,0,0,1,734.64,48.87Z"/><path class="cls-19" d="M861.87,210.53a6.84,6.84,0,1,1-6.84-6.84A6.84,6.84,0,0,1,861.87,210.53Z"/><circle class="cls-14" cx="948.51" cy="148.97" r="5.02"/><path class="cls-4" d="M931.41,143.84a4.68,4.68,0,1,1-4.68-4.68A4.67,4.67,0,0,1,931.41,143.84Z"/><path class="cls-4" d="M794.84,329.09a5.93,5.93,0,1,1-5.93-5.93A5.94,5.94,0,0,1,794.84,329.09Z"/><path class="cls-4" d="M788,338.89a3.42,3.42,0,1,1-3.42-3.42A3.42,3.42,0,0,1,788,338.89Z"/><path class="cls-9" d="M847.28,296.94a2.51,2.51,0,1,1-2.51-2.51A2.51,2.51,0,0,1,847.28,296.94Z"/><path class="cls-4" d="M701.35,125.71a3.65,3.65,0,1,1-3.64-3.65A3.65,3.65,0,0,1,701.35,125.71Z"/><path class="cls-29" d="M719.59,285.31a4.1,4.1,0,1,1-4.1-4.1A4.1,4.1,0,0,1,719.59,285.31Z"/></g><g class="cls-34"><path class="cls-6" d="M909.26-164a12.39,12.39,0,0,0-3.92.65,18.39,18.39,0,0,0,1.5-6.14,18.21,18.21,0,0,0-.19-4.12,8.24,8.24,0,0,0,1.42.13,8.69,8.69,0,0,0,8.69-8.69,8.69,8.69,0,0,0-8.69-8.7,8.68,8.68,0,0,0-8.14,5.68,18.44,18.44,0,0,0-10.39-4.06,18.54,18.54,0,0,0-14.47,5.53c-.12-.18-.22-.37-.34-.55a8.09,8.09,0,0,0,3.7-6.8,8.1,8.1,0,0,0-8.1-8.1,8.12,8.12,0,0,0-7.38,4.77c-.47-.22-.94-.44-1.42-.64a12.83,12.83,0,0,0,.7-4.13,12.64,12.64,0,0,0-12.65-12.64,12.55,12.55,0,0,0-9.06,3.84l-1.79-1.55a19.58,19.58,0,0,0,10.16-17.16,19.59,19.59,0,0,0-19.58-19.59,19.55,19.55,0,0,0-14.21,6.13l-.27-.59q-.72-2.82-1.59-5.51A17,17,0,0,0,823.9-262a17,17,0,0,0-17-17,16.88,16.88,0,0,0-4.8.7l0-.14a20.39,20.39,0,0,0,16.58-19.77,20.41,20.41,0,0,0-20.13-20.66,20.91,20.91,0,0,0-4.14.37c0-.61,0-1.22,0-1.84a46.59,46.59,0,0,0-7.91-26,10.59,10.59,0,0,0,7.35,2.95,10.66,10.66,0,0,0,10.67-10.67,10.67,10.67,0,0,0-10.67-10.67,10.62,10.62,0,0,0-3.71.68,13.55,13.55,0,0,0,1.3-5.76,13.53,13.53,0,0,0-13.53-13.53A13.49,13.49,0,0,0,768-379a7.91,7.91,0,0,0-7.74-6.27,7.9,7.9,0,0,0-7.9,7.9,7.9,7.9,0,0,0,7.9,7.9,7.86,7.86,0,0,0,4.16-1.19c0,.28,0,.56,0,.85a13.47,13.47,0,0,0,1.66,6.5,46.63,46.63,0,0,0-18.4-3.77,46.41,46.41,0,0,0-19.24,4.14,27.31,27.31,0,0,0-.85-2.7,12.24,12.24,0,0,0,10.13-8.87,9.46,9.46,0,0,0,4.4,1.09,9.49,9.49,0,0,0,9.49-9.48,9.49,9.49,0,0,0-9.49-9.49,9.5,9.5,0,0,0-8.43,5.15,12.23,12.23,0,0,0-7.77-2.78A12.26,12.26,0,0,0,714-380.59c-.5-.25-1-.51-1.52-.72a6.7,6.7,0,0,0,2-4.75,6.71,6.71,0,0,0-6.71-6.72,6.67,6.67,0,0,0-3.17.82,10.62,10.62,0,0,0,3.56-7.94,10.67,10.67,0,0,0-10.67-10.67,10.67,10.67,0,0,0-10.67,10.67,10.67,10.67,0,0,0,10.67,10.67,10.6,10.6,0,0,0,5.47-1.52,6.69,6.69,0,0,0-1.91,4.69,6.58,6.58,0,0,0,.52,2.59,26.46,26.46,0,0,0-3,.18,7.48,7.48,0,0,0-7.43-6.73,7.43,7.43,0,0,0-4.44,1.49,10.07,10.07,0,0,0,.49-3.07,9.89,9.89,0,0,0-9.88-9.88,9.84,9.84,0,0,0-8,4.1c0-.24.06-.49.08-.74A10.28,10.28,0,0,0,659.7-409a10.28,10.28,0,0,0-10.85,9.67,10.23,10.23,0,0,0,.64,4.18,11.26,11.26,0,0,0-3-.43,11.07,11.07,0,0,0-11.06,11.07,11.06,11.06,0,0,0,11.06,11.06l.32,0a22.51,22.51,0,0,0-2.69,10.69c0,.53,0,1.06.06,1.58-.56.09-1.11.19-1.65.32,0-.11,0-.21,0-.32A13.83,13.83,0,0,0,628.68-375a13.83,13.83,0,0,0-13.83,13.83A13.82,13.82,0,0,0,626-347.61c-.31.63-.59,1.28-.84,1.94a15,15,0,0,0-12.87,10.9l-1.45-.07a26.74,26.74,0,0,0,.35-12.35,26.76,26.76,0,0,0-20-20.54,15.43,15.43,0,0,0,11-14.78,15.41,15.41,0,0,0-15.41-15.41,15.41,15.41,0,0,0-15.41,15.41,15.42,15.42,0,0,0,9.73,14.32c-.56.08-1.12.14-1.68.26a26.8,26.8,0,0,0-20.13,18.36,11,11,0,0,0-10-6.46A11.06,11.06,0,0,0,538.19-345a11,11,0,0,0,3.95,8.48,20.54,20.54,0,0,0-15.81,20A20.53,20.53,0,0,0,544-296.19a8.7,8.7,0,0,0-.69,3.39,8.7,8.7,0,0,0,4.73,7.73c-.13,1-.23,2-.3,3a22.18,22.18,0,0,0-3.76-.34,22.09,22.09,0,0,0-22.09,22.09,22.22,22.22,0,0,0,.21,2.85c-.45.25-.89.52-1.31.8a9.88,9.88,0,0,0-8.3-4.53,9.88,9.88,0,0,0-9.88,9.88,9.87,9.87,0,0,0,9.74,9.87c0,.13,0,.25,0,.38a18.54,18.54,0,0,0,.19,2.47,12.8,12.8,0,0,0-1.61,6.25,13,13,0,0,0,5.31,10.49,10.89,10.89,0,0,0-2.15-.22A11.07,11.07,0,0,0,503-211a11,11,0,0,0,2.19,6.58c-.2.15-.41.28-.61.44a17.62,17.62,0,0,0-1.94,1.75,8.18,8.18,0,0,0-4.38-1.26,8.3,8.3,0,0,0-8.3,8.29,8.29,8.29,0,0,0,7.88,8.28c-.09.91-.15,1.82-.15,2.75a28.05,28.05,0,0,0,.94,7.08,19.85,19.85,0,0,0-11.35-3.58,20,20,0,0,0-20,20,20.19,20.19,0,0,0,.3,3.32,14.76,14.76,0,0,1-1.44-.61c-1.7-.83-3.4-2-5.14-2.75a8.62,8.62,0,0,0,2.88-6.43,8.69,8.69,0,0,0-8.69-8.69,8.7,8.7,0,0,0-8.7,8.69,8.64,8.64,0,0,0,.4,2.61,28.51,28.51,0,0,0-3.6-.25,28.31,28.31,0,0,0-19.95,8.18c-.4-.45-.8-.89-1.23-1.31a6.31,6.31,0,0,0,4.63-6.07,6.31,6.31,0,0,0-5.18-6.2,8.29,8.29,0,0,0,3.59-6.84,8.3,8.3,0,0,0-8.29-8.3,8.3,8.3,0,0,0-8.3,8.3,8.28,8.28,0,0,0,7.74,8.27A6.3,6.3,0,0,0,414.1-164c0,.22,0,.43.06.64A18,18,0,0,0,401.09-172c-.18-.39-.35-.77-.56-1.15a9.07,9.07,0,0,0,5.27-8.23,9.09,9.09,0,0,0-9.09-9.09,9.07,9.07,0,0,0-7.57,4.07,8.14,8.14,0,0,0-1.17-2.15,11.45,11.45,0,0,0,7.16-10.62,11.38,11.38,0,0,0-1.84-6.21,9.16,9.16,0,0,0,2.24.28,9.08,9.08,0,0,0,9.09-9.08,9.09,9.09,0,0,0-9.09-9.09,9.09,9.09,0,0,0-9.09,9.09,9,9,0,0,0,1,4.21,11.42,11.42,0,0,0-3.81-.66,11.46,11.46,0,0,0-11.46,11.46,11.45,11.45,0,0,0,4.63,9.19,7.87,7.87,0,0,0-3,6.22,9,9,0,0,0,.11,1.28,16.34,16.34,0,0,0-6.2-2,8.69,8.69,0,0,0,5.3-8,8.69,8.69,0,0,0-8.69-8.69,8.7,8.7,0,0,0-8.7,8.69A8.7,8.7,0,0,0,362-184,16.59,16.59,0,0,0,350.2-173.3a9.44,9.44,0,0,0-6.44-2.53,9.48,9.48,0,0,0-9.49,9.48,9.49,9.49,0,0,0,9.49,9.49,9.44,9.44,0,0,0,7.36-3.52,16.63,16.63,0,0,0,11.14,8.65,26.67,26.67,0,0,0-2.85,7.09,15.32,15.32,0,0,0-3,9.12,15.38,15.38,0,0,0,7.43,13.16,27.87,27.87,0,0,0,3.3,3.73,12.73,12.73,0,0,0-2.85,5.38c0-.18,0-.36,0-.54a14.62,14.62,0,0,0-14.62-14.62,14.62,14.62,0,0,0-14.51,12.84,12.55,12.55,0,0,0-6.44-1.78A12.65,12.65,0,0,0,316.1-104.7,12.65,12.65,0,0,0,328.74-92,12.66,12.66,0,0,0,341.09-102a14.53,14.53,0,0,0,8.6,2.81,14.62,14.62,0,0,0,14.23-11.32,13.75,13.75,0,0,0,.17,2.38,12.58,12.58,0,0,0,1.11,3.42h-.1a5.53,5.53,0,0,0-5.53,5.53,5.52,5.52,0,0,0,5.53,5.53,5.53,5.53,0,0,0,5.52-5.44,12.61,12.61,0,0,0,8.07,1.31,12.63,12.63,0,0,0,10.43-13.79c.45-.06.9-.12,1.34-.2a16.83,16.83,0,0,0,16.79,15.67,16.84,16.84,0,0,0,16.84-16.84,17.15,17.15,0,0,0-.24-2.7,28.36,28.36,0,0,0,13.55,7.11,12.6,12.6,0,0,0-5.12,10.14,12.64,12.64,0,0,0,12.64,12.65A12.59,12.59,0,0,0,453.41-89a7.53,7.53,0,0,0-.58,2.89,7.51,7.51,0,0,0,7.51,7.51A7.37,7.37,0,0,0,465-80.25a9.89,9.89,0,0,0,7.64,3.61,9.81,9.81,0,0,0,5.69-1.82,13.33,13.33,0,0,0,3.06,2.23,6.58,6.58,0,0,0-2.23-.41,6.52,6.52,0,0,0-6.52,6.52,6.52,6.52,0,0,0,6.52,6.52,6.52,6.52,0,0,0,6.52-6.52,6.5,6.5,0,0,0-3.21-5.59,13.23,13.23,0,0,0,3,.85,19.35,19.35,0,0,0,19.17,16.79A19.36,19.36,0,0,0,524-77.43a19.35,19.35,0,0,0-8.35-15.92A22.22,22.22,0,0,1,517.88-95a15.39,15.39,0,0,0,15.17,12.78A15.42,15.42,0,0,0,547.73-92.9,13.82,13.82,0,0,0,561.5-80.2a13.65,13.65,0,0,0,1.81-.13,10.25,10.25,0,0,0-3,7.24,10.28,10.28,0,0,0,10.28,10.28,10.29,10.29,0,0,0,4.91-1.25,17,17,0,0,0,12.77,6.36c.94.51,1.9,1,2.87,1.47a20.86,20.86,0,0,0-19.92,20.82,20.87,20.87,0,0,0,20.87,20.88,20.72,20.72,0,0,0,11-3.17,5.91,5.91,0,0,0-.12,1.12,5.93,5.93,0,0,0,5.93,5.93,5.92,5.92,0,0,0,5.93-5.93,5.92,5.92,0,0,0-1-3.22c.23-.15.47-.32.69-.49A24.1,24.1,0,0,0,634-10.53a24.4,24.4,0,0,0,6.88-1c.09.2.18.41.26.62a17.35,17.35,0,0,0-10.89,25.52c-.94.33-1.9.64-2.84,1a42.78,42.78,0,0,0-81.12,25.71,22.14,22.14,0,0,0-8.59-4.8,9.08,9.08,0,1,0-6.68-.87,22.12,22.12,0,0,0-20.53,15.21,7.09,7.09,0,1,0-8.31,10.11l-.31.24A11.81,11.81,0,0,0,487.5,66.6,7.12,7.12,0,1,0,486,72c0,.11,0,.22,0,.34a11.83,11.83,0,0,0,2,6.63,18,18,0,0,0-3.21-.31,17.78,17.78,0,0,0-12.49,30.44,10.91,10.91,0,0,0-2.93-.41A11.07,11.07,0,1,0,477,127.82a16.38,16.38,0,0,0-.45,3.79,16.58,16.58,0,0,0,29.07,10.92,22.73,22.73,0,0,0,4.07.39,23.21,23.21,0,0,0,2.37-.13,28,28,0,0,0,42.54,8c.34.13.67.26,1,.37a9,9,0,0,0-2.4,6.13,9.09,9.09,0,1,0,16.54-5.19,10.67,10.67,0,1,0,11-18.06c0-.3,0-.59,0-.88.18,0,.35,0,.52,0a16.9,16.9,0,0,0,10.56-3.7,15,15,0,1,0,22-8.43,24.17,24.17,0,0,0,3.43.27,24.5,24.5,0,0,0,24.5-24.5c0-.17,0-.34,0-.5l.42,0a14,14,0,0,0,4.31.68,13.74,13.74,0,0,0,3.65-.5A13.43,13.43,0,0,0,670.46,114a8.94,8.94,0,0,0-.68,3.44A9.09,9.09,0,0,0,687.57,120s0,.09,0,.14a30,30,0,0,0,30,30,28,28,0,0,0,3.06-.16,8.3,8.3,0,1,0,8.61-2.19,30,30,0,0,0-11.67-57.72c-.59,0-1.17.06-1.75.09a16.16,16.16,0,0,0,3-24.46,59.62,59.62,0,0,0,3-16.5,15.17,15.17,0,0,0,4.6.72A15.49,15.49,0,0,0,734,20.91a11.46,11.46,0,0,0,7.72-18.64,23.56,23.56,0,0,0,2.38.12,23.7,23.7,0,0,0,23.71-23.71,23.67,23.67,0,0,0-13.21-21.23,10.28,10.28,0,0,0,5.7-9.2A10.27,10.27,0,0,0,751.5-61.9a16.31,16.31,0,0,0,4.3-6.82,11.81,11.81,0,0,0,2.1-6.74,11.75,11.75,0,0,0-.31-2.67q.66-1.61,1.23-3.24a8.91,8.91,0,0,0,7.78,4.56,8.92,8.92,0,0,0,8.91-8.92,8.89,8.89,0,0,0-4.88-7.94,23.49,23.49,0,0,0,15.62-19.61,14.57,14.57,0,0,0,3-2.74,11.52,11.52,0,0,0,9,4.31,11.57,11.57,0,0,0,11.56-11.56,11.14,11.14,0,0,0-.16-1.84c2.74-.64,5.32-1.37,7.7-2.17a13.83,13.83,0,0,0,12.12,7.17,13.83,13.83,0,0,0,13.83-13.83,13.93,13.93,0,0,0-.56-3.9l.12,0a22.2,22.2,0,0,0,22.07,19.79,22.18,22.18,0,0,0,19.41-11.44l.14,0a12.12,12.12,0,0,0-.11,1.47,12.23,12.23,0,0,0,12.23,12.23A12.23,12.23,0,0,0,908.79-128,12.22,12.22,0,0,0,900-139.75a10.12,10.12,0,0,0,1.46-1.61c.15-.21.28-.42.41-.64a12.15,12.15,0,0,0,7.43,2.52,12.24,12.24,0,0,0,12.24-12.25A12.25,12.25,0,0,0,909.26-164ZM568.16-320.83a15,15,0,0,0-1,1.36,19.79,19.79,0,0,0-.57-2.67C567.12-321.68,567.64-321.25,568.16-320.83ZM456.64-93.62c.27.2.54.4.82.59a7.92,7.92,0,0,0-1.51.83A12.4,12.4,0,0,0,456.64-93.62ZM480.42,121a9.39,9.39,0,0,0,.07-1.19,11,11,0,0,0-2.4-6.87,17.63,17.63,0,0,0,6.75,1.34,17.14,17.14,0,0,0,3.14-.3c-.2.69-.37,1.38-.51,2.09A16.74,16.74,0,0,0,480.42,121Z"/><path class="cls-6" d="M750.39,97.23a5.14,5.14,0,1,0,5.14,5.14A5.14,5.14,0,0,0,750.39,97.23Z"/><path class="cls-6" d="M546.09,206.7a7.89,7.89,0,0,0-6.71,3.74,18.7,18.7,0,0,0,.78-5.32,18.5,18.5,0,0,0-7.57-14.94A16.6,16.6,0,1,0,520.81,174a12.25,12.25,0,1,0-12.9,18.6,18.56,18.56,0,1,0,30.42,20.54,8,8,0,0,0-.14,1.48,7.9,7.9,0,1,0,7.9-7.9Z"/><path class="cls-6" d="M492.34,54.16a3.16,3.16,0,1,0-3.16,3.16A3.15,3.15,0,0,0,492.34,54.16Z"/><path class="cls-6" d="M541.74.42a8.3,8.3,0,1,0,8.3,8.3A8.3,8.3,0,0,0,541.74.42Z"/><path class="cls-6" d="M555.57,1.21a6.32,6.32,0,0,0,6.33-6.33,6.32,6.32,0,0,0-6.33-6.32,6.32,6.32,0,0,0-6.32,6.32A6.32,6.32,0,0,0,555.57,1.21Z"/><path class="cls-6" d="M501.32,163a10.27,10.27,0,1,0-3.16-10,8.69,8.69,0,1,0,3.16,10Z"/><path class="cls-6" d="M631.45,119.76A10.28,10.28,0,1,0,641.72,130,10.27,10.27,0,0,0,631.45,119.76Z"/><path class="cls-6" d="M623.94,141.1a5.93,5.93,0,1,0,5.93,5.93A5.92,5.92,0,0,0,623.94,141.1Z"/><path class="cls-6" d="M723.92,74.31A4.35,4.35,0,1,0,728.26,70,4.34,4.34,0,0,0,723.92,74.31Z"/><path class="cls-7" d="M630.91,30.11a42.77,42.77,0,1,1-42.77-42.77A42.77,42.77,0,0,1,630.91,30.11Z"/><path class="cls-7" d="M564.69,126.75A28.09,28.09,0,1,1,536.6,98.66,28.08,28.08,0,0,1,564.69,126.75Z"/><circle class="cls-7" cx="660.52" cy="57.01" r="34.01"/><path class="cls-7" d="M742,32A15.5,15.5,0,1,1,726.5,16.49,15.5,15.5,0,0,1,742,32Z"/><path class="cls-7" d="M723.13,74.19A16.21,16.21,0,1,1,706.92,58,16.2,16.2,0,0,1,723.13,74.19Z"/><path class="cls-7" d="M569.8,73.4A13.83,13.83,0,1,1,556,59.57,13.83,13.83,0,0,1,569.8,73.4Z"/><path class="cls-7" d="M747.63,117.66a30,30,0,1,1-30-30A30,30,0,0,1,747.63,117.66Z"/><path class="cls-7" d="M553.6,55.22a22.13,22.13,0,1,1-22.13-22.13A22.13,22.13,0,0,1,553.6,55.22Z"/><path class="cls-7" d="M641.72,94.34a24.5,24.5,0,1,1-24.5-24.5A24.5,24.5,0,0,1,641.72,94.34Z"/><path class="cls-7" d="M502.62,94a17.79,17.79,0,1,1-17.78-17.78A17.78,17.78,0,0,1,502.62,94Z"/><path class="cls-7" d="M554,171.8a16.6,16.6,0,1,1-16.6-16.6A16.6,16.6,0,0,1,554,171.8Z"/><path class="cls-7" d="M725.1,3.45a29.24,29.24,0,1,1-29.24-29.24A29.25,29.25,0,0,1,725.1,3.45Z"/><circle class="cls-7" cx="581.26" cy="113.71" r="16.99" transform="translate(0.73 231.09) rotate(-22.5)"/><path class="cls-7" d="M662.66,3.45a17.39,17.39,0,1,1-17.38-17.38A17.38,17.38,0,0,1,662.66,3.45Z"/><path class="cls-7" d="M688,114.89a9.09,9.09,0,1,1-9.09-9.09A9.09,9.09,0,0,1,688,114.89Z"/><path class="cls-7" d="M591.93,83.67a12.25,12.25,0,1,1-12.25-12.25A12.26,12.26,0,0,1,591.93,83.67Z"/><path class="cls-7" d="M528.31,90a13,13,0,1,1-13-13A13,13,0,0,1,528.31,90Z"/><path class="cls-7" d="M621.17,131.49a15,15,0,1,1-15-15A15,15,0,0,1,621.17,131.49Z"/><circle class="cls-7" cx="576.52" cy="141.37" r="10.67"/><path class="cls-7" d="M509.73,129.12a16.6,16.6,0,1,1-16.6-16.6A16.6,16.6,0,0,1,509.73,129.12Z"/><path class="cls-7" d="M509.73,69.84A11.86,11.86,0,1,1,497.88,58,11.86,11.86,0,0,1,509.73,69.84Z"/><path class="cls-7" d="M540.16,202.62a18.58,18.58,0,1,1-18.57-18.57A18.56,18.56,0,0,1,540.16,202.62Z"/><path class="cls-7" d="M518.43,152.83a10.28,10.28,0,1,1-10.28-10.28A10.27,10.27,0,0,1,518.43,152.83Z"/><path class="cls-7" d="M522.77,178.12a12.25,12.25,0,1,1-12.25-12.25A12.24,12.24,0,0,1,522.77,178.12Z"/><path class="cls-7" d="M674.12,102.25a13.44,13.44,0,1,1-13.43-13.44A13.43,13.43,0,0,1,674.12,102.25Z"/><circle class="cls-7" cx="705.74" cy="46.92" r="10.28"/><path class="cls-7" d="M693.88,94a9.09,9.09,0,1,1-9.09-9.09A9.09,9.09,0,0,1,693.88,94Z"/><path class="cls-7" d="M744.27,7A11.46,11.46,0,1,1,732.81-4.45,11.46,11.46,0,0,1,744.27,7Z"/><path class="cls-7" d="M755.53,99.88a5.14,5.14,0,1,1-5.13-5.14A5.13,5.13,0,0,1,755.53,99.88Z"/><path class="cls-7" d="M554,212.1a7.9,7.9,0,1,1-7.9-7.9A7.91,7.91,0,0,1,554,212.1Z"/><path class="cls-7" d="M480.49,117.26a11.07,11.07,0,1,1-11.07-11.06A11.07,11.07,0,0,1,480.49,117.26Z"/><path class="cls-7" d="M544.51,25.19a9.09,9.09,0,1,1-9.09-9.09A9.09,9.09,0,0,1,544.51,25.19Z"/><path class="cls-7" d="M487.6,65.1A7.11,7.11,0,1,1,480.49,58,7.11,7.11,0,0,1,487.6,65.1Z"/><path class="cls-7" d="M492.34,51.66a3.16,3.16,0,1,1-3.16-3.16A3.16,3.16,0,0,1,492.34,51.66Z"/><path class="cls-7" d="M550,6.22a8.3,8.3,0,1,1-8.3-8.3A8.3,8.3,0,0,1,550,6.22Z"/><path class="cls-7" d="M735,153.22a8.3,8.3,0,1,1-8.3-8.29A8.29,8.29,0,0,1,735,153.22Z"/><path class="cls-7" d="M571.38,154.81a9.09,9.09,0,1,1-9.09-9.09A9.09,9.09,0,0,1,571.38,154.81Z"/><path class="cls-7" d="M557.94,88a11.86,11.86,0,1,1-11.85-11.86A11.85,11.85,0,0,1,557.94,88Z"/><path class="cls-7" d="M501.83,157.57a8.7,8.7,0,1,1-8.7-8.69A8.7,8.7,0,0,1,501.83,157.57Z"/><path class="cls-7" d="M641.72,127.54a10.28,10.28,0,1,1-10.27-10.28A10.27,10.27,0,0,1,641.72,127.54Z"/><path class="cls-7" d="M629.87,144.53a5.93,5.93,0,1,1-5.93-5.93A5.94,5.94,0,0,1,629.87,144.53Z"/><path class="cls-7" d="M732.61,71.82a4.35,4.35,0,1,1-4.35-4.35A4.34,4.34,0,0,1,732.61,71.82Z"/><path class="cls-7" d="M511.31,51.66a7.11,7.11,0,1,1-7.11-7.11A7.11,7.11,0,0,1,511.31,51.66Z"/><path class="cls-8" d="M629.48,27.26a42.77,42.77,0,1,1-42.77-42.77A42.77,42.77,0,0,1,629.48,27.26Z"/><path class="cls-10" d="M563.26,123.89a28.09,28.09,0,1,1-28.08-28.08A28.09,28.09,0,0,1,563.26,123.89Z"/><circle class="cls-11" cx="659.09" cy="54.16" r="34.01"/><path class="cls-18" d="M740.56,29.12a15.49,15.49,0,1,1-15.49-15.49A15.49,15.49,0,0,1,740.56,29.12Z"/><path class="cls-21" d="M721.7,71.33a16.21,16.21,0,1,1-16.2-16.2A16.21,16.21,0,0,1,721.7,71.33Z"/><path class="cls-4" d="M568.37,70.54a13.83,13.83,0,1,1-13.83-13.83A13.83,13.83,0,0,1,568.37,70.54Z"/><path class="cls-28" d="M746.2,114.8a30,30,0,1,1-30-30A30,30,0,0,1,746.2,114.8Z"/><path class="cls-29" d="M552.17,52.36A22.13,22.13,0,1,1,530,30.23,22.13,22.13,0,0,1,552.17,52.36Z"/><path class="cls-13" d="M640.29,91.49A24.5,24.5,0,1,1,615.79,67,24.5,24.5,0,0,1,640.29,91.49Z"/><path class="cls-30" d="M501.19,91.09a17.79,17.79,0,1,1-17.78-17.78A17.78,17.78,0,0,1,501.19,91.09Z"/><path class="cls-8" d="M552.56,168.94A16.6,16.6,0,1,1,536,152.35,16.6,16.6,0,0,1,552.56,168.94Z"/><path class="cls-31" d="M723.67.6a29.24,29.24,0,1,1-29.24-29.25A29.24,29.24,0,0,1,723.67.6Z"/><circle class="cls-4" cx="579.83" cy="110.85" r="16.99" transform="translate(1.72 230.33) rotate(-22.5)"/><path class="cls-4" d="M661.24.6a17.39,17.39,0,0,1-34.78,0,17.39,17.39,0,0,1,34.78,0Z"/><path class="cls-4" d="M686.53,112a9.09,9.09,0,1,1-9.09-9.09A9.09,9.09,0,0,1,686.53,112Z"/><path class="cls-21" d="M590.5,80.82a12.25,12.25,0,1,1-12.25-12.25A12.25,12.25,0,0,1,590.5,80.82Z"/><path class="cls-4" d="M526.88,87.14a13,13,0,1,1-13-13A13,13,0,0,1,526.88,87.14Z"/><path class="cls-18" d="M619.74,128.63a15,15,0,1,1-15-15A15,15,0,0,1,619.74,128.63Z"/><circle class="cls-18" cx="575.09" cy="138.51" r="10.67"/><path class="cls-18" d="M508.3,126.26a16.6,16.6,0,1,1-16.59-16.59A16.6,16.6,0,0,1,508.3,126.26Z"/><path class="cls-18" d="M508.3,67a11.86,11.86,0,1,1-11.85-11.86A11.85,11.85,0,0,1,508.3,67Z"/><path class="cls-14" d="M538.73,199.76a18.57,18.57,0,1,1-18.57-18.57A18.57,18.57,0,0,1,538.73,199.76Z"/><path class="cls-4" d="M517,150a10.28,10.28,0,1,1-10.28-10.27A10.28,10.28,0,0,1,517,150Z"/><path class="cls-4" d="M521.34,175.26A12.25,12.25,0,1,1,509.09,163,12.24,12.24,0,0,1,521.34,175.26Z"/><path class="cls-8" d="M672.7,99.39A13.44,13.44,0,1,1,659.26,86,13.44,13.44,0,0,1,672.7,99.39Z"/><circle class="cls-4" cx="704.31" cy="44.07" r="10.28"/><path class="cls-4" d="M692.45,91.09A9.09,9.09,0,1,1,683.36,82,9.08,9.08,0,0,1,692.45,91.09Z"/><path class="cls-4" d="M742.84,4.15A11.46,11.46,0,1,1,731.38-7.31,11.46,11.46,0,0,1,742.84,4.15Z"/><path class="cls-27" d="M754.1,97A5.14,5.14,0,1,1,749,91.88,5.14,5.14,0,0,1,754.1,97Z"/><path class="cls-32" d="M552.57,209.25a7.91,7.91,0,1,1-7.91-7.91A7.91,7.91,0,0,1,552.57,209.25Z"/><path class="cls-33" d="M479.06,114.41A11.07,11.07,0,1,1,468,103.34,11.06,11.06,0,0,1,479.06,114.41Z"/><path class="cls-4" d="M543.08,22.33A9.09,9.09,0,1,1,534,13.24,9.09,9.09,0,0,1,543.08,22.33Z"/><path class="cls-33" d="M486.17,62.24a7.11,7.11,0,1,1-7.11-7.11A7.11,7.11,0,0,1,486.17,62.24Z"/><path class="cls-27" d="M490.92,48.81a3.17,3.17,0,1,1-3.16-3.16A3.17,3.17,0,0,1,490.92,48.81Z"/><path class="cls-27" d="M548.61,3.36a8.3,8.3,0,1,1-8.3-8.3A8.29,8.29,0,0,1,548.61,3.36Z"/><path class="cls-9" d="M733.55,150.37a8.3,8.3,0,1,1-8.29-8.3A8.3,8.3,0,0,1,733.55,150.37Z"/><path class="cls-4" d="M570,152a9.09,9.09,0,1,1-9.09-9.09A9.09,9.09,0,0,1,570,152Z"/><path class="cls-4" d="M556.52,85.16a11.86,11.86,0,1,1-11.86-11.85A11.86,11.86,0,0,1,556.52,85.16Z"/><path class="cls-13" d="M500.4,154.72a8.7,8.7,0,1,1-8.69-8.7A8.69,8.69,0,0,1,500.4,154.72Z"/><path class="cls-4" d="M640.29,124.68A10.28,10.28,0,1,1,630,114.41,10.27,10.27,0,0,1,640.29,124.68Z"/><path class="cls-4" d="M628.44,141.67a5.93,5.93,0,1,1-5.93-5.92A5.93,5.93,0,0,1,628.44,141.67Z"/><path class="cls-9" d="M731.18,69a4.35,4.35,0,1,1-4.34-4.35A4.34,4.34,0,0,1,731.18,69Z"/><path class="cls-29" d="M509.89,48.81a7.12,7.12,0,1,1-7.12-7.11A7.11,7.11,0,0,1,509.89,48.81Z"/></g><rect id="長方形_1152" data-name="長方形 1152" class="cls-35" x="174.57" y="66.46" width="674.32" height="260.21"/><g class="cls-36"><path class="cls-37" d="M403.08,100.51l1.67.11c0,.24,0,.64-.05,1-.25,11.26-.46,15.17-1.3,16.36-.94,1.38-1.92,1.51-5.15,1.43a8.34,8.34,0,0,0-.87-3,22.26,22.26,0,0,0,2.43.11.92.92,0,0,0,.86-.46c.54-.73.79-3.89.95-12.5h-2.4c0,5.29-.76,11.93-5.46,16.12a14.77,14.77,0,0,0-2.43-2.06l.06,0c-3.89.49-7.75.89-10.37,1.16a.52.52,0,0,1-.43.41l-.94-3.11c1.48-.08,3.4-.21,5.53-.38V114H380.4v-2.32h4.78V110.6h-4.53v-8.39h4.53v-1h-5.37V98.81h5.37V97.75c-1.51.14-3,.22-4.45.27a9.16,9.16,0,0,0-.73-2.26,60.18,60.18,0,0,0,11.17-1.46l2.11,2.29a.57.57,0,0,1-.35.08,1.37,1.37,0,0,1-.27,0,34.31,34.31,0,0,1-4.05.73,1.08,1.08,0,0,1-.49.16v1.27h5.43v2.35h-5.43v1h4.78v8.39h-4.78v1.06h4.94V114h-4.94v1.4c1.65-.13,3.32-.3,5-.43v.7c2.64-3.64,3.05-8.39,3.08-12.12h-2.41v-3h2.41V94.35l3.75.22c0,.27-.22.4-.7.51v5.46h3.18Zm-19.79,3.78v1.13h1.89v-1.13Zm0,4.23h1.89v-1.16h-1.89Zm6.86-4.23h-2v1.13h2Zm0,4.23v-1.16h-2v1.16Z"/><path class="cls-37" d="M433.24,104.85a37.25,37.25,0,0,1-7.48,1.46,9.4,9.4,0,0,0,4,3.35l-1.89,2.64a6.6,6.6,0,0,0-4.19-1.16,9.22,9.22,0,0,0-1.48.11l-.81-2.48c.35,0,.78-.06,1.21-.06s.87,0,1.19.06a11.89,11.89,0,0,1-1.46-2.11c-2,.14-4.1.19-5.8.19-1.32,0-3.27,0-4.94,0l-.05-2.84c1.08,0,2.37.06,3.59.06,2.07,0,4.15,0,6.23-.14-.19-.65-.54-1.73-.75-2.62-.89.08-2.08.11-3.11.11-1.48,0-2.94,0-4.26-.05l0-2.86c1.43.08,2.87.08,4.11.08.81,0,1.89,0,2.7-.08-.22-1.11-.41-2.57-.57-3.84l4.29.08c0,.33-.27.57-.73.65.08.87.19,2,.35,2.86a30.67,30.67,0,0,0,6.81-1.35l.64,2.89A34.21,34.21,0,0,1,424,101c.24.92.49,1.94.7,2.62a36.45,36.45,0,0,0,8-1.73Zm-4.78,13.66a40.65,40.65,0,0,1-4.29.19c-.62,0-1.3,0-2.05,0-4.67,0-7.91-1.64-7.91-4.75,0-1.7,1.37-3.34,2.94-4.32l2.24,2.08a2.83,2.83,0,0,0-1.73,2.08c0,1.86,3.11,1.95,5,1.95a57.66,57.66,0,0,0,5.94-.3Z"/><path class="cls-37" d="M459.4,108l4.1.24c0,.24-.21.43-.73.51v10.8H459.4V118H444.28v1.62H441V108l4.05.21c0,.27-.24.46-.76.52v6H450v-8.23h-7.91V96.67l4,.25c0,.27-.25.43-.76.51v6H450v-9l4.1.21c0,.27-.24.44-.75.54v8.26h4.94V96.67l4.15.22c0,.27-.21.43-.73.54v9.15h-8.36v8.23h6.07Z"/><path class="cls-37" d="M494.55,103.67c-1.4.1-3.37.35-5.42.64a28.82,28.82,0,0,1-.35,5.48,3.47,3.47,0,0,1-3.67,2.81,8.89,8.89,0,0,1-3.95-1.08,16,16,0,0,0,.36-2.75,6.91,6.91,0,0,0,2.86.92,1.25,1.25,0,0,0,1.21-1,28.29,28.29,0,0,0,.19-3.89c-2.54.4-5,.84-7,1.19,0,2.43.08,4.8.16,6,.22,2.48,1.25,3.29,3.89,3.4.41,0,.92,0,1.49,0a43.93,43.93,0,0,0,7.07-.52l.08,3.16a62.4,62.4,0,0,1-6.8.33c-4.48,0-8.51-.25-9-6.18-.13-1.25-.19-3.38-.24-5.62-1.57.33-3.73.73-4.75,1l-.52-3.18c1.25-.19,3.38-.54,5.24-.87,0-2.32-.05-4.91-.05-6.69l4.32.32c0,.33-.25.52-.76.62-.08,1.33-.05,3.35-.08,5.16,2-.35,4.51-.76,6.91-1.16-.08-2.21-.19-4.83-.35-6.72l4.13.13c0,.27-.16.46-.6.62.11,1.57.14,3.62.19,5.4,1.89-.29,3.84-.62,5.24-.81Z"/><path class="cls-37" d="M508.16,105.77c1,.84,3.62,3.48,4.27,4.16l-1.94,2.43a38.28,38.28,0,0,0-2.33-3.13v10.36H505v-9.9a29.28,29.28,0,0,1-3.51,6.1,17.19,17.19,0,0,0-1.56-3.16,28.54,28.54,0,0,0,4.42-7.48h-3.91v-3.08H505V98.94c-1.3.33-2.62.62-3.91.87a9.68,9.68,0,0,0-1-2.43,38.12,38.12,0,0,0,9.83-3.24l2.67,2.35a.77.77,0,0,1-.67.16,27.18,27.18,0,0,1-3.76,1.4v4h4.05v3.08h-4.05Zm14,1.65a47.15,47.15,0,0,1,3.67,11.15l-3.43,1.08c-.08-.73-.24-1.57-.43-2.46-4,.54-7.91,1.08-10.58,1.38a.62.62,0,0,1-.49.48l-1.18-3.78c.73,0,1.56-.1,2.48-.19a144,144,0,0,0,3.59-20.35l4.43.86a1.07,1.07,0,0,1-.89.6,156,156,0,0,1-3.73,18.57c1.78-.16,3.67-.35,5.56-.54a55.61,55.61,0,0,0-2.1-5.91Z"/><path class="cls-37" d="M546,100.54a.9.9,0,0,1-.81.45c-1.11,9.24-3.81,14.58-8.45,14.58-2.94,0-5.07-2.48-5.07-7.07,0-6.91,5.5-12,12.39-12,7.64,0,11.55,4.54,11.55,10.4,0,6.34-3.27,9.63-10.07,11.36a18,18,0,0,0-2.16-2.86c6.16-1.22,8.61-4.16,8.61-8.45s-3-7.29-8-7.29a10.26,10.26,0,0,0-1.37.11ZM541.7,100a8.6,8.6,0,0,0-6.72,8.36c0,2.27.67,3.86,1.86,3.86C539.49,112.22,541.24,106.31,541.7,100Z"/><path class="cls-37" d="M586.6,108.12h-8.83a26.07,26.07,0,0,0,9.55,7.29,14.77,14.77,0,0,0-2.45,2.89,29.33,29.33,0,0,1-8.77-7.45v8.74h-3.46v-8.42a29.57,29.57,0,0,1-8.75,7.26,16.14,16.14,0,0,0-2.4-2.83,26.72,26.72,0,0,0,9.64-7.48H562.3v-3.21h10.34v-3.48h-8.29V98.21h8.29V94.14l4.18.21c0,.27-.24.44-.72.54v3.32h8.52v3.22H576.1v3.48h10.5Z"/><path class="cls-37" d="M617.65,109.06h-8.43a24.83,24.83,0,0,0,9.18,6.83,16.17,16.17,0,0,0-2.4,2.92,28,28,0,0,1-8.83-7.4v8.15h-3.42v-7.9a29.08,29.08,0,0,1-8.83,7.07,16.13,16.13,0,0,0-2.4-2.84,25.88,25.88,0,0,0,9.31-6.83h-8.56V106h5.13a20.07,20.07,0,0,0-2-4.59l2.91-1.08a19.69,19.69,0,0,1,2.32,4.78l-2.29.89h4.43v-5.78h-9.18v-3.1h9.18v-3l4.18.24c0,.25-.24.44-.76.52v2.21h9.4v3.1H612l3.59,1.3a.83.83,0,0,1-.78.3,30.67,30.67,0,0,1-2.46,4.18h5.27Zm-10.48-8.88V106h4.24l-2-.84a28.71,28.71,0,0,0,2.43-4.94Z"/><path class="cls-37" d="M626.29,114.81a2.58,2.58,0,1,1,5.16,0,2.58,2.58,0,1,1-5.16,0Zm1.08-4.58-.68-13.91h4.49l-.65,13.91Z"/></g><g class="cls-36"><path class="cls-37" d="M364.24,148.5a1,1,0,0,1-.57.51,35.66,35.66,0,0,1-4,7.77c1.26.94,3.24,2.59,4.28,3.42V158h19v16.27h-4.25V173H368v1.4h-4.07V161.28l-2,2.95c-.64-.82-1.65-1.94-2.66-3v13.21H355V162.36a26.15,26.15,0,0,1-3.31,2.81,16.34,16.34,0,0,0-2-4.07A25.64,25.64,0,0,0,358.66,151h-8v-3.85H355v-6.66l5.15.28c0,.36-.29.58-.94.69v5.69h1.62l.65-.18Zm-1-6.91h20.73v3.64H363.2Zm2.59,5.22h15.34v9.61H365.79Zm5.47,14.76H368v2.16h3.27ZM368,169.45h3.27v-2.27H368Zm9.14-16.3v-3.06h-7.49v3.06Zm1.51,10.58v-2.16h-3.42v2.16Zm-3.42,5.72h3.42v-2.27h-3.42Z"/><path class="cls-37" d="M423.93,142.17v27.57c0,4.32-2.12,4.72-7.77,4.72a16.34,16.34,0,0,0-1.37-4c1,.08,2.19.11,3,.11,1.69,0,1.87,0,1.87-.83V146.27h-6.37l3.82,1.19a1,1,0,0,1-.94.4,41.62,41.62,0,0,1-2.45,4.21h4.83v3.52H411c-.1.18-.36.29-.79.4v8.06h2.92v-6.58l4.57.25c0,.32-.29.54-.9.65v10.8h-3.67v-1.55h-9.69v2.16h-3.63V157.47l4.5.25c0,.32-.29.54-.87.61v5.72h2.85v-8.46h-7.81v-3.52h4a17,17,0,0,0-2.05-4.65l3.31-1.15h-6.48v28.15h-4.21V142.17Zm-11.81,9.9-1.9-.69a40.91,40.91,0,0,0,2.19-5.11H404a17.54,17.54,0,0,1,2.38,5l-2.2.83Z"/><path class="cls-37" d="M452.62,149a1.19,1.19,0,0,1-1.08.61c-1.47,12.31-5.07,19.44-11.26,19.44-3.93,0-6.77-3.31-6.77-9.43,0-9.22,7.34-16,16.52-16,10.19,0,15.41,6.05,15.41,13.86,0,8.46-4.36,12.85-13.43,15.16a23.58,23.58,0,0,0-2.88-3.82c8.21-1.62,11.48-5.54,11.48-11.27s-4-9.71-10.65-9.71a15.76,15.76,0,0,0-1.84.14Zm-5.72-.72a11.47,11.47,0,0,0-9,11.16c0,3,.9,5.14,2.48,5.14C444,164.59,446.29,156.71,446.9,148.29Z"/><path class="cls-37" d="M507,162.36V166h-7.81v4.21c0,3.78-1.62,4.21-8.54,4.21a14.14,14.14,0,0,0-1.33-3.82c2,.11,4.21.11,4.83.11s.79-.14.79-.65V166H483.12a24.74,24.74,0,0,1,4.75,4.39l-3.46,2.55a27,27,0,0,0-5.18-5.11l2.59-1.83h-7.77v-3.64h20.84v-1.94h-17V148.07h10.41v-1.65H474.77v-3.53h13.57v-2.41l5.22.28c0,.36-.29.58-1,.69v1.44h13.75v3.53H492.58v1.65h11v12.35h-3.49c0,.32-.29.57-.93.68v1.26ZM482,151v1.87h6.37V151Zm0,4.64v1.84h6.37v-1.84ZM499.32,151h-6.74v1.87h6.74Zm0,6.48v-1.84h-6.74v1.84Z"/><path class="cls-37" d="M530.56,141.92v14H521v18.5h-4.28v-32.5Zm-4.06,3.49H521v1.87h5.51ZM521,152.46h5.51v-2.05H521Zm26.31-10.54v27.25c0,4.64-1.83,5.21-9.57,5.21a15.75,15.75,0,0,0-1.55-4.42c1.55.1,3.24.1,4.43.1,2.12,0,2.34,0,2.34-1V156h-9.87V141.92ZM543,145.41h-5.76v1.87H543Zm-5.76,7.13H543v-2.13h-5.76Z"/><path class="cls-37" d="M589.53,161.14v4h-14v4.71c0,4-1.87,4.65-9.36,4.65a17.12,17.12,0,0,0-1.73-4.18c1.48.07,3.1.11,4.25.11,2.23,0,2.41,0,2.41-.72V165.1H557.17v-4H571.1v-2.49l2.12.11a20.65,20.65,0,0,0,2.67-2.09H563.61v-3.74H580l.69-.22,3.27,1.95a1.19,1.19,0,0,1-.79.5,38.44,38.44,0,0,1-7.3,6Zm-27.64-11.09v5h-4.07V146.2h4.75a25.27,25.27,0,0,0-2.52-3.74l3.67-1.62a21.18,21.18,0,0,1,3.46,4.93l-.94.43h5.26a33.15,33.15,0,0,0-2.34-4.54l3.81-1.4a22.39,22.39,0,0,1,2.95,5.47l-1.18.47h4.67a36.3,36.3,0,0,0,3.28-5.51c4.82,1.73,4.93,1.77,5,1.84a1.08,1.08,0,0,1-1,.36,32.31,32.31,0,0,1-2.38,3.31h4.82v8.85h-4.24v-5Z"/><path class="cls-37" d="M606.85,153.76c1,1.33,3.89,5.69,4.53,6.69L609,163.69c-.47-1.18-1.3-2.91-2.16-4.53v15.22h-4V160.71a30.84,30.84,0,0,1-3.49,7.34,19.75,19.75,0,0,0-2-3.92c2.16-2.88,4.14-7.85,5.15-12.21h-4.28v-4h4.6v-7.49l4.93.29c0,.32-.28.54-.93.65v6.55h4v4h-4Zm19.44-4.1a33.69,33.69,0,0,1,5.65,7.59l-3.64,2.12a11.79,11.79,0,0,0-.68-1.4.55.55,0,0,1-.25,0,27.25,27.25,0,0,1-3.64,7.45,22.13,22.13,0,0,0,8.32,5.18,18.32,18.32,0,0,0-3,3.85,23.19,23.19,0,0,1-8.1-5.65,25,25,0,0,1-9.21,5.69,17.3,17.3,0,0,0-2.2-3.42,21.26,21.26,0,0,0,8.86-5.47,37.3,37.3,0,0,1-3.82-7.42,19.41,19.41,0,0,1-1.47,1.41,17.71,17.71,0,0,0-3-2.74,20.52,20.52,0,0,0,5.37-7.09l4.39,1.83a.78.78,0,0,1-.83.37,29.21,29.21,0,0,1-3.67,5.32l2.7-.75a24.74,24.74,0,0,0,2.92,5.61,22.75,22.75,0,0,0,2.37-5.83l3.78.83a43.1,43.1,0,0,0-4.21-5.62Zm5.14-4.14v4H611.2v-4h7.85v-5.08l5.22.29c0,.36-.32.57-1,.72v4.07Z"/><path class="cls-37" d="M639.18,144.87c1.11,0,2.77,0,3.78-.11,4.14-.29,19.69-1.26,25.77-1.55l.07,4.86c-3.2-.11-5,.18-7.81,2.2-4,2.62-8.85,7.59-8.85,11.7s3.63,6.47,11.52,7.3l-2.24,4.5c-10.22-1.22-14.25-5.54-14.25-11.77,0-4.39,4-10.08,9.43-13.86-4.46.4-12.78,1.05-16.09,1.41-.07.28-.54.54-.86.61Zm24,8.56a24,24,0,0,1,4.39,4.86l-2.12,1.7a24.69,24.69,0,0,0-4.25-4.94Zm4.29-3.2a20.61,20.61,0,0,1,4.39,4.82l-2.09,1.66a25.66,25.66,0,0,0-4.28-4.9Z"/></g><g class="cls-36"><path class="cls-37" d="M408.85,192.89h8v3.74h-8v1.48h4.89V206H388.08v-7.88h4.42v-1.48h-7.92v-3.74h7.92v-2.41l5.22.25c0,.36-.32.57-.93.72v1.44h7.74v-2.41l5.25.25c0,.39-.29.57-.93.72ZM385,213.77v-6.48h31.53v6.48h-4.25v-3.21H400.89a.91.91,0,0,1-.76.25c-.32.4-.72.83-1.08,1.23h8.21l.72-.15,2.92,1.41a1.14,1.14,0,0,1-.47.43c-3.71,6.3-11.81,9.39-20.55,10.76a17.14,17.14,0,0,0-1.95-3.56,42.78,42.78,0,0,0,8.86-1.84,18.33,18.33,0,0,0-3.21-1.69l2.67-2.16a19.58,19.58,0,0,1,4.35,2.3,15.71,15.71,0,0,0,3.78-2.59h-8.74a31.37,31.37,0,0,1-6.77,3.57,13.49,13.49,0,0,0-2.56-3,22.34,22.34,0,0,0,9-5H389v3.21Zm10.4-10.55v-2.38h-3.46v2.38Zm9.18-5.11v-1.48h-7.74v1.48Zm-2,5.11v-2.38H399v2.38Zm7.2,0v-2.38h-3.6v2.38Z"/><path class="cls-37" d="M456.11,207.54a1,1,0,0,1-.28.07.88.88,0,0,1-.51-.18c-2.7.79-6.26,1.94-8.93,2.95a22.88,22.88,0,0,1,.08,2.41c0,.87,0,1.8-.08,2.85l-4.53.32a35.41,35.41,0,0,0,.14-3.85c-2.8,1.4-4.86,3.24-4.86,4.61,0,1.58,2,2.23,6.05,2.23a80.33,80.33,0,0,0,8.93-.4l.07,4.18c-1.87.21-5,.25-9,.25-7,0-10.41-1.55-10.41-6,0-2.88,3.75-6.16,8.82-8.75-.11-1-.65-2-1.73-2-2.37,0-4.89,1.22-7.84,4.57-.87,1-2.2,2.41-3.75,3.92l-3.2-3.09a41.17,41.17,0,0,0,4.39-4.18,22,22,0,0,0,4-7.52l-1.37,0c-.79,0-4.68,0-5.57,0v-4.06c2,.1,4.6.1,6.19.1l1.9,0a47,47,0,0,0,.76-4.75l5.51.54a1,1,0,0,1-.9.68c-.18,1.15-.47,2.23-.76,3.35a40.23,40.23,0,0,0,10.94-2l.72,4.25c-3.45,1.11-8.42,1.54-12.85,1.76a21.4,21.4,0,0,1-1.76,4.21h0a8.42,8.42,0,0,1,4.93-1.76c2.08,0,3.92,1.47,4.46,4.21,2.77-1.19,6.16-2.41,8.75-3.46Z"/><path class="cls-37" d="M492.69,199.87a1.16,1.16,0,0,1-.43.58c-.51,10.94-1.59,17.46-3,19.69a6.1,6.1,0,0,1-5.44,2.88,31.74,31.74,0,0,1-6.26-.72,31.81,31.81,0,0,0-.32-4.54,34.68,34.68,0,0,0,5.69.83,2.34,2.34,0,0,0,2.41-1.44c.82-1.66,1.69-7,2-13.86h-8.86c-1.69,7.38-4.64,14.4-11.27,19.8a24.94,24.94,0,0,0-3.7-2.77c6-4.61,8.82-10.8,10.15-17H464.9V199h9.61c.36-2.48.43-4.5.58-7.27l5.9.51c-.07.39-.43.68-1.08.79-.21,2.27-.29,3.89-.61,6h9.21l.87-.36Z"/><path class="cls-37" d="M529.12,197.93a1.25,1.25,0,0,1-.57.65,53.16,53.16,0,0,1-5,11.26c1.26.76,2.92,1.84,4,2.56l-2.63,4.43a46,46,0,0,0-4.1-2.92,34.16,34.16,0,0,1-12.13,9.65,13.82,13.82,0,0,0-3.56-3.42,33.1,33.1,0,0,0,11.73-8.61,44.94,44.94,0,0,0-6.08-3.06l2.48-3.52a55.36,55.36,0,0,1,6.3,2.77,30.13,30.13,0,0,0,3.31-7.06h-9.93a41.08,41.08,0,0,1-7.74,9,28.08,28.08,0,0,0-3.74-2.85c5.07-3.7,8.81-9.53,10.94-15.58l5.79,1.26c-.14.39-.54.61-1.18.57a29.81,29.81,0,0,1-1.59,3.39H525l.76-.22Z"/><path class="cls-37" d="M569,208.37H557.24c-.76,6.33-3.28,11.33-9.9,15.15a31.45,31.45,0,0,0-3.74-3c5.94-3.2,8.38-6.88,9-12.2H539.1v-4.18H553c.07-1.87.07-3.6.07-5.72-3.16.57-7.27,1.19-10.94,1.51a23.14,23.14,0,0,0-1.22-3.56c8.74-.87,17.78-2.85,21.92-4.58l3.13,3.5c-.22.18-.47.18-1,.18a70,70,0,0,1-7.81,2.12l1.58.11c-.07.39-.32.72-1,.86,0,2,0,3.85-.11,5.58H569Z"/><path class="cls-37" d="M586.83,193.32c-.07.4-.39.65-1.11.68a86.37,86.37,0,0,0-1.91,15.84,34,34,0,0,0,.25,5.08c.43-1,1.84-4.11,2.31-5.26l2.12,3.31a64.48,64.48,0,0,0-3,6.23,6.2,6.2,0,0,0-.29,1.73,5.25,5.25,0,0,0,.18,1.26l-4.53.68A42.69,42.69,0,0,1,579.2,210a125.19,125.19,0,0,1,1.69-17.53Zm21.6,26.89c-1.33.07-2.77.11-4.14.11a48.58,48.58,0,0,1-6.12-.33c-5-.68-7-3.35-7-6.41,0-2.59,1.19-4.82,3.1-7.16l4.32,1.48c-1.62,1.58-2.67,3.24-2.67,5,0,2.7,3.24,3,7.53,3a46.7,46.7,0,0,0,5.14-.25ZM592,196.92a126.77,126.77,0,0,0,15.23-1.33l.39,4.46a131.82,131.82,0,0,1-15.48,1.22Z"/><path class="cls-37" d="M626.72,219.38a5,5,0,1,1-5-5A5.06,5.06,0,0,1,626.72,219.38Zm-1.62,0a3.4,3.4,0,1,0-3.42,3.38A3.39,3.39,0,0,0,625.1,219.38Z"/></g><rect class="cls-38" x="356" y="246.04" width="311" height="49"/><g id="専門学校を探す_" data-name="専門学校を探す " class="cls-36"><g class="cls-36"><path class="cls-39" d="M402.25,275.41v3.2h-6.88v3.71c0,3.32-1.43,3.7-7.51,3.7a12.74,12.74,0,0,0-1.17-3.35c1.71.09,3.7.09,4.24.09s.7-.13.7-.57v-3.58H381.27a22.08,22.08,0,0,1,4.18,3.86l-3,2.25a24.12,24.12,0,0,0-4.57-4.5l2.29-1.61h-6.85v-3.2h18.35V273.7H376.7V262.83h9.16v-1.46H373.91v-3.11h11.95v-2.12l4.6.25c0,.32-.26.51-.86.6v1.27h12.11v3.11H389.6v1.46h9.67V273.7h-3.08c0,.28-.25.5-.82.6v1.11Zm-22-10V267h5.61v-1.65Zm0,4.09v1.62h5.61v-1.62Zm15.28-4.09H389.6V267h5.93Zm0,5.71v-1.62H389.6v1.62Z"/><path class="cls-39" d="M423.05,257.41v12.32h-8.43V286h-3.77V257.41Zm-3.58,3.07h-4.85v1.65h4.85Zm-4.85,6.21h4.85v-1.81h-4.85Zm23.16-9.28v24c0,4.09-1.61,4.59-8.43,4.59a13.84,13.84,0,0,0-1.36-3.9c1.36.1,2.85.1,3.9.1,1.87,0,2.06,0,2.06-.86v-11.5h-8.68V257.41ZM434,260.48h-5.07v1.65H434Zm-5.07,6.27H434v-1.87h-5.07Z"/><path class="cls-39" d="M475,274.33v3.49H462.64V282c0,3.48-1.65,4.09-8.24,4.09a15.15,15.15,0,0,0-1.52-3.68c1.3.06,2.72.09,3.74.09,2,0,2.12,0,2.12-.63v-4H446.48v-3.49h12.26v-2.19l1.87.1A18.14,18.14,0,0,0,463,270.4H452.15v-3.3h14.39l.6-.19,2.88,1.72a1.09,1.09,0,0,1-.69.44,33.59,33.59,0,0,1-6.44,5.26Zm-24.34-9.76V269h-3.58v-7.79h4.18a22.16,22.16,0,0,0-2.22-3.3l3.23-1.42a18.36,18.36,0,0,1,3.05,4.34l-.83.38h4.63a28.63,28.63,0,0,0-2.06-4l3.36-1.23a19.78,19.78,0,0,1,2.6,4.82l-1.05.41h4.12a32.59,32.59,0,0,0,2.89-4.85c4.24,1.52,4.34,1.55,4.43,1.61a.93.93,0,0,1-.92.32,28,28,0,0,1-2.09,2.92h4.25V269h-3.74v-4.4Z"/><path class="cls-39" d="M490.22,267.83c.89,1.17,3.42,5,4,5.9l-2.09,2.85a41.23,41.23,0,0,0-1.9-4V286H486.7V274a27,27,0,0,1-3.07,6.46,18,18,0,0,0-1.74-3.45,31.81,31.81,0,0,0,4.53-10.74h-3.77V262.7h4.05v-6.59l4.34.25c0,.29-.25.47-.82.57v5.77h3.49v3.52h-3.49Zm17.11-3.61a29.44,29.44,0,0,1,5,6.69l-3.2,1.87a11.51,11.51,0,0,0-.6-1.24.58.58,0,0,1-.22,0,23.65,23.65,0,0,1-3.21,6.56,19.43,19.43,0,0,0,7.33,4.57,16,16,0,0,0-2.67,3.39,20.3,20.3,0,0,1-7.13-5,22,22,0,0,1-8.11,5,15.24,15.24,0,0,0-1.93-3,18.68,18.68,0,0,0,7.79-4.82,32.38,32.38,0,0,1-3.36-6.53,13.76,13.76,0,0,1-1.3,1.24,15.44,15.44,0,0,0-2.6-2.41,18,18,0,0,0,4.73-6.24l3.86,1.61a.68.68,0,0,1-.73.32,25.78,25.78,0,0,1-3.23,4.69l2.38-.67a21.75,21.75,0,0,0,2.57,4.95,20.34,20.34,0,0,0,2.09-5.14l3.33.73a38.38,38.38,0,0,0-3.71-4.94Zm4.54-3.64v3.48H494.06v-3.48H501v-4.47l4.6.25c0,.32-.29.51-.86.63v3.59Z"/><path class="cls-39" d="M545.91,271.16a.76.76,0,0,1-.25.06.75.75,0,0,1-.44-.15c-2.38.69-5.52,1.71-7.86,2.59.06.64.06,1.37.06,2.13s0,1.58-.06,2.5l-4,.29a32,32,0,0,0,.13-3.39c-2.47,1.23-4.28,2.85-4.28,4.05,0,1.4,1.74,2,5.33,2a71.89,71.89,0,0,0,7.85-.35l.07,3.67c-1.65.19-4.38.23-8,.23-6.11,0-9.16-1.37-9.16-5.3,0-2.53,3.3-5.42,7.77-7.7-.1-.92-.57-1.77-1.52-1.77-2.09,0-4.31,1.08-6.91,4-.76.89-1.93,2.13-3.3,3.46l-2.82-2.73a36.12,36.12,0,0,0,3.87-3.67,19.42,19.42,0,0,0,3.55-6.63l-1.21,0c-.69,0-4.12,0-4.91,0v-3.58c1.78.1,4.06.1,5.45.1l1.68,0a40.12,40.12,0,0,0,.67-4.19l4.85.48a.85.85,0,0,1-.8.6,29.9,29.9,0,0,1-.66,2.95,35.67,35.67,0,0,0,9.63-1.75l.64,3.74A48,48,0,0,1,530,264.35a19,19,0,0,1-1.55,3.7h0a7.5,7.5,0,0,1,4.34-1.55c1.84,0,3.46,1.3,3.93,3.71,2.44-1,5.42-2.12,7.7-3Z"/><path class="cls-39" d="M562.81,273.19l-3,1V282c0,3.2-1.17,4.09-5.7,4a14.35,14.35,0,0,0-1-3.51c.67,0,1.33.06,1.84.06,1.21,0,1.33,0,1.33-.57v-6.69l-2.37.73a.75.75,0,0,1-.57.57l-1-4.15c1.08-.22,2.44-.54,3.9-.92V265.8h-3.48v-3.51h3.48v-6.15l4.31.22c0,.32-.22.51-.79.57v5.36h3.11v3.51h-3.11v4.85l2.6-.66ZM582,276h-5.83a20.92,20.92,0,0,0,6.65,5.8,14.36,14.36,0,0,0-2.57,2.92,22.86,22.86,0,0,1-6.14-6.15V286h-3.74v-7.35a20.43,20.43,0,0,1-7,6.37,15.09,15.09,0,0,0-2.44-2.88,18.25,18.25,0,0,0,7.29-6.09h-5.35v-3.39h7.45v-3.17l4,.22c-1-.5-1.27-1.55-1.27-3.45v-5l4.22.26c0,.28-.25.47-.82.57v4.12c0,.79.12.85.69.85h1.59c.51,0,.63-.25.73-1.93a8.12,8.12,0,0,0,2.94,1.2c-.34,3-1.23,3.74-3.26,3.74h-2.57a6.3,6.3,0,0,1-1.74-.19c-.1.22-.35.38-.82.45v2.31H582Zm-9.8-14.32c0,.25-.25.47-.73.5-.44,4.19-1.39,7.32-7.09,9.07a9,9,0,0,0-1.84-2.73c4.66-1.23,5.32-3.45,5.58-7.16Zm-5.57-1.08v3.58h-3.24v-6.81h18.39v6.87h-3.36v-3.64Z"/><path class="cls-39" d="M589.54,261.24c2-.06,4.78-.09,7.26-.16,1.49-.06,3.74-.12,6-.19,0-.47-.07-3-.19-4.47l5.23.26a1,1,0,0,1-.86.69c0,.76,0,2.13,0,3.43,4.15-.13,8.31-.22,10-.26v3.74c-.92,0-2.13,0-3.49,0-1.9,0-4.15,0-6.5.1l.19,5.64a11.28,11.28,0,0,1,.48,3.61,11,11,0,0,1-.67,4.18c-1.29,3.3-4.18,6.34-9,8.12a19.87,19.87,0,0,0-3-3.14c3.42-1.17,6-2.82,7.13-4.79h0a2.82,2.82,0,0,1-1.75.61,5.68,5.68,0,0,1-5.64-5.77,6.11,6.11,0,0,1,6.12-6.15,4.84,4.84,0,0,1,2.06.48c0-.32-.06-2.06-.1-2.7-2.34,0-12.8.41-13.31.44Zm14,11.47c0-.69,0-2.91-2.41-2.91a2.78,2.78,0,0,0-2.73,3,2.66,2.66,0,0,0,2.6,2.72A2.53,2.53,0,0,0,603.58,272.71Z"/><path class="cls-39" d="M624.25,272.68v-3.23h22.41a21.3,21.3,0,0,1-4.22-4.34l2.85-1.59a37.21,37.21,0,0,0,8.28,7.55,37.16,37.16,0,0,0-8.28,7.54L642.44,277a21.3,21.3,0,0,1,4.22-4.34Z"/></g></g></svg>