<svg id="レイヤー_1" data-name="レイヤー 1" xmlns="http://www.w3.org/2000/svg" xmlns:xlink="http://www.w3.org/1999/xlink" viewBox="0 0 1023.73 295.66"><defs><style>.cls-1,.cls-6{fill:none;}.cls-2{clip-path:url(#clip-path);}.cls-3{fill:#82c7e8;}.cls-4{clip-path:url(#clip-path-2);}.cls-30,.cls-31,.cls-5{fill:#fff;}.cls-6{stroke:#fff;stroke-miterlimit:10;stroke-width:0.94px;}.cls-7{fill:#1b2b78;}.cls-8{fill:#231815;}.cls-9{fill:#dc5959;}.cls-10{fill:#d8528f;}.cls-11{fill:#f5ed70;}.cls-12{fill:#339cd1;}.cls-13{fill:#99c247;}.cls-14{fill:#d61c1a;}.cls-15{fill:#9d68a1;}.cls-16{fill:#1578b8;}.cls-17{fill:#6eb681;}.cls-18{fill:#118a3b;}.cls-19{fill:#d41c6c;}.cls-20{fill:#0966a9;}.cls-21{fill:#d21577;}.cls-22{fill:#dd5718;}.cls-23{fill:#84c6e0;}.cls-24{fill:#5eb9d0;}.cls-25{fill:#edb02e;}.cls-26{fill:#f0e428;}.cls-27{fill:#f4e829;}.cls-28{fill:#169243;}.cls-29{fill:#ebce4c;}.cls-30{opacity:0.65;}.cls-31{opacity:0.95;}.cls-32{isolation:isolate;}.cls-33{fill:#172a88;}</style><clipPath id="clip-path"><rect class="cls-1" y="393.73" width="1023.73" height="393.13"/></clipPath><clipPath id="clip-path-2"><rect class="cls-1" width="1023.73" height="295.66"/></clipPath></defs><g class="cls-2"><rect class="cls-3" x="-13.67" y="-211.73" width="1041.28" height="1472.66"/></g><g class="cls-4"><rect class="cls-3" x="0.13" width="1023.6" height="295.66"/><path class="cls-5" d="M189.11,65.48c-.26-.54-.15-1,.3-1.24l11.36-5.35a.73.73,0,0,1,1.06.38l16.22,34.45c.63,1.35,1.66,1.42,2.29,1.12s1.23-1.13.59-2.48L204.72,57.91a.71.71,0,0,1,.29-1l11.72-5.52a.81.81,0,0,1,1.11.25l24.88,52.85a.71.71,0,0,1-.43,1l-10.64,5c-.54.25-2.57-2.65-3.11-2.4-.18.09-.36.4-.65,1.19-.9,2.3-2,3.92-5.26,5.45-3.69,1.74-9.92.93-12.89-5.38Z"/><path class="cls-5" d="M139,68a1.53,1.53,0,0,1,.43-2.07L175.5,45.89a1.31,1.31,0,0,1,1.82.44L187,63.79a1.52,1.52,0,0,1-.58,2l-16.26,9a1.21,1.21,0,0,0-.49,1.72l3.35,6a1,1,0,0,0,1.5.34l7.63-4.23a1.35,1.35,0,0,1,1.66.39L193.9,97.24a1.31,1.31,0,0,1-.59,1.77l-7.53,4.18a1.51,1.51,0,0,0-.28,1.86L199,129.44a1.43,1.43,0,0,1-.52,2.13l-17.46,9.69a1.5,1.5,0,0,1-1.83-.69Z"/><path class="cls-5" d="M385.11,19.46c-.69.1-.76-.39-1.43-5-1.12-7.79,3.88-15.66,14.14-17.14,10.86-1.57,17.85,4.37,19,12.07l3.86,26.73c.11.79.41.75,2.58.44a.76.76,0,0,1,.8.69l.89,6.11c.69,4.84-2.72,11.17-8.25,12-4.54.65-6.53-.57-8.33-2.63-.6-.62-.92-.77-1.12-.74s-.46.26-.94,1.14a8.68,8.68,0,0,1-6.42,4.35c-4.15.6-10.76-2-12.18-11.84l-1.06-7.3c-1.12-7.79,3.51-12.69,8.61-15.74,6.76-4.1,7-5.24,6.5-8.7-.2-1.38-.89-2-1.78-1.85-1.58.22-1.49.82-.84,5.35a.81.81,0,0,1-.77.92Zm19.07,11.45a.75.75,0,0,0-.7-.7,3.12,3.12,0,0,0-2.13,3.43l1,7.3a1.6,1.6,0,1,0,3.16-.46Z"/><path class="cls-5" d="M255.29,78.38c-.08-.18-.25-.33-.34-.29s-.11.26,0,.44l7,17c.15.37,0,.63-.42.82l-12.63,5.2a.9.9,0,0,1-1.11-.62L219.43,32.13a.77.77,0,0,1,.35-1L232.13,26c.37-.15.7.15.85.51l11.5,27.93c.11.28.24.33.34.29a1.14,1.14,0,0,0-.06-.4L242,40.62a.94.94,0,0,1,.43-1l12.81-5.27a.75.75,0,0,1,1,.56l2.63,25.76a2.77,2.77,0,0,0,.12.81c.07.19.37.39.54.53l19.9,26.09a.82.82,0,0,1-.21,1.06L265.67,94.7a1,1,0,0,1-1-.44Z"/><path class="cls-5" d="M263.16,32.6c-.21-.56-.07-1,.4-1.21l11.8-4.32a.74.74,0,0,1,1,.47L289.47,63.3c.51,1.4,1.53,1.56,2.18,1.32s1.33-1,.81-2.42L279.37,26.45a.71.71,0,0,1,.39-1L291.92,21a.82.82,0,0,1,1.09.35L313.09,76.2a.72.72,0,0,1-.51.93l-11.05,4c-.56.21-2.32-2.86-2.88-2.66-.19.07-.4.36-.76,1.13a8.91,8.91,0,0,1-5.72,5c-3.83,1.41-10,0-12.36-6.51Z"/><path class="cls-5" d="M306.72,34c-2.52-8.81,2.37-16.74,12.24-19.56S337.14,15.64,339.83,25l7.78,27.21c2.55,8.92-2.34,16.85-12.21,19.67s-18.24-1.42-20.76-10.24ZM328.88,54.9c.33,1.15,1,1.78,2.08,1.48s1.32-1.2,1-2.35l-6.52-22.81c-.31-1-1.13-1.75-2.09-1.48s-1.28,1.3-1,2.36Z"/><path class="cls-5" d="M366.57,44.45c0-.19-.18-.36-.28-.34s-.15.24-.11.43l4.08,18c.09.39-.06.63-.55.74l-13.31,3a.91.91,0,0,1-1-.79L338.93-7.13a.77.77,0,0,1,.51-.93l13-2.95c.39-.09.67.25.76.64l6.68,29.46c.07.29.18.36.28.34a.92.92,0,0,0,0-.41l-.42-14a.93.93,0,0,1,.6-1L373.89,1a.75.75,0,0,1,.88.72l-1.71,25.84a3.32,3.32,0,0,0,0,.82,2.28,2.28,0,0,0,.45.61l15.27,29a.8.8,0,0,1-.38,1l-14.29,3.24a1,1,0,0,1-1-.6Z"/><path class="cls-6" d="M181.08,141S364.6,20.27,651,46.4"/><path class="cls-6" d="M180.84,141.24S366.77,24.57,652.24,56.65"/><path class="cls-6" d="M180.59,141.51S369,28.87,653.49,66.9"/><path class="cls-6" d="M180.35,141.79S371.13,33.16,654.73,77.15"/><path class="cls-6" d="M180.1,142.06S373.31,37.46,656,87.41"/><path class="cls-6" d="M179.86,142.33S375.49,41.76,657.23,97.66"/><path class="cls-6" d="M179.61,142.6s198.06-96.54,478.87-34.69"/><path class="cls-7" d="M505.91,78a9.49,9.49,0,1,0,9.49-9.48A9.49,9.49,0,0,0,505.91,78Z"/><path class="cls-7" d="M909.39,229.75a12.44,12.44,0,0,0-3.92.65,18.4,18.4,0,0,0,1.51-6.14,18.8,18.8,0,0,0-.2-4.12,8.33,8.33,0,0,0,1.42.13,8.7,8.7,0,1,0-8.14-11.71A18.52,18.52,0,0,0,875.2,210c-.12-.18-.21-.37-.33-.55a8.1,8.1,0,1,0-11.78-10.13c-.48-.23-1-.44-1.43-.64a12.63,12.63,0,0,0-21-12.93c-.6-.51-1.2-1-1.78-1.55a19.58,19.58,0,1,0-23.64-30.62L815,153q-.72-2.82-1.59-5.51a17,17,0,0,0-11.14-32l0-.14a20.4,20.4,0,0,0-3.56-40.43,21,21,0,0,0-4.14.37c0-.61,0-1.22,0-1.84a46.59,46.59,0,0,0-7.91-26,10.68,10.68,0,1,0,3.64-17.71,13.51,13.51,0,0,0-22.14-14.95,7.9,7.9,0,1,0-7.73,9.53,7.83,7.83,0,0,0,4.15-1.19c0,.28,0,.56,0,.85a13.48,13.48,0,0,0,1.67,6.5,46.81,46.81,0,0,0-37.65.37,27.31,27.31,0,0,0-.85-2.7,12.23,12.23,0,0,0,10.13-8.87,9.49,9.49,0,1,0-4-12.73,12.24,12.24,0,0,0-19.68,6.65c-.51-.25-1-.51-1.52-.73a6.7,6.7,0,0,0-7.92-10.64,10.62,10.62,0,0,0,3.56-7.94,10.67,10.67,0,0,0-10.67-10.67A10.67,10.67,0,0,0,686.9-6.17,10.67,10.67,0,0,0,697.57,4.5,10.6,10.6,0,0,0,703,3a6.68,6.68,0,0,0-1.91,4.68,6.81,6.81,0,0,0,.52,2.6,26.6,26.6,0,0,0-3,.18A7.44,7.44,0,0,0,686.81,5.2a10.07,10.07,0,0,0,.49-3.07,9.88,9.88,0,0,0-9.88-9.88,9.84,9.84,0,0,0-8,4.1c0-.24.06-.49.08-.74a10.28,10.28,0,0,0-9.67-10.85A10.26,10.26,0,0,0,649-5.57a10.06,10.06,0,0,0,.63,4.18,11.2,11.2,0,0,0-3-.43,11.07,11.07,0,0,0,0,22.13l.33,0A22.4,22.4,0,0,0,644.22,31c0,.53,0,1.06.06,1.58-.55.09-1.11.19-1.65.32,0-.11,0-.21,0-.32a13.84,13.84,0,1,0-16.56,13.56c-.31.63-.59,1.28-.84,1.94A15,15,0,0,0,612.38,59l-1.45-.07A26.71,26.71,0,0,0,591.29,26a15.41,15.41,0,1,0-10-.45c-.56.08-1.11.14-1.67.26a26.77,26.77,0,0,0-20.13,18.36,11.06,11.06,0,1,0-17.17,13.08,20.52,20.52,0,0,0,1.87,40.3,8.68,8.68,0,0,0,4,11.12c-.13,1-.23,2-.3,3a22,22,0,0,0-25.64,24.6c-.45.25-.88.52-1.31.8a9.88,9.88,0,1,0-8.43,15.22c0,.13,0,.25,0,.37a18.29,18.29,0,0,0,.18,2.47,13,13,0,0,0,3.7,16.74,11.61,11.61,0,0,0-2.15-.21,11.06,11.06,0,0,0-8.88,17.65c-.2.15-.41.28-.61.44a17.53,17.53,0,0,0-1.93,1.75A8.29,8.29,0,1,0,498,206.81c-.09.91-.14,1.82-.14,2.75a28,28,0,0,0,.93,7.08,19.8,19.8,0,0,0-11.35-3.58,19.88,19.88,0,0,0-19.7,23.32,14.76,14.76,0,0,1-1.44-.61c-1.69-.83-3.4-2-5.14-2.75A8.67,8.67,0,1,0,447,229.2a28.67,28.67,0,0,0-3.61-.25,28.33,28.33,0,0,0-19.95,8.18c-.4-.45-.8-.89-1.23-1.31a6.3,6.3,0,0,0-.55-12.27,8.31,8.31,0,1,0-5.25,1.43,6.28,6.28,0,0,0-2.22,4.77c0,.22,0,.42.07.64a18,18,0,0,0-13.08-8.64c-.17-.39-.35-.77-.55-1.15a9.08,9.08,0,1,0-11.4-13.25,7.87,7.87,0,0,0-1.17-2.15,11.44,11.44,0,0,0,5.32-16.83,9.23,9.23,0,0,0,2.24.28,9.09,9.09,0,1,0-8.05-4.87,11.45,11.45,0,0,0-10.64,20,7.87,7.87,0,0,0-3.05,6.22,7.71,7.71,0,0,0,.12,1.28,16.44,16.44,0,0,0-6.21-2,8.7,8.7,0,1,0-5.69.37,16.57,16.57,0,0,0-11.81,10.75,9.48,9.48,0,1,0,.93,12.92A16.57,16.57,0,0,0,362.39,242a26.51,26.51,0,0,0-2.84,7.1A15.36,15.36,0,0,0,364,271.37a27.87,27.87,0,0,0,3.3,3.73,12.73,12.73,0,0,0-2.85,5.38c0-.18,0-.36,0-.54a14.61,14.61,0,0,0-29.12-1.78,12.64,12.64,0,1,0,5.9,13.59,14.59,14.59,0,0,0,22.83-8.51,12.85,12.85,0,0,0,.18,2.38,12.57,12.57,0,0,0,1.1,3.42h-.1a5.53,5.53,0,1,0,5.52,5.62,12.62,12.62,0,0,0,18.5-12.48c.45-.06.9-.12,1.34-.2a16.84,16.84,0,0,0,33.63-1.17,17.16,17.16,0,0,0-.23-2.7,28.33,28.33,0,0,0,13.54,7.11,12.63,12.63,0,1,0,16,19.5,7.51,7.51,0,0,0,6.93,10.4,7.42,7.42,0,0,0,4.62-1.63,9.84,9.84,0,0,0,13.32,1.79,13.55,13.55,0,0,0,3.06,2.23,6.51,6.51,0,1,0,4.29,6.11,6.5,6.5,0,0,0-3.21-5.59,13.38,13.38,0,0,0,3,.85,19.36,19.36,0,1,0,30.2-18.49,19.74,19.74,0,0,1,2.26-1.61,15.4,15.4,0,0,0,29.85,2.06,13.83,13.83,0,0,0,13.77,12.7,13.41,13.41,0,0,0,1.81-.13,10.28,10.28,0,0,0,12.2,16.27A16.94,16.94,0,0,0,588.4,336c.94.52,1.9,1,2.87,1.48a20.86,20.86,0,1,0,12,38.53,5.92,5.92,0,1,0,10.78-2.1c.24-.15.47-.32.69-.49A24.08,24.08,0,0,0,641,382.19c.09.21.18.42.26.63a17.34,17.34,0,0,0-10.88,25.52l-2.85,1A42.78,42.78,0,0,0,546.38,435a22.06,22.06,0,0,0-8.59-4.8,9.08,9.08,0,1,0-6.68-.87,22.13,22.13,0,0,0-20.53,15.21,7.09,7.09,0,1,0-8.31,10.11l-.31.24a11.8,11.8,0,0,0-14.32,5.43,7.15,7.15,0,1,0-1.47,5.39c0,.12,0,.23,0,.35a11.77,11.77,0,0,0,2,6.62,17.77,17.77,0,0,0-15.7,30.13,11.25,11.25,0,0,0-2.92-.4,11.07,11.07,0,1,0,7.56,19.13,16.87,16.87,0,0,0-.45,3.79,16.58,16.58,0,0,0,29.07,10.92,22.73,22.73,0,0,0,4.07.39,23.21,23.21,0,0,0,2.37-.13,28,28,0,0,0,42.55,8c.33.13.66.26,1,.37a9.08,9.08,0,1,0,14.15.94,10.67,10.67,0,1,0,11-18.06c0-.3,0-.59,0-.88l.51,0A16.87,16.87,0,0,0,592,523.23a15,15,0,1,0,22-8.43,24.31,24.31,0,0,0,27.93-24.23c0-.17,0-.34,0-.5l.43,0a13.88,13.88,0,0,0,4.3.68,14.24,14.24,0,0,0,3.66-.5,13.42,13.42,0,0,0,20.36,17.45,8.94,8.94,0,0,0-.68,3.44,9.09,9.09,0,0,0,17.79,2.62s0,.09,0,.14a30,30,0,0,0,30,30c1,0,2-.06,3-.16a8.3,8.3,0,1,0,8.62-2.2,30,30,0,0,0-11.67-57.71c-.6,0-1.18,0-1.76.09a16.17,16.17,0,0,0,3-24.47A59.12,59.12,0,0,0,722,443a15.26,15.26,0,0,0,4.6.72,15.49,15.49,0,0,0,7.47-29.06A11.47,11.47,0,0,0,741.83,396a23.21,23.21,0,0,0,2.37.12,23.69,23.69,0,0,0,10.5-44.94,10.26,10.26,0,0,0-3.06-19.35,16.29,16.29,0,0,0,4.29-6.82,11.81,11.81,0,0,0,1.79-9.41c.44-1.07.86-2.15,1.23-3.25a8.92,8.92,0,1,0,11.82-12.3,23.46,23.46,0,0,0,15.61-19.6,14.57,14.57,0,0,0,3-2.74,11.56,11.56,0,0,0,20.55-7.25,12.35,12.35,0,0,0-.15-1.84c2.73-.64,5.31-1.37,7.69-2.17a13.83,13.83,0,0,0,25.39-10.56l.12,0a22.2,22.2,0,0,0,41.49,8.35l.13,0a12,12,0,0,0-.1,1.47A12.23,12.23,0,1,0,900.1,254a11.17,11.17,0,0,0,1.46-1.61l.41-.64a12.13,12.13,0,0,0,7.42,2.52,12.25,12.25,0,0,0,0-24.5ZM568.29,72.9a13.19,13.19,0,0,0-.95,1.36,21.48,21.48,0,0,0-.58-2.67C567.25,72.05,567.77,72.48,568.29,72.9ZM456.77,300.11c.27.2.54.4.82.59a7.55,7.55,0,0,0-1.5.83A14.24,14.24,0,0,0,456.77,300.11Zm23.79,214.57a11.71,11.71,0,0,0,.06-1.19,11.05,11.05,0,0,0-2.39-6.87A17.58,17.58,0,0,0,485,508a18.06,18.06,0,0,0,3.14-.3c-.2.69-.37,1.38-.51,2.09A16.64,16.64,0,0,0,480.56,514.68Z"/><path class="cls-7" d="M486.15,172.06a7.9,7.9,0,0,0,5.35-13.72,6.61,6.61,0,0,0,4.14,1.47,6.73,6.73,0,1,0-4.76-2,7.9,7.9,0,1,0-4.73,14.23Z"/><circle class="cls-7" cx="502.75" cy="11.22" r="11.46"/><path class="cls-7" d="M396.85,155.46a4,4,0,1,0-4-4A4,4,0,0,0,396.85,155.46Z"/><path class="cls-7" d="M814.94,70.5a4.35,4.35,0,1,0,4.35,4.34A4.34,4.34,0,0,0,814.94,70.5Z"/><path class="cls-7" d="M533.18,107.64a5.53,5.53,0,1,0-5.53-5.53A5.52,5.52,0,0,0,533.18,107.64Z"/><path class="cls-7" d="M304.37,282.71a11.07,11.07,0,1,0,11.07,11.06A11.06,11.06,0,0,0,304.37,282.71Z"/><path class="cls-7" d="M437.15,171.27a7.91,7.91,0,1,0-7.9-7.91A7.91,7.91,0,0,0,437.15,171.27Z"/><path class="cls-7" d="M459.28,182.33A6.32,6.32,0,1,0,453,176,6.32,6.32,0,0,0,459.28,182.33Z"/><path class="cls-7" d="M326.11,236.08a7.51,7.51,0,1,0-7.51-7.51A7.51,7.51,0,0,0,326.11,236.08Z"/><path class="cls-7" d="M356.54,253.46a6.33,6.33,0,1,0-6.33,6.33A6.32,6.32,0,0,0,356.54,253.46Z"/><path class="cls-7" d="M439.52,191a6.32,6.32,0,1,0,6.33,6.32A6.32,6.32,0,0,0,439.52,191Z"/><path class="cls-7" d="M471.93,111.2a5.53,5.53,0,1,0-5.53-5.53A5.54,5.54,0,0,0,471.93,111.2Z"/><path class="cls-7" d="M544.24,17.15a7.51,7.51,0,1,0-7.5-7.51A7.51,7.51,0,0,0,544.24,17.15Z"/><path class="cls-7" d="M789.25,11.62a8.31,8.31,0,0,0,3.43-.75,12.88,12.88,0,1,0,21-1.71,6.4,6.4,0,0,0,.89.08,5.92,5.92,0,0,0,.21-11.83,13.81,13.81,0,0,0,2.42-7.84,13.92,13.92,0,0,0-13.91-13.92,13.92,13.92,0,0,0-13.92,13.92,13.73,13.73,0,0,0,1.17,5.55,8.94,8.94,0,0,0-1.27-.1,8.3,8.3,0,0,0,0,16.6Z"/><path class="cls-7" d="M298.05,238.05a4.35,4.35,0,1,0-4.34-4.35A4.35,4.35,0,0,0,298.05,238.05Z"/><path class="cls-7" d="M563.21,29.79a7.51,7.51,0,1,0-7.5-7.5A7.5,7.5,0,0,0,563.21,29.79Z"/><path class="cls-7" d="M531.6,44a5.93,5.93,0,1,0-5.93-5.93A5.93,5.93,0,0,0,531.6,44Z"/><path class="cls-7" d="M467.19,171.27a6.32,6.32,0,1,0,6.32-6.33A6.32,6.32,0,0,0,467.19,171.27Z"/><path class="cls-8" d="M849,164.57A19.58,19.58,0,1,1,829.44,145,19.58,19.58,0,0,1,849,164.57Z"/><path class="cls-8" d="M817.18-12.93A13.92,13.92,0,0,1,803.27,1a13.92,13.92,0,0,1-13.92-13.92,13.92,13.92,0,0,1,13.92-13.91A13.91,13.91,0,0,1,817.18-12.93Z"/><path class="cls-8" d="M706.43,320.25a30.12,30.12,0,1,1-30.12-30.11A30.11,30.11,0,0,1,706.43,320.25Z"/><path class="cls-8" d="M744.94,296.11a13.79,13.79,0,1,1-13.79-13.79A13.78,13.78,0,0,1,744.94,296.11Z"/><path class="cls-8" d="M672.19,281a17.33,17.33,0,1,1-17.33-17.33A17.33,17.33,0,0,1,672.19,281Z"/><path class="cls-8" d="M611.28,44.05A26.8,26.8,0,1,1,579.57,23.3,26.8,26.8,0,0,1,611.28,44.05Z"/><path class="cls-8" d="M550.69,217.77a17.12,17.12,0,1,1-17.11-17.11A17.11,17.11,0,0,1,550.69,217.77Z"/><path class="cls-8" d="M786.54,275.4a23.49,23.49,0,1,1-23.48-23.48A23.48,23.48,0,0,1,786.54,275.4Z"/><path class="cls-8" d="M661.4,138.68a21.13,21.13,0,1,1-21.13-21.13A21.13,21.13,0,0,1,661.4,138.68Z"/><path class="cls-8" d="M794.55,70.93a46.78,46.78,0,1,1-46.77-46.78A46.77,46.77,0,0,1,794.55,70.93Z"/><path class="cls-8" d="M416.84,237.07a18,18,0,1,1-18-18A18,18,0,0,1,416.84,237.07Z"/><path class="cls-8" d="M818.77,93.05A20.39,20.39,0,1,1,798.64,72.4,20.38,20.38,0,0,1,818.77,93.05Z"/><path class="cls-8" d="M908.92,263.22A12.23,12.23,0,1,1,896.69,251,12.23,12.23,0,0,1,908.92,263.22Z"/><path class="cls-8" d="M507.42,230.56a20,20,0,1,1-20-20A20,20,0,0,1,507.42,230.56Z"/><path class="cls-8" d="M816.65,14.91A12.88,12.88,0,1,1,803.77,2,12.87,12.87,0,0,1,816.65,14.91Z"/><path class="cls-8" d="M759.72,167.38a14.13,14.13,0,1,1-14.13-14.13A14.13,14.13,0,0,1,759.72,167.38Z"/><path class="cls-8" d="M471.87,254.89a28.44,28.44,0,1,1-28.44-28.44A28.44,28.44,0,0,1,471.87,254.89Z"/><ellipse class="cls-8" cx="704.26" cy="251.67" rx="38.53" ry="37.64"/><path class="cls-8" d="M596,252.89a29.41,29.41,0,1,1-29.4-29.4A29.4,29.4,0,0,1,596,252.89Z"/><path class="cls-8" d="M557.93,182.16a17.39,17.39,0,1,1-17.39-17.39A17.38,17.38,0,0,1,557.93,182.16Z"/><path class="cls-8" d="M800.73,223.22a32.41,32.41,0,1,1-32.4-32.42A32.41,32.41,0,0,1,800.73,223.22Z"/><path class="cls-8" d="M791.58,21.42A13.53,13.53,0,1,1,778.05,7.89,13.53,13.53,0,0,1,791.58,21.42Z"/><path class="cls-8" d="M643.5,306.24a20.11,20.11,0,1,1-20.11-20.11A20.1,20.1,0,0,1,643.5,306.24Z"/><path class="cls-8" d="M580.13,203.2A15.19,15.19,0,1,1,564.94,188,15.19,15.19,0,0,1,580.13,203.2Z"/><path class="cls-8" d="M424.22,278.3a16.85,16.85,0,1,1-16.84-16.84A16.84,16.84,0,0,1,424.22,278.3Z"/><circle class="cls-8" cx="544.13" cy="130.92" r="22.09" transform="translate(66.8 423.1) rotate(-45)"/><path class="cls-8" d="M382.62,223.31a16.6,16.6,0,1,1-16.6-16.6A16.6,16.6,0,0,1,382.62,223.31Z"/><path class="cls-8" d="M389.16,278.87a12.65,12.65,0,1,1-14.6-10.33A12.66,12.66,0,0,1,389.16,278.87Z"/><path class="cls-8" d="M389.73,207.5a7.91,7.91,0,1,1-7.9-7.91A7.9,7.9,0,0,1,389.73,207.5Z"/><path class="cls-8" d="M698.76,135.18A17.79,17.79,0,1,1,681,117.4,17.78,17.78,0,0,1,698.76,135.18Z"/><path class="cls-8" d="M567.56,74.72A20.55,20.55,0,1,1,547,54.17,20.55,20.55,0,0,1,567.56,74.72Z"/><path class="cls-8" d="M699.16,83.41a9.88,9.88,0,1,1-9.88-9.88A9.88,9.88,0,0,1,699.16,83.41Z"/><path class="cls-8" d="M843.39,257.29a13.83,13.83,0,1,1-13.83-13.83A13.83,13.83,0,0,1,843.39,257.29Z"/><path class="cls-8" d="M733.18,182a13.89,13.89,0,1,1-13.89-13.89A13.89,13.89,0,0,1,733.18,182Z"/><path class="cls-8" d="M503.08,277.45a17.22,17.22,0,1,1-17.21-17.22A17.2,17.2,0,0,1,503.08,277.45Z"/><path class="cls-8" d="M794.54,137.39a20,20,0,1,1-20-20A20,20,0,0,1,794.54,137.39Z"/><path class="cls-8" d="M482.6,304.71a9.88,9.88,0,1,1-9.88-9.88A9.88,9.88,0,0,1,482.6,304.71Z"/><path class="cls-8" d="M809.9,268a11.56,11.56,0,1,1-11.56-11.56A11.56,11.56,0,0,1,809.9,268Z"/><path class="cls-8" d="M838.25,203.94a19.76,19.76,0,1,1-19.75-19.76A19.76,19.76,0,0,1,838.25,203.94Z"/><path class="cls-8" d="M713.78,164.42A11.46,11.46,0,1,1,702.32,153,11.46,11.46,0,0,1,713.78,164.42Z"/><circle class="cls-8" cx="742.23" cy="8.33" r="9.48"/><circle class="cls-8" cx="648.18" cy="205.13" r="11.46"/><path class="cls-8" d="M405.93,209.87a9.09,9.09,0,1,1-9.09-9.09A9.09,9.09,0,0,1,405.93,209.87Z"/><path class="cls-8" d="M575.46,297.2a13.83,13.83,0,1,1-13.83-13.83A13.83,13.83,0,0,1,575.46,297.2Z"/><circle class="cls-8" cx="607.47" cy="87.76" r="16.99" transform="translate(12.66 239.15) rotate(-22.5)"/><path class="cls-8" d="M661.61,47.85a8.7,8.7,0,1,1-8.69-8.7A8.69,8.69,0,0,1,661.61,47.85Z"/><path class="cls-8" d="M657.66,6.75A11.07,11.07,0,1,1,646.59-4.31,11.06,11.06,0,0,1,657.66,6.75Z"/><path class="cls-8" d="M641.85,60.49a15,15,0,1,1-15-15A15,15,0,0,1,641.85,60.49Z"/><path class="cls-8" d="M588.11,89.74a12.65,12.65,0,1,1-12.65-12.65A12.64,12.64,0,0,1,588.11,89.74Z"/><path class="cls-8" d="M506.7,196a8.3,8.3,0,1,1-8.3-8.3A8.3,8.3,0,0,1,506.7,196Z"/><path class="cls-8" d="M611.82,162.84A28.85,28.85,0,1,1,583,134,28.85,28.85,0,0,1,611.82,162.84Z"/><path class="cls-8" d="M675.05,95.27A25.29,25.29,0,1,1,649.76,70,25.29,25.29,0,0,1,675.05,95.27Z"/><path class="cls-8" d="M647.39,178.26a18.18,18.18,0,1,1-18.18-18.18A18.18,18.18,0,0,1,647.39,178.26Z"/><path class="cls-8" d="M689.27,28.48A22.53,22.53,0,1,1,666.75,6,22.53,22.53,0,0,1,689.27,28.48Z"/><path class="cls-8" d="M524.09,313.8a19.37,19.37,0,1,1-19.36-19.36A19.36,19.36,0,0,1,524.09,313.8Z"/><path class="cls-8" d="M622.88,122.93a16.6,16.6,0,1,1-16.59-16.6A16.6,16.6,0,0,1,622.88,122.93Z"/><path class="cls-8" d="M862.36,192.09a12.65,12.65,0,1,1-12.64-12.65A12.64,12.64,0,0,1,862.36,192.09Z"/><path class="cls-8" d="M642.65,30.07a13.84,13.84,0,1,1-13.84-13.84A13.84,13.84,0,0,1,642.65,30.07Z"/><path class="cls-8" d="M669.5-6.89a10.27,10.27,0,0,1-10.85,9.67A10.26,10.26,0,0,1,649-8.07a10.26,10.26,0,0,1,10.84-9.66A10.26,10.26,0,0,1,669.5-6.89Z"/><path class="cls-8" d="M708.24-8.66A10.67,10.67,0,0,1,697.57,2,10.67,10.67,0,0,1,686.9-8.66a10.67,10.67,0,0,1,10.67-10.67A10.66,10.66,0,0,1,708.24-8.66Z"/><path class="cls-8" d="M695.6,103.17A14.23,14.23,0,1,1,681.37,89,14.23,14.23,0,0,1,695.6,103.17Z"/><path class="cls-8" d="M698.76,8.73a7.51,7.51,0,1,1-7.51-7.51A7.5,7.5,0,0,1,698.76,8.73Z"/><path class="cls-8" d="M602.34,8.72A15.42,15.42,0,1,1,586.93-6.69,15.41,15.41,0,0,1,602.34,8.72Z"/><path class="cls-8" d="M887.24,251A22.22,22.22,0,1,1,865,228.73,22.21,22.21,0,0,1,887.24,251Z"/><path class="cls-8" d="M714.57,5.17a6.72,6.72,0,1,1-6.72-6.72A6.72,6.72,0,0,1,714.57,5.17Z"/><path class="cls-8" d="M688.81,174.16a21.1,21.1,0,1,1-21.1-21.1A21.1,21.1,0,0,1,688.81,174.16Z"/><circle class="cls-8" cx="719.7" cy="137.55" r="20.94"/><circle class="cls-8" cx="383.8" cy="192.09" r="11.46"/><path class="cls-8" d="M606.29,284.56a8.7,8.7,0,1,1-8.7-8.7A8.7,8.7,0,0,1,606.29,284.56Z"/><path class="cls-8" d="M719.31,40.34a16.21,16.21,0,1,1-16.21-16.2A16.2,16.2,0,0,1,719.31,40.34Z"/><path class="cls-8" d="M691.65,63.26a15.42,15.42,0,1,1-15.42-15.41A15.41,15.41,0,0,1,691.65,63.26Z"/><path class="cls-8" d="M524.88,75.51A9.49,9.49,0,1,1,515.4,66,9.47,9.47,0,0,1,524.88,75.51Z"/><path class="cls-8" d="M560.45,46.27A11.07,11.07,0,1,1,549.38,35.2,11.07,11.07,0,0,1,560.45,46.27Z"/><path class="cls-8" d="M364.44,277.44a14.62,14.62,0,1,1-14.62-14.62A14.62,14.62,0,0,1,364.44,277.44Z"/><path class="cls-8" d="M687.3-.36a9.88,9.88,0,0,1-9.88,9.88,9.88,9.88,0,0,1-9.88-9.88,9.88,9.88,0,0,1,9.88-9.88A9.88,9.88,0,0,1,687.3-.36Z"/><path class="cls-8" d="M907,221.77A18.58,18.58,0,1,1,889.67,202,18.58,18.58,0,0,1,907,221.77Z"/><circle class="cls-8" cx="724.05" cy="205.52" r="10.67"/><path class="cls-8" d="M921.64,239.51a12.25,12.25,0,1,1-12.25-12.25A12.26,12.26,0,0,1,921.64,239.51Z"/><path class="cls-8" d="M626.84,213a22.13,22.13,0,1,1-22.13-22.13A22.13,22.13,0,0,1,626.84,213Z"/><path class="cls-8" d="M637.51,271.52a14.63,14.63,0,1,1-14.63-14.62A14.63,14.63,0,0,1,637.51,271.52Z"/><circle class="cls-8" cx="533.18" cy="293.65" r="15.41"/><path class="cls-8" d="M667.54,234.77A22.53,22.53,0,1,1,645,212.24,22.52,22.52,0,0,1,667.54,234.77Z"/><path class="cls-8" d="M494.06,161.66a7.91,7.91,0,1,1-7.91-7.91A7.91,7.91,0,0,1,494.06,161.66Z"/><path class="cls-8" d="M824,129.25a17,17,0,1,1-17-17A17,17,0,0,1,824,129.25Z"/><path class="cls-8" d="M588.51,117a12.26,12.26,0,1,1-12.25-12.25A12.25,12.25,0,0,1,588.51,117Z"/><path class="cls-8" d="M387.36,255.71A15.41,15.41,0,1,1,372,240.3,15.41,15.41,0,0,1,387.36,255.71Z"/><path class="cls-8" d="M525.28,180.23a11.07,11.07,0,1,1-11.07-11.06A11.07,11.07,0,0,1,525.28,180.23Z"/><circle class="cls-8" cx="502.75" cy="8.73" r="11.46" transform="translate(413.61 503.59) rotate(-80.78)"/><path class="cls-8" d="M537.13,158.89a13,13,0,1,1-13-13A13,13,0,0,1,537.13,158.89Z"/><path class="cls-8" d="M522.51,139.92a9.88,9.88,0,1,1-9.88-9.88A9.88,9.88,0,0,1,522.51,139.92Z"/><path class="cls-8" d="M538.32,259.66a19.76,19.76,0,1,1-19.76-19.76A19.76,19.76,0,0,1,538.32,259.66Z"/><path class="cls-8" d="M709,201.57a7.9,7.9,0,1,1-7.9-7.9A7.89,7.89,0,0,1,709,201.57Z"/><path class="cls-8" d="M808.62,172.72A23.71,23.71,0,1,1,784.91,149,23.71,23.71,0,0,1,808.62,172.72Z"/><path class="cls-8" d="M689.27,210.26a11.46,11.46,0,1,1-11.46-11.46A11.47,11.47,0,0,1,689.27,210.26Z"/><path class="cls-8" d="M868.68,215.8a11.86,11.86,0,1,1-11.85-11.86A11.85,11.85,0,0,1,868.68,215.8Z"/><path class="cls-8" d="M400.8,149a4,4,0,1,1-3.95-3.95A3.95,3.95,0,0,1,400.8,149Z"/><path class="cls-8" d="M844.72,230.07a11.46,11.46,0,1,1-5.63-15.2A11.46,11.46,0,0,1,844.72,230.07Z"/><path class="cls-8" d="M502.36,150.59a6.72,6.72,0,1,1-6.72-6.71A6.72,6.72,0,0,1,502.36,150.59Z"/><path class="cls-8" d="M819.29,72.35A4.35,4.35,0,1,1,814.94,68,4.35,4.35,0,0,1,819.29,72.35Z"/><path class="cls-8" d="M471.14,285.35a8.3,8.3,0,1,1-8.3-8.3A8.31,8.31,0,0,1,471.14,285.35Z"/><circle class="cls-8" cx="328.88" cy="286.53" r="12.65" transform="translate(-107.09 300.44) rotate(-42.89)"/><path class="cls-8" d="M538.71,99.62a5.53,5.53,0,1,1-5.53-5.54A5.53,5.53,0,0,1,538.71,99.62Z"/><path class="cls-8" d="M560.84,98.43a8.7,8.7,0,1,1-8.69-8.69A8.69,8.69,0,0,1,560.84,98.43Z"/><path class="cls-8" d="M622.88,247.81a11.46,11.46,0,1,1-11.46-11.46A11.47,11.47,0,0,1,622.88,247.81Z"/><path class="cls-8" d="M315.44,291.27a11.07,11.07,0,1,1-11.07-11.06A11.06,11.06,0,0,1,315.44,291.27Z"/><path class="cls-8" d="M445.06,160.87a7.91,7.91,0,1,1-7.91-7.91A7.91,7.91,0,0,1,445.06,160.87Z"/><path class="cls-8" d="M465.61,173.51a6.33,6.33,0,1,1-6.33-6.32A6.33,6.33,0,0,1,465.61,173.51Z"/><path class="cls-8" d="M425.3,214.22a8.3,8.3,0,1,1-8.3-8.3A8.3,8.3,0,0,1,425.3,214.22Z"/><path class="cls-8" d="M333.62,226.07a7.51,7.51,0,1,1-7.51-7.51A7.51,7.51,0,0,1,333.62,226.07Z"/><path class="cls-8" d="M353.38,224.89a9.49,9.49,0,1,1-9.49-9.49A9.49,9.49,0,0,1,353.38,224.89Z"/><path class="cls-8" d="M356.54,251a6.33,6.33,0,1,1-6.33-6.33A6.32,6.32,0,0,1,356.54,251Z"/><path class="cls-8" d="M404.75,177.07a9.09,9.09,0,1,1-9.09-9.09A9.09,9.09,0,0,1,404.75,177.07Z"/><path class="cls-8" d="M373.13,198.8a8.69,8.69,0,1,1-8.69-8.69A8.69,8.69,0,0,1,373.13,198.8Z"/><path class="cls-8" d="M464,224.1a8.7,8.7,0,1,1-8.7-8.7A8.7,8.7,0,0,1,464,224.1Z"/><path class="cls-8" d="M445.85,194.85a6.33,6.33,0,1,1-6.33-6.32A6.32,6.32,0,0,1,445.85,194.85Z"/><path class="cls-8" d="M477.46,103.17a5.53,5.53,0,1,1-5.53-5.53A5.53,5.53,0,0,1,477.46,103.17Z"/><path class="cls-8" d="M738.28,13.47A12.25,12.25,0,1,1,726,1.22,12.26,12.26,0,0,1,738.28,13.47Z"/><path class="cls-8" d="M551.75,7.14a7.51,7.51,0,1,1-7.51-7.5A7.51,7.51,0,0,1,551.75,7.14Z"/><circle class="cls-8" cx="794" cy="37.18" r="10.67" transform="translate(654.32 819.68) rotate(-82.56)"/><path class="cls-8" d="M797.55.82A8.3,8.3,0,1,1,781,.82a8.3,8.3,0,1,1,16.59,0Z"/><path class="cls-8" d="M457.7,292.86a12.65,12.65,0,1,1-12.64-12.65A12.64,12.64,0,0,1,457.7,292.86Z"/><path class="cls-8" d="M520.14,286a8.53,8.53,0,1,1-8.53-8.53A8.53,8.53,0,0,1,520.14,286Z"/><path class="cls-8" d="M824,243.06a15.41,15.41,0,1,1-15.41-15.41A15.41,15.41,0,0,1,824,243.06Z"/><path class="cls-8" d="M521.33,209.87a11.46,11.46,0,1,1-11.47-11.46A11.47,11.47,0,0,1,521.33,209.87Z"/><circle class="cls-8" cx="746.97" cy="126.09" r="8.69"/><path class="cls-8" d="M302.4,231.21a4.35,4.35,0,1,1-4.35-4.35A4.35,4.35,0,0,1,302.4,231.21Z"/><path class="cls-8" d="M486.94,256.5a5.14,5.14,0,1,1-5.13-5.14A5.14,5.14,0,0,1,486.94,256.5Z"/><path class="cls-8" d="M712.19,108.7a7.9,7.9,0,1,1-7.9-7.9A7.9,7.9,0,0,1,712.19,108.7Z"/><path class="cls-8" d="M570.72,19.79a7.51,7.51,0,1,1-7.51-7.51A7.51,7.51,0,0,1,570.72,19.79Z"/><path class="cls-8" d="M768.31,13.86a7.91,7.91,0,1,1-7.9-7.9A7.91,7.91,0,0,1,768.31,13.86Z"/><path class="cls-8" d="M820.47.82a5.93,5.93,0,1,1-11.85,0,5.93,5.93,0,1,1,11.85,0Z"/><circle class="cls-8" cx="365.23" cy="292.07" r="5.53"/><path class="cls-8" d="M426.88,227.26a6.33,6.33,0,1,1-6.32-6.33A6.32,6.32,0,0,1,426.88,227.26Z"/><path class="cls-8" d="M537.53,35.6a5.93,5.93,0,1,1-5.93-5.93A5.93,5.93,0,0,1,537.53,35.6Z"/><circle class="cls-8" cx="908.2" cy="209.08" r="8.69"/><path class="cls-8" d="M878.56,200.19a8.1,8.1,0,1,1-8.1-8.1A8.1,8.1,0,0,1,878.56,200.19Z"/><path class="cls-8" d="M479.83,168.77a6.32,6.32,0,1,1-6.32-6.32A6.32,6.32,0,0,1,479.83,168.77Z"/><path class="cls-9" d="M847.59,161.71A19.58,19.58,0,1,1,828,142.13,19.57,19.57,0,0,1,847.59,161.71Z"/><path class="cls-10" d="M705,317.4a30.12,30.12,0,1,1-30.11-30.12A30.11,30.11,0,0,1,705,317.4Z"/><path class="cls-11" d="M743.51,293.26a13.79,13.79,0,1,1-13.79-13.8A13.79,13.79,0,0,1,743.51,293.26Z"/><path class="cls-5" d="M670.77,278.16a17.34,17.34,0,1,1-17.34-17.33A17.34,17.34,0,0,1,670.77,278.16Z"/><path class="cls-7" d="M609.85,41.19a26.8,26.8,0,1,1-31.71-20.74A26.8,26.8,0,0,1,609.85,41.19Z"/><path class="cls-12" d="M549.26,214.92a17.11,17.11,0,1,1-17.11-17.11A17.11,17.11,0,0,1,549.26,214.92Z"/><path class="cls-12" d="M785.11,272.54a23.49,23.49,0,1,1-23.48-23.48A23.49,23.49,0,0,1,785.11,272.54Z"/><path class="cls-13" d="M660,135.82a21.13,21.13,0,1,1-21.13-21.13A21.13,21.13,0,0,1,660,135.82Z"/><path class="cls-14" d="M793.12,68.07A46.77,46.77,0,1,1,746.35,21.3,46.77,46.77,0,0,1,793.12,68.07Z"/><path class="cls-5" d="M415.41,234.21a18,18,0,1,1-18-18A18,18,0,0,1,415.41,234.21Z"/><path class="cls-5" d="M817.34,90.2a20.39,20.39,0,1,1-20.13-20.66A20.39,20.39,0,0,1,817.34,90.2Z"/><path class="cls-11" d="M907.49,260.36a12.23,12.23,0,1,1-12.23-12.22A12.23,12.23,0,0,1,907.49,260.36Z"/><path class="cls-11" d="M506,227.71a20,20,0,1,1-20-20A20,20,0,0,1,506,227.71Z"/><path class="cls-5" d="M815.23,12.06A12.89,12.89,0,1,1,802.34-.83,12.89,12.89,0,0,1,815.23,12.06Z"/><path class="cls-5" d="M758.29,164.52a14.13,14.13,0,1,1-14.13-14.12A14.12,14.12,0,0,1,758.29,164.52Z"/><path class="cls-15" d="M470.44,252A28.44,28.44,0,1,1,442,223.59,28.44,28.44,0,0,1,470.44,252Z"/><ellipse class="cls-16" cx="702.84" cy="248.82" rx="38.53" ry="37.64"/><path class="cls-17" d="M594.57,250a29.4,29.4,0,1,1-29.4-29.41A29.4,29.4,0,0,1,594.57,250Z"/><path class="cls-10" d="M556.5,179.31a17.39,17.39,0,1,1-17.39-17.4A17.39,17.39,0,0,1,556.5,179.31Z"/><path class="cls-5" d="M799.31,220.36A32.41,32.41,0,1,1,766.9,188,32.41,32.41,0,0,1,799.31,220.36Z"/><path class="cls-5" d="M790.16,18.57A13.54,13.54,0,1,1,776.63,5,13.53,13.53,0,0,1,790.16,18.57Z"/><path class="cls-5" d="M642.07,303.38a20.11,20.11,0,1,1-20.1-20.1A20.11,20.11,0,0,1,642.07,303.38Z"/><path class="cls-5" d="M578.7,200.34a15.19,15.19,0,1,1-15.19-15.19A15.19,15.19,0,0,1,578.7,200.34Z"/><path class="cls-16" d="M422.79,275.45A16.84,16.84,0,1,1,406,258.6,16.84,16.84,0,0,1,422.79,275.45Z"/><circle class="cls-18" cx="542.7" cy="128.07" r="22.09" transform="translate(68.4 421.26) rotate(-45)"/><path class="cls-14" d="M381.19,220.45a16.6,16.6,0,1,1-16.6-16.6A16.6,16.6,0,0,1,381.19,220.45Z"/><path class="cls-5" d="M387.73,276a12.64,12.64,0,1,1-14.6-10.34A12.65,12.65,0,0,1,387.73,276Z"/><path class="cls-5" d="M388.3,204.64a7.9,7.9,0,1,1-7.9-7.9A7.91,7.91,0,0,1,388.3,204.64Z"/><path class="cls-5" d="M697.33,132.32a17.79,17.79,0,1,1-17.78-17.78A17.78,17.78,0,0,1,697.33,132.32Z"/><path class="cls-10" d="M566.13,71.86a20.55,20.55,0,1,1-20.55-20.55A20.55,20.55,0,0,1,566.13,71.86Z"/><path class="cls-5" d="M697.73,80.56a9.88,9.88,0,1,1-9.88-9.88A9.89,9.89,0,0,1,697.73,80.56Z"/><path class="cls-9" d="M842,254.43a13.84,13.84,0,1,1-13.84-13.83A13.84,13.84,0,0,1,842,254.43Z"/><path class="cls-10" d="M731.75,179.1a13.89,13.89,0,1,1-13.89-13.88A13.89,13.89,0,0,1,731.75,179.1Z"/><path class="cls-10" d="M501.66,274.59a17.22,17.22,0,1,1-17.22-17.21A17.22,17.22,0,0,1,501.66,274.59Z"/><path class="cls-5" d="M793.11,134.53a20,20,0,1,1-20-20A20,20,0,0,1,793.11,134.53Z"/><path class="cls-5" d="M481.17,301.85a9.88,9.88,0,1,1-9.88-9.87A9.88,9.88,0,0,1,481.17,301.85Z"/><path class="cls-5" d="M808.47,265.11a11.56,11.56,0,1,1-11.56-11.57A11.55,11.55,0,0,1,808.47,265.11Z"/><path class="cls-5" d="M836.83,201.09a19.76,19.76,0,1,1-19.76-19.76A19.76,19.76,0,0,1,836.83,201.09Z"/><path class="cls-5" d="M712.35,161.57a11.46,11.46,0,1,1-11.46-11.46A11.46,11.46,0,0,1,712.35,161.57Z"/><circle class="cls-5" cx="740.8" cy="5.47" r="9.48"/><circle class="cls-5" cx="646.75" cy="202.27" r="11.46"/><path class="cls-19" d="M404.51,207a9.09,9.09,0,1,1-9.09-9.09A9.09,9.09,0,0,1,404.51,207Z"/><path class="cls-5" d="M574,294.35a13.84,13.84,0,1,1-13.84-13.83A13.84,13.84,0,0,1,574,294.35Z"/><circle class="cls-15" cx="606.05" cy="84.9" r="16.99" transform="translate(13.64 238.39) rotate(-22.5)"/><path class="cls-5" d="M660.18,45a8.69,8.69,0,1,1-8.69-8.69A8.7,8.7,0,0,1,660.18,45Z"/><path class="cls-5" d="M656.23,3.89A11.07,11.07,0,1,1,645.17-7.17,11.07,11.07,0,0,1,656.23,3.89Z"/><path class="cls-5" d="M640.43,57.64a15,15,0,1,1-15-15A15,15,0,0,1,640.43,57.64Z"/><path class="cls-5" d="M586.68,86.88A12.65,12.65,0,1,1,574,74.23,12.64,12.64,0,0,1,586.68,86.88Z"/><path class="cls-5" d="M505.28,193.18a8.3,8.3,0,1,1-8.3-8.3A8.3,8.3,0,0,1,505.28,193.18Z"/><path class="cls-20" d="M610.39,160a28.85,28.85,0,1,1-28.85-28.85A28.85,28.85,0,0,1,610.39,160Z"/><path class="cls-5" d="M673.62,92.41a25.29,25.29,0,1,1-25.29-25.29A25.29,25.29,0,0,1,673.62,92.41Z"/><path class="cls-5" d="M646,175.4a18.18,18.18,0,1,1-18.18-18.18A18.18,18.18,0,0,1,646,175.4Z"/><path class="cls-21" d="M687.84,25.63A22.52,22.52,0,1,1,665.32,3.1,22.52,22.52,0,0,1,687.84,25.63Z"/><path class="cls-22" d="M522.66,310.94a19.36,19.36,0,1,1-19.36-19.36A19.36,19.36,0,0,1,522.66,310.94Z"/><path class="cls-5" d="M621.46,120.07a16.6,16.6,0,1,1-16.6-16.59A16.6,16.6,0,0,1,621.46,120.07Z"/><path class="cls-23" d="M860.93,189.23a12.65,12.65,0,1,1-12.64-12.65A12.65,12.65,0,0,1,860.93,189.23Z"/><path class="cls-11" d="M641.22,27.21a13.84,13.84,0,1,1-13.84-13.83A13.84,13.84,0,0,1,641.22,27.21Z"/><path class="cls-24" d="M694.17,100.32a14.23,14.23,0,1,1-14.23-14.23A14.23,14.23,0,0,1,694.17,100.32Z"/><path class="cls-5" d="M697.33,5.87a7.51,7.51,0,1,1-7.51-7.51A7.51,7.51,0,0,1,697.33,5.87Z"/><path class="cls-9" d="M600.91,5.87A15.41,15.41,0,1,1,585.5-9.54,15.41,15.41,0,0,1,600.91,5.87Z"/><path class="cls-19" d="M885.81,248.09a22.22,22.22,0,1,1-22.21-22.21A22.22,22.22,0,0,1,885.81,248.09Z"/><path class="cls-25" d="M713.14,2.31a6.72,6.72,0,1,1-6.72-6.72A6.72,6.72,0,0,1,713.14,2.31Z"/><path class="cls-26" d="M687.38,171.3a21.1,21.1,0,1,1-21.1-21.1A21.1,21.1,0,0,1,687.38,171.3Z"/><circle class="cls-12" cx="718.28" cy="134.7" r="20.94"/><circle class="cls-5" cx="382.38" cy="189.23" r="11.46"/><path class="cls-5" d="M604.86,281.7a8.7,8.7,0,1,1-8.69-8.69A8.69,8.69,0,0,1,604.86,281.7Z"/><path class="cls-5" d="M717.88,37.48a16.2,16.2,0,1,1-16.2-16.2A16.2,16.2,0,0,1,717.88,37.48Z"/><path class="cls-5" d="M690.22,60.4A15.42,15.42,0,1,1,674.81,45,15.41,15.41,0,0,1,690.22,60.4Z"/><path class="cls-12" d="M523.45,72.65A9.48,9.48,0,1,1,514,63.17,9.48,9.48,0,0,1,523.45,72.65Z"/><path class="cls-5" d="M559,43.41A11.07,11.07,0,1,1,548,32.35,11.07,11.07,0,0,1,559,43.41Z"/><path class="cls-23" d="M363,274.59A14.62,14.62,0,1,1,348.39,260,14.62,14.62,0,0,1,363,274.59Z"/><path class="cls-12" d="M685.87-3.22A9.88,9.88,0,0,1,676,6.66a9.88,9.88,0,0,1-9.88-9.88A9.88,9.88,0,0,1,676-13.1,9.88,9.88,0,0,1,685.87-3.22Z"/><path class="cls-24" d="M905.55,218.91a18.58,18.58,0,1,1-17.3-19.76A18.58,18.58,0,0,1,905.55,218.91Z"/><circle class="cls-5" cx="722.62" cy="202.67" r="10.67"/><path class="cls-5" d="M920.21,236.65A12.25,12.25,0,1,1,908,224.4,12.25,12.25,0,0,1,920.21,236.65Z"/><path class="cls-27" d="M625.41,210.17A22.13,22.13,0,1,1,603.28,188,22.13,22.13,0,0,1,625.41,210.17Z"/><path class="cls-9" d="M636.08,268.66A14.63,14.63,0,1,1,621.46,254,14.62,14.62,0,0,1,636.08,268.66Z"/><circle class="cls-11" cx="531.75" cy="290.79" r="15.41"/><path class="cls-10" d="M666.11,231.91a22.53,22.53,0,1,1-22.52-22.52A22.53,22.53,0,0,1,666.11,231.91Z"/><path class="cls-11" d="M492.63,158.8a7.91,7.91,0,1,1-7.9-7.9A7.91,7.91,0,0,1,492.63,158.8Z"/><path class="cls-10" d="M822.6,126.4a17,17,0,1,1-17-17A17,17,0,0,1,822.6,126.4Z"/><path class="cls-11" d="M587.08,114.15a12.25,12.25,0,1,1-12.25-12.25A12.26,12.26,0,0,1,587.08,114.15Z"/><path class="cls-5" d="M385.93,252.85a15.41,15.41,0,1,1-15.41-15.41A15.41,15.41,0,0,1,385.93,252.85Z"/><path class="cls-5" d="M523.85,177.38a11.07,11.07,0,1,1-11.07-11.07A11.06,11.06,0,0,1,523.85,177.38Z"/><circle class="cls-11" cx="501.32" cy="5.87" r="11.46" transform="translate(415.23 499.78) rotate(-80.78)"/><path class="cls-25" d="M535.7,156a13,13,0,1,1-13-13A13,13,0,0,1,535.7,156Z"/><path class="cls-5" d="M521.08,137.07a9.88,9.88,0,1,1-9.88-9.88A9.88,9.88,0,0,1,521.08,137.07Z"/><path class="cls-5" d="M536.89,256.81a19.76,19.76,0,1,1-19.76-19.76A19.76,19.76,0,0,1,536.89,256.81Z"/><path class="cls-5" d="M707.61,198.71a7.91,7.91,0,1,1-7.91-7.9A7.91,7.91,0,0,1,707.61,198.71Z"/><path class="cls-11" d="M807.19,169.87a23.71,23.71,0,1,1-23.71-23.71A23.72,23.72,0,0,1,807.19,169.87Z"/><path class="cls-28" d="M687.85,207.41A11.46,11.46,0,1,1,676.39,196,11.47,11.47,0,0,1,687.85,207.41Z"/><path class="cls-5" d="M867.26,212.94a11.86,11.86,0,1,1-11.86-11.85A11.86,11.86,0,0,1,867.26,212.94Z"/><path class="cls-10" d="M399.37,146.16a4,4,0,1,1-3.95-4A4,4,0,0,1,399.37,146.16Z"/><path class="cls-11" d="M843.29,227.21a11.46,11.46,0,1,1-5.63-15.2A11.47,11.47,0,0,1,843.29,227.21Z"/><path class="cls-11" d="M500.93,147.74a6.72,6.72,0,1,1-6.72-6.72A6.72,6.72,0,0,1,500.93,147.74Z"/><path class="cls-14" d="M817.86,69.49a4.35,4.35,0,1,1-4.35-4.34A4.35,4.35,0,0,1,817.86,69.49Z"/><path class="cls-5" d="M469.71,282.49a8.3,8.3,0,1,1-8.3-8.3A8.3,8.3,0,0,1,469.71,282.49Z"/><circle class="cls-28" cx="327.45" cy="283.68" r="12.65" transform="translate(-105.53 298.7) rotate(-42.89)"/><path class="cls-5" d="M537.28,96.76a5.53,5.53,0,1,1-5.53-5.53A5.53,5.53,0,0,1,537.28,96.76Z"/><path class="cls-5" d="M559.41,95.57a8.69,8.69,0,1,1-8.69-8.69A8.7,8.7,0,0,1,559.41,95.57Z"/><path class="cls-5" d="M621.46,245A11.46,11.46,0,1,1,610,233.49,11.46,11.46,0,0,1,621.46,245Z"/><path class="cls-11" d="M314,288.42A11.07,11.07,0,1,1,303,277.35,11.06,11.06,0,0,1,314,288.42Z"/><path class="cls-9" d="M443.63,158a7.91,7.91,0,1,1-7.9-7.9A7.91,7.91,0,0,1,443.63,158Z"/><path class="cls-25" d="M464.18,170.66a6.33,6.33,0,1,1-6.32-6.33A6.32,6.32,0,0,1,464.18,170.66Z"/><path class="cls-29" d="M423.87,211.36a8.3,8.3,0,1,1-8.3-8.3A8.31,8.31,0,0,1,423.87,211.36Z"/><path class="cls-29" d="M332.19,223.22a7.51,7.51,0,1,1-7.51-7.51A7.5,7.5,0,0,1,332.19,223.22Z"/><path class="cls-29" d="M352,222a9.49,9.49,0,1,1-9.49-9.48A9.48,9.48,0,0,1,352,222Z"/><path class="cls-29" d="M355.11,248.11a6.33,6.33,0,1,1-6.32-6.32A6.32,6.32,0,0,1,355.11,248.11Z"/><path class="cls-29" d="M403.32,174.21a9.09,9.09,0,1,1-9.09-9.09A9.09,9.09,0,0,1,403.32,174.21Z"/><path class="cls-29" d="M371.71,196a8.7,8.7,0,1,1-8.7-8.7A8.7,8.7,0,0,1,371.71,196Z"/><path class="cls-29" d="M462.6,221.24a8.7,8.7,0,1,1-8.7-8.69A8.7,8.7,0,0,1,462.6,221.24Z"/><path class="cls-29" d="M444.42,192a6.33,6.33,0,1,1-6.32-6.33A6.32,6.32,0,0,1,444.42,192Z"/><path class="cls-29" d="M476,100.32a5.53,5.53,0,1,1-5.53-5.54A5.53,5.53,0,0,1,476,100.32Z"/><path class="cls-11" d="M736.85,10.61A12.25,12.25,0,1,1,724.6-1.64,12.24,12.24,0,0,1,736.85,10.61Z"/><path class="cls-29" d="M550.33,4.29a7.51,7.51,0,1,1-7.51-7.51A7.51,7.51,0,0,1,550.33,4.29Z"/><circle class="cls-29" cx="792.57" cy="34.32" r="10.67" transform="translate(655.91 815.77) rotate(-82.56)"/><path class="cls-29" d="M796.12-2a8.29,8.29,0,0,1-8.29,8.29A8.29,8.29,0,0,1,779.53-2a8.29,8.29,0,0,1,8.3-8.3A8.29,8.29,0,0,1,796.12-2Z"/><path class="cls-29" d="M456.27,290a12.65,12.65,0,1,1-12.64-12.65A12.65,12.65,0,0,1,456.27,290Z"/><path class="cls-29" d="M518.71,283.12a8.53,8.53,0,1,1-8.53-8.53A8.53,8.53,0,0,1,518.71,283.12Z"/><path class="cls-15" d="M822.6,240.21a15.41,15.41,0,1,1-15.41-15.41A15.41,15.41,0,0,1,822.6,240.21Z"/><path class="cls-5" d="M519.9,207a11.46,11.46,0,1,1-11.46-11.46A11.46,11.46,0,0,1,519.9,207Z"/><circle class="cls-5" cx="745.54" cy="123.24" r="8.69"/><path class="cls-26" d="M301,228.35a4.35,4.35,0,1,1-4.34-4.34A4.34,4.34,0,0,1,301,228.35Z"/><path class="cls-5" d="M485.52,253.64a5.14,5.14,0,1,1-5.14-5.13A5.14,5.14,0,0,1,485.52,253.64Z"/><path class="cls-5" d="M774.22,302.65a8.92,8.92,0,1,1-8.92-8.92A8.91,8.91,0,0,1,774.22,302.65Z"/><path class="cls-5" d="M710.77,105.85a7.91,7.91,0,1,1-7.91-7.91A7.91,7.91,0,0,1,710.77,105.85Z"/><path class="cls-5" d="M569.29,16.93a7.51,7.51,0,1,1-7.5-7.5A7.5,7.5,0,0,1,569.29,16.93Z"/><path class="cls-5" d="M766.88,11A7.91,7.91,0,1,1,759,3.1,7.9,7.9,0,0,1,766.88,11Z"/><path class="cls-5" d="M819-2a5.92,5.92,0,0,1-5.92,5.92A5.92,5.92,0,0,1,807.19-2,5.92,5.92,0,0,1,813.12-8,5.92,5.92,0,0,1,819-2Z"/><circle class="cls-5" cx="363.8" cy="289.21" r="5.53"/><circle class="cls-5" cx="459.04" cy="302.25" r="7.51"/><path class="cls-5" d="M425.45,224.4a6.32,6.32,0,1,1-6.32-6.32A6.32,6.32,0,0,1,425.45,224.4Z"/><path class="cls-5" d="M536.1,32.74a5.93,5.93,0,1,1-5.93-5.93A5.93,5.93,0,0,1,536.1,32.74Z"/><circle class="cls-11" cx="906.77" cy="206.22" r="8.69"/><path class="cls-5" d="M877.14,197.33a8.11,8.11,0,1,1-8.11-8.1A8.1,8.1,0,0,1,877.14,197.33Z"/><path class="cls-5" d="M478.4,165.91a6.32,6.32,0,1,1-6.32-6.32A6.32,6.32,0,0,1,478.4,165.91Z"/><rect class="cls-30" width="1023.73" height="295.66"/><rect class="cls-31" y="84.64" width="1023.73" height="126.37"/></g><g class="cls-32"><path class="cls-33" d="M366.5,157.62a.9.9,0,0,1-1,.36,42.84,42.84,0,0,1-8.35,6.48,35.81,35.81,0,0,0-3.52-2.92,25,25,0,0,0,7.73-5.87Zm20.26-3h-14v10.05h-4.57V154.66h-8.1v.76H355.7V134.18l5.32.29c0,.36-.32.58-1,.69v15.69h26.71ZM382.87,132v17h-20.3V132Zm-4.24,4.79V135h-12v1.83Zm0,4.61v-1.87h-12v1.87Zm0,4.64v-1.91h-12v1.91Zm4.57,18.43a76.49,76.49,0,0,0-8.21-6.77l3.71-2.34a83.76,83.76,0,0,1,8.49,6.41Z"/><path class="cls-33" d="M406.28,139.33v4.9c0,.43,0,.86,0,1.33h5.54v4.1h-5.86c-.11.72-.26,1.44-.4,2.16,1.76,1.8,5.36,5.72,6.26,6.77l-2.8,3.53c-1.08-1.66-3.06-4.14-4.72-6.2a19.25,19.25,0,0,1-6.48,8.61,15.75,15.75,0,0,0-2.88-3.1,17.4,17.4,0,0,0,6.88-11.77H395v-4.1h7.06c0-.47,0-.94,0-1.41v-4.82h-1.8a24.47,24.47,0,0,1-2.52,5.33,23.5,23.5,0,0,0-3.13-2.27c1.72-2.66,3-7.27,3.7-11.63l4.72,1.12c-.11.32-.4.47-.9.47-.18,1-.43,2-.69,3h9.65v4Zm6.8-5.47h14.07v29.26h-4.42V161h-5.48v2.62h-4.17ZM417.25,157h5.48v-19h-5.48Z"/><path class="cls-33" d="M470,151.39v3.27h-3.82V161h-4.39v-1.51h-6.52c0,4.35-.25,5.29-8.35,5.29a13.18,13.18,0,0,0-1.4-3.42c1.73.07,3.89.07,4.46.07s.9-.25.9-.86v-1.08h-11v-3.13h11v-1.7H436.48v-3.27h14.36v-1.55H440.12v-3h10.72v-1.44H441v-7.56h9.82v-1.37H437.31V133.1h13.53v-2.37l5.37.21c0,.4-.29.65-1,.76v1.4h13.9v3.42h-13.9v1.37h10.34v7.56H455.23v1.44h10.91v4.5Zm-24.8-8.68h5.68v-2.08h-5.68Zm16-2.08h-5.91v2.08h5.91Zm-5.91,9.21v1.55h6.52v-1.55Zm6.52,6.52v-1.7h-6.52v1.7Z"/><path class="cls-33" d="M503.8,161.32A74.08,74.08,0,0,1,493,162a42.94,42.94,0,0,1-7.49-.5c-4.64-1-6.62-4.1-6.62-7.38a11.31,11.31,0,0,1,3.38-7.56l3.89,1.73a7.53,7.53,0,0,0-2.63,5c0,4.28,5.15,4.28,8.82,4.28a61.59,61.59,0,0,0,11.09-1Zm-17.6-18.71a37,37,0,0,1,4.6-3.17v0a88.29,88.29,0,0,1-10,.36c0-1.11,0-3.42-.11-4.42.69,0,1.55,0,2.52,0,6.66,0,13-.11,18.33-1.08l.36,4.65a27.15,27.15,0,0,0-11.77,5.65ZM503,148.73a25.39,25.39,0,0,0-4.39-4.68l1.87-1.7a24,24,0,0,1,4.54,4.65Zm4-3.78a26.69,26.69,0,0,0-4.42-4.65l1.87-1.69a24.8,24.8,0,0,1,4.5,4.57Z"/><path class="cls-33" d="M538.9,142.93c-.11.4-.22.79-.29,1.19,5.22,1.44,7.52,5.07,7.52,9.11,0,5.75-4.32,9.64-13.57,10.79a16.09,16.09,0,0,0-1.87-3.63c6.48-.72,10.73-2.88,10.73-7.06,0-1.18-.4-4-4.29-5.25a26.64,26.64,0,0,1-6.8,9.36,8.79,8.79,0,0,0,.51,1.22L527.13,161a10.13,10.13,0,0,1-.51-1.19,11.93,11.93,0,0,1-5.79,1.65c-3.17,0-5.26-2-5.26-5.36,0-5,3.82-8.89,8.93-11-.07-1.55-.07-3.13-.07-4.79-2.7.08-5.62.15-7.06.11l-.21-4.21c1.65,0,4.68,0,7.34,0,.07-1.55.11-3.35.18-4.86l5.65.43c-.07.36-.36.65-1,.72-.11,1-.18,2.41-.29,3.56a82.39,82.39,0,0,0,12.85-1.51l.4,4.36a99.88,99.88,0,0,1-13.46,1.22c0,1.26-.08,2.48-.08,3.67a20.79,20.79,0,0,1,5.4-.47,7.66,7.66,0,0,0,.29-1.62Zm-13.36,13a53.32,53.32,0,0,1-.82-6.59c-2.85,1.41-4.79,3.6-4.79,6,0,2.05,1.55,2,2,1.95A7.27,7.27,0,0,0,525.54,155.89Zm7.28-8.53a14.48,14.48,0,0,0-4,.5,46.39,46.39,0,0,0,.47,4.9A19.12,19.12,0,0,0,532.82,147.36Z"/><path class="cls-33" d="M562.34,135.8a1.08,1.08,0,0,1-.94.62,56.23,56.23,0,0,0-.93,9.89c0,7.92,2.3,10.77,4.32,10.77,1.22,0,2.73-3.6,3.52-6.59a24.11,24.11,0,0,0,3.67,2.88c-1.72,5.9-4.06,8.64-7.37,8.64-5.58,0-8.32-6.95-8.68-12.82-.07-1.29-.14-2.7-.14-4.17a84.49,84.49,0,0,1,.64-10.3Zm20.12,17.39c-1.08-6.48-4.07-10.33-8.5-13l2.85-3.38a20,20,0,0,1,10.4,14.76Z"/><path class="cls-33" d="M624.79,140.48a70,70,0,0,1-10.87,1.59c1.34,4,3,6.33,6.23,7.81l-3.24,3.81c-1.37-1.22-3.38-2.55-7.77-2.48L608,147.57a22.43,22.43,0,0,1,3.67.33,18.41,18.41,0,0,1-2.41-5.51c-1.41.11-2.92.14-4.75.14-2.13,0-6.48,0-8.89-.1l0-4.29c2.05.08,4.72.15,9,.15,1.19,0,2.56,0,3.67-.15-.39-2-.72-4.28-1-6.62l6.08.14c0,.44-.36.8-1,.94a50,50,0,0,0,.69,5.26,58.66,58.66,0,0,0,11.05-2ZM618,163.3c-1.79,0-3.92,0-6.58,0-8.75,0-13.18-3.35-13.18-7.77,0-2.24,1-4,3.1-6.2l3.46,2.56a4.46,4.46,0,0,0-1.91,3.42c0,2.7,3.56,3.67,8.64,3.67,2.88,0,5-.11,6.87-.22Z"/><path class="cls-33" d="M632.29,140.45c1.08-.22,2.19-.51,4.14-1.08,6.11-1.88,11.66-3.24,15.83-3.24,6.27,0,11.81,2.91,11.81,10.9,0,9.15-8.17,13-21.31,14.15a18.31,18.31,0,0,0-1.87-4.39c11.59-1,18.11-3.89,18.11-9.47,0-4.57-3.39-6.55-7.2-6.55-3.57,0-8.72,1.15-14.26,3.13-.83.33-1.76.72-2.63,1.08a1.1,1.1,0,0,1-.72,1Z"/></g></svg>