<svg xmlns="http://www.w3.org/2000/svg" width="82.03" height="82.03" viewBox="0 0 82.03 82.03"><defs><style>.cls-1{fill:#003893;}.cls-2{fill:#fff;}.cls-3{fill:none;stroke:#073890;stroke-miterlimit:10;stroke-width:0.73px;}.cls-4{fill:#040000;}</style></defs><g id="レイヤー_2" data-name="レイヤー 2"><g id="レイヤー_3" data-name="レイヤー 3"><path class="cls-1" d="M82,41A41,41,0,1,1,41,0,41,41,0,0,1,82,41"/><path class="cls-2" d="M80,41a39,39,0,1,1-39-39A39,39,0,0,1,80,41"/><path class="cls-3" d="M80,41a39,39,0,1,1-39-39A39,39,0,0,1,80,41Z"/><path class="cls-1" d="M41.38,16.79A24.66,24.66,0,0,0,17.51,35.28c-4,.43-6.79,1.68-7.09,3.55-.34,2,2.3,4.31,6.56,6.07a39.88,39.88,0,0,0,8.54,2.35c8.86,1.45,16.48,0,17-3.15a2.39,2.39,0,0,0-.17-1.28c-.76-1.92-3.77-3.91-8-5.39a3.65,3.65,0,0,1-.78-2.75c.77-3.89,10-5.35,20.63-3.27a45.83,45.83,0,0,1,11,3.53A24.66,24.66,0,0,0,41.38,16.79"/><path class="cls-1" d="M39.66,65.21A24.66,24.66,0,0,0,64.35,47.82c4-.24,6.85-1.37,7.24-3.23.43-2-2.11-4.41-6.28-6.35a39.45,39.45,0,0,0-8.42-2.74c-8.79-1.85-16.46-.79-17.13,2.38a2.47,2.47,0,0,0,.11,1.28c.67,2,3.59,4.08,7.75,5.75a3.62,3.62,0,0,1,.65,2.78C47.33,51.54,38,52.59,27.52,50a46,46,0,0,1-10.79-4A24.65,24.65,0,0,0,39.66,65.21"/><polygon class="cls-4" points="20.73 13.14 26.35 9.81 26.62 10.26 21 13.59 20.73 13.14"/><path class="cls-4" d="M30.17,8.85,29.86,9l.83,2.55c.15.45-.05.55-.82.8a2,2,0,0,0-.26-.33l.62-.2c.09,0,.1-.06.08-.15l-.82-2.49-1.22.57a5.84,5.84,0,0,1,.36,3,1.25,1.25,0,0,0-.39-.11,5.29,5.29,0,0,0-.33-2.73l-.25.11a.12.12,0,0,1-.05.12l-.31-.41.48-.21-.69-2.12.57-.19a7,7,0,0,0,0-1l.6,0a.14.14,0,0,1-.11.11c0,.22,0,.55-.05.82l1.05-.35.62,1.91.31-.13ZM27.59,7.66l.56,1.72,1.23-.55-.52-1.59ZM28.68,8.8A3.53,3.53,0,0,0,28,8l.25-.21a3.21,3.21,0,0,1,.71.79Zm.52.87s0,.08-.09.11l.49,1.51-.3.1-.53-1.61Zm1.13-3.62.17.52a2.12,2.12,0,0,1-.13,1.84A1.76,1.76,0,0,0,30,8.24a1.68,1.68,0,0,0,.14-1.55l-.3-.91,1.93-.63.53,1.59c.07.23.09.25.23.21l.21-.07a.3.3,0,0,0,.14-.07c.08-.08,0-.29-.12-.73a1.05,1.05,0,0,0,.4.07c.18.6.26.91-.27,1.08l-.33.11c-.48.15-.57-.14-.69-.5l-.38-1.15Zm2.59,1.78.33,0s0,.06,0,.09a4.59,4.59,0,0,1-.45,2.2,3.86,3.86,0,0,0,1.77.27,2,2,0,0,0-.15.47,4.2,4.2,0,0,1-1.84-.35,4.88,4.88,0,0,1-1.26,1.38,1.4,1.4,0,0,0-.38-.3,4.33,4.33,0,0,0,1.24-1.28,4.8,4.8,0,0,1-1.41-1.22L31,8.93l-.57.18-.14-.41,2.54-.83ZM31.08,8.91a4,4,0,0,0,1.27,1,4,4,0,0,0,.4-1.59Z"/><path class="cls-4" d="M37.14,5.48a.2.2,0,0,1-.08.08,7.08,7.08,0,0,1-.85,1.75c.36.2,1.09.64,1.29.76l-.24.42c-.22-.18-.7-.51-1.07-.75l.28,2.88-.47,0L35.73,8a6.59,6.59,0,0,1-1,1,1.72,1.72,0,0,0-.29-.39A6.64,6.64,0,0,0,36.5,5.82L34.36,6l0-.44,1.17-.11-.13-1.34.62,0s0,.09-.13.11L36,5.43l.76-.07.08,0Zm2.42,4.15,1.7-.16.05.46-4,.39,0-.46,1.84-.18-.3-3-1.55.15-.05-.46,1.56-.15-.22-2.3.62,0c0,.05,0,.09-.13.12l.21,2.16L40.78,6l0,.45-1.55.15Z"/><path class="cls-4" d="M42.5,4l5.92.71-.74,6.18-.49-.06,0-.33-5-.6,0,.33-.46-.06Zm-.18,5.44,5,.6.6-4.93-5-.6Zm5.11-3.11-.06.42L46.3,6.63,46,9c-.06.55-.34.52-1.43.39a2.29,2.29,0,0,0-.09-.44c.21,0,.41.06.57.08.44.05.49.06.5-.08l.29-2.35-2.74-.34,0-.42,2.74.33.12-1,.58.1s-.06.08-.15.08l-.1.87Zm-3.11,2a4.72,4.72,0,0,0-.71-1.45L44,6.74a4.88,4.88,0,0,1,.72,1.42Z"/><path class="cls-4" d="M48.5,10.67a25.2,25.2,0,0,0,2-1.75l.23.39A20.18,20.18,0,0,1,48.88,11a.49.49,0,0,1,0,.11.23.23,0,0,1-.07.07Zm1.36-3.91A6.33,6.33,0,0,1,51,7.86l-.38.3A5.86,5.86,0,0,0,49.51,7Zm5.62,3.06-.16.43-2.58-.91L53,9.5a.21.21,0,0,1-.18,0c-.41.49-1,1.14-1.52,1.62l2.36.69a11.8,11.8,0,0,0-.41-1.27l.45-.06a9.6,9.6,0,0,1,.67,2.38l-.5.09a5,5,0,0,0-.1-.67c-1.26-.33-2.57-.7-3.39-.93a.14.14,0,0,1-.14.06v-.6l.57.17a16.3,16.3,0,0,0,1.6-1.8l-1.42-.5.15-.43L53,8.94l.46-1.31-1.59-.56L52,6.65l1.59.56L54,6.09l.59.26a.16.16,0,0,1-.19.07l-.34,1,1.62.57-.15.43L53.93,7.8l-.46,1.31ZM50.88,5A5.9,5.9,0,0,1,52,6.21l-.39.28a6.15,6.15,0,0,0-1.08-1.21Z"/><path class="cls-4" d="M60.86,9.81s-.09,0-.18,0l-.12.17c-.46.88-1.84,3.9-.21,6.36a1.67,1.67,0,0,0-.51.14,6,6,0,0,1-.3-5.23h0a6,6,0,0,1-4.75,2.08,1.51,1.51,0,0,0-.14-.51c3.28.31,5.14-2.63,5.68-3.41Z"/><path class="cls-4" d="M9.75,48.18l-.1.36a.23.23,0,0,1-.09-.08A7,7,0,0,1,7.72,48c-.14.34-.46,1-.55,1.22L6.69,49c.14-.21.38-.66.56-1l-2.87.75-.12-.46,2.68-.7A6.48,6.48,0,0,1,6,47a1.7,1.7,0,0,0,.35-.36A6.42,6.42,0,0,0,9.21,48L8.72,46.1,9.16,46l.26,1,1.32-.35.12.6s-.1,0-.13-.11l-1.2.31.18.67ZM4.68,49.92l3.1-.81.93,3.59-3.07.8L5.52,53,5.83,53l-.7-2.68-.33.09Zm.86.25.28,1.11.78-.21L6.32,50Zm.4,1.55.29,1.13.79-.2-.3-1.14Zm1.83-.95-.29-1.1-.77.2L7,51Zm-.36,1.77.77-.2-.3-1.13-.76.2ZM10.1,49l.72,2.77-1.7.45-.73-2.78Zm-.72,2.68.95-.25-.5-1.91-.94.25Zm1.49-3.49,1,4-.41.11-1-4Z"/><path class="cls-4" d="M14.7,57.85l-5.07,2.6c-.54.28-.7,0-1.21-1a1.53,1.53,0,0,0,.32-.35l.24.47c.1.19.17.34.21.39s.11.14.23.07l4.65-2.38-2.31-4.51L6.56,55.8l-.21-.42L12,52.51ZM9.31,59.12l-.2-.39.37-.18L8.31,56.28l-.45.23-.19-.38L9.86,55l.22.52c-.05,0-.09,0-.14-.08l-1.25.64.47.92L11,56l-.86-1.68.37-.19,2,3.9-.37.19-.87-1.7s-.07,0-.12-.09l-1.83.94.49,1,1.37-.7.22.52s-.1,0-.15-.08Zm1.82-4a3.84,3.84,0,0,0,.77-1l.31.28a3.55,3.55,0,0,1-.76,1ZM13.39,57a.14.14,0,0,1-.12-.09,11,11,0,0,1-1.28,0c0-.08,0-.3,0-.39a6.75,6.75,0,0,0,1.35-.05Z"/><path class="cls-4" d="M12.68,63c-.06,0-.1,0-.14-.08a8.44,8.44,0,0,1-2.15-.45c0-.14,0-.37,0-.5a6,6,0,0,0,2.08.43Zm-.1-1.66,3.58,4.34-.34.28-1.91-2.32L12.31,65,12,64.6l1.6-1.32-1.35-1.63-.16.13-.3-.37L15,58.74l.37.51c-.05,0-.1,0-.17,0Zm6,1.19-2.57,2.12-2.53-3.06L16.1,59.5ZM14,66.92a16.67,16.67,0,0,0,0-2.23l.45.14a15.54,15.54,0,0,1,.06,2.22Zm2-2.84.49-.4L14.6,61.33l-.49.41Zm.77-.63.48-.4-1.93-2.34-.49.4Zm.75-.62.49-.4-1.94-2.34-.48.4Z"/><path class="cls-4" d="M21.84,70.74l-.26.34-1.32-1-.73.93c-.17.22-.3.28-.53.2a5.6,5.6,0,0,1-1-.72,1.63,1.63,0,0,0,.15-.44l.59.49c.33.25.37.29.46.17l.73-.93-3.45-2.7.26-.34,3.45,2.71.37-.47-2.84-2.23,1.46-1.87,1.76,1.38.33-.42L19,64.06l.26-.33,2.24,1.76.37-.47.46.41s-.09,0-.17,0l-.28.36,2.28,1.79-.25.33-2.29-1.8-.33.42L23.1,68l-1.46,1.87-1-.81h0l.38.32a.15.15,0,0,1-.17,0l-.29.36Zm-4.48-1.17A5.49,5.49,0,0,0,17.09,68l.45,0a5.35,5.35,0,0,1,.31,1.51Zm1.31-3.37-.4.51,1.4,1.1.4-.51Zm.61-.78-.39.51L20.28,67l.4-.5Zm2.21,3.82.4-.51L20.45,67.6l-.41.51Zm1-1.28-1.44-1.14-.4.5,1.45,1.14Z"/><path class="cls-4" d="M24.3,69.94a7.93,7.93,0,0,1-1.19.71,3.13,3.13,0,0,0,0-.53,9.64,9.64,0,0,0,2.84-2.23l.44.41a.18.18,0,0,1-.19,0,13.91,13.91,0,0,1-1.12,1l.13.12s-.08.05-.16,0l-2.1,4.35-.42-.2Zm1.77-1.1.49.28s-.07,0-.16,0l-1.95,4L24.06,73Zm2.49,5.83a.12.12,0,0,1-.15,0,6.45,6.45,0,0,1-4-.13,1.52,1.52,0,0,0-.06-.47,6,6,0,0,0,3.79.21Zm-.34-1.08a.14.14,0,0,1-.14,0,6,6,0,0,1-2.77.07,1.67,1.67,0,0,0-.09-.42,5.08,5.08,0,0,0,2.66,0ZM30.1,71.2l-.54-.26a3.85,3.85,0,0,1-1.48.75,5.58,5.58,0,0,0,1.39,1.46,1.86,1.86,0,0,0-.41.23,5.85,5.85,0,0,1-1.41-1.59,6.56,6.56,0,0,1-2.07,0,3.69,3.69,0,0,0-.08-.46,6.16,6.16,0,0,0,1.95.09,3.49,3.49,0,0,1-.35-1.21,5.37,5.37,0,0,1-.92.39,2.09,2.09,0,0,0-.19-.4,5.53,5.53,0,0,0,2.14-1.28l.43.39a.15.15,0,0,1-.17,0l-.5.41,2.38,1.15Zm-2.2,1.46a.14.14,0,0,1-.14,0,5.43,5.43,0,0,1-2.12.1,1.46,1.46,0,0,0-.12-.39,4.71,4.71,0,0,0,2-.07Zm-.4-2.72-.05,0a3.91,3.91,0,0,0,.4,1.34,3.56,3.56,0,0,0,1.26-.59Z"/><path class="cls-4" d="M36.09,75.77l-.11.44-2.91-.69-.32,1.36c-.14.59-.48.52-1.78.21a2,2,0,0,0-.09-.51l.89.24c.41.09.46.1.5,0l.32-1.36-2.88-.68.1-.44,2.88.68.14-.61.33.1A6,6,0,0,0,34.33,74l-3-.72.1-.42,3.55.83H35l.31.31a.14.14,0,0,1-.12,0,7.43,7.43,0,0,1-2,.76l-.06.25ZM31,71.92,30.77,73l-.45-.1.36-1.56,1.1.26a4.81,4.81,0,0,0-.41-1.06l.44-.1a4.54,4.54,0,0,1,.47,1.17l-.23.06,1.49.35a5.34,5.34,0,0,0-.3-1.21l.44-.06A4.59,4.59,0,0,1,34,72.06l-.27,0,1.23.29a8.39,8.39,0,0,0,1.08-1,3.11,3.11,0,0,1,.5.37.17.17,0,0,1-.16,0c-.24.21-.57.48-.88.7l1.14.27-.36,1.56-.47-.11.27-1.13Z"/><path class="cls-4" d="M38.74,74.3c.22.28.81,1.16.94,1.37L39.4,76c-.12-.25-.43-.77-.67-1.16l-.06,3.48h-.45l.06-3.56a7.77,7.77,0,0,1-1,2.16,1.86,1.86,0,0,0-.25-.43,8.45,8.45,0,0,0,1.23-2.82H37.19v-.46l1.1,0,0-1.58.6,0s0,.08-.15.09l0,1.45h.91v.46l-.92,0Zm2.13.53a6,6,0,0,0,.79,1.53,4.62,4.62,0,0,0,.76-1.54L43,75a.17.17,0,0,1-.16.09,5.46,5.46,0,0,1-.9,1.68,4.57,4.57,0,0,0,1.84,1.32,2.06,2.06,0,0,0-.35.42,5.06,5.06,0,0,1-1.81-1.37,5.28,5.28,0,0,1-2,1.31,1.84,1.84,0,0,0-.25-.39,4.79,4.79,0,0,0,2-1.28,7.08,7.08,0,0,1-.91-1.8Zm.38-1.11s-.07.06-.14.06a5.83,5.83,0,0,1-1.22,1.54,3.45,3.45,0,0,0-.34-.3,4.41,4.41,0,0,0,1.17-1.52Zm2.52-.87v.45l-4-.07v-.45l1.75,0,0-1.09.62,0s-.05.09-.15.1v.95Zm-.35,2.48a7.37,7.37,0,0,0-1.18-1.61l.38-.21a7.58,7.58,0,0,1,1.21,1.58Z"/><path class="cls-4" d="M49.14,71.41l.41.14a.16.16,0,0,1-.07.09,6.52,6.52,0,0,1-1.39,2.17,9.46,9.46,0,0,0,3.16.56,2.24,2.24,0,0,0-.22.5c-.31,0-.63,0-.94-.08l.49,2.43-.48.1L50,77l-3.3.66.06.31-.47.09-.49-2.46c-.31.19-.62.37-.93.52a1.7,1.7,0,0,0-.33-.38A10.38,10.38,0,0,0,47.27,74a7.68,7.68,0,0,1-1.5-1,8.6,8.6,0,0,1-1.06,1.17,2.33,2.33,0,0,0-.4-.27,6.72,6.72,0,0,0,1.92-2.68l.59.11a.15.15,0,0,1-.15.08c-.08.19-.17.39-.27.58l2.66-.54Zm-3,1.08-.1.16a6.64,6.64,0,0,0,1.6,1A6.39,6.39,0,0,0,48.81,72Zm3.58,2.24a10.11,10.11,0,0,1-2-.56,11,11,0,0,1-1.6,1.28Zm-3.05,2.53L50,76.6l-.29-1.41-3.3.66Z"/><path class="cls-4" d="M53.07,72.58c.27.1,1.1.47,1.3.58l-.12.46a7.82,7.82,0,0,0-1-.59l1.28,2.9-.42.19-1.32-3a7.86,7.86,0,0,1-.07,2.16,1.91,1.91,0,0,0-.41-.29,7.92,7.92,0,0,0,.06-2.64l-1,.42-.19-.41,1-.45-.51-1.14c-.26.23-.53.44-.8.64a1.22,1.22,0,0,0-.29-.26,8.4,8.4,0,0,0,1.68-1.6l.54.16s0,0-.12.08a5.4,5.4,0,0,1-.63.66l.55,1.27.87-.38.18.41-.86.38Zm4.11,1.57L59,73.36l.17.38-4,1.77-.16-.37,1.83-.81-.26-.57L55,74.41l-.15-.36,1.47-.65-.2-.47-1.34.59-.94-2.13,1.34-.58L55,70.34l-1.62.72-.17-.37L54.83,70l-.25-.56c-.44.26-.9.52-1.34.75a1.62,1.62,0,0,0-.25-.28A17.76,17.76,0,0,0,55.83,68l.52.17s0,0-.07.06l-.05,0a11.37,11.37,0,0,1-1.25.87l.28.63L57,69l.17.37-1.72.75.21.47L57,70,58,72.12l-1.4.62.21.47,1.52-.67.16.36-1.52.67Zm-2.77-2.59.24.55.94-.41-.24-.55ZM55.05,73l.93-.41L55.74,72l-.94.41Zm1.7-2.47-1,.43.24.55,1-.43ZM57.39,72l-.25-.57-1,.44.24.56Z"/><path class="cls-4" d="M58.08,68.64l.68.94-.37.27-1-1.29.91-.66a4.82,4.82,0,0,0-1.07-.38l.21-.4a4.6,4.6,0,0,1,1.19.4l-.1.21,1.23-.9a5,5,0,0,0-1.11-.55l.24-.38a5,5,0,0,1,1.18.57l-.14.24L61,66a8.57,8.57,0,0,0,0-1.44,3.26,3.26,0,0,1,.6-.15s0,.1-.09.14a10.89,10.89,0,0,1,0,1.12l1-.69.94,1.29-.38.28-.69-.94Zm6.2-1.34.27.37-2.41,1.77L63,70.56c.35.49.08.7-1,1.49a2.51,2.51,0,0,0-.45-.26c.3-.21.57-.39.75-.53.34-.25.38-.28.28-.41l-.82-1.12-2.38,1.74-.27-.36,2.38-1.75-.37-.5.28-.19a5.5,5.5,0,0,0,.44-1.16L59.3,69.36,59,69,62,66.85l.05-.07.45,0a.21.21,0,0,1,0,.12,8.12,8.12,0,0,1-.71,2l.15.21Z"/><path class="cls-4" d="M64.89,64.33c.35,0,1.4.13,1.65.17l.1.46c-.27-.07-.87-.17-1.32-.25L67.93,67l-.3.34L65,65a7.71,7.71,0,0,1,1,2.18,1.62,1.62,0,0,0-.49-.08,8.45,8.45,0,0,0-1.34-2.77l-.69.79-.34-.3.73-.83-1.19-1,.43-.42s0,.09,0,.17l1.09,1,.6-.69.34.3-.6.69Zm2.16-4.77.33.3-2.66,3-.34-.29,1.16-1.31-.82-.73.44-.44s0,.09,0,.18l.71.63Zm-1,2.49s0,.08,0,.14a5.66,5.66,0,0,1,.38,1.93,3.71,3.71,0,0,0-.45.06,4.76,4.76,0,0,0-.4-1.88Zm.59,1a5.8,5.8,0,0,0,1.68.4,4.73,4.73,0,0,0-.68-1.58l.49-.36a.16.16,0,0,1,0,.18,5.31,5.31,0,0,1,.69,1.77A4.61,4.61,0,0,0,71,62.92a1.91,1.91,0,0,0,.1.53,5,5,0,0,1-2.21.49,5.44,5.44,0,0,1-.32,2.38,3.25,3.25,0,0,0-.45-.06,5,5,0,0,0,.3-2.33,6.87,6.87,0,0,1-2-.48Zm2-1.61a7.64,7.64,0,0,0-2-.15l.09-.42a7.36,7.36,0,0,1,2,.1Z"/><path class="cls-4" d="M69.46,58l-.43.77,3.75,2.08-.23.41L68.8,59.17l-.45.81-.4-.22.46-.81L66.7,58l.33-.52s0,.08,0,.17l1.58.88.43-.77ZM70,53.78l.11.1c1.55,1,1.53,1.16,1.15,1.84a3.08,3.08,0,0,1-.24.41,1,1,0,0,0-.43-.09c.18-.26.32-.5.38-.6a.3.3,0,0,0,.05-.23c0-.14-.28-.36-.94-.81l-.69,1.23a2.69,2.69,0,0,1,.7,2.48,1.18,1.18,0,0,0-.42,0A2.31,2.31,0,0,0,69.18,56l-.64,1.16L68.19,57l.69-1.26a6.47,6.47,0,0,0-.67-.48l.33-.5s0,.1,0,.18a6,6,0,0,1,.55.4l.7-1.26,0-.1Zm1.46,3.53.13-.19a11.79,11.79,0,0,1,2.18,1.53c.07.18.07.28-.28.87a.82.82,0,0,0-.4-.1c.12-.18.21-.32.25-.4a.17.17,0,0,0,0-.19c-.05-.15-.46-.44-1.63-1.15l-.31.56a3.73,3.73,0,0,1,1.63,2.12,1.09,1.09,0,0,0-.39.11,3.22,3.22,0,0,0-1.45-1.85l-.35.63-.35-.19.37-.67c-.21-.14-.43-.27-.66-.4l.31-.48s0,.1,0,.17l.53.34.34-.62Zm1.19-2.13.12-.19A11.55,11.55,0,0,1,75,56.48c.08.18.07.29-.3.91a1.16,1.16,0,0,0-.41-.09c.13-.2.23-.38.27-.46a.15.15,0,0,0,0-.18,6.79,6.79,0,0,0-1.65-1.11l-.33.6a3.66,3.66,0,0,1,1.61,2.16,1.45,1.45,0,0,0-.41.1,3.08,3.08,0,0,0-1.41-1.89l-.34.61-.34-.19.35-.64c-.21-.14-.43-.27-.66-.4l.32-.49c.05,0,.05.09,0,.18.18.1.35.22.53.33Z"/><path class="cls-4" d="M70.58,49.38a.19.19,0,0,1,.06.18,8.33,8.33,0,0,0,3.24-2.32,2.12,2.12,0,0,0,.32.42A9,9,0,0,1,70.89,50a8.66,8.66,0,0,1,1.57,3.66,2.22,2.22,0,0,0-.45.16,7.8,7.8,0,0,0-1.67-3.71Zm1.54,2.75,1-3.36.43.13-1,3.36Zm1.43,1.71-.44-.13,1.73-5.8.44.13-1,3.32,0-.07a.19.19,0,0,1,0,.19,16.06,16.06,0,0,1,1.36,1.29c.25-.92.54-2,.81-3.07a14.19,14.19,0,0,0-1.34.71L75.11,50a10,10,0,0,1,2.34-1.12l.14.49a5.9,5.9,0,0,0-.59.2c-.41,1.7-.86,3.51-1.15,4.62a.13.13,0,0,1,.06.14h-.6c.08-.29.18-.63.28-1a18.68,18.68,0,0,0-1.47-1.34Z"/></g></g></svg>