<svg xmlns="http://www.w3.org/2000/svg" width="72" height="77.219" viewBox="0 0 72 77.219">
  <g id="グループ_2394" data-name="グループ 2394" transform="translate(-169.186 134.492)">
    <text id="協会について" transform="translate(205.185 -59.273)" fill="#fff" font-size="11.724" font-family="KozGoPr6N-Medium, Kozuka Gothic Pr6N" font-weight="500"><tspan x="-35.114" y="0">協会について</tspan></text>
    <g id="グループ_2260" data-name="グループ 2260">
      <path id="パス_4411" data-name="パス 4411" d="M232.186-106a27,27,0,0,1-27,27,27,27,0,0,1-27-27,27,27,0,0,1,27-27A27,27,0,0,1,232.186-106Z" fill="#ec147f" stroke="#fff" stroke-linecap="round" stroke-linejoin="round" stroke-width="2.984"/>
      <path id="パス_4412" data-name="パス 4412" d="M205.439-122.787A17.088,17.088,0,0,0,188.9-109.972c-2.785.294-4.7,1.163-4.915,2.461-.231,1.414,1.6,2.987,4.549,4.2a27.19,27.19,0,0,0,5.918,1.628c6.142,1.009,11.417.031,11.78-2.181a1.65,1.65,0,0,0-.116-.887c-.526-1.332-2.613-2.708-5.543-3.733a2.514,2.514,0,0,1-.539-1.906c.53-2.695,6.927-3.711,14.29-2.267a31.649,31.649,0,0,1,7.6,2.447,17.086,17.086,0,0,0-16.478-12.579" fill="#fff"/>
      <path id="パス_4413" data-name="パス 4413" d="M204.248-89.231a17.091,17.091,0,0,0,17.108-12.05c2.8-.17,4.749-.951,5.02-2.239.3-1.4-1.462-3.055-4.352-4.4a27.405,27.405,0,0,0-5.839-1.894c-6.09-1.287-11.4-.548-11.867,1.645a1.674,1.674,0,0,0,.075.891c.465,1.356,2.489,2.824,5.369,3.983a2.5,2.5,0,0,1,.453,1.926c-.651,2.668-7.089,3.393-14.38,1.618a31.733,31.733,0,0,1-7.476-2.788,17.085,17.085,0,0,0,15.889,13.312" fill="#fff"/>
    </g>
  </g>
</svg>
