<svg xmlns="http://www.w3.org/2000/svg" width="84" height="88.144" viewBox="0 0 84 88.144">
  <g id="グループ_2031" data-name="グループ 2031" transform="translate(-717.915 -39.583)">
    <text id="会員ページ_学校関係者_" data-name="会員ページ
（学校関係者）" transform="translate(759.915 109.727)" font-size="11.724" font-family="HiraginoSans-W3, Hiragino Sans"><tspan x="-29.135" y="0">会員ページ</tspan><tspan y="0" font-family="Helvetica"></tspan><tspan x="-41.035" y="16.52">（学校関係者）</tspan></text>
    <g id="グループ_2030" data-name="グループ 2030">
      <path id="パス_2829" data-name="パス 2829" d="M783.342,83.712h4.2a.908.908,0,0,0,.908-.8,15.283,15.283,0,0,0,.093-1.653c0-7.593-2.826-16.964-11.2-19.611,3.312-1.779,4.757-5.274,4.757-9.3C782.1,46.53,778.186,41,772.361,41a7.12,7.12,0,0,0-2.21.366" fill="none" stroke="#ec007f" stroke-linecap="round" stroke-linejoin="round" stroke-width="2.835"/>
      <path id="パス_2830" data-name="パス 2830" d="M746.133,41.541A7.221,7.221,0,0,0,743.469,41c-5.825,0-9.739,5.53-9.739,11.355,0,3.985,1.4,7.452,4.666,9.246-8.85,2.574-11.11,12.017-11.11,19.661a15.419,15.419,0,0,0,.09,1.645.917.917,0,0,0,.917.805h5.2" fill="none" stroke="#ec007f" stroke-linecap="round" stroke-linejoin="round" stroke-width="2.835"/>
      <path id="パス_2831" data-name="パス 2831" d="M776.311,89l.468-.46c.05-8.886-3.221-19.95-13.058-23.06,4.688-2.517,6.365-7.983,5.432-13.92a11.655,11.655,0,0,0-10.019-9.952c-7.441-.807-12.7,5.847-12.7,13.036,0,4.645,1.77,8.687,5.572,10.778-10.481,3.049-13.033,14.363-12.949,23.346l.237.232Z" fill="none" stroke="#ec007f" stroke-linecap="round" stroke-linejoin="round" stroke-width="2.835"/>
    </g>
  </g>
</svg>
