<svg xmlns="http://www.w3.org/2000/svg" width="94" height="86.207" viewBox="0 0 94 86.207">
  <g id="グループ_2027" data-name="グループ 2027" transform="translate(-256.831 -41.52)">
    <text id="電子パンフレット_ライブラリー" data-name="電子パンフレット
ライブラリー" transform="translate(303.831 109.727)" font-size="11.724" font-family="HiraginoSans-W3, Hiragino Sans"><tspan x="-46.897" y="0">電子パンフレット</tspan><tspan y="0" font-family="Helvetica"></tspan><tspan x="-35.173" y="16.52">ライブラリー</tspan></text>
    <g id="グループ_2026" data-name="グループ 2026">
      <path id="パス_2825" data-name="パス 2825" d="M332.219,86.194,301.563,89l-30.121-2.805a.872.872,0,0,1-.808-.87V48.156a2.134,2.134,0,0,1,2.29-2.129l28.639,2.108,29.177-2.111a2.135,2.135,0,0,1,2.289,2.129V85.324A.872.872,0,0,1,332.219,86.194Z" fill="#fff" stroke="#ec007f" stroke-linecap="round" stroke-linejoin="round" stroke-width="2.268"/>
      <path id="パス_2826" data-name="パス 2826" d="M327.227,85.282l-25.4,3.531-25.4-3.531V44.4a1.747,1.747,0,0,1,2-1.728l23.394,3.446,23.394-3.446a1.747,1.747,0,0,1,2,1.728Z" fill="#fff" stroke="#ec007f" stroke-linecap="round" stroke-linejoin="round" stroke-width="2.268"/>
      <line id="線_872" data-name="線 872" y2="41.527" transform="translate(302.148 46.883)" fill="#fff" stroke="#ec007f" stroke-linecap="round" stroke-linejoin="round" stroke-width="2.268"/>
    </g>
  </g>
</svg>
