<svg xmlns="http://www.w3.org/2000/svg" width="68.764" height="71.347" viewBox="0 0 68.764 71.347">
  <g id="グループ_2020" data-name="グループ 2020" transform="translate(-168.125 -39.38)">
    <text id="学校検索" transform="translate(200.445 109.727)" font-size="11.724" font-family="HiraginoSans-W3, Hiragino Sans"><tspan x="-23.448" y="0">学校検索</tspan></text>
    <g id="グループ_2019" data-name="グループ 2019">
      <g id="グループ_2017" data-name="グループ 2017">
        <path id="パス_2822" data-name="パス 2822" d="M210.8,51.51V43.273a2.476,2.476,0,0,0-2.476-2.476H186.7a2.466,2.466,0,0,0-2.466,2.466V51.51H172.021a2.479,2.479,0,0,0-2.479,2.479V83.831a2.466,2.466,0,0,0,2.466,2.465h51.015a2.465,2.465,0,0,0,2.466-2.465V53.971a2.461,2.461,0,0,0-2.461-2.461Z" fill="#fff" stroke="#ec007f" stroke-linecap="round" stroke-linejoin="round" stroke-width="2.835"/>
        <g id="グループ_2016" data-name="グループ 2016">
          <rect id="長方形_1414" data-name="長方形 1414" width="4.908" height="4.908" transform="translate(179.271 65.521)" fill="#ec007f" stroke="#ec007f" stroke-linecap="round" stroke-linejoin="round" stroke-width="1.417"/>
          <rect id="長方形_1415" data-name="長方形 1415" width="4.908" height="4.908" transform="translate(189.798 65.521)" fill="#ec007f" stroke="#ec007f" stroke-linecap="round" stroke-linejoin="round" stroke-width="1.417"/>
          <rect id="長方形_1416" data-name="長方形 1416" width="4.908" height="4.908" transform="translate(200.326 65.521)" fill="#ec007f" stroke="#ec007f" stroke-linecap="round" stroke-linejoin="round" stroke-width="1.417"/>
          <rect id="長方形_1417" data-name="長方形 1417" width="4.908" height="4.908" transform="translate(210.853 65.521)" fill="#ec007f" stroke="#ec007f" stroke-linecap="round" stroke-linejoin="round" stroke-width="1.417"/>
          <rect id="長方形_1418" data-name="長方形 1418" width="4.908" height="4.908" transform="translate(179.271 74.409)" fill="#ec007f" stroke="#ec007f" stroke-linecap="round" stroke-linejoin="round" stroke-width="1.417"/>
          <rect id="長方形_1419" data-name="長方形 1419" width="4.908" height="4.908" transform="translate(189.798 74.409)" fill="#ec007f" stroke="#ec007f" stroke-linecap="round" stroke-linejoin="round" stroke-width="1.417"/>
          <rect id="長方形_1420" data-name="長方形 1420" width="4.908" height="4.908" transform="translate(200.326 74.409)" fill="#ec007f" stroke="#ec007f" stroke-linecap="round" stroke-linejoin="round" stroke-width="1.417"/>
          <rect id="長方形_1421" data-name="長方形 1421" width="4.908" height="4.908" transform="translate(210.853 74.409)" fill="#ec007f" stroke="#ec007f" stroke-linecap="round" stroke-linejoin="round" stroke-width="1.417"/>
        </g>
        <circle id="楕円形_189" data-name="楕円形 189" cx="7.15" cy="7.15" r="7.15" transform="translate(190.366 46.436)" fill="none" stroke="#ec007f" stroke-linecap="round" stroke-linejoin="round" stroke-width="1.417"/>
        <line id="線_869" data-name="線 869" y2="3.74" transform="translate(197.516 49.956)" fill="none" stroke="#ec007f" stroke-linecap="round" stroke-linejoin="round" stroke-width="1.417"/>
        <line id="線_870" data-name="線 870" x1="3.74" transform="translate(197.56 53.696)" fill="none" stroke="#ec007f" stroke-linecap="round" stroke-linejoin="round" stroke-width="1.417"/>
      </g>
      <g id="グループ_2018" data-name="グループ 2018">
        <circle id="楕円形_190" data-name="楕円形 190" cx="14.729" cy="14.729" r="14.729" transform="translate(196.661 84.849) rotate(-76.717)" fill="#fff" stroke="#ec007f" stroke-linecap="round" stroke-linejoin="round" stroke-width="2.268"/>
        <line id="線_871" data-name="線 871" x2="7.727" y2="7.727" transform="translate(225.755 85.273)" fill="none" stroke="#d9007f" stroke-linecap="round" stroke-linejoin="round" stroke-width="4.819"/>
      </g>
    </g>
  </g>
</svg>
