<svg xmlns="http://www.w3.org/2000/svg" width="431.85" height="56.77" viewBox="0 0 431.85 56.77">
  <g id="グループ_777" data-name="グループ 777" transform="translate(-309.463 -160.139)">
    <text id="パンフレットライブラリー" transform="translate(566.313 184.251)" fill="#fff" font-size="26.653" font-family="HiraginoSans-W3, Hiragino Sans" letter-spacing="0.1em"><tspan x="-174.576" y="0">パンフレットライブラリー</tspan></text>
    <text id="Library" transform="translate(566.633 211.909)" fill="#fff" font-size="19.19" font-family="Helvetica" letter-spacing="0.1em"><tspan x="-35.085" y="0">Library</tspan></text>
    <g id="グループ_776" data-name="グループ 776" transform="translate(-15)">
      <path id="パス_905" data-name="パス 905" d="M389.944,164.52a3.509,3.509,0,0,0-2.626-.925l-2.214.161v-.529a3.089,3.089,0,0,0-3.538-3.055l-23.807,3.508-23.807-3.508a3.089,3.089,0,0,0-3.538,3.055v.534l-2.21-.162a3.484,3.484,0,0,0-3.741,3.475V205.2a2.194,2.194,0,0,0,2,2.183l31.015,2.888,31.554-2.888a2.2,2.2,0,0,0,2.018-2.184V167.071A3.5,3.5,0,0,0,389.944,164.52Zm-59.53,40.627-3.359-.313v-37.76a.894.894,0,0,1,.959-.891l2.4.177Zm2.592-38.6v-3.324a.5.5,0,0,1,.569-.49l17.055,2.512,6.158.907v41.178l-23.782-3.307Zm49.506-2.608v40.084l-23.132,3.217V166.061l5.923-.873,16.641-2.451a.5.5,0,0,1,.568.49Zm5.951,40.889-3.359.307V166.354l2.4-.174a.894.894,0,0,1,.958.891Z" fill="#fff"/>
      <path id="パス_906" data-name="パス 906" d="M349.93,175.036a1.384,1.384,0,0,1-.18-.012l-10.867-1.51a1.3,1.3,0,0,1,.356-2.567l10.868,1.51a1.3,1.3,0,0,1-.177,2.579Z" fill="#fff"/>
      <path id="パス_907" data-name="パス 907" d="M349.93,185.482a1.384,1.384,0,0,1-.18-.012l-10.867-1.51a1.3,1.3,0,0,1,.356-2.567l10.868,1.51a1.3,1.3,0,0,1-.177,2.579Z" fill="#fff"/>
      <path id="パス_908" data-name="パス 908" d="M349.93,196.08a1.23,1.23,0,0,1-.18-.013l-10.867-1.509a1.3,1.3,0,0,1,.356-2.567l10.868,1.509a1.3,1.3,0,0,1-.177,2.58Z" fill="#fff"/>
    </g>
  </g>
</svg>
