<svg xmlns="http://www.w3.org/2000/svg" width="402.651" height="69.653" viewBox="0 0 402.651 69.653">
  <g id="グループ_2603" data-name="グループ 2603" transform="translate(-309.849 -164.594)">
    <g id="グループ_832" data-name="グループ 832" transform="translate(3 -4.5)">
      <g id="グループ_831" data-name="グループ 831">
        <text id="学校資料一括請求" transform="translate(552.151 199.094)" fill="#fff" font-size="34.653" font-family="HiraginoSans-W3, Hiragino Sans" letter-spacing="0.15em"><tspan x="-156.805" y="0">学校資料一括請求</tspan></text>
        <text id="Request" transform="translate(553.311 233.747)" fill="#fff" font-size="19.192" font-family="Helvetica" letter-spacing="0.15em"><tspan x="-44.379" y="0">Request</tspan></text>
        <line id="線_328" data-name="線 328" x2="317" transform="translate(392.5 210.618)" fill="none" stroke="#ff0" stroke-miterlimit="10" stroke-width="0.756"/>
      </g>
    </g>
    <g id="グループ_2184" data-name="グループ 2184" transform="translate(-155.887 124.506)">
      <path id="パス_2827" data-name="パス 2827" d="M475.332,96.736V47.627a4.985,4.985,0,0,1,4.971-4.969h44.192a4.985,4.985,0,0,1,4.971,4.969V91.821a4.985,4.985,0,0,1-4.971,4.969H475.332" transform="translate(1.451)" fill="none" stroke="#fff" stroke-linecap="round" stroke-linejoin="round" stroke-width="3"/>
      <path id="パス_2828" data-name="パス 2828" d="M471.7,69.207h-4.46V84.518c0,4.132,4.081,7.513,9.209,7.513" transform="translate(0 4.76)" fill="none" stroke="#fff" stroke-linecap="round" stroke-linejoin="round" stroke-width="3"/>
      <rect id="長方形_1423" data-name="長方形 1423" width="32.138" height="12.022" rx="0.939" transform="translate(488.125 53.06)" fill="none" stroke="#fff" stroke-linecap="round" stroke-linejoin="round" stroke-width="3"/>
      <line id="線_873" data-name="線 873" x2="32.163" transform="translate(488.125 74.356)" fill="none" stroke="#fff" stroke-linecap="round" stroke-linejoin="round" stroke-width="3"/>
      <line id="線_874" data-name="線 874" x2="32.163" transform="translate(488.125 83.631)" fill="none" stroke="#fff" stroke-linecap="round" stroke-linejoin="round" stroke-width="3"/>
    </g>
  </g>
</svg>
