<svg xmlns="http://www.w3.org/2000/svg" width="187.602" height="43.256" viewBox="0 0 187.602 43.256">
  <g id="グループ_2233" data-name="グループ 2233" transform="translate(-615.213 -2321.725)">
    <rect id="長方形_1483" data-name="長方形 1483" width="187.601" height="43.256" transform="translate(615.212 2321.724)" fill="#ff7b8e"/>
    <text id="学校資料一括請求に追加" transform="translate(655.038 2348.099)" fill="#fff" font-size="12" font-family="HiraginoSans-W3, Hiragino Sans"><tspan x="0" y="0">学校資料一括請求に追加</tspan></text>
    <g id="グループ_2232" data-name="グループ 2232" transform="translate(625.61 2335.105)">
      <path id="パス_3295" data-name="パス 3295" d="M630.3,2353.372v-14.964a1.519,1.519,0,0,1,1.514-1.515H645.28a1.519,1.519,0,0,1,1.514,1.515v13.466a1.519,1.519,0,0,1-1.514,1.514H630.3" transform="translate(-627.389 -2336.894)" fill="none" stroke="#fff" stroke-linecap="round" stroke-linejoin="round" stroke-width="1.155"/>
      <path id="パス_3296" data-name="パス 3296" d="M628.359,2347.71H627v4.666a2.583,2.583,0,0,0,2.807,2.289" transform="translate(-627 -2338.17)" fill="none" stroke="#fff" stroke-linecap="round" stroke-linejoin="round" stroke-width="1.155"/>
      <rect id="長方形_1484" data-name="長方形 1484" width="9.793" height="3.663" rx="0.383" transform="translate(6.365 3.169)" fill="none" stroke="#fff" stroke-linecap="round" stroke-linejoin="round" stroke-width="1.155"/>
      <line id="線_887" data-name="線 887" x2="9.801" transform="translate(6.365 9.659)" fill="none" stroke="#fff" stroke-linecap="round" stroke-linejoin="round" stroke-width="1.155"/>
      <line id="線_888" data-name="線 888" x2="9.801" transform="translate(6.365 12.485)" fill="none" stroke="#fff" stroke-linecap="round" stroke-linejoin="round" stroke-width="1.155"/>
    </g>
  </g>
</svg>
