<svg xmlns="http://www.w3.org/2000/svg" width="296.708" height="450.246" viewBox="0 0 296.708 450.246">
  <g id="グループ_2684" data-name="グループ 2684" transform="translate(-26.792 -2309.471)">
    <rect id="長方形_1804" data-name="長方形 1804" width="296.708" height="450.246" transform="translate(26.792 2309.471)" fill="ivory"/>
    <text id="昭和25年4月16日" transform="translate(39.054 2329.331)" fill="#002380" font-size="12" font-family="HiraginoSans-W3, Hiragino Sans"><tspan x="0" y="0">昭和</tspan><tspan y="0" font-family="Helvetica">25</tspan><tspan y="0">年</tspan><tspan y="0" font-family="Helvetica">4</tspan><tspan y="0">月</tspan><tspan y="0" font-family="Helvetica">16</tspan><tspan y="0">日</tspan></text>
    <text id="昭和37年7月26日" transform="translate(39.054 2410.611)" fill="#002380" font-size="12" font-family="HiraginoSans-W3, Hiragino Sans"><tspan x="0" y="0">昭和</tspan><tspan y="0" font-family="Helvetica">37</tspan><tspan y="0">年</tspan><tspan y="0" font-family="Helvetica">7</tspan><tspan y="0">月</tspan><tspan y="0" font-family="Helvetica">26</tspan><tspan y="0">日</tspan></text>
    <text id="昭和50年7月11日" transform="translate(39.054 2509.812)" fill="#002380" font-size="12" font-family="HiraginoSans-W3, Hiragino Sans"><tspan x="0" y="0">昭和</tspan><tspan y="0" font-family="Helvetica">50</tspan><tspan y="0">年</tspan><tspan y="0" font-family="Helvetica">7</tspan><tspan y="0">月</tspan><tspan y="0" font-family="Helvetica">11</tspan><tspan y="0">日</tspan></text>
    <line id="線_1005" data-name="線 1005" y2="450.001" transform="translate(142.772 2309.499)" fill="none" stroke="#002380" stroke-miterlimit="10" stroke-width="0.755"/>
    <text id="福岡県各種学校連合会_現_一般社団法人福岡県専修学校各種学校協会_設立_社団法人として福岡県教育委員会から許可を受ける_名称も社団法人福岡県各種学校協会へ_専修学校制度_学校教育法の一部改正_公布_社団法人福岡県専修学校各種学校協会へ名称を変更_ホームページ開設_一般社団法人福岡県専修学校各種学校協会へ移行_移行期間終了_公益目的支出計画の完了_" data-name="福岡県各種学校連合会
（現：一般社団法人福岡県専修学校各種学校協会）設立

社団法人として福岡県教育委員会から許可を受ける
名称も社団法人福岡県各種学校協会へ

専修学校制度（学校教育法の一部改正）公布

社団法人福岡県専修学校各種学校協会へ名称を変更

ホームページ開設

一般社団法人福岡県専修学校各種学校協会へ移行

移行期間終了
（公益目的支出計画の完了）" transform="translate(154.538 2318.733)" font-size="12" font-family="HiraginoSans-W3, Hiragino Sans"><tspan x="0" y="11">福岡県各種学校連合会</tspan><tspan y="11" font-family="Helvetica"></tspan><tspan x="0" y="31">（現：一般社団法人福岡県専</tspan><tspan x="0" y="51">修学校各種学校協会）設立</tspan><tspan y="51" font-family="Helvetica"></tspan><tspan font-family="Helvetica"><tspan x="0" y="71"></tspan></tspan><tspan x="0" y="91">社団法人として福岡県教育委</tspan><tspan x="0" y="111">員会から許可を受ける</tspan><tspan y="111" font-family="Helvetica"></tspan><tspan x="0" y="131">名称も社団法人福岡県各種学</tspan><tspan x="0" y="151">校協会へ</tspan><tspan y="151" font-family="Helvetica"></tspan><tspan font-family="Helvetica"><tspan x="0" y="171"></tspan></tspan><tspan x="0" y="191">専修学校制度（学校教育法の</tspan><tspan x="0" y="211">一部改正）公布</tspan><tspan y="211" font-family="Helvetica"></tspan><tspan font-family="Helvetica"><tspan x="0" y="231"></tspan></tspan><tspan x="0" y="251">社団法人福岡県専修学校各種</tspan><tspan x="0" y="271">学校協会へ名称を変更</tspan><tspan y="271" font-family="Helvetica"></tspan><tspan font-family="Helvetica"><tspan x="0" y="291"></tspan></tspan><tspan x="0" y="311">ホームページ開設</tspan><tspan y="311" font-family="Helvetica"></tspan><tspan font-family="Helvetica"><tspan x="0" y="331"></tspan></tspan><tspan x="0" y="351">一般社団法人福岡県専修学校</tspan><tspan x="0" y="371">各種学校協会へ移行</tspan><tspan y="371" font-family="Helvetica"></tspan><tspan font-family="Helvetica"><tspan x="0" y="391"></tspan></tspan><tspan x="0" y="411">移行期間終了</tspan><tspan y="411" font-family="Helvetica"></tspan><tspan x="0" y="431">（公益目的支出計画の完了）</tspan></text>
    <ellipse id="楕円形_196" data-name="楕円形 196" cx="3.119" cy="3.119" rx="3.119" ry="3.119" transform="translate(139.653 2320.982)" fill="#0080ff"/>
    <ellipse id="楕円形_197" data-name="楕円形 197" cx="3.119" cy="3.119" rx="3.119" ry="3.119" transform="translate(139.653 2403.699)" fill="#0080ff"/>
    <ellipse id="楕円形_198" data-name="楕円形 198" cx="3.119" cy="3.119" rx="3.119" ry="3.119" transform="translate(139.653 2502.652)" fill="#0080ff"/>
    <text id="平成30年3月31日" transform="translate(39.054 2730.685)" fill="#002380" font-size="12" font-family="HiraginoSans-W3, Hiragino Sans"><tspan x="0" y="0">平成</tspan><tspan y="0" font-family="Helvetica">30</tspan><tspan y="0">年</tspan><tspan y="0" font-family="Helvetica">3</tspan><tspan y="0">月</tspan><tspan y="0" font-family="Helvetica">31</tspan><tspan y="0">日</tspan></text>
    <ellipse id="楕円形_202" data-name="楕円形 202" cx="3.119" cy="3.119" rx="3.119" ry="3.119" transform="translate(139.653 2721.525)" fill="#0080ff"/>
    <text id="平成24年4月1日" transform="translate(39.054 2670.967)" fill="#002380" font-size="12" font-family="HiraginoSans-W3, Hiragino Sans"><tspan x="0" y="0">平成</tspan><tspan y="0" font-family="Helvetica">24</tspan><tspan y="0">年</tspan><tspan y="0" font-family="Helvetica">4</tspan><tspan y="0">月</tspan><tspan y="0" font-family="Helvetica">1</tspan><tspan y="0">日</tspan></text>
    <ellipse id="楕円形_199" data-name="楕円形 199" cx="3.119" cy="3.119" rx="3.119" ry="3.119" transform="translate(139.653 2564.121)" fill="#0080ff"/>
    <ellipse id="楕円形_200" data-name="楕円形 200" cx="3.119" cy="3.119" rx="3.119" ry="3.119" transform="translate(139.653 2622.589)" fill="#0080ff"/>
    <ellipse id="楕円形_201" data-name="楕円形 201" cx="3.119" cy="3.119" rx="3.119" ry="3.119" transform="translate(139.653 2663.056)" fill="#0080ff"/>
    <text id="昭和51年6月27日" transform="translate(39.054 2569.031)" fill="#002380" font-size="12" font-family="HiraginoSans-W3, Hiragino Sans"><tspan x="0" y="0">昭和</tspan><tspan y="0" font-family="Helvetica">51</tspan><tspan y="0">年</tspan><tspan y="0" font-family="Helvetica">6</tspan><tspan y="0">月</tspan><tspan y="0" font-family="Helvetica">27</tspan><tspan y="0">日</tspan></text>
    <text id="平成11年10月1日" transform="translate(39.054 2629.749)" fill="#002380" font-size="12" font-family="HiraginoSans-W3, Hiragino Sans"><tspan x="0" y="0">平成</tspan><tspan y="0" font-family="Helvetica">11</tspan><tspan y="0">年</tspan><tspan y="0" font-family="Helvetica">10</tspan><tspan y="0">月</tspan><tspan y="0" font-family="Helvetica">1</tspan><tspan y="0">日</tspan></text>
  </g>
</svg>
