<svg xmlns="http://www.w3.org/2000/svg" width="296.983" height="191.076" viewBox="0 0 296.983 191.076">
  <g id="グループ_2786" data-name="グループ 2786" transform="translate(-26.517 -1893.799)">
    <rect id="長方形_1805" data-name="長方形 1805" width="296.983" height="191.076" transform="translate(26.517 1893.799)" fill="ivory"/>
    <rect id="長方形_1807" data-name="長方形 1807" width="157.877" height="108.587" transform="translate(36.259 1952.406)" fill="#b4dcff" stroke="#002380" stroke-miterlimit="10" stroke-width="0.755"/>
    <text id="理事会" transform="translate(80.1 1966.601)" fill="#002380" font-size="9" font-family="HiraginoSans-W3, Hiragino Sans" letter-spacing="0.1em"><tspan x="0" y="0">理事会</tspan></text>
    <rect id="長方形_1808" data-name="長方形 1808" width="100.831" height="82.316" transform="translate(43.14 1971.547)" fill="#0080ff"/>
    <text id="正副会長会" transform="translate(66.211 1986.757)" fill="#fff" font-size="9" font-family="HiraginoSans-W3, Hiragino Sans" letter-spacing="0.1em"><tspan x="0" y="0">正副会長会</tspan></text>
    <path id="パス_4411" data-name="パス 4411" d="M385.871,1670.72v21.767l12.01.125" transform="translate(-292.441 334.728)" fill="none" stroke="#fff" stroke-miterlimit="10" stroke-width="1.133"/>
    <line id="線_1003" data-name="線 1003" x2="59.047" transform="translate(84.923 2005.448)" fill="none" stroke="#fff" stroke-miterlimit="10" stroke-width="1.133"/>
    <g id="グループ_2669" data-name="グループ 2669" transform="translate(50.896 1997.818)">
      <rect id="長方形_838" data-name="長方形 838" width="34.027" height="15.262" transform="translate(0)" fill="#fff"/>
      <text id="会長" transform="translate(15.878 10.71)" fill="#002380" font-size="9" font-family="HiraginoSans-W3, Hiragino Sans" letter-spacing="0.1em"><tspan x="-9.45" y="0">会長</tspan></text>
    </g>
    <g id="グループ_2670" data-name="グループ 2670" transform="translate(100.934 2019.585)">
      <rect id="長方形_839" data-name="長方形 839" width="36.534" height="15.262" transform="translate(0 0)" fill="#fff"/>
      <text id="監事" transform="translate(16.624 10.71)" fill="#002380" font-size="9" font-family="HiraginoSans-W3, Hiragino Sans" letter-spacing="0.1em"><tspan x="-9.45" y="0">監事</tspan></text>
    </g>
    <g id="グループ_2671" data-name="グループ 2671" transform="translate(100.934 1997.818)">
      <rect id="長方形_840" data-name="長方形 840" width="36.534" height="15.262" transform="translate(0)" fill="#fff"/>
      <text id="副会長" transform="translate(17.517 11.71)" fill="#002380" font-size="9" font-family="HiraginoSans-W3, Hiragino Sans" letter-spacing="0.1em"><tspan x="-14.4" y="0">副会長</tspan></text>
    </g>
    <rect id="長方形_1806" data-name="長方形 1806" width="107.297" height="136.359" transform="translate(205.879 1936.473)" fill="#d2efff"/>
    <g id="グループ_2673" data-name="グループ 2673" transform="translate(216.966 1939.686)">
      <g id="グループ_1086" data-name="グループ 1086" transform="translate(0 9.342)">
        <line id="線_454" data-name="線 454" y2="112.59" fill="#b4dcff" stroke="#002380" stroke-linecap="square" stroke-miterlimit="10" stroke-width="1.133"/>
        <path id="パス_1228" data-name="パス 1228" d="M596.373,1574.582h7.756l7.756,4.5,70.968-.029" transform="translate(-596.373 -1574.582)" fill="none" stroke="#002380" stroke-miterlimit="10" stroke-width="1.133"/>
        <path id="パス_1229" data-name="パス 1229" d="M596.373,1606.557h7.756l7.756,4.5,70.95,0" transform="translate(-596.373 -1587.792)" fill="none" stroke="#002380" stroke-miterlimit="10" stroke-width="1.133"/>
        <path id="パス_1230" data-name="パス 1230" d="M596.373,1638.532h7.756l7.756,4.5H682.85" transform="translate(-596.373 -1601.002)" fill="none" stroke="#002380" stroke-miterlimit="10" stroke-width="1.133"/>
        <path id="パス_1231" data-name="パス 1231" d="M596.373,1670.507h7.756l7.756,4.5H682.88" transform="translate(-596.373 -1614.212)" fill="none" stroke="#002380" stroke-miterlimit="10" stroke-width="1.133"/>
        <path id="パス_1232" data-name="パス 1232" d="M596.373,1702.482h7.756l7.756,4.5H682.85" transform="translate(-596.373 -1627.422)" fill="none" stroke="#002380" stroke-miterlimit="10" stroke-width="1.133"/>
        <path id="パス_1233" data-name="パス 1233" d="M596.373,1734.457h7.756l7.756,4.5h70.983" transform="translate(-596.373 -1640.632)" fill="none" stroke="#002380" stroke-miterlimit="10" stroke-width="1.133"/>
        <path id="パス_1234" data-name="パス 1234" d="M596.373,1766.432h7.756l7.756,4.5h71.032" transform="translate(-596.373 -1653.842)" fill="none" stroke="#002380" stroke-miterlimit="10" stroke-width="1.133"/>
      </g>
      <text id="広報委員会" transform="translate(15.762 8)" fill="#002380" font-size="9" font-family="HiraginoSans-W3, Hiragino Sans" letter-spacing="0.1em"><tspan x="0" y="0">広報委員会</tspan></text>
      <text id="体育委員会" transform="translate(15.762 26.765)" fill="#002380" font-size="9" font-family="HiraginoSans-W3, Hiragino Sans" letter-spacing="0.1em"><tspan x="0" y="0">体育委員会</tspan></text>
      <text id="留学生委員会" transform="translate(15.762 46.28)" fill="#002380" font-size="9" font-family="HiraginoSans-W3, Hiragino Sans" letter-spacing="0.1em"><tspan x="0" y="0">留学生委員会</tspan></text>
      <text id="研修部会" transform="translate(15.762 64.295)" fill="#002380" font-size="9" font-family="HiraginoSans-W3, Hiragino Sans" letter-spacing="0.1em"><tspan x="0" y="0">研修部会</tspan></text>
      <text id="人権部会" transform="translate(15.762 83.06)" fill="#002380" font-size="9" font-family="HiraginoSans-W3, Hiragino Sans" letter-spacing="0.1em"><tspan x="0" y="0">人権部会</tspan></text>
      <text id="高専部会" transform="translate(15.762 101.825)" fill="#002380" font-size="9" font-family="HiraginoSans-W3, Hiragino Sans" letter-spacing="0.1em"><tspan x="0" y="0">高専部会</tspan></text>
      <text id="組織拡大部会" transform="translate(15.762 121.59)" fill="#002380" font-size="9" font-family="HiraginoSans-W3, Hiragino Sans" letter-spacing="0.1em"><tspan x="0" y="0">組織拡大部会</tspan></text>
      <line id="線_455" data-name="線 455" x2="70.97" transform="translate(15.512 11.844)" fill="none" stroke="#39b54a" stroke-miterlimit="10" stroke-width="1.813"/>
      <line id="線_456" data-name="線 456" x2="70.97" transform="translate(15.512 30.609)" fill="none" stroke="#39b54a" stroke-miterlimit="10" stroke-width="1.813"/>
      <line id="線_457" data-name="線 457" x2="70.97" transform="translate(15.512 49.374)" fill="none" stroke="#39b54a" stroke-miterlimit="10" stroke-width="1.813"/>
      <line id="線_458" data-name="線 458" x2="70.97" transform="translate(15.512 68.139)" fill="none" stroke="#f7931e" stroke-miterlimit="10" stroke-width="1.813"/>
      <line id="線_459" data-name="線 459" x2="70.97" transform="translate(15.512 86.904)" fill="none" stroke="#f7931e" stroke-miterlimit="10" stroke-width="1.813"/>
      <path id="パス_4412" data-name="パス 4412" d="M0,0H71.01" transform="translate(15.512 105.669)" fill="none" stroke="#f7931e" stroke-width="1.813"/>
      <path id="パス_4413" data-name="パス 4413" d="M0,0H71.01" transform="translate(15.512 124.434)" fill="none" stroke="#f7931e" stroke-width="1.813"/>
    </g>
    <line id="線_1004" data-name="線 1004" x2="73.012" transform="translate(143.971 2005.448)" fill="none" stroke="#002380" stroke-miterlimit="10" stroke-width="1.133"/>
    <g id="グループ_2672" data-name="グループ 2672" transform="translate(151.727 1997.818)">
      <rect id="長方形_841" data-name="長方形 841" width="34.027" height="15.262" transform="translate(0)" fill="#fff"/>
      <text id="理事" transform="translate(15.878 10.71)" fill="#002380" font-size="9" font-family="HiraginoSans-W3, Hiragino Sans" letter-spacing="0.1em"><tspan x="-9.45" y="0">理事</tspan></text>
    </g>
    <g id="グループ_2674" data-name="グループ 2674" transform="translate(205.778 1906.854)">
      <g id="グループ_1088" data-name="グループ 1088" transform="translate(0 0)">
        <text id="会員_正会員_賛助会員_" data-name="会員
（正会員・賛助会員）" transform="translate(54 9)" fill="#0080ff" font-size="9" font-family="HiraginoSans-W3, Hiragino Sans" letter-spacing="0.1em"><tspan x="-9.9" y="0">会員</tspan><tspan y="0" font-family="Helvetica"></tspan><tspan x="-49.05" y="15">（正会員・賛助会員）</tspan></text>
      </g>
    </g>
  </g>
</svg>
