<svg xmlns="http://www.w3.org/2000/svg" xmlns:xlink="http://www.w3.org/1999/xlink" width="142" height="77" viewBox="0 0 142 77">
  <defs>
    <linearGradient id="linear-gradient" x1="0.742" y1="1.274" x2="0.258" y2="-0.274" gradientUnits="objectBoundingBox">
      <stop offset="0" stop-color="#06a2ef"/>
      <stop offset="0.117" stop-color="#0ea6ef"/>
      <stop offset="0.309" stop-color="#27b1f2"/>
      <stop offset="0.551" stop-color="#4fc4f6"/>
      <stop offset="0.83" stop-color="#85defb"/>
      <stop offset="1" stop-color="#aaf0ff"/>
    </linearGradient>
  </defs>
  <g id="グループ_53" data-name="グループ 53" transform="translate(-26.2 -559.83)">
    <rect id="長方形_11" data-name="長方形 11" width="142" height="77" transform="translate(26.2 559.83)" fill="url(#linear-gradient)"/>
    <g id="グループ_36" data-name="グループ 36" transform="translate(1023.371 442)">
      <g id="グループ_34" data-name="グループ 34" transform="translate(0 1)">
        <path id="パス_77" data-name="パス 77" d="M-945.954,154.852a22.5,22.5,0,0,1-22.5,22.5,22.5,22.5,0,0,1-22.5-22.5,22.5,22.5,0,0,1,22.5-22.5,22.5,22.5,0,0,1,22.5,22.5" fill="#003893"/>
        <path id="パス_78" data-name="パス 78" d="M-947,154.926A21.372,21.372,0,0,1-968.378,176.3a21.372,21.372,0,0,1-21.373-21.373,21.372,21.372,0,0,1,21.373-21.372A21.372,21.372,0,0,1-947,154.926" transform="translate(-0.074 -0.074)" fill="#fff"/>
        <path id="パス_79" data-name="パス 79" d="M-947,154.926A21.372,21.372,0,0,1-968.378,176.3a21.372,21.372,0,0,1-21.373-21.373,21.372,21.372,0,0,1,21.373-21.372A21.372,21.372,0,0,1-947,154.926Z" transform="translate(-0.074 -0.074)" fill="none" stroke="#073890" stroke-miterlimit="10" stroke-width="0.427"/>
        <path id="パス_80" data-name="パス 80" d="M-967.877,142.169a13.526,13.526,0,0,0-13.1,10.144c-2.2.233-3.722.921-3.891,1.948-.183,1.12,1.267,2.365,3.6,3.326a21.518,21.518,0,0,0,4.684,1.289c4.863.8,9.038.024,9.326-1.727a1.315,1.315,0,0,0-.092-.7c-.417-1.054-2.069-2.143-4.388-2.955a1.986,1.986,0,0,1-.427-1.509c.419-2.133,5.483-2.937,11.312-1.794a25.073,25.073,0,0,1,6.013,1.937,13.526,13.526,0,0,0-13.044-9.957" transform="translate(-0.374 -0.604)" fill="#003893"/>
        <path id="パス_81" data-name="パス 81" d="M-968.591,169.372a13.527,13.527,0,0,0,13.542-9.539c2.214-.134,3.76-.753,3.974-1.772.235-1.11-1.157-2.418-3.445-3.486a21.66,21.66,0,0,0-4.622-1.5c-4.822-1.018-9.027-.434-9.394,1.3a1.33,1.33,0,0,0,.059.706c.369,1.073,1.971,2.234,4.251,3.152a1.984,1.984,0,0,1,.359,1.525c-.515,2.111-5.612,2.686-11.383,1.281a25.148,25.148,0,0,1-5.919-2.207,13.525,13.525,0,0,0,12.577,10.537" transform="translate(-0.603 -1.245)" fill="#003893"/>
        <path id="パス_82" data-name="パス 82" d="M-978.83,139.919l3.081-1.829.147.246-3.083,1.83Z" transform="translate(-0.747 -0.353)" fill="#040000"/>
        <path id="パス_83" data-name="パス 83" d="M-973.425,137.4l-.174.082.458,1.4c.082.25-.026.3-.449.44a.978.978,0,0,0-.141-.182c.163-.049.3-.1.34-.108s.055-.035.041-.083l-.448-1.366-.671.312a3.189,3.189,0,0,1,.2,1.649.8.8,0,0,0-.215-.06,2.838,2.838,0,0,0-.18-1.5l-.134.061a.07.07,0,0,1-.032.068l-.167-.226.264-.115-.382-1.165.316-.1a3.821,3.821,0,0,0-.019-.563l.332-.019c0,.023-.024.048-.066.061,0,.122-.008.3-.023.449l.572-.189.343,1.047.17-.076Zm-1.418-.654.308.94.674-.3-.284-.868Zm.6.624a1.982,1.982,0,0,0-.374-.446l.137-.114a1.683,1.683,0,0,1,.388.434Zm.282.478c0,.023-.007.043-.05.061l.271.827-.168.055-.291-.885Zm.62-1.985.091.282a1.154,1.154,0,0,1-.07,1.013.89.89,0,0,0-.226-.093.926.926,0,0,0,.071-.853l-.162-.5,1.061-.349.286.876c.041.125.053.137.127.114l.115-.038c.033-.01.069-.022.08-.038.043-.046.006-.16-.066-.4a.566.566,0,0,0,.216.04c.1.328.147.5-.143.591l-.184.06c-.26.085-.314-.076-.379-.274l-.206-.632Zm1.422.976.178.01a.09.09,0,0,1-.02.05A2.48,2.48,0,0,1-972,138.1a2.214,2.214,0,0,0,.971.149,1.107,1.107,0,0,0-.085.257,2.365,2.365,0,0,1-1-.193,2.67,2.67,0,0,1-.693.754.954.954,0,0,0-.208-.164,2.372,2.372,0,0,0,.678-.7,2.648,2.648,0,0,1-.771-.667l.157-.1-.312.1-.073-.223,1.39-.455Zm-1.012.59a2.24,2.24,0,0,0,.7.573,2.13,2.13,0,0,0,.222-.875Z" transform="translate(-0.975 -0.185)" fill="#040000"/>
        <path id="パス_84" data-name="パス 84" d="M-969.343,135.5c0,.015-.023.032-.042.043a3.985,3.985,0,0,1-.466.961c.2.105.6.346.709.414l-.133.23c-.118-.1-.384-.278-.587-.409l.152,1.579-.257.024-.144-1.483a3.9,3.9,0,0,1-.556.563,1.012,1.012,0,0,0-.16-.214,3.668,3.668,0,0,0,1.138-1.524l-1.174.114-.023-.239.642-.061-.07-.736.336-.014c0,.028-.022.05-.072.061l.065.663.417-.04.044-.021Zm1.332,2.275.931-.089.025.253-2.2.214-.024-.254,1.009-.1-.162-1.667-.854.083-.025-.251.855-.083-.122-1.263.344-.009c0,.027-.022.048-.076.062l.115,1.185.851-.084.023.252-.85.082Z" transform="translate(-1.236 -0.139)" fill="#040000"/>
        <path id="パス_85" data-name="パス 85" d="M-966.131,134.7l3.247.391-.408,3.385-.267-.031.023-.181-2.728-.329-.023.181-.253-.03Zm-.1,2.985,2.728.329.328-2.705-2.73-.329Zm2.8-1.708-.028.231-.592-.071-.156,1.289c-.036.3-.186.282-.784.21a1.1,1.1,0,0,0-.05-.236c.114.018.226.032.314.042.237.029.265.031.273-.045l.157-1.291-1.5-.181.027-.231,1.5.181.065-.545.318.057c-.007.023-.029.039-.08.042l-.058.476Zm-1.706,1.091a2.59,2.59,0,0,0-.386-.795l.2-.076a2.576,2.576,0,0,1,.4.78Z" transform="translate(-1.504 -0.144)" fill="#040000"/>
        <path id="パス_86" data-name="パス 86" d="M-962.6,138.387a12.948,12.948,0,0,0,1.094-.959c.1.176.115.2.128.217a12.214,12.214,0,0,1-1.009.916.126.126,0,0,1,0,.059.072.072,0,0,1-.034.037Zm.747-2.141a3.356,3.356,0,0,1,.626.6l-.207.164a3.312,3.312,0,0,0-.61-.621Zm3.083,1.673-.085.237-1.419-.5.115.091a.1.1,0,0,1-.1.008,11.4,11.4,0,0,1-.835.892c.391.114.847.249,1.3.376a6.4,6.4,0,0,0-.226-.7l.247-.037a5.28,5.28,0,0,1,.368,1.308l-.277.05a2.71,2.71,0,0,0-.052-.367c-.692-.182-1.412-.383-1.863-.509a.072.072,0,0,1-.073.031v-.328l.308.093a9.149,9.149,0,0,0,.882-.986l-.781-.276.083-.236,1.051.371.253-.72-.872-.307.082-.234.873.308.217-.613.328.139a.092.092,0,0,1-.108.041l-.184.521.891.313-.084.234-.891-.314-.252.72Zm-2.52-2.62a3.134,3.134,0,0,1,.6.643l-.214.154a3.249,3.249,0,0,0-.587-.663Z" transform="translate(-1.746 -0.181)" fill="#040000"/>
        <path id="パス_87" data-name="パス 87" d="M-955.6,138.075c-.016.026-.052.026-.1.006l-.067.091a3.58,3.58,0,0,0-.114,3.489.847.847,0,0,0-.283.081,3.285,3.285,0,0,1-.164-2.872l0,0a3.274,3.274,0,0,1-2.607,1.138.893.893,0,0,0-.072-.279c1.8.168,2.814-1.441,3.113-1.869Z" transform="translate(-1.967 -0.339)" fill="#040000"/>
        <path id="パス_88" data-name="パス 88" d="M-985.449,160.441l-.054.194a.079.079,0,0,1-.048-.041,3.968,3.968,0,0,1-1.013-.263c-.077.188-.252.565-.3.67l-.268-.088c.08-.115.211-.363.311-.556l-1.576.411-.065-.252,1.468-.383a3.473,3.473,0,0,1-.542-.353.934.934,0,0,0,.19-.2,3.545,3.545,0,0,0,1.6.743l-.267-1.026.236-.062.142.54.726-.19.065.33c-.027,0-.052-.011-.072-.059l-.654.17.1.368Zm-2.78.954,1.7-.443.512,1.964-1.682.44-.066-.252.169-.044-.383-1.469-.184.049Zm.468.138.159.6.428-.112-.158-.6Zm.221.846.162.623.428-.113-.162-.623Zm1-.519-.157-.6-.421.11.159.6Zm-.194.973.42-.11-.163-.623-.42.11Zm1.473-1.973.4,1.521-.936.245-.4-1.521Zm-.392,1.47.517-.134-.273-1.047-.517.134Zm.815-1.912.566,2.164-.226.059-.564-2.165Z" transform="translate(-0.153 -1.656)" fill="#040000"/>
        <path id="パス_89" data-name="パス 89" d="M-982.659,165.981l-2.779,1.424c-.3.152-.385,0-.664-.556a.881.881,0,0,0,.177-.193c.042.093.09.184.128.259.054.1.095.186.115.215.034.064.062.077.129.041l2.552-1.308-1.268-2.472-2.85,1.463-.116-.228,3.075-1.577Zm-2.955.693-.109-.21.2-.1-.639-1.245-.249.129-.106-.207,1.2-.617.122.283c-.026.008-.054,0-.08-.044l-.686.352.261.506,1.032-.529-.471-.922.2-.1,1.1,2.137-.2.105-.48-.935c-.021,0-.039-.016-.065-.048l-1,.513.267.521.75-.383.125.285c-.026.009-.054,0-.084-.041Zm1-2.188a2.008,2.008,0,0,0,.426-.56l.168.154a1.915,1.915,0,0,1-.416.572Zm1.243,1.041c-.025,0-.049-.019-.068-.054a6.045,6.045,0,0,1-.7-.023c-.006-.046-.014-.165-.022-.216a4.155,4.155,0,0,0,.741-.025Z" transform="translate(-0.229 -1.891)" fill="#040000"/>
        <path id="パス_90" data-name="パス 90" d="M-983.62,169.046A.08.08,0,0,1-983.7,169a4.614,4.614,0,0,1-1.178-.247,2.741,2.741,0,0,0,0-.275,3.246,3.246,0,0,0,1.14.238Zm-.054-.91,1.964,2.38-.187.153-1.049-1.272-.876.723L-984,169.9l.876-.721-.738-.894-.089.072-.168-.2,1.775-1.465.2.282c-.024.014-.053.011-.09-.029Zm3.318.652-1.41,1.164-1.387-1.682,1.41-1.163Zm-2.524,2.39a8.717,8.717,0,0,0,0-1.223l.249.078a8.39,8.39,0,0,1,.028,1.217Zm1.1-1.558.268-.221-1.059-1.285-.268.222Zm.418-.343.265-.22-1.059-1.284-.266.218Zm.415-.343.266-.219-1.06-1.284-.266.218Z" transform="translate(-0.374 -2.115)" fill="#040000"/>
        <path id="パス_91" data-name="パス 91" d="M-978.377,173.456l-.145.183-.721-.565-.4.512c-.1.121-.168.155-.292.108a2.876,2.876,0,0,1-.568-.4.962.962,0,0,0,.078-.24c.125.1.24.2.328.267.18.142.2.16.251.1l.4-.51-1.894-1.485.144-.184,1.894,1.486.2-.258-1.561-1.226.8-1.022.966.757.18-.23-1.227-.963.143-.18,1.227.963.2-.257.252.228c-.02.019-.047.023-.093,0l-.154.2,1.253.983-.141.18-1.253-.982-.18.23,1,.784-.8,1.023-.56-.44,0,0,.2.175c-.021.019-.049.023-.094,0l-.159.2Zm-2.457-.646a3.143,3.143,0,0,0-.149-.842l.245.008a3.148,3.148,0,0,1,.171.831Zm.715-1.847-.219.28.768.6.22-.28Zm.334-.426-.215.275.768.6.215-.273Zm1.215,2.095.22-.28-.793-.622-.221.28Zm.554-.707-.793-.621-.215.274.793.622Z" transform="translate(-0.592 -2.295)" fill="#040000"/>
        <path id="パス_92" data-name="パス 92" d="M-976.812,173.164a4.6,4.6,0,0,1-.649.389,2.24,2.24,0,0,0-.006-.288,5.416,5.416,0,0,0,1.559-1.227l.237.225c-.022.02-.053.022-.1,0a7.377,7.377,0,0,1-.614.572l.07.065c-.02.023-.045.028-.09.013l-1.151,2.385-.232-.112Zm.971-.6.273.152c-.014.019-.04.029-.09.014l-1.071,2.218-.214-.1Zm1.366,3.2a.078.078,0,0,1-.082-.01,3.55,3.55,0,0,1-2.172-.074.869.869,0,0,0-.031-.256,3.323,3.323,0,0,0,2.078.117Zm-.183-.593a.08.08,0,0,1-.078,0,3.266,3.266,0,0,1-1.518.035,1.015,1.015,0,0,0-.052-.228,2.846,2.846,0,0,0,1.462,0Zm1.029-1.313-.3-.142a2.092,2.092,0,0,1-.812.41,3.074,3.074,0,0,0,.765.8.969.969,0,0,0-.228.128,3.216,3.216,0,0,1-.77-.876,3.548,3.548,0,0,1-1.138-.015,1.273,1.273,0,0,0-.046-.25,3.3,3.3,0,0,0,1.071.046,2.1,2.1,0,0,1-.193-.663,2.82,2.82,0,0,1-.5.214,1.318,1.318,0,0,0-.1-.22,3.053,3.053,0,0,0,1.174-.7l.235.215a.079.079,0,0,1-.093-.006c-.086.076-.181.154-.277.226l1.31.632Zm-1.208.8a.068.068,0,0,1-.073,0,3.02,3.02,0,0,1-1.164.053.964.964,0,0,0-.068-.213,2.628,2.628,0,0,0,1.116-.038Zm-.22-1.489-.024.014a2,2,0,0,0,.221.735,1.935,1.935,0,0,0,.69-.321Z" transform="translate(-0.811 -2.444)" fill="#040000"/>
        <path id="パス_93" data-name="パス 93" d="M-970.086,176.454l-.057.243-1.6-.377-.176.747c-.077.323-.263.283-.974.115a1.332,1.332,0,0,0-.052-.28c.194.053.366.1.489.128.223.053.25.058.271-.026l.175-.746-1.578-.373.058-.242,1.577.371.078-.334.179.054a3.331,3.331,0,0,0,.644-.235l-1.674-.394.054-.231,1.948.459.05,0,.171.174a.082.082,0,0,1-.067.022,4.27,4.27,0,0,1-1.085.416l-.034.138Zm-2.774-2.112-.144.619-.247-.058.2-.854.6.141a2.858,2.858,0,0,0-.223-.584l.238-.054a2.539,2.539,0,0,1,.26.643l-.125.032.816.192a2.873,2.873,0,0,0-.166-.661l.243-.032a2.563,2.563,0,0,1,.183.693l-.148.024.673.16a4.551,4.551,0,0,0,.591-.526,1.605,1.605,0,0,1,.275.2.077.077,0,0,1-.088.011,5.593,5.593,0,0,1-.482.387l.628.148-.2.855-.254-.061.146-.618Z" transform="translate(-1.07 -2.538)" fill="#040000"/>
        <path id="パス_94" data-name="パス 94" d="M-968.367,175.694c.121.152.446.632.519.748l-.159.207c-.064-.14-.234-.424-.364-.639l-.033,1.909-.248,0,.032-1.956a4.359,4.359,0,0,1-.557,1.188,1.068,1.068,0,0,0-.138-.235,4.648,4.648,0,0,0,.673-1.547l-.573-.009,0-.25.6.011.014-.87.327.029c0,.022-.028.043-.079.049l-.014.8.5.008,0,.249-.5-.008Zm1.17.288a3.2,3.2,0,0,0,.433.842,2.628,2.628,0,0,0,.418-.847l.327.081a.086.086,0,0,1-.087.045,2.97,2.97,0,0,1-.494.925,2.539,2.539,0,0,0,1.008.721,1.187,1.187,0,0,0-.19.229,2.768,2.768,0,0,1-.991-.746,2.967,2.967,0,0,1-1.107.717,1.188,1.188,0,0,0-.138-.212,2.726,2.726,0,0,0,1.087-.706,3.707,3.707,0,0,1-.5-.984Zm.207-.605a.079.079,0,0,1-.075.03,3.19,3.19,0,0,1-.674.847,1.574,1.574,0,0,0-.183-.165,2.554,2.554,0,0,0,.641-.836Zm1.383-.48,0,.246-2.214-.037,0-.245.96.015.011-.6.339.029c0,.027-.023.048-.08.054l-.007.522Zm-.192,1.361a4.035,4.035,0,0,0-.648-.884l.211-.115a4.2,4.2,0,0,1,.662.869Z" transform="translate(-1.333 -2.58)" fill="#040000"/>
        <path id="パス_95" data-name="パス 95" d="M-962.4,174.094l.221.077a.089.089,0,0,1-.039.049,3.585,3.585,0,0,1-.762,1.188,5.251,5.251,0,0,0,1.735.309,1.15,1.15,0,0,0-.118.27,5.163,5.163,0,0,1-.516-.042l.267,1.333-.264.053-.033-.16-1.813.364.035.171-.255.052-.272-1.353a5.506,5.506,0,0,1-.507.284.846.846,0,0,0-.183-.206,5.826,5.826,0,0,0,1.478-.99,4.159,4.159,0,0,1-.828-.527,4.126,4.126,0,0,1-.581.641,1.478,1.478,0,0,0-.22-.145,3.7,3.7,0,0,0,1.056-1.47l.323.06c-.007.025-.039.045-.084.046a3.355,3.355,0,0,1-.146.315l1.462-.294Zm-1.659.592-.052.083a3.591,3.591,0,0,0,.874.538,3.388,3.388,0,0,0,.654-.917Zm1.963,1.225a5.221,5.221,0,0,1-1.076-.307,5.909,5.909,0,0,1-.879.7Zm-1.67,1.389,1.813-.364-.155-.77-1.814.363Z" transform="translate(-1.595 -2.565)" fill="#040000"/>
        <path id="パス_96" data-name="パス 96" d="M-960.016,174.619c.152.054.6.256.714.316l-.066.253a4.558,4.558,0,0,0-.541-.324l.7,1.592-.235.1-.722-1.635a4.371,4.371,0,0,1-.039,1.183,1.167,1.167,0,0,0-.226-.16,4.324,4.324,0,0,0,.037-1.445l-.526.231-.1-.227.561-.249-.275-.621c-.145.123-.3.242-.441.351a.662.662,0,0,0-.159-.143,4.8,4.8,0,0,0,.921-.878l.295.087c-.019.025-.026.028-.067.046a2.922,2.922,0,0,1-.345.36l.306.694.474-.208.1.227-.473.209Zm2.259.859.976-.433.091.207-2.214.976-.091-.206,1-.442-.139-.315-.811.358-.087-.2.81-.357-.113-.258-.735.326-.513-1.166.733-.323-.111-.253-.893.394-.09-.2.894-.394-.138-.311c-.242.145-.495.287-.733.413a.75.75,0,0,0-.142-.153,9.912,9.912,0,0,0,1.561-1.008l.283.091a.061.061,0,0,1-.034.033.229.229,0,0,1-.031.008,5.813,5.813,0,0,1-.682.479l.15.344.941-.416.089.2-.94.413.112.253.767-.338.514,1.166-.767.338.113.257.835-.369.088.2-.836.368Zm-1.521-1.418.133.3.513-.226-.132-.3Zm.348.789.513-.226-.135-.308-.513.226Zm.937-1.355-.536.236.133.3.535-.236Zm.348.788-.135-.308-.535.236.135.308Z" transform="translate(-1.824 -2.45)" fill="#040000"/>
        <path id="パス_97" data-name="パス 97" d="M-957.03,172.327l.376.513-.2.149-.519-.708.5-.364a2.863,2.863,0,0,0-.59-.209l.116-.217a2.537,2.537,0,0,1,.655.22l-.057.114.676-.494a2.775,2.775,0,0,0-.609-.3l.133-.2a2.563,2.563,0,0,1,.645.311l-.076.13.557-.41a5,5,0,0,0-.017-.791,1.768,1.768,0,0,1,.328-.08c0,.027-.014.054-.048.074a5.9,5.9,0,0,1-.019.617l.52-.381.518.708-.209.153-.377-.512Zm3.4-.737.146.2-1.322.969.453.617c.2.267.045.383-.542.815a1.4,1.4,0,0,0-.247-.142c.166-.113.313-.215.414-.29.185-.135.207-.151.156-.222l-.454-.617-1.305.958-.147-.2,1.306-.96-.2-.276.156-.1a3.223,3.223,0,0,0,.24-.641l-1.386,1.016-.14-.191,1.612-1.183.029-.039.243-.017a.094.094,0,0,1-.026.064,4.3,4.3,0,0,1-.389,1.093l.083.115Z" transform="translate(-2.062 -2.318)" fill="#040000"/>
        <path id="パス_98" data-name="パス 98" d="M-953.1,169.787c.193.008.769.072.9.092l.056.254c-.148-.041-.474-.1-.723-.136l1.43,1.26-.165.188-1.466-1.293a4.311,4.311,0,0,1,.542,1.194,1,1,0,0,0-.268-.046,4.62,4.62,0,0,0-.739-1.516l-.378.429-.188-.165.4-.453-.652-.574.236-.23c.015.018.013.049-.015.093l.6.525.332-.375.186.165-.331.375Zm1.186-2.614.183.162-1.463,1.658-.184-.162.636-.719-.45-.4.242-.239c.018.022.021.05-.01.1l.39.346Zm-.534,1.363a.077.077,0,0,1-.025.077,3.155,3.155,0,0,1,.206,1.061,1.572,1.572,0,0,0-.245.033,2.554,2.554,0,0,0-.218-1.03Zm.326.551a3.207,3.207,0,0,0,.922.216,2.617,2.617,0,0,0-.374-.865l.273-.2a.086.086,0,0,1-.022.1,2.908,2.908,0,0,1,.382.973,2.519,2.519,0,0,0,1.2-.3,1.092,1.092,0,0,0,.053.293,2.791,2.791,0,0,1-1.212.269,2.95,2.95,0,0,1-.172,1.306,1.247,1.247,0,0,0-.252-.033,2.733,2.733,0,0,0,.17-1.283,3.713,3.713,0,0,1-1.072-.261Zm1.118-.885a4.052,4.052,0,0,0-1.094-.08l.051-.235a4.092,4.092,0,0,1,1.089.06Z" transform="translate(-2.255 -2.145)" fill="#040000"/>
        <path id="パス_99" data-name="パス 99" d="M-950.449,166.1l-.233.42,2.056,1.142-.125.225-2.057-1.142-.247.446-.218-.12.248-.446-.935-.518.178-.281c.023.017.031.043.012.092l.868.482.235-.422Zm.309-2.308c.019.016.04.033.061.053.849.57.84.637.631,1.01a2.243,2.243,0,0,1-.13.221.576.576,0,0,0-.236-.049c.1-.141.175-.274.2-.329a.16.16,0,0,0,.03-.124c-.021-.079-.156-.2-.518-.446l-.375.678a1.472,1.472,0,0,1,.382,1.356.736.736,0,0,0-.23.031,1.263,1.263,0,0,0-.277-1.162l-.353.635-.193-.107.381-.688a2.991,2.991,0,0,0-.368-.264l.179-.275c.025.018.03.052.013.1.105.071.2.145.3.22l.384-.692.023-.055Zm.8,1.934.071-.105a6.19,6.19,0,0,1,1.193.843c.038.094.042.15-.15.473a.5.5,0,0,0-.219-.053c.063-.1.113-.177.135-.22a.1.1,0,0,0,.008-.1c-.032-.082-.255-.24-.9-.63l-.171.308a2.029,2.029,0,0,1,.9,1.162.586.586,0,0,0-.216.057,1.749,1.749,0,0,0-.794-1.014l-.193.349-.191-.106.2-.366c-.114-.077-.238-.15-.36-.222l.17-.259c.026.02.026.052.013.093.1.059.194.122.29.185l.19-.343Zm.652-1.166.064-.109a6.559,6.559,0,0,1,1.206.818c.048.1.039.162-.161.5a.769.769,0,0,0-.228-.053,2.653,2.653,0,0,0,.15-.247.1.1,0,0,0,.012-.1,3.713,3.713,0,0,0-.906-.606l-.182.328a2,2,0,0,1,.885,1.182.746.746,0,0,0-.226.055,1.688,1.688,0,0,0-.772-1.034l-.185.332-.19-.106.194-.35c-.116-.077-.235-.148-.361-.221l.174-.266c.024.023.026.052.01.1.1.059.194.121.291.184Z" transform="translate(-2.402 -1.937)" fill="#040000"/>
        <path id="パス_100" data-name="パス 100" d="M-949.7,161.146a.1.1,0,0,1,.033.1,4.536,4.536,0,0,0,1.774-1.273,1.117,1.117,0,0,0,.178.231,4.958,4.958,0,0,1-1.817,1.255,4.731,4.731,0,0,1,.864,2.01,1.2,1.2,0,0,0-.249.087,4.254,4.254,0,0,0-.918-2.038Zm.844,1.5.546-1.839.238.071-.545,1.839Zm.785.939-.243-.072.946-3.181.243.072-.542,1.823.028-.041c.023.02.026.053.014.1a9.726,9.726,0,0,1,.748.708c.138-.508.294-1.1.446-1.683a6.588,6.588,0,0,0-.735.389l-.053-.252a5.432,5.432,0,0,1,1.286-.616l.076.269a3.207,3.207,0,0,0-.321.107c-.224.937-.472,1.927-.633,2.539a.065.065,0,0,1,.034.077l-.33,0c.047-.16.1-.347.153-.558a8.78,8.78,0,0,0-.806-.73Z" transform="translate(-2.533 -1.701)" fill="#040000"/>
      </g>
      <g id="グループ_35" data-name="グループ 35" transform="translate(-2)">
        <text id="協会について" transform="translate(-900.371 150.108)" fill="#fff" stroke="#fff" stroke-miterlimit="10" stroke-width="0.206" font-size="13" font-family="HeiseiKakuGoStd-W7, Heisei Kaku Gothic Std" letter-spacing="0.075em"><tspan x="-41.438" y="0">協会について</tspan></text>
        <text id="事業内容のご案内_ごあいさつ" data-name="事業内容のご案内・
ごあいさつ" transform="translate(-899.087 166.269)" fill="#fff" font-size="9" font-family="HeiseiKakuGoStd-W7, Heisei Kaku Gothic Std" letter-spacing="0.025em"><tspan x="-41.4" y="0">事業内容のご案内・</tspan><tspan x="-22.95" y="11">ごあいさつ</tspan></text>
        <line id="線_7" data-name="線 7" x2="82" transform="translate(-940.871 155.632)" fill="none" stroke="#fff" stroke-miterlimit="10" stroke-width="0.425"/>
      </g>
    </g>
  </g>
</svg>
