<svg xmlns="http://www.w3.org/2000/svg" width="142.426" height="77.426" viewBox="0 0 142.426 77.426">
  <g id="グループ_54" data-name="グループ 54" transform="translate(-180.158 -559.617)">
    <g id="グループ_41" data-name="グループ 41" transform="translate(1023.371 442)">
      <path id="パス_101" data-name="パス 101" d="M-835.611,170.068h21.688v12.278h-21.688Zm-.853,14.834h23.4a1.62,1.62,0,0,0,1.618-1.618V169.517a1.621,1.621,0,0,0-1.618-1.622h-23.4a1.619,1.619,0,0,0-1.616,1.622v13.767a1.618,1.618,0,0,0,1.616,1.618" fill="#37bed2"/>
      <path id="パス_102" data-name="パス 102" d="M-828.073,189.689l.835-1.129h5.288l.835,1.129Zm18.5-.3-2.884-2.561a1.131,1.131,0,0,0-.735-.257h-23.15a1.127,1.127,0,0,0-.734.257l-2.884,2.561a.656.656,0,0,0-.24.493v.893a.442.442,0,0,0,.484.377h29.9a.444.444,0,0,0,.484-.377v-.893a.666.666,0,0,0-.24-.493" fill="#37bed2"/>
    </g>
    <g id="グループ_42" data-name="グループ 42" transform="translate(1023.371 442)">
      <path id="パス_103" data-name="パス 103" d="M-785.5,180.716h.178l2.477,2.219v1.005H-785.5Zm-10.52,3.213,4.092-3.213h4.911v3.224h-5.09Zm18.674.011H-779.3l-5.434-4.865h-7.715l-6.193,4.865-5.1,1a1.245,1.245,0,0,0-1.09,1.237v3.834h3.414a3.506,3.506,0,0,1,3.507-3.507,3.507,3.507,0,0,1,3.509,3.507h8.534a3.506,3.506,0,0,1,3.507-3.507,3.507,3.507,0,0,1,3.509,3.507h2.465v-5.12a.949.949,0,0,0-.949-.948" fill="#ffc30f"/>
      <path id="パス_104" data-name="パス 104" d="M-782.367,188.017a1.992,1.992,0,0,0-1.99,1.991,1.99,1.99,0,0,0,1.99,1.992,1.993,1.993,0,0,0,1.991-1.992,2,2,0,0,0-1.991-1.991" fill="#ffc30f"/>
      <path id="パス_105" data-name="パス 105" d="M-797.916,188.017a1.992,1.992,0,0,0-1.991,1.991A1.991,1.991,0,0,0-797.916,192a1.992,1.992,0,0,0,1.99-1.992,1.994,1.994,0,0,0-1.99-1.991" fill="#ffc30f"/>
    </g>
    <path id="パス_106" data-name="パス 106" d="M-798.739,168.28h-1.3v-1.3h1.3Zm0,2.607h-1.3v-1.3h1.3Zm0,2.607h-1.3v-1.3h1.3Zm0,2.61h-1.3v-1.3h1.3Zm-2.609-7.824h-1.3v-1.3h1.3Zm0,2.607h-1.3v-1.3h1.3Zm0,2.607h-1.3v-1.3h1.3Zm-2.608-5.214h-1.3v-1.3h1.3Zm0,2.607h-1.3v-1.3h1.3Zm0,2.607h-1.3v-1.3h1.3Zm0,2.61h-1.3v-1.3h1.3ZM-807,165.235v12.608h4.348V174.8h1.3v3.042H-797V165.235Z" transform="translate(1023.371 442)" fill="#a8806d"/>
    <g id="グループ_43" data-name="グループ 43" transform="translate(1023.371 442)">
      <path id="パス_107" data-name="パス 107" d="M-713.807,186.955a1.572,1.572,0,0,1-1.573-1.571,1.573,1.573,0,0,1,1.573-1.573,1.572,1.572,0,0,1,1.571,1.573,1.572,1.572,0,0,1-1.571,1.571m1.888-3.86a.907.907,0,0,1-.01-.436,5.769,5.769,0,0,1,.819-2.218,2.572,2.572,0,0,0-1.45-.879l-.14-.018c-.243.636-.622,1.486-.9,2.267a1.231,1.231,0,0,1-.327.557,3.27,3.27,0,0,1-.7.221,2.916,2.916,0,0,0-2.094,2.795,2.908,2.908,0,0,0,2.911,2.906,2.905,2.905,0,0,0,2.908-2.906,2.9,2.9,0,0,0-.836-2.041.691.691,0,0,1-.184-.248" fill="#ffa5a0"/>
      <path id="パス_108" data-name="パス 108" d="M-707.52,186.954a1.571,1.571,0,0,1-1.573-1.569,1.574,1.574,0,0,1,1.573-1.575,1.574,1.574,0,0,1,1.573,1.575,1.571,1.571,0,0,1-1.573,1.569m-3.142-8.568a.55.55,0,0,1-.552-.548.55.55,0,0,1,.552-.55.549.549,0,0,1,.548.55.548.548,0,0,1-.548.548m5.465,8.745a2.908,2.908,0,0,0,.586-1.746,2.912,2.912,0,0,0-2.094-2.795,3.3,3.3,0,0,1-.7-.222,1.218,1.218,0,0,1-.327-.557c-.4-1.122-1.011-2.4-1.128-2.954,0,0-.788-10.453-.946-11.787s-.392-1.808-.861-1.808-.708.471-.867,1.808-.943,11.787-.943,11.787,2.476.276,3.07,3.8a.862.862,0,0,1-.006.433.685.685,0,0,1-.185.249,2.893,2.893,0,0,0-.836,2.042,2.907,2.907,0,0,0,2.909,2.9,2.88,2.88,0,0,0,1.5-.415A5.06,5.06,0,0,0-704.193,189l.471-.865a3.917,3.917,0,0,1-1.475-1" fill="#ffa5a0"/>
      <path id="パス_109" data-name="パス 109" d="M-719.741,165.471h-5.3a.623.623,0,0,0-.62.621v1.24a.522.522,0,0,0,.522.522h3.8a.9.9,0,0,1,.9.895.9.9,0,0,1-.9.893h-3.8a.522.522,0,0,0-.522.522v.55a.523.523,0,0,0,.522.521h3.8a.9.9,0,0,1,.9.894.9.9,0,0,1-.9.9h-3.8a.523.523,0,0,0-.522.522v.55a.523.523,0,0,0,.522.521h3.8a.9.9,0,0,1,.9.894.9.9,0,0,1-.9.893h-3.8a.523.523,0,0,0-.522.521v.55a.523.523,0,0,0,.522.522h3.8a.9.9,0,0,1,.9.9.9.9,0,0,1-.9.894h-3.8a.523.523,0,0,0-.522.521v.55a.522.522,0,0,0,.522.522h3.8a.9.9,0,0,1,.9.9.893.893,0,0,1-.9.891h-3.8a.523.523,0,0,0-.522.523v.55a.523.523,0,0,0,.522.523h3.8a.893.893,0,0,1,.9.89.9.9,0,0,1-.9.9h-3.8a.523.523,0,0,0-.522.523v1.1a.621.621,0,0,0,.62.621h5.3a1.621,1.621,0,0,0,1.619-1.617V167.091a1.622,1.622,0,0,0-1.619-1.62" fill="#ffa5a0"/>
    </g>
    <g id="グループ_44" data-name="グループ 44" transform="translate(1023.371 442)">
      <path id="パス_110" data-name="パス 110" d="M-751.136,168.139a1.476,1.476,0,0,0,1.476-1.477,1.476,1.476,0,0,0-1.476-1.477,1.477,1.477,0,0,0-1.477,1.477,1.477,1.477,0,0,0,1.477,1.477" fill="#7873b4"/>
      <path id="パス_111" data-name="パス 111" d="M-751.608,171.72v-2.361h.848v2.361l-.451.531Zm5.488.92c0-.028,0-.06-.007-.089l2.2-1.6a.309.309,0,0,0,.069-.434.307.307,0,0,0-.252-.13.306.306,0,0,0-.182.06l-2.209,1.6a.645.645,0,0,0-.268-.061h-1.2l-.292-1.658c-.16-.836-.5-1.493-1.211-1.493h-3.034A1.659,1.659,0,0,0-754,170.333V175.3a.647.647,0,0,0,.647.646h.453l.247,4.234a.689.689,0,0,0,.69.689h1.378a.688.688,0,0,0,.689-.689l.323-8.385h.019l.184.819a.8.8,0,0,0,.791.676h1.814a.648.648,0,0,0,.645-.648" fill="#7873b4"/>
      <path id="パス_112" data-name="パス 112" d="M-747.309,165.7v5.394h.85v-4.547h9.612v8.107h-9.612v-1.022h-.85v1.87H-736v-9.8Z" fill="#7873b4"/>
    </g>
    <path id="パス_113" data-name="パス 113" d="M-756.131,186.667l-4.186-8.213a3.057,3.057,0,0,1-.189-2.315l.649-2.039a.709.709,0,0,1,.67-.5l1.283-.016a.715.715,0,0,0,.676-.512l.647-2.189a.713.713,0,0,0-.466-.885l-2.694-.855a2.966,2.966,0,0,0-2.645.433l-2.106,1.547-2.117-1.551a2.942,2.942,0,0,0-2.632-.435L-772,170a.717.717,0,0,0-.47.885l.649,2.186a.711.711,0,0,0,.673.512l1.348.016a.705.705,0,0,1,.669.5l.652,2.039a3.062,3.062,0,0,1-.189,2.315l-4.185,8.213a.918.918,0,0,0,.033.9.917.917,0,0,0,.781.436h15.092a.921.921,0,0,0,.783-.436.929.929,0,0,0,.034-.9" transform="translate(1023.371 442)" fill="#ff49a0"/>
    <path id="パス_114" data-name="パス 114" d="M-732.527,188.635a1.47,1.47,0,0,1-.429,1.035,1.463,1.463,0,0,1-1.032.427,1.466,1.466,0,0,1-1.035-.427,1.469,1.469,0,0,1-.428-1.035,1.468,1.468,0,0,1,.428-1.034,1.476,1.476,0,0,1,1.035-.428,1.472,1.472,0,0,1,1.032.428,1.469,1.469,0,0,1,.429,1.034M-736.038,180a1.155,1.155,0,0,1,1.012-1.278,1.156,1.156,0,0,1,1.276,1.013,1.15,1.15,0,0,1-1.009,1.277A1.153,1.153,0,0,1-736.038,180m-1.9,2.082a1.1,1.1,0,0,1-1.53-.25,1.1,1.1,0,0,1,.251-1.531,1.1,1.1,0,0,1,1.529.25,1.1,1.1,0,0,1-.25,1.531m-1.989,6.561a.987.987,0,0,1-1.4.038.987.987,0,0,1-.038-1.4.987.987,0,0,1,1.4-.039.988.988,0,0,1,.039,1.4m-1.993-4.791a1.04,1.04,0,0,1,1.316-.661,1.041,1.041,0,0,1,.662,1.318,1.042,1.042,0,0,1-1.316.661,1.043,1.043,0,0,1-.662-1.318m10.2-3.961a1.213,1.213,0,0,1,.853-.354,1.217,1.217,0,0,1,.853.354,1.222,1.222,0,0,1,.354.854,1.216,1.216,0,0,1-.354.853,1.217,1.217,0,0,1-.853.354,1.213,1.213,0,0,1-.853-.354,1.208,1.208,0,0,1-.355-.853,1.214,1.214,0,0,1,.355-.854m.791,3.343c3.107-.275,3.747-1.737,2.832-3.108-1.643-2.463-5.275-3.432-8.938-2.319-4.612,1.4-7.663,5.663-6.814,9.517s5.273,5.844,9.885,4.443a10.565,10.565,0,0,0,4.93-3.174c.493-.571.665-2.343-1.622-2.252-2.435.1-2.774-2.886-.273-3.107" transform="translate(1023.371 442)" fill="#ff5400"/>
    <g id="グループ_45" data-name="グループ 45" transform="translate(1023.371 442)">
      <path id="パス_115" data-name="パス 115" d="M-787.663,168.312a1.253,1.253,0,0,0,1.253-1.254,1.253,1.253,0,0,0-1.253-1.255,1.255,1.255,0,0,0-1.254,1.255,1.254,1.254,0,0,0,1.254,1.254" fill="#50e191"/>
      <path id="パス_116" data-name="パス 116" d="M-779.19,174.872l-5.208-6.347,2.065-2.108a.71.71,0,0,0,.037-1.005.709.709,0,0,0-1-.037l-6.474,5.7a.711.711,0,0,0-.038,1,.713.713,0,0,0,1,.038l2.26-1.693,1.188,1.216-.941,1.18a1.185,1.185,0,0,0,.144,1.482l2.361,1.968a.758.758,0,0,0,1.07.009.758.758,0,0,0,.009-1.072l-1.933-1.709,1.133-1.121,3.191,3.5a.754.754,0,0,0,1.067.066.755.755,0,0,0,.067-1.068" fill="#50e191"/>
      <path id="パス_117" data-name="パス 117" d="M-786.975,176.861a.9.9,0,0,1-.641.266.892.892,0,0,1-.639-.266.892.892,0,0,1-.266-.64.894.894,0,0,1,.266-.64.888.888,0,0,1,.639-.266.9.9,0,0,1,.641.266.9.9,0,0,1,.265.64.9.9,0,0,1-.265.64m-.641-2.241a1.592,1.592,0,0,0-1.131.468,1.589,1.589,0,0,0-.47,1.133,1.592,1.592,0,0,0,.47,1.133,1.593,1.593,0,0,0,1.131.469,1.6,1.6,0,0,0,1.134-.469,1.6,1.6,0,0,0,.468-1.133,1.6,1.6,0,0,0-.468-1.133,1.6,1.6,0,0,0-1.134-.468" fill="#50e191"/>
    </g>
    <rect id="長方形_29" data-name="長方形 29" width="142" height="43.17" transform="translate(180.371 559.83)" fill="#ffe1f5"/>
    <text id="専門学校検索" transform="translate(252.631 597.112)" fill="#ec007f" stroke="#ec007f" stroke-linecap="round" stroke-linejoin="round" stroke-width="0.197" font-size="13.887" font-family="HiraginoSans-W3, Hiragino Sans" letter-spacing="0.075em"><tspan x="-44.266" y="0">専門学校検索</tspan></text>
    <g id="グループ_46" data-name="グループ 46" transform="translate(1023.371 442)">
      <path id="パス_118" data-name="パス 118" d="M-726.117,134.836h-59.56l-4.158,4.275.031-4.275h-27.92a2.037,2.037,0,0,1-2.036-2.036v-8.55a2.037,2.037,0,0,1,2.036-2.036h91.607a2.036,2.036,0,0,1,2.035,2.036v8.55A2.036,2.036,0,0,1-726.117,134.836Z" fill="#fff" stroke="#ec007f" stroke-miterlimit="10" stroke-width="0.407"/>
      <text id="自分に合った学校を見つけよう_" data-name="自分に合った学校を見つけよう！" transform="translate(-770.445 130.897)" fill="#ec007f" font-size="6.018" font-family="HeiseiKakuGoStd-W7, Heisei Kaku Gothic Std" letter-spacing="0.075em"><tspan x="-48.293" y="0">自分に合った学校を見つけよう！</tspan></text>
    </g>
    <rect id="長方形_30" data-name="長方形 30" width="142" height="77" transform="translate(180.371 559.83)" fill="none" stroke="#ec007f" stroke-miterlimit="10" stroke-width="0.426"/>
    <line id="線_13" data-name="線 13" x2="97" transform="translate(204.371 603)" fill="none" stroke="#ec007f" stroke-miterlimit="10" stroke-width="0.709"/>
  </g>
</svg>
