<svg xmlns="http://www.w3.org/2000/svg" width="20.799" height="17.016" viewBox="0 0 20.799 17.016">
  <g id="グループ_2784" data-name="グループ 2784" transform="translate(-307.265 -275.375)">
    <path id="パス_4414" data-name="パス 4414" d="M814.913,2078.493h-2.66v-5.41a.386.386,0,0,0-.325-.426H806.3a.386.386,0,0,0-.325.426v5.41h-2.652c-.184,0-.265.3-.121.454l5.509,5.078a.533.533,0,0,0,.807,0l5.516-5.084C815.174,2078.793,815.094,2078.493,814.913,2078.493Z" transform="translate(-491.485 -1796.657)" fill="none" stroke="#fff" stroke-linecap="round" stroke-linejoin="round" stroke-width="1.25"/>
    <path id="パス_4415" data-name="パス 4415" d="M803.494,2125.172v3.636a1.868,1.868,0,0,1-1.862,1.863H785.808a1.869,1.869,0,0,1-1.863-1.863v-3.635" transform="translate(-476.055 -1838.904)" fill="none" stroke="#fff" stroke-linecap="round" stroke-linejoin="round" stroke-width="1.25"/>
  </g>
</svg>
