<svg xmlns="http://www.w3.org/2000/svg" width="22.632" height="17.015" viewBox="0 0 22.632 17.015">
  <g id="グループ_66" data-name="グループ 66" transform="translate(-27.684 -217.615)">
    <path id="パス_144" data-name="パス 144" d="M49.636,233.251l-10.73.982-10.542-.982a.3.3,0,0,1-.283-.3V219.938a.747.747,0,0,1,.8-.745l10.023.737,10.212-.738a.746.746,0,0,1,.8.745v13.009A.3.3,0,0,1,49.636,233.251Z" fill="#fff" stroke="#002380" stroke-linecap="round" stroke-linejoin="round" stroke-width="0.794"/>
    <path id="パス_145" data-name="パス 145" d="M47.889,232.932,39,234.168l-8.889-1.236V218.625a.612.612,0,0,1,.7-.6L39,219.226l8.188-1.206a.612.612,0,0,1,.7.6Z" fill="#fff" stroke="#002380" stroke-linecap="round" stroke-linejoin="round" stroke-width="0.794"/>
    <line id="線_25" data-name="線 25" y2="14.535" transform="translate(39.111 219.492)" fill="none" stroke="#002380" stroke-linecap="round" stroke-linejoin="round" stroke-width="0.794"/>
  </g>
</svg>
