<svg xmlns="http://www.w3.org/2000/svg" width="22.444" height="17.313" viewBox="0 0 22.444 17.313">
  <g id="グループ_86" data-name="グループ 86" transform="translate(-27.654 -452.669)">
    <g id="グループ_84" data-name="グループ 84">
      <path id="パス_157" data-name="パス 157" d="M47.019,467.051a2.705,2.705,0,0,1-1.758.646H30.869a2.719,2.719,0,0,1-2.719-2.719v-9.094a2.719,2.719,0,0,1,2.719-2.719H45.261a2.719,2.719,0,0,1,2.719,2.719v4.58" fill="none" stroke="#002380" stroke-linecap="round" stroke-linejoin="round" stroke-width="0.992"/>
      <line id="線_37" data-name="線 37" x2="19.83" transform="translate(28.15 469.486)" fill="none" stroke="#002380" stroke-linecap="round" stroke-linejoin="round" stroke-width="0.992"/>
    </g>
    <path id="パス_158" data-name="パス 158" d="M48.323,462.74l-4.135-1.853,1.853,4.135.733-.733,2.26,2.26.817-.817-2.26-2.26Z" fill="none" stroke="#002380" stroke-linecap="round" stroke-linejoin="round" stroke-width="0.496"/>
    <g id="グループ_85" data-name="グループ 85">
      <path id="パス_159" data-name="パス 159" d="M42.748,463.472l-4.664.427-4.582-.427a.133.133,0,0,1-.123-.132v-5.654a.325.325,0,0,1,.349-.324l4.356.32,4.439-.321a.325.325,0,0,1,.348.324v5.655A.133.133,0,0,1,42.748,463.472Z" fill="#fff" stroke="#002380" stroke-linecap="round" stroke-linejoin="round" stroke-width="0.496"/>
      <path id="パス_160" data-name="パス 160" d="M41.988,463.333l-3.863.538-3.863-.538v-6.218a.266.266,0,0,1,.3-.263l3.559.524,3.559-.524a.266.266,0,0,1,.3.263Z" fill="#fff" stroke="#002380" stroke-linecap="round" stroke-linejoin="round" stroke-width="0.496"/>
      <line id="線_38" data-name="線 38" y2="6.317" transform="translate(38.173 457.492)" fill="none" stroke="#002380" stroke-linecap="round" stroke-linejoin="round" stroke-width="0.347"/>
      <line id="線_39" data-name="線 39" x2="1.612" y2="0.224" transform="translate(35.352 458.45)" fill="none" stroke="#002380" stroke-linecap="round" stroke-linejoin="round" stroke-width="0.347"/>
      <line id="線_40" data-name="線 40" x2="1.612" y2="0.224" transform="translate(35.352 460)" fill="none" stroke="#002380" stroke-linecap="round" stroke-linejoin="round" stroke-width="0.347"/>
      <line id="線_41" data-name="線 41" x2="1.612" y2="0.224" transform="translate(35.352 461.571)" fill="none" stroke="#002380" stroke-linecap="round" stroke-linejoin="round" stroke-width="0.347"/>
    </g>
  </g>
</svg>
