<svg xmlns="http://www.w3.org/2000/svg" width="22.432" height="17.792" viewBox="0 0 22.432 17.792">
  <g id="グループ_82" data-name="グループ 82" transform="translate(-27.784 -412.983)">
    <path id="パス_154" data-name="パス 154" d="M47.9,428.428h1.47a.318.318,0,0,0,.318-.279,5.52,5.52,0,0,0,.032-.578c0-2.658-.989-5.938-3.921-6.865a3.459,3.459,0,0,0,1.666-3.253c0-2.039-1.37-3.974-3.409-3.974a2.5,2.5,0,0,0-.773.128" fill="none" stroke="#002380" stroke-linecap="round" stroke-linejoin="round" stroke-width="0.992"/>
    <path id="パス_155" data-name="パス 155" d="M34.876,413.668a2.522,2.522,0,0,0-.932-.189c-2.039,0-3.409,1.935-3.409,3.974a3.463,3.463,0,0,0,1.633,3.236c-3.1.9-3.888,4.206-3.888,6.882a5.207,5.207,0,0,0,.032.575.32.32,0,0,0,.32.282h1.819" fill="none" stroke="#002380" stroke-linecap="round" stroke-linejoin="round" stroke-width="0.992"/>
    <path id="パス_156" data-name="パス 156" d="M45.439,430.279l.164-.161c.017-3.11-1.128-6.983-4.571-8.071,1.641-.881,2.228-2.794,1.9-4.872a4.078,4.078,0,0,0-3.506-3.483c-2.6-.283-4.447,2.046-4.447,4.562a4.067,4.067,0,0,0,1.95,3.772c-3.668,1.068-4.562,5.028-4.532,8.172l.083.081Z" fill="none" stroke="#002380" stroke-linecap="round" stroke-linejoin="round" stroke-width="0.992"/>
  </g>
</svg>
