<svg xmlns="http://www.w3.org/2000/svg" width="20.48" height="16.841" viewBox="0 0 20.48 16.841">
  <g id="グループ_75" data-name="グループ 75" transform="translate(-28.76 -139.81)">
    <path id="パス_149" data-name="パス 149" d="M43.627,144.038v-2.869a.863.863,0,0,0-.863-.863H35.232a.86.86,0,0,0-.859.859v2.873H30.119a.864.864,0,0,0-.863.864V155.3a.859.859,0,0,0,.859.859h17.77a.859.859,0,0,0,.859-.859V144.9a.857.857,0,0,0-.857-.857Z" fill="#fff" stroke="#002380" stroke-linecap="round" stroke-linejoin="round" stroke-width="0.992"/>
    <g id="グループ_74" data-name="グループ 74">
      <rect id="長方形_1598" data-name="長方形 1598" width="1.709" height="1.709" transform="translate(32.645 148.919)" fill="#002380" stroke="#002380" stroke-linecap="round" stroke-linejoin="round" stroke-width="0.496"/>
      <rect id="長方形_1599" data-name="長方形 1599" width="1.709" height="1.709" transform="translate(36.312 148.919)" fill="#002380" stroke="#002380" stroke-linecap="round" stroke-linejoin="round" stroke-width="0.496"/>
      <rect id="長方形_1600" data-name="長方形 1600" width="1.709" height="1.709" transform="translate(39.979 148.919)" fill="#002380" stroke="#002380" stroke-linecap="round" stroke-linejoin="round" stroke-width="0.496"/>
      <rect id="長方形_1601" data-name="長方形 1601" width="1.709" height="1.709" transform="translate(43.646 148.919)" fill="#002380" stroke="#002380" stroke-linecap="round" stroke-linejoin="round" stroke-width="0.496"/>
      <rect id="長方形_1602" data-name="長方形 1602" width="1.709" height="1.709" transform="translate(32.645 152.014)" fill="#002380" stroke="#002380" stroke-linecap="round" stroke-linejoin="round" stroke-width="0.496"/>
      <rect id="長方形_1603" data-name="長方形 1603" width="1.709" height="1.709" transform="translate(36.312 152.014)" fill="#002380" stroke="#002380" stroke-linecap="round" stroke-linejoin="round" stroke-width="0.496"/>
      <rect id="長方形_1604" data-name="長方形 1604" width="1.709" height="1.709" transform="translate(39.979 152.014)" fill="#002380" stroke="#002380" stroke-linecap="round" stroke-linejoin="round" stroke-width="0.496"/>
      <rect id="長方形_1605" data-name="長方形 1605" width="1.709" height="1.709" transform="translate(43.646 152.014)" fill="#002380" stroke="#002380" stroke-linecap="round" stroke-linejoin="round" stroke-width="0.496"/>
    </g>
    <circle id="楕円形_4" data-name="楕円形 4" cx="2.491" cy="2.491" r="2.491" transform="translate(36.509 142.271)" fill="none" stroke="#002380" stroke-linecap="round" stroke-linejoin="round" stroke-width="0.496"/>
    <line id="線_32" data-name="線 32" y2="1.303" transform="translate(39 143.497)" fill="none" stroke="#002380" stroke-linecap="round" stroke-linejoin="round" stroke-width="0.496"/>
    <line id="線_33" data-name="線 33" x1="1.303" transform="translate(39.015 144.8)" fill="none" stroke="#002380" stroke-linecap="round" stroke-linejoin="round" stroke-width="0.496"/>
  </g>
</svg>
