<svg xmlns="http://www.w3.org/2000/svg" width="319.288" height="78.897" viewBox="0 0 319.288 78.897">
  <g id="グループ_2784" data-name="グループ 2784" transform="translate(-14.721 -66.009)">
    <g id="グループ_355" data-name="グループ 355" transform="translate(14.721 66.009)">
      <rect id="長方形_251" data-name="長方形 251" width="319.288" height="78.897" transform="translate(0)" fill="#002380"/>
    </g>
    <g id="グループ_2546" data-name="グループ 2546" transform="translate(2 12)">
      <g id="グループ_705" data-name="グループ 705" transform="translate(125.046 80.879)">
        <text id="専門学校_イベント情報" data-name="専門学校×イベント情報" transform="translate(65 8)" fill="#fff" font-size="16" font-family="HiraginoSans-W3, Hiragino Sans" letter-spacing="0.15em"><tspan x="-94.752" y="0">専門学校</tspan><tspan y="0" font-family="Helvetica">×</tspan><tspan y="0">イベント情報</tspan></text>
        <text id="School_events" data-name="School events" transform="translate(64.93 29.823)" fill="#fff" font-size="12" font-family="Helvetica" letter-spacing="0.15em"><tspan x="-48.49" y="0">School events</tspan></text>
        <line id="線_253" data-name="線 253" x2="198" transform="translate(-33.546 14.531)" fill="none" stroke="#ff0" stroke-miterlimit="10" stroke-width="0.756"/>
      </g>
      <g id="グループ_2180" data-name="グループ 2180" transform="translate(56.799 81.913)">
        <g id="グループ_2037" data-name="グループ 2037" transform="translate(1.437 2.71)">
          <line id="線_880" data-name="線 880" y2="20.713" fill="none" stroke="#fff" stroke-linecap="round" stroke-linejoin="round" stroke-width="1.5"/>
          <g id="グループ_2036" data-name="グループ 2036" transform="translate(2.217 0.958)">
            <path id="パス_2836" data-name="パス 2836" d="M407.549,44.787l-4.765,7.566,4.765,7.566H389.677a1.668,1.668,0,0,1-1.667-1.667v-11.8a1.667,1.667,0,0,1,1.667-1.667Z" transform="translate(-388.01 -44.787)" fill="none" stroke="#fff" stroke-linecap="round" stroke-linejoin="round" stroke-width="1.5"/>
          </g>
        </g>
        <circle id="楕円形_193" data-name="楕円形 193" cx="1.437" cy="1.437" r="1.437" transform="translate(0 0)" fill="#fff" stroke="#fff" stroke-linecap="round" stroke-linejoin="round" stroke-width="1.5"/>
      </g>
    </g>
  </g>
</svg>
