<svg xmlns="http://www.w3.org/2000/svg" width="73.399" height="68.101" viewBox="0 0 73.399 68.101">
  <g id="グループ_2525" data-name="グループ 2525" transform="translate(-28 -302)">
    <g id="パス_2838" data-name="パス 2838" transform="translate(28 302)" fill="#fff">
      <path d="M 67.35140991210938 67.35141754150391 L 0.7500012516975403 67.35141754150391 L 0.7500012516975403 0.7500049471855164 L 67.35140991210938 0.7500049471855164 L 67.35140991210938 29.18779563903809 L 67.35140991210938 29.50837516784668 L 67.5831298828125 29.72990417480469 L 72.32445526123047 34.26276779174805 L 67.57314300537109 38.97738647460938 L 67.35140991210938 39.19740676879883 L 67.35140991210938 39.509765625 L 67.35140991210938 67.35141754150391 Z" stroke="none"/>
      <path d="M 1.499992370605469 1.499992370605469 L 1.499992370605469 66.60140228271484 L 66.60140228271484 66.60140228271484 L 66.60140228271484 39.50975799560547 L 66.60140228271484 38.88502502441406 L 67.04486083984375 38.44499206542969 L 71.24958038330078 34.27275466918945 L 67.06484985351562 30.27201461791992 L 66.60140228271484 29.82894897460938 L 66.60140228271484 29.18779373168945 L 66.60140228271484 1.499992370605469 L 1.499992370605469 1.499992370605469 M -7.62939453125e-06 -7.62939453125e-06 L 68.10140228271484 -7.62939453125e-06 L 68.10140228271484 29.18779373168945 L 73.39931488037109 34.25277328491211 L 68.10140228271484 39.50975799560547 L 68.10140228271484 68.10140228271484 L -7.62939453125e-06 68.10140228271484 L -7.62939453125e-06 -7.62939453125e-06 Z" stroke="none" fill="#032380"/>
    </g>
    <text id="学校の_詳細を_チェック_" data-name="学校の
詳細を
チェック！" transform="translate(35.727 325.165)" fill="#032380" font-size="11" font-family="HiraginoSans-W3, Hiragino Sans"><tspan x="0" y="0">学校の</tspan><tspan y="0" font-family="Helvetica"></tspan><tspan x="0" y="15">詳細を</tspan><tspan y="15" font-family="Helvetica"></tspan><tspan x="0" y="30">チェック！</tspan></text>
  </g>
</svg>
