<svg xmlns="http://www.w3.org/2000/svg" width="15.799" height="17.736" viewBox="0 0 15.799 17.736">
  <path id="パス_4458" data-name="パス 4458" d="M249.161,234.455l-3.907-7.666a2.847,2.847,0,0,1-.176-2.161l.6-1.9a.663.663,0,0,1,.626-.466l1.2-.015a.667.667,0,0,0,.631-.478l.6-2.044a.665.665,0,0,0-.435-.826l-2.514-.8a2.771,2.771,0,0,0-2.47.4l-1.966,1.444-1.976-1.448a2.748,2.748,0,0,0-2.457-.406l-2.576.807a.669.669,0,0,0-.439.826l.606,2.041a.664.664,0,0,0,.628.478l1.258.015a.66.66,0,0,1,.625.466l.608,1.9a2.855,2.855,0,0,1-.177,2.161l-3.906,7.666a.854.854,0,0,0,.759,1.245H248.4a.854.854,0,0,0,.763-1.245" transform="translate(-233.455 -217.963)" fill="#fd49a0"/>
</svg>
