<svg xmlns="http://www.w3.org/2000/svg" width="34.891" height="38.357" viewBox="0 0 34.891 38.357">
  <g id="グループ_383" data-name="グループ 383" transform="translate(-183.615 -364.545)">
    <g id="グループ_382" data-name="グループ 382">
      <circle id="楕円形_39" data-name="楕円形 39" cx="7.447" cy="7.447" r="7.447" transform="translate(193.614 364.923)" fill="none" stroke="#0080ff" stroke-miterlimit="10" stroke-width="0.756"/>
      <g id="グループ_380" data-name="グループ 380">
        <path id="パス_422" data-name="パス 422" d="M201.117,402.457l-13.339-2.184a1.539,1.539,0,0,1-1.291-1.52v-16.16a1.081,1.081,0,0,1,1.274-1.064l13.356,2.43Z" fill="none" stroke="#0080ff" stroke-miterlimit="10" stroke-width="0.756"/>
        <path id="パス_423" data-name="パス 423" d="M201.136,402.457l13.209-2.182a1.541,1.541,0,0,0,1.29-1.52V382.6a1.081,1.081,0,0,0-1.276-1.063l-13.223,2.427Z" fill="none" stroke="#0080ff" stroke-miterlimit="10" stroke-width="0.756"/>
      </g>
      <g id="グループ_381" data-name="グループ 381">
        <path id="パス_424" data-name="パス 424" d="M187.287,393.876h-.907a2.387,2.387,0,0,1-2.387-2.386v-1.815a2.387,2.387,0,0,1,2.387-2.386h.907a3.293,3.293,0,0,1,3.294,3.293h0A3.294,3.294,0,0,1,187.287,393.876Z" fill="#fff" stroke="#0080ff" stroke-miterlimit="10" stroke-width="0.756"/>
        <path id="パス_425" data-name="パス 425" d="M215.741,393.876h-.907a3.293,3.293,0,0,1-3.293-3.294h0a3.293,3.293,0,0,1,3.293-3.293h.907a2.387,2.387,0,0,1,2.387,2.386v1.815A2.387,2.387,0,0,1,215.741,393.876Z" fill="#fff" stroke="#0080ff" stroke-miterlimit="10" stroke-width="0.756"/>
      </g>
    </g>
  </g>
</svg>
