<svg xmlns="http://www.w3.org/2000/svg" width="114.074" height="114.074" viewBox="0 0 114.074 114.074">
  <g id="グループ_2600" data-name="グループ 2600" transform="translate(-295.912 -662.055)">
    <g id="長方形_284" data-name="長方形 284" transform="translate(295.912 662.055)" fill="#0080ff" stroke="#fff" stroke-miterlimit="10" stroke-width="1.133">
      <rect width="114.074" height="114.074" stroke="none"/>
      <rect x="0.567" y="0.567" width="112.941" height="112.941" fill="none"/>
    </g>
    <path id="パス_438" data-name="パス 438" d="M340.682,751.19h.913l.684-.558.8-1.227a1.285,1.285,0,0,1,0-1.339c.456-.558.456-1.45,1.026-1.9a14.722,14.722,0,0,1,1.6-1s1.483.112,1.939-.557-.684-1,.684-1.562a15.132,15.132,0,0,0,2.509-1.339l2.052-.67h1.026v-1l2.509-2.789a16.943,16.943,0,0,1,2.965.669c.684.335,1.589.223,2.106.67s1.542.111,2.113.557a5.965,5.965,0,0,0,2.052.67,3.343,3.343,0,0,1,1.14.558c.342.335,1.53.334,2.395,1v-1.227l.684-.67,1.141-1.227s-.457-.67,0-1-.229-1.228,0-1.674a2.345,2.345,0,0,0-.343-2.032c-.456-.757-.182-.98-.49-1.315a15.245,15.245,0,0,1-.992-1.45,4.209,4.209,0,0,1-.637-1.786c-.047-.892-.22-2.231-.248-2.677a12.1,12.1,0,0,1,.771-2.343s-.248-1.228-.523-2.12a3.025,3.025,0,0,1-.249-1.451,3.1,3.1,0,0,1,1.043-2.283.968.968,0,0,0,.22-.616.818.818,0,0,1,.649-.84,8.836,8.836,0,0,0,.875-.329,2.229,2.229,0,0,0,1.265-1.3.987.987,0,0,1,.483-.545c.8-.449,1.482-2.137,1.71-2.409a13.418,13.418,0,0,0,.8-1.387l1.255-1.022a7.5,7.5,0,0,1,1.368-1.057,4.562,4.562,0,0,1,2.167-.822,10.046,10.046,0,0,0,2.622,0c.57-.224,1.254.111,1.824,0a9.52,9.52,0,0,1,2.281-.079c.342.079,1.482-.157,1.824-.039a5.683,5.683,0,0,0,1.483-.034h1.14l1.368-.518s.913-.558,1.027-.892a6.971,6.971,0,0,0,0-1.562s-.355-1.562.05-2.12-.063-1.9,0-2.232.167-1.339.167-1.339V697.2l-.1-.115-3.547-1.012h-3.842l-1.774-1.88-1.477-1.3-2.66-5.014-.2-4.313s.1-.412-3.251-1.374-1.281-1.832-1.774-2.8.1-.962.591-1.446.591-.963,1.379-2.987.69-1.833.69-2.607,1.577-3.371,1.577-3.371l-3.843.578-.394.054c-.393.052-.789,1.586-.985,1.876s-.4,1.349-.789,1.734-1.576.29-1.576.29l-1.478-.387a16.436,16.436,0,0,1-.394-1.927c0-.386-.985-.651-.985-.651s-2.74,1.539-3.054,1.8a4.033,4.033,0,0,1-.4-.961l.592-1.735s-2.266-.1-3.252,0a8.773,8.773,0,0,0-2.955.892,3.671,3.671,0,0,1-2.463,0h-3.054s-4.828,4.216-5.124,4.216-1.97.579-2.365.579-4.432-.579-4.432-.579l-5.025,6.172.3,1.734.69,1.446s-.788,3.279-.985,3.568a33.659,33.659,0,0,1-2.956,2.024l.1,1.639,1.083,1.734a9.188,9.188,0,0,1-.886,1.544c-.3.29-.592,1.446-.887,1.735a14.81,14.81,0,0,1-1.675.963c-.3.192-1.083,1.253-1.477,1.445s-2.365.579-2.661.677a22.62,22.62,0,0,1-2.561,0l-2.365-.579-2.758-1.735-1.774-2.506a7.987,7.987,0,0,0-2.168,0c-.295.192-.689,1.349-1.478,2.217a7.151,7.151,0,0,1-2.758,1.638c-.591.191-.3,2.892-.3,2.892l2.955.194-.591.867-.092.114,3.147.886A5.975,5.975,0,0,1,318.848,705a3.293,3.293,0,0,0,.936,0l2.315,1.785h4.015c2.764,0,3.079,1.116,3.079,1.116l.394.711a47.219,47.219,0,0,0,5.222,5.49c.478.447,1.084-.176,2.069.385a9.752,9.752,0,0,1,2.164,2.171h2.324s-.228-1.616-.228-2.171,2.053-1.677,2.053-1.677a7.35,7.35,0,0,0,1.824-.732c.964-.431,1.369,0,1.369,0l1.6,2.409a6.351,6.351,0,0,1,.912,2.171,9.784,9.784,0,0,1-.912,2.555,9.278,9.278,0,0,1-1.824,2.969c-1.6,2.009-1.369.893-2.281,2.455s-5.017,3.347-5.017,3.347l-4.049,1.562-2.069.893a4.585,4.585,0,0,1-.952,2.008c-.684.67,0,1.092,0,1.092v2.032l-2.6,2.44a27.278,27.278,0,0,0,2.364,1.83l1.872,1.446,1.675,1.833-.3,2.41-.2,2.409a24.374,24.374,0,0,1,0,2.7,4.147,4.147,0,0,0,.428,1.5l4.16-.952Z" fill="#0080ff" stroke="#fff" stroke-linejoin="round" stroke-width="0.756"/>
    <path id="パス_439" data-name="パス 439" d="M366.509,711.329,353.5,708.2l-5.618-13.452.6-7.277,6.257-5.6-3.7-.386-3.564-6.218a2.344,2.344,0,0,1-.451.08c-.394,0-4.432-.579-4.432-.579l-5.025,6.172.3,1.734.69,1.446s-.788,3.279-.985,3.568a33.659,33.659,0,0,1-2.956,2.024l.1,1.639,1.083,1.734a9.188,9.188,0,0,1-.886,1.544c-.3.29-.592,1.446-.887,1.735a14.81,14.81,0,0,1-1.675.963c-.3.192-1.083,1.253-1.477,1.445s-2.365.579-2.661.677a22.62,22.62,0,0,1-2.561,0l-2.365-.579-2.758-1.735-1.774-2.506a7.987,7.987,0,0,0-2.168,0c-.295.192-.689,1.349-1.478,2.217a7.151,7.151,0,0,1-2.758,1.638c-.591.191-.3,2.892-.3,2.892l2.955.194-.591.867-.092.114,3.147.886A5.975,5.975,0,0,1,318.848,705a3.293,3.293,0,0,0,.936,0l2.315,1.785h4.015c2.764,0,3.079,1.116,3.079,1.116l.394.711a47.219,47.219,0,0,0,5.222,5.49c.478.447,1.084-.176,2.069.385a9.752,9.752,0,0,1,2.164,2.171h2.324s-.228-1.616-.228-2.171,2.053-1.677,2.053-1.677a7.35,7.35,0,0,0,1.824-.732c.964-.431,1.369,0,1.369,0l1.289,1.945,1.664-.445,6.74,6.518,12.469,1.734a3,3,0,0,1-.243-1.433,3.1,3.1,0,0,1,1.043-2.283.968.968,0,0,0,.22-.616.818.818,0,0,1,.649-.84,8.836,8.836,0,0,0,.875-.329,2.229,2.229,0,0,0,1.265-1.3.987.987,0,0,1,.483-.545,2.107,2.107,0,0,0,.566-.52Z" fill="#fff" stroke="#fff" stroke-width="1"/>
  </g>
</svg>
