<svg xmlns="http://www.w3.org/2000/svg" width="14.582" height="17.736" viewBox="0 0 14.582 17.736">
  <g id="グループ_2657" data-name="グループ 2657" transform="translate(19260.428 18430.863)">
    <path id="パス_4473" data-name="パス 4473" d="M142.9,131.87H132.832a2.262,2.262,0,0,1-2.26-2.26V116.393a2.262,2.262,0,0,1,2.259-2.259H142.9a2.262,2.262,0,0,1,2.26,2.259v13.218a2.262,2.262,0,0,1-2.259,2.259m-10.065-16.84a1.364,1.364,0,0,0-1.362,1.362v13.217a1.364,1.364,0,0,0,1.363,1.363H142.9a1.363,1.363,0,0,0,1.362-1.362V116.393a1.364,1.364,0,0,0-1.363-1.362Z" transform="translate(-19391 -18544.998)" fill="#50c3fd"/>
    <path id="長方形_1655" data-name="長方形 1655" d="M1.156,0h7A1.156,1.156,0,0,1,9.313,1.156V1.75A1.157,1.157,0,0,1,8.156,2.907h-7A1.157,1.157,0,0,1,0,1.75V1.156A1.156,1.156,0,0,1,1.156,0Z" transform="translate(-19257.793 -18428.68)" fill="#50c3fd"/>
    <rect id="長方形_1656" data-name="長方形 1656" width="2.207" height="2.206" transform="translate(-19257.795 -18424.449)" fill="#50c3fd"/>
    <rect id="長方形_1657" data-name="長方形 1657" width="2.206" height="2.206" transform="translate(-19254.24 -18424.449)" fill="#50c3fd"/>
    <rect id="長方形_1658" data-name="長方形 1658" width="2.206" height="2.206" transform="translate(-19250.686 -18424.449)" fill="#50c3fd"/>
    <rect id="長方形_1659" data-name="長方形 1659" width="2.207" height="2.207" transform="translate(-19257.795 -18421.018)" fill="#50c3fd"/>
    <rect id="長方形_1660" data-name="長方形 1660" width="2.206" height="2.207" transform="translate(-19254.24 -18421.018)" fill="#50c3fd"/>
    <rect id="長方形_1661" data-name="長方形 1661" width="2.206" height="2.207" transform="translate(-19250.686 -18421.018)" fill="#50c3fd"/>
    <rect id="長方形_1662" data-name="長方形 1662" width="2.207" height="2.206" transform="translate(-19257.795 -18417.584)" fill="#50c3fd"/>
    <rect id="長方形_1663" data-name="長方形 1663" width="2.206" height="2.206" transform="translate(-19254.24 -18417.584)" fill="#50c3fd"/>
    <rect id="長方形_1664" data-name="長方形 1664" width="2.206" height="2.206" transform="translate(-19250.686 -18417.584)" fill="#50c3fd"/>
  </g>
</svg>
