<svg xmlns="http://www.w3.org/2000/svg" width="23.93" height="18.018" viewBox="0 0 23.93 18.018">
  <g id="グループ_2226" data-name="グループ 2226" transform="translate(-206.535 -2336.992)">
    <path id="パス_3292" data-name="パス 3292" d="M229.7,2353.507l-11.3,1.034-11.1-1.034a.321.321,0,0,1-.3-.321v-13.7a.786.786,0,0,1,.844-.784l10.557.777,10.755-.778a.786.786,0,0,1,.844.784v13.7A.321.321,0,0,1,229.7,2353.507Z" fill="none" stroke="#fff" stroke-linecap="round" stroke-miterlimit="10" stroke-width="0.931"/>
    <path id="パス_3293" data-name="パス 3293" d="M227.861,2353.171l-9.361,1.3-9.361-1.3V2338.1a.643.643,0,0,1,.738-.637l8.623,1.27,8.623-1.27a.643.643,0,0,1,.738.637Z" fill="none" stroke="#fff" stroke-linecap="round" stroke-miterlimit="10" stroke-width="0.931"/>
    <line id="線_885" data-name="線 885" y2="15.308" transform="translate(218.617 2339.016)" fill="none" stroke="#fff" stroke-linecap="round" stroke-miterlimit="10" stroke-width="0.931"/>
  </g>
</svg>
