<svg xmlns="http://www.w3.org/2000/svg" width="13.25" height="17.736" viewBox="0 0 13.25 17.736">
  <g id="グループ_2658" data-name="グループ 2658" transform="translate(19154.927 18430.801)">
    <path id="パス_4474" data-name="パス 4474" d="M249.309,142.84c-.33-2.075-1.255-5.812-3.734-7.525a.38.38,0,0,0-.295-.058l-2.586.559-2.645-.519a.371.371,0,0,0-.291.063c-2.434,1.734-3.345,5.431-3.671,7.481a1.083,1.083,0,0,0,1.07,1.255h11.083a1.084,1.084,0,0,0,1.07-1.255m-3.45-3.488h-1.5a.34.34,0,0,1,0-.681h1.5a.34.34,0,1,1,0,.681" transform="translate(-19391 -18557.16)" fill="#8c4bb4"/>
    <path id="パス_4475" data-name="パス 4475" d="M246.546,124.5a3.8,3.8,0,1,1,3.8-3.8,3.762,3.762,0,0,1-.3,1.478.31.31,0,0,1-.57-.242A3.176,3.176,0,1,0,248,123.533a.31.31,0,1,1,.285.55,3.807,3.807,0,0,1-1.74.421" transform="translate(-19394.857 -18546.566)" fill="#8c4bb4"/>
    <path id="パス_4476" data-name="パス 4476" d="M248.591,122.349a.308.308,0,0,1-.174-.053l-1.872-1.266a.31.31,0,1,1,.347-.513l1.628,1.1a4.272,4.272,0,0,0,.78-2.478,4.323,4.323,0,0,0-8.646,0,.31.31,0,0,1-.62,0,4.943,4.943,0,1,1,8.8,3.093.309.309,0,0,1-.242.116" transform="translate(-19393.289 -18544.998)" fill="#8c4bb4"/>
  </g>
</svg>
