<svg xmlns="http://www.w3.org/2000/svg" width="34.871" height="36.234" viewBox="0 0 34.871 36.234">
  <g id="グループ_384" data-name="グループ 384" transform="translate(-183.592 -683.99)">
    <path id="パス_426" data-name="パス 426" d="M198.859,694.124l8.765,1.478a2.8,2.8,0,0,0,1.036-.02l8.283-1.72a.951.951,0,0,1,1.143.931v22.355a.824.824,0,0,1-.656.807l-8.888,1.846a2.191,2.191,0,0,1-.8.015l-11.442-1.93a2.229,2.229,0,0,0-.8.009l-9.472,1.818a.743.743,0,0,1-.884-.73V699.935" fill="none" stroke="#0080ff" stroke-miterlimit="10" stroke-width="0.756"/>
    <line id="線_153" data-name="線 153" y2="14.94" transform="translate(195.848 699.935)" fill="none" stroke="#0080ff" stroke-miterlimit="10" stroke-width="0.756"/>
    <line id="線_154" data-name="線 154" y2="17.885" transform="translate(208.003 698.603)" fill="none" stroke="#0080ff" stroke-miterlimit="10" stroke-width="0.756"/>
    <path id="パス_427" data-name="パス 427" d="M197.078,690.922c0,4.753-6.554,11.923-6.554,11.923s-6.554-6.989-6.554-11.923a6.554,6.554,0,1,1,13.108,0Z" fill="#abcbe6" stroke="#0080ff" stroke-miterlimit="10" stroke-width="0.756"/>
    <circle id="楕円形_40" data-name="楕円形 40" cx="2.256" cy="2.256" r="2.256" transform="translate(188.268 688.483)" fill="#fff"/>
  </g>
</svg>
