<svg xmlns="http://www.w3.org/2000/svg" width="13.924" height="17.555" viewBox="0 0 13.924 17.555">
  <g id="グループ_2306" data-name="グループ 2306" transform="translate(-2.146 0.002)">
    <path id="パス_449" data-name="パス 449" d="M542.7,350.224h-1.815v-1.816H542.7Zm0,3.631h-1.815v-1.816H542.7Zm0,3.63h-1.815v-1.813H542.7Zm0,3.633h-1.815V359.3H542.7Zm-3.632-10.893h-1.817v-1.816h1.817Zm0,3.631h-1.817v-1.816h1.817Zm0,3.63h-1.817v-1.813h1.817Zm-3.631-7.26h-1.816v-1.816h1.816Zm0,3.631h-1.816v-1.816h1.816Zm0,3.63h-1.816v-1.813h1.816Zm0,3.633h-1.816V359.3h1.816ZM531.2,345.985v17.554h6.053V359.3h1.817v4.235h6.053V345.985Z" transform="translate(-529.049 -345.986)" fill="#a8806d"/>
  </g>
</svg>
