<svg xmlns="http://www.w3.org/2000/svg" width="20.307" height="17.938" viewBox="0 0 20.307 17.938">
  <g id="グループ_2663" data-name="グループ 2663" transform="translate(18954.701 18327.035)">
    <path id="パス_4460" data-name="パス 4460" d="M441.247,225.552h0a.277.277,0,0,0,.393.056l4.773-3.7a.278.278,0,0,0,.049-.389c-1.45-1.87-2.544-3.289-2.544-3.289a.477.477,0,0,0-.9.1l-.238.529a1.141,1.141,0,0,1-1.237.619l-4.513-1.022a.559.559,0,0,0-.723.686l.341,2.026a1.43,1.43,0,0,0,1.022,1.072l2.525.544c.481.1.471.178-.019.164l-1.409-.044c-.493-.014-.721.326-.507.757a2,2,0,0,0,1.266.947l.312.058a2.594,2.594,0,0,1,1.405.887" transform="translate(-19391 -18544.998)" fill="#1ab446"/>
    <path id="パス_4461" data-name="パス 4461" d="M461.958,233.042c-.171-.718-.5-.37-.632-.122a11.914,11.914,0,0,1-2.545,3.4.279.279,0,0,1-.4-.035c-1.054-1.314-3.232-4.111-5.178-6.619a.276.276,0,0,0-.388-.048l-4.832,3.739a.277.277,0,0,0-.056.378l.446.638a.279.279,0,0,1,.034.254c-.807,2.173-2.295,6.387-2.295,6.387a1.065,1.065,0,0,0,.654,1.36,1.031,1.031,0,0,0,1.315-.66l2.028-4.146a.276.276,0,0,1,.474-.038l.344.49a.279.279,0,0,1-.006.323,1.732,1.732,0,0,0-.34.995l-.01.479h-.124c-2.32,0-2.448,2.577-.13,2.577h7.215c2.345,0,3.126-1.777,2.473-3.646a.278.278,0,0,1,.056-.284c.96-1.02,2.524-3.115,1.893-5.422" transform="translate(-19396.498 -18551.533)" fill="#1ab446"/>
  </g>
</svg>
