<svg xmlns="http://www.w3.org/2000/svg" width="21.588" height="17.736" viewBox="0 0 21.588 17.736">
  <g id="グループ_2662" data-name="グループ 2662" transform="translate(19060.428 18327.098)">
    <path id="パス_4469" data-name="パス 4469" d="M350.774,221.851h-4.031v-2.558a1.393,1.393,0,0,0-1.392-1.392h-7.974a1.389,1.389,0,0,0-1.388,1.388v2.562h-4.024a1.394,1.394,0,0,0-1.393,1.393v11a1.39,1.39,0,0,0,1.388,1.388h18.812a1.39,1.39,0,0,0,1.388-1.388V223.238a1.388,1.388,0,0,0-1.387-1.386m.428,12.4a.431.431,0,0,1-.43.43H331.96a.431.431,0,0,1-.43-.43v-11a.436.436,0,0,1,.435-.435h4.5a.479.479,0,0,0,.479-.479v-3.041a.431.431,0,0,1,.431-.43h7.974a.435.435,0,0,1,.434.434v3.037a.479.479,0,0,0,.479.479h4.51a.429.429,0,0,1,.428.428Z" transform="translate(-19391 -18544.998)" fill="#4191fc"/>
    <path id="パス_4470" data-name="パス 4470" d="M354.968,227.365v-1.212h-1.533V224.62h-1.212v1.533H350.69v1.212h1.533V228.9h1.212v-1.533Z" transform="translate(-19402.463 -18548.826)" fill="#4191fc"/>
    <rect id="長方形_1643" data-name="長方形 1643" width="1.81" height="1.81" transform="translate(-19056.361 -18317.502)" fill="#4191fc"/>
    <rect id="長方形_1644" data-name="長方形 1644" width="1.81" height="1.81" transform="translate(-19052.48 -18317.502)" fill="#4191fc"/>
    <rect id="長方形_1645" data-name="長方形 1645" width="1.81" height="1.81" transform="translate(-19048.6 -18317.502)" fill="#4191fc"/>
    <rect id="長方形_1646" data-name="長方形 1646" width="1.81" height="1.81" transform="translate(-19044.715 -18317.502)" fill="#4191fc"/>
    <rect id="長方形_1647" data-name="長方形 1647" width="1.81" height="1.81" transform="translate(-19056.361 -18314.225)" fill="#4191fc"/>
    <rect id="長方形_1648" data-name="長方形 1648" width="1.81" height="1.81" transform="translate(-19052.48 -18314.225)" fill="#4191fc"/>
    <rect id="長方形_1649" data-name="長方形 1649" width="1.81" height="1.81" transform="translate(-19048.6 -18314.225)" fill="#4191fc"/>
    <rect id="長方形_1650" data-name="長方形 1650" width="1.81" height="1.81" transform="translate(-19044.715 -18314.225)" fill="#4191fc"/>
  </g>
</svg>
