<svg xmlns="http://www.w3.org/2000/svg" width="14.764" height="17.736" viewBox="0 0 14.764 17.736">
  <g id="グループ_2659" data-name="グループ 2659" transform="translate(19052.32 18430.938)">
    <path id="パス_4455" data-name="パス 4455" d="M354.463,129.989h-1.211a9.736,9.736,0,0,0,.3-2.066h1.538a5.137,5.137,0,0,1-.624,2.066m-.9,1.188a5.242,5.242,0,0,1-1.2.9,6.47,6.47,0,0,0,.611-1.2h.874c-.09.1-.181.208-.28.3m-3.278-1.188v-2.066h2.376a8.767,8.767,0,0,1-.333,2.066Zm1.487,1.345a3.506,3.506,0,0,1-.922,1.1,1.924,1.924,0,0,1-.432.243c-.044,0-.089.007-.133.01v-1.812h1.718c-.073.161-.149.318-.232.462m-1.487-6.361h2.04a8.767,8.767,0,0,1,.331,2.066h-2.371Zm0-2.7c.044,0,.089.006.133.011a1.907,1.907,0,0,1,.432.243,3.93,3.93,0,0,1,1.156,1.559h-1.72Zm3.278,1.509c.1.1.19.2.28.3h-.874a6.863,6.863,0,0,0-.422-.9c-.06-.107-.127-.205-.191-.306a5.256,5.256,0,0,1,1.207.9m.9,1.187a5.156,5.156,0,0,1,.623,2.066h-1.533a9.7,9.7,0,0,0-.3-2.066Zm-5.063-.882h-1.718c.073-.163.149-.318.231-.462a3.5,3.5,0,0,1,.922-1.1,1.919,1.919,0,0,1,.432-.243c.044-.005.089-.008.133-.011Zm0,2.948h-2.377a8.739,8.739,0,0,1,.335-2.066H349.4Zm0,2.949h-2.04a8.749,8.749,0,0,1-.331-2.066H349.4Zm0,2.7c-.044,0-.089-.005-.133-.01a1.936,1.936,0,0,1-.432-.243,3.948,3.948,0,0,1-1.155-1.56h1.72Zm-3.278-1.508c-.1-.1-.19-.2-.279-.3h.874a6.8,6.8,0,0,0,.422.9c.061.107.126.206.192.305a5.232,5.232,0,0,1-1.209-.9m-.9-1.188a5.129,5.129,0,0,1-.622-2.066h1.531a9.689,9.689,0,0,0,.3,2.066Zm0-5.015h1.212a9.845,9.845,0,0,0-.3,2.066H344.6a5.154,5.154,0,0,1,.621-2.066m.9-1.187a5.245,5.245,0,0,1,1.207-.9,6.318,6.318,0,0,0-.612,1.2h-.874c.09-.105.181-.208.279-.3m3.722-2.59a6.285,6.285,0,1,0,6.331,6.285,6.309,6.309,0,0,0-6.331-6.285" transform="translate(-19393.732 -18549.055)" fill="#aad741"/>
    <path id="パス_4456" data-name="パス 4456" d="M351.144,132.894a7.754,7.754,0,0,1-10.615-2.533,7.624,7.624,0,0,1,2.552-10.537l-.372-.6a8.326,8.326,0,0,0-2.786,11.509,8.464,8.464,0,0,0,11.593,2.766Z" transform="translate(-19391 -18547.932)" fill="#aad741"/>
    <path id="パス_4457" data-name="パス 4457" d="M353.039,116.48h3.328c.343,0,.62-.115.62-.456s-.656-.67-1-.67H355.3l-1.4-1.25c-.07-.077-.348-.027-.432-.027-.1,0-.081.166-.041.262l.409,1.015h-.979l-.538-.847a.338.338,0,0,0-.587.226l-.008.621v.183c0,.52.63.942,1.313.942" transform="translate(-19398.375 -18544.998)" fill="#aad741"/>
  </g>
</svg>
