<svg xmlns="http://www.w3.org/2000/svg" width="198.63" height="30.82" viewBox="0 0 198.63 30.82"><defs><style>.cls-1{fill:#003893;}</style></defs><g id="レイヤー_2" data-name="レイヤー 2"><g id="レイヤー_3" data-name="レイヤー 3"><path class="cls-1" d="M.51,4.14H10V5.2H.51Z"/><path class="cls-1" d="M15.88,4.92,15.41,5V8.61c0,.81-.34.93-1.56.93a2.77,2.77,0,0,0-.25-.77h.53c.44,0,.49,0,.49-.17V5.1l-1.69.21a8.43,8.43,0,0,1-.86,4.22,2.92,2.92,0,0,0-.66-.44,7.4,7.4,0,0,0,.75-3.69l-.3,0a.21.21,0,0,1-.15.15l-.29-.9.74-.07V1.42H13A9.29,9.29,0,0,0,13.41,0l1.14.28c0,.08-.12.12-.25.12-.1.29-.25.69-.4,1h1.51V4.28l.46,0Zm-3-.38,1.69-.18V2.19H12.93Zm.77-.42a4.26,4.26,0,0,0-.52-1.36l.59-.24a4.22,4.22,0,0,1,.56,1.33Zm.51,1.43c0,.06-.06.11-.19.14v2.2h-.59V5.5Zm5.72-.94.6.22c0,.06-.07.09-.1.13a6.57,6.57,0,0,1-1.5,2.8,6,6,0,0,0,2.19,1,3.26,3.26,0,0,0-.59.79,5.86,5.86,0,0,1-2.26-1.17A6.71,6.71,0,0,1,16.1,9.55a3.32,3.32,0,0,0-.52-.8,6,6,0,0,0,2-1,6.5,6.5,0,0,1-1.19-2l.74-.18H16.11V4.64h3.66ZM17.44,1.24v.57a3.24,3.24,0,0,1-1,2.6,3.45,3.45,0,0,0-.69-.56,2.41,2.41,0,0,0,.84-2.06V.41h3.1V2.76c0,.28,0,.37.19.37.41,0,.46,0,.5-.25s0-.45,0-.86a1.94,1.94,0,0,0,.71.38c-.05,1-.08,1.47-.95,1.47h-.53c-.83,0-.83-.6-.83-1.13V1.24Zm-.23,4.25a5.18,5.18,0,0,0,1,1.65A5.41,5.41,0,0,0,19.3,5.49Z"/><path class="cls-1" d="M26.8,2.25a.26.26,0,0,1-.14.13A10.41,10.41,0,0,1,25.3,4.72c.5.33,1.41,1,1.66,1.2l-.57.79c-.26-.27-.77-.74-1.22-1.13v4h-1V6a9,9,0,0,1-1.39,1.13,3.7,3.7,0,0,0-.49-.9,8.75,8.75,0,0,0,3.16-3.38H22.62V1.92h1.59V0L25.4.08c0,.08-.07.14-.23.17V1.92H26l.16,0Zm3,6h2.32v1H26.29v-1H28.8V4.23H26.71v-1H28.8V.09L30,.17c0,.08-.08.15-.24.17V3.28h2.08v1H29.79Z"/><path class="cls-1" d="M33.76.47h8.7V9.53h-1V9.08H34.73v.45h-1Zm1,7.69h6.72V1.39H34.73ZM41.07,3v.82H39.7v3c0,.91-.4,1-2,1A3.42,3.42,0,0,0,37.39,7l.85,0c.53,0,.56,0,.56-.2V3.82H35.19V3H38.8V1.71l1.13.05c0,.09-.07.15-.23.17V3ZM37,6.42a6.44,6.44,0,0,0-1.17-1.83l.7-.37A6.65,6.65,0,0,1,37.75,6Z"/><path class="cls-1" d="M44.63,2.86a9,9,0,0,1,2,1l-.53.82a7.85,7.85,0,0,0-2-1Zm-.17,5.92A29.62,29.62,0,0,0,46.3,5.49l.72.62A32.38,32.38,0,0,1,45.4,9.16a.26.26,0,0,1,.07.18.24.24,0,0,1,0,.14ZM45.23.06a8.6,8.6,0,0,1,2,1.06l-.56.79a8.52,8.52,0,0,0-2-1.13Zm8.43,4.18v.92h-3.9l.42.13a.29.29,0,0,1-.26.13A22.15,22.15,0,0,1,48.79,8l3-.17c-.31-.47-.66-.93-1-1.34l.82-.44A12.54,12.54,0,0,1,53.6,9l-.9.51a7.55,7.55,0,0,0-.4-.82c-1.78.15-3.62.28-4.81.36a.22.22,0,0,1-.17.15L47,8.12l.79,0A20.77,20.77,0,0,0,48.9,5.16h-2V4.24h2.8V2.51H47.45V1.59h2.29V0L51,.09c0,.1-.1.2-.27.23V1.59h2.36v.92H50.73V4.24Z"/><path class="cls-1" d="M60.55.4c0,.1-.1.15-.25.18l0,.38c.11,1.53.74,5.94,4.53,7.66a2.86,2.86,0,0,0-.74.83,8.37,8.37,0,0,1-4.23-5.59,8.62,8.62,0,0,1-4,5.58A3.29,3.29,0,0,0,55,8.69c4.17-2.2,4.11-7,4.18-8.4Z"/><path class="cls-1" d="M5.65,20.33a.37.37,0,0,1-.2.19,14.5,14.5,0,0,1-1.74,3.24c.58.43,1.62,1.29,2,1.57V24.24h7.56V30.7H11.89v-.56H7v.64H5.68V25.4l-.77,1.13c-.29-.36-.86-.93-1.36-1.42v5.67H2.21V25.56A12.51,12.51,0,0,1,.67,26.91,4.72,4.72,0,0,0,0,25.65a11.65,11.65,0,0,0,3.85-4.52H.31V19.89h1.9V17.16l1.67.1c0,.12-.1.21-.33.24v2.39h1l.22-.05Zm-.29-2.67h8.31v1.17H5.36Zm1.12,2h6v3.72h-6Zm2.28,5.73H7v1.22H8.76ZM7,29H8.76V27.73H7Zm4.22-6.68V20.74H7.72v1.57Zm.7,4.3V25.39H10v1.22ZM10,29h1.86V27.73H10Z"/><path class="cls-1" d="M28.5,17.9V29.21c0,1.45-.7,1.58-3,1.58A6.38,6.38,0,0,0,25,29.5c.49,0,1,0,1.35,0,.64,0,.78,0,.78-.35v-10h-9.6V30.76H16.2V17.9ZM25.71,28.77h-1.2v-.72H20V29H18.85V24l1.49.09c0,.12-.11.19-.32.22V26.9h1.6V23.08H18.15V21.93h2a7.22,7.22,0,0,0-1-2.18l1.09-.38a6.62,6.62,0,0,1,1.07,2.17l-1,.39h3.88c-.28-.12-.64-.25-.89-.34a14.2,14.2,0,0,0,1.05-2.31l1.51.48a.38.38,0,0,1-.35.15,16.16,16.16,0,0,1-1.13,2h2.31v1.15H23.18a.41.41,0,0,1-.29.14V26.9h1.62V24l1.52.09c0,.12-.11.19-.32.22Z"/><path class="cls-1" d="M35.84,27.8a.34.34,0,0,1-.37.14,16.06,16.06,0,0,1-3.41,2.68A9.58,9.58,0,0,0,31,29.7a10.93,10.93,0,0,0,3.24-2.53Zm8.4-1.15H38.38v4.11H36.93V26.65H33.18V27H31.8V18.5l1.73.1c0,.13-.12.2-.35.25v6.58H44.24Zm-1.66-8.94v6.78H34.49V17.71Zm-1.34,1.95v-1H35.78v1Zm0,1.92v-1H35.78v1Zm0,1.93v-1H35.78v1Zm1.83,7.12a28,28,0,0,0-3.4-2.77l1.17-.74a34.62,34.62,0,0,1,3.48,2.65Z"/><path class="cls-1" d="M59.76,26.14v1.18H56.51v2c0,1.4-.7,1.41-3.29,1.41a5.77,5.77,0,0,0-.43-1.2c.53,0,1.07,0,1.48,0,.86,0,.89,0,.89-.28v-2H46.54V26.14h8.62v-1h-7V20.26h4.34v-.85H46.86V18.25h5.59V17.18l1.7.1c0,.11-.1.2-.35.23v.74h5.71v1.16H53.8v.85h4.55v4.89H56.17v0h.67c0,.12-.09.21-.33.24v.72Zm-10,1.18a12.32,12.32,0,0,1,2.27,2l-1.09.84a11.79,11.79,0,0,0-2.21-2.09Zm-.35-6.09v1h3.05v-1Zm0,1.93v1h3.05v-1ZM57,21.23H53.8v1H57Zm0,2.95v-1H53.8v1Z"/><path class="cls-1" d="M63,23.13A16.53,16.53,0,0,1,61.72,25a11,11,0,0,0-.61-1.42,19.16,19.16,0,0,0,3-6.3l1.54.51c0,.11-.16.16-.36.16a29.71,29.71,0,0,1-1.08,2.79l.38.12c0,.1-.13.19-.34.22v9.78H63Zm11.85-3.29H73.69a7.94,7.94,0,0,1-1.83,2.42,11.49,11.49,0,0,0,3.51,1.19,5.56,5.56,0,0,0-.77,1.12A11.27,11.27,0,0,1,70.88,23a12.7,12.7,0,0,1-3.55,1.63,7.3,7.3,0,0,0-.76-1,11.85,11.85,0,0,0,3.31-1.35,9.16,9.16,0,0,1-1.39-1.5A9.07,9.07,0,0,1,67.37,22a8.11,8.11,0,0,0-.86-.7v7h-1.2V19l1.52.1c0,.12-.1.19-.32.22v1.89a10.17,10.17,0,0,0,2.59-4l1.47.43a.3.3,0,0,1-.34.16,10.67,10.67,0,0,1-.45,1h5Zm.32,7.57c0,.08-.14.14-.33.13-1.43,1.58-4.08,2.61-7.15,3.16A5.21,5.21,0,0,0,67,29.61c2.85-.4,5.48-1.29,6.77-2.73Zm-2.86-3.08c0,.1-.13.14-.28.14a11,11,0,0,1-3.7,2,4.29,4.29,0,0,0-.74-.8A9.24,9.24,0,0,0,71,23.88Zm1.42,1.36c0,.09-.14.13-.29.13a11.63,11.63,0,0,1-5,2.52,4.47,4.47,0,0,0-.68-.89,10.25,10.25,0,0,0,4.75-2.21Zm-4.56-5.85h0a7,7,0,0,0,1.68,1.74,6.81,6.81,0,0,0,1.46-1.75Z"/><path class="cls-1" d="M90.22,25.62V26.9H84.38v2.34c0,1.45-.75,1.57-3.57,1.57a6.1,6.1,0,0,0-.58-1.34c.62,0,1.25,0,1.71,0,1,0,1,0,1-.31V26.9H77.2V25.62H83V24.49l.78,0a12.07,12.07,0,0,0,1.53-1.09H79.72V22.22h6.94l.24-.06L88,22.8a.5.5,0,0,1-.28.16,15.51,15.51,0,0,1-3.3,2.47v.19ZM78.8,20.79V23H77.51v-3.4H79.6a11.38,11.38,0,0,0-1.16-1.7l1.18-.54A8.61,8.61,0,0,1,81,19.37l-.39.19H83.2a9.64,9.64,0,0,0-1-2l1.21-.45a9,9,0,0,1,1.2,2.27l-.5.2H86.3a15.94,15.94,0,0,0,1.5-2.31,14.82,14.82,0,0,1,1.59.61c0,.12-.17.16-.36.14a15.63,15.63,0,0,1-1.18,1.56H90V23H88.65V20.79Z"/><path class="cls-1" d="M96,22.48c.42.54,1.63,2.31,1.89,2.73l-.77,1c-.22-.49-.69-1.35-1.12-2.09v6.61H94.75V24.43a14.07,14.07,0,0,1-1.69,3.66,5.67,5.67,0,0,0-.66-1.24,16.16,16.16,0,0,0,2.23-5.31H92.72V20.26h2v-3.1l1.61.09c0,.12-.1.2-.33.23v2.78h1.71v1.28H96Zm7.82-1.67a14.41,14.41,0,0,1,2.39,3.11l-1.16.67a4.65,4.65,0,0,0-.41-.73c0,.12-.16.17-.33.17a11.47,11.47,0,0,1-1.61,3.25,9.27,9.27,0,0,0,3.54,2.31,5.55,5.55,0,0,0-1,1.22,9.68,9.68,0,0,1-3.47-2.49A10.58,10.58,0,0,1,98,30.82a6.24,6.24,0,0,0-.72-1.09A9,9,0,0,0,101,27.3a14.14,14.14,0,0,1-1.74-3.4l1.19-.33a10.72,10.72,0,0,0,1.4,2.66,9.39,9.39,0,0,0,1.2-2.75l1.6.37a17.67,17.67,0,0,0-1.87-2.45Zm-2.66.64a.33.33,0,0,1-.32.13,11.24,11.24,0,0,1-2.41,3.12,6.64,6.64,0,0,0-.95-.87,9,9,0,0,0,2.24-3ZM106,19.27v1.28H97.89V19.27h3.33V17.16l1.7.09c0,.13-.11.2-.34.25v1.77Z"/><path class="cls-1" d="M118.48,18.51l1.08.61a.46.46,0,0,1-.23.16A12.49,12.49,0,0,1,116,22.89a19.94,19.94,0,0,0,5.7,2,6.27,6.27,0,0,0-.91,1.27c-.52-.12-1-.25-1.54-.41v5h-1.39V30.2h-6.15v.59h-1.33v-5c-.61.22-1.24.41-1.85.57a4.58,4.58,0,0,0-.71-1.23,21,21,0,0,0,5.74-2.23,14.11,14.11,0,0,1-2.24-2.12,16.28,16.28,0,0,1-2.31,1.7,9.65,9.65,0,0,0-.94-1A13,13,0,0,0,112.8,17l1.51.6a.41.41,0,0,1-.38.13c-.17.27-.37.55-.58.83h4.9Zm-.35,6.88a18.81,18.81,0,0,1-3.4-1.66,22.36,22.36,0,0,1-3.32,1.66ZM111.68,29h6.15V26.62h-6.15Zm.64-9.18-.11.13a11.11,11.11,0,0,0,2.51,2.22,11.61,11.61,0,0,0,2.56-2.35Z"/><path class="cls-1" d="M136.79,29.38v1.11h-8.9V29.38h3.85v-1h-3.05V27.33h3.05v-.78h-2.81v-4.8h2.81V21h-3.37V19.89h3.37v-1c-.93.09-1.89.18-2.78.22a5.45,5.45,0,0,0-.3-.95.45.45,0,0,1-.34.08,16.43,16.43,0,0,1-1.61.67v2.48h1.73v1.28h-1.73v.67c.41.39,1.63,1.73,1.89,2.08l-.81,1.06a19,19,0,0,0-1.08-1.72v6h-1.32V25a15.11,15.11,0,0,1-1.66,3.37,7,7,0,0,0-.67-1.31,14.75,14.75,0,0,0,2.11-4.34h-1.92V21.39h2.14V19.31c-.6.18-1.22.32-1.8.45a5.54,5.54,0,0,0-.42-1,17.05,17.05,0,0,0,4.38-1.61l1.11,1,0-.05a39.47,39.47,0,0,0,6.49-.93l1,1a.37.37,0,0,1-.32,0,25.65,25.65,0,0,1-2.78.51v1.16h3.55V21h-3.55v.75H136v4.8h-2.94v.78h3.14v1.08h-3.14v1Zm-6.61-5.71h1.56v-.9h-1.56Zm1.56,1.88v-.93h-1.56v.93Zm1.32-2.78v.9h1.63v-.9Zm1.63,1.85h-1.63v.93h1.63Z"/><path class="cls-1" d="M151.82,25.62V26.9H146v2.34c0,1.45-.75,1.57-3.57,1.57a5.66,5.66,0,0,0-.58-1.34c.62,0,1.25,0,1.71,0,1,0,1.05,0,1.05-.31V26.9H138.8V25.62h5.78V24.49l.78,0a12.07,12.07,0,0,0,1.53-1.09h-5.58V22.22h6.95l.23-.06,1.06.64a.5.5,0,0,1-.28.16,15.51,15.51,0,0,1-3.3,2.47v.19Zm-11.43-4.83V23H139.1v-3.4h2.09a11.38,11.38,0,0,0-1.16-1.7l1.18-.54a9,9,0,0,1,1.41,2.05l-.39.19h2.57a10.71,10.71,0,0,0-1-2l1.2-.45a9,9,0,0,1,1.21,2.27l-.51.2h2.22a15.14,15.14,0,0,0,1.5-2.31,16.35,16.35,0,0,1,1.6.61c-.06.12-.18.16-.37.14a17.11,17.11,0,0,1-1.17,1.56h2.16V23h-1.36V20.79Z"/><path class="cls-1" d="M157.62,22.48c.42.54,1.63,2.31,1.89,2.73l-.77,1c-.22-.49-.68-1.35-1.12-2.09v6.61h-1.28V24.43a14.08,14.08,0,0,1-1.68,3.66,5.71,5.71,0,0,0-.67-1.24,16.16,16.16,0,0,0,2.24-5.31h-1.92V20.26h2v-3.1l1.62.09c0,.12-.11.2-.34.23v2.78h1.72v1.28h-1.72Zm7.82-1.67a14.48,14.48,0,0,1,2.4,3.11l-1.17.67a5.46,5.46,0,0,0-.4-.73c-.05.12-.16.17-.34.17a11.47,11.47,0,0,1-1.61,3.25,9.23,9.23,0,0,0,3.55,2.31,5.59,5.59,0,0,0-1,1.22,9.68,9.68,0,0,1-3.47-2.49,10.49,10.49,0,0,1-3.85,2.5,6.81,6.81,0,0,0-.71-1.09,9,9,0,0,0,3.75-2.43,13.81,13.81,0,0,1-1.75-3.4l1.19-.33a11.07,11.07,0,0,0,1.4,2.66,9.39,9.39,0,0,0,1.2-2.75l1.6.37a16.92,16.92,0,0,0-1.87-2.45Zm-2.66.64a.33.33,0,0,1-.32.13,11.05,11.05,0,0,1-2.41,3.12,6.64,6.64,0,0,0-1-.87,9,9,0,0,0,2.24-3Zm4.85-2.18v1.28h-8.15V19.27h3.33V17.16l1.7.09c0,.13-.1.2-.34.25v1.77Z"/><path class="cls-1" d="M174.4,22.22h-1.63v8.54h-1.32V22.22h-1.73V21h1.73V17.16l1.65.1c0,.12-.11.19-.33.24V21h1.63Zm3.06,2.61.61.05c0,.35,0,4.78-.53,5.42-.29.4-.63.51-1.89.46a2.93,2.93,0,0,0-.28-1.09,6.12,6.12,0,0,0,.86,0,.34.34,0,0,0,.33-.16c.18-.24.28-1.17.35-3.65h-1a8,8,0,0,1-2,4.9,2.83,2.83,0,0,0-.76-.86,6.42,6.42,0,0,0,1.63-4h-1.28V24.85h1.37c0-.47,0-1,.05-1.45l1.47.1c0,.11-.11.2-.32.23,0,.38,0,.76-.06,1.12h1.18Zm4.87-5.68c-.29,3.78-.57,4-2.32,4h-.92a3,3,0,0,0-.35-1.16,13.53,13.53,0,0,0,1.37.06.55.55,0,0,0,.46-.14c.19-.17.32-.75.45-2.06H178.6A5.51,5.51,0,0,1,175,23.35a3.74,3.74,0,0,0-.7-1,4.4,4.4,0,0,0,3-2.57h-2.4V18.7h2.72a11.89,11.89,0,0,0,.17-1.54l1.59.12c0,.11-.12.2-.32.23,0,.41-.09.81-.15,1.19h2.52l.27,0,.73.12Zm0,5.68.63.05c0,.1,0,.24,0,.39-.09,3.4-.16,4.62-.46,5s-.64.51-2,.46a2.9,2.9,0,0,0-.29-1.12,7.52,7.52,0,0,0,.93.05.41.41,0,0,0,.37-.16c.14-.22.22-1.12.29-3.62h-1a7.6,7.6,0,0,1-2.13,4.87,3.31,3.31,0,0,0-.78-.86,6.08,6.08,0,0,0,1.73-4h-1.19V24.85h1.28c0-.47,0-1,.05-1.45l1.5.1c0,.11-.12.2-.3.23,0,.38,0,.76-.06,1.12h1.22Z"/><path class="cls-1" d="M188.18,22.93V21.87a17.2,17.2,0,0,1-2.57,1.55,5.62,5.62,0,0,0-.81-1.13,15.07,15.07,0,0,0,6.1-5.14l1.9.1a.39.39,0,0,1-.33.25,15.06,15.06,0,0,0,6.16,4.56,7.28,7.28,0,0,0-.89,1.25,19.77,19.77,0,0,1-2.61-1.54v1.16Zm-2.54,2.83V24.47H197.8v1.29h-6.92l.32.11c0,.11-.19.17-.39.17a27.61,27.61,0,0,1-1.42,2.82l5.43-.16a19.88,19.88,0,0,0-1.8-1.86l1.19-.64A19.19,19.19,0,0,1,197.64,30l-1.26.79c-.18-.29-.4-.64-.66-1-3.4.19-7,.35-9.24.45a.3.3,0,0,1-.25.22l-.49-1.56c.61,0,1.34,0,2.14,0a25.89,25.89,0,0,0,1.42-3.13ZM195,21.65a14.69,14.69,0,0,1-3.34-3.14,14.11,14.11,0,0,1-3.14,3.14Z"/></g></g></svg>